<svg width="400" height="300" viewBox="0 0 400 300" fill="none" xmlns="http://www.w3.org/2000/svg">
<rect x="0.5" y="0.5" width="399" height="299" fill="white"/>
<circle cx="184" cy="123" r="6" fill="#C2C2C2"/>
<circle cx="184" cy="158" r="6" fill="#448EF7"/>
<rect x="33" y="118" width="136" height="11" fill="#C2C2C2"/>
<path fill-rule="evenodd" clip-rule="evenodd" d="M180.763 121L184 124.398L187.237 121L188 121.801L184 126L180 121.801L180.763 121Z" fill="white"/>
<line x1="32" y1="140" x2="191" y2="140" stroke="#C2C2C2" stroke-width="2"/>
<rect x="33" y="153" width="136" height="10" fill="#448EF7"/>
<path fill-rule="evenodd" clip-rule="evenodd" d="M187.237 160L184 157.282L180.763 160L180 159.359L184 156L188 159.359L187.237 160Z" fill="white"/>
<rect x="33" y="167" width="99" height="6" fill="#448EF7"/>
<rect x="33" y="178" width="99" height="5" fill="#448EF7"/>
<rect x="208" y="70" width="160" height="160" fill="#F2F2F2"/>
<path d="M259 129V172H317.982V129H259V129ZM267.022 135.598C268.881 135.598 270.394 137.11 270.394 138.97C270.394 140.829 268.882 142.363 267.022 142.363C265.162 142.363 263.628 140.83 263.628 138.97C263.628 137.11 265.162 135.598 267.022 135.598ZM279.567 140.122L292.26 158.428C295.643 156.33 298.598 153.09 301.686 150.322L316.034 161.444V169.613H261.241L261.464 154.816C264.976 151.41 274.187 144.376 279.568 140.122L279.567 140.122Z" fill="#C2C2C2"/>
<rect x="0.5" y="0.5" width="399" height="299" stroke="#C2C2C2"/>
</svg>
