<svg width="400" height="300" viewBox="0 0 400 300" fill="none" xmlns="http://www.w3.org/2000/svg">
<rect x="0.5" y="0.5" width="399" height="299" fill="white"/>
<circle cx="200" cy="119" r="48" fill="#C1C6CD"/>
<path d="M222.845 105.265H216.615V101.221C216.615 99.571 215.958 97.9889 214.79 96.8219C213.621 95.6554 212.037 95 210.384 95H189.615C187.962 95 186.378 95.6554 185.209 96.8219C184.041 97.9888 183.384 99.571 183.384 101.221V105.265H177.154C176.052 105.265 174.996 105.702 174.216 106.48C173.438 107.258 173 108.313 173 109.412V112.108C173.81 113.782 175.075 115.194 176.65 116.184C178.226 117.174 180.048 117.702 181.91 117.707H195.846V114.679C195.846 114.061 196.348 113.56 196.968 113.56H203.032C203.652 113.56 204.154 114.061 204.154 114.679V117.707H218.09C219.952 117.702 221.774 117.174 223.35 116.184C224.925 115.194 226.19 113.782 227 112.108V109.412C227 108.313 226.562 107.258 225.784 106.48C225.004 105.702 223.947 105.265 222.845 105.265ZM187.538 101.221C187.538 100.671 187.757 100.144 188.146 99.7547C188.536 99.3659 189.064 99.1474 189.615 99.1474H210.384C210.935 99.1474 211.463 99.3659 211.853 99.7547C212.242 100.144 212.461 100.671 212.461 101.221V105.265H187.538V101.221ZM218.09 121.337C221.337 121.337 224.485 120.216 226.999 118.164V134.853C226.999 135.952 226.562 137.007 225.783 137.785C225.004 138.563 223.947 139 222.846 139H177.154C176.053 139 174.996 138.563 174.217 137.785C173.438 137.007 173 135.952 173 134.853V118.164C175.515 120.216 178.663 121.337 181.91 121.337H195.847V124.344C195.841 124.644 195.957 124.934 196.168 125.149C196.379 125.363 196.667 125.484 196.968 125.484H203.033C203.334 125.484 203.622 125.363 203.833 125.149C204.044 124.934 204.16 124.644 204.154 124.344V121.337H218.09Z" fill="#F1F2F4"/>
<rect x="106" y="181" width="164" height="16" fill="#DDE0E4"/>
<path d="M282 195L294 183M294 183H282M294 183V195" stroke="#448EF7" stroke-width="4" stroke-linecap="square"/>
<rect x="0.5" y="0.5" width="399" height="299" stroke="#C1C6CD"/>
</svg>
