<svg width="400" height="300" viewBox="0 0 400 300" fill="none" xmlns="http://www.w3.org/2000/svg">
<rect x="0.5" y="0.5" width="399" height="299" fill="white"/>
<circle cx="200" cy="119" r="48" fill="#C1C6CD"/>
<rect x="106" y="181" width="164" height="16" fill="#DDE0E4"/>
<path d="M282 195L294 183M294 183H282M294 183V195" stroke="#448EF7" stroke-width="4" stroke-linecap="square"/>
<path d="M190.518 97.8943L194.901 102.283C195.187 102.569 195.425 102.903 195.568 103.285C196.045 104.43 195.854 105.766 194.901 106.72L190.565 111.061C190.708 113.924 192.662 117.74 195.997 121.031C199.332 124.323 203.097 126.327 205.955 126.47L210.292 122.129C211.197 121.222 212.579 120.984 213.722 121.461C214.103 121.604 214.437 121.842 214.723 122.129L219.107 126.517C220.298 127.71 220.298 129.714 219.107 130.906L214.723 135.295C210.482 139.541 199.618 135.581 190.518 126.47C181.417 117.358 177.462 106.577 181.703 102.283L186.086 97.8945C187.325 96.7018 189.279 96.7018 190.518 97.8945V97.8943Z" fill="#F1F2F4"/>
<rect x="0.5" y="0.5" width="399" height="299" stroke="#C1C6CD"/>
</svg>
