<svg width="400" height="300" viewBox="0 0 400 300" fill="none" xmlns="http://www.w3.org/2000/svg">
<rect x="0.5" y="0.5" width="399" height="299" fill="white"/>
<rect x="67" y="142" width="190" height="16" fill="#C2C2C2"/>
<circle cx="302" cy="150" r="32" fill="#F2F2F2"/>
<path d="M295.362 136.626L298.431 139.698C298.631 139.899 298.798 140.132 298.898 140.4C299.231 141.201 299.098 142.136 298.431 142.804L295.396 145.843C295.496 147.847 296.863 150.518 299.198 152.822C301.533 155.126 304.168 156.529 306.169 156.629L309.204 153.59C309.838 152.955 310.805 152.789 311.606 153.123C311.872 153.223 312.106 153.39 312.306 153.59L315.375 156.662C316.208 157.497 316.208 158.9 315.375 159.734L312.306 162.807C309.338 165.779 301.733 163.007 295.362 156.629C288.992 150.251 286.223 142.704 289.192 139.698L292.26 136.626C293.128 135.791 294.495 135.791 295.362 136.626V136.626Z" fill="#448EF7"/>
<rect x="0.5" y="0.5" width="399" height="299" stroke="#C2C2C2"/>
</svg>
