<svg width="400" height="300" viewBox="0 0 400 300" fill="none" xmlns="http://www.w3.org/2000/svg">
<rect x="0.5" y="0.5" width="399" height="299" fill="white"/>
<rect x="203" y="68" width="160" height="160" fill="#F2F2F2"/>
<path d="M297.319 142.359C300.035 134.136 296.909 124.82 289.238 120.027C280.229 114.397 268.361 117.137 262.732 126.146C257.847 133.963 259.263 143.93 265.607 150.109" stroke="#C2C2C2" stroke-width="4" stroke-miterlimit="10" stroke-linecap="round" stroke-linejoin="round"/>
<path d="M308.393 147.665C313.733 133.873 308.718 117.794 295.711 109.667C280.98 100.462 261.576 104.942 252.372 119.673C244.24 132.686 246.788 149.345 257.647 159.399" stroke="#C2C2C2" stroke-width="4" stroke-miterlimit="10" stroke-linecap="round" stroke-linejoin="round"/>
<path d="M320.901 174.758L317.488 161.987C316.851 159.635 314.445 158.238 312.11 158.874C309.776 159.511 308.378 161.917 308.997 164.269L308.237 161.439C307.6 159.087 305.194 157.689 302.86 158.326C300.525 158.963 299.127 161.368 299.747 163.721L298.986 160.891C298.349 158.538 295.944 157.141 293.609 157.778C291.274 158.414 289.877 160.82 290.496 163.173L285.561 144.742C284.924 142.389 282.518 140.992 280.184 141.629C277.831 142.265 276.451 144.671 277.07 147.023L284.818 176.014L274.842 170.248C272.737 169.027 270.048 169.753 268.846 171.857C267.784 173.715 268.209 176.032 269.765 177.376C269.765 177.376 287.701 194.339 293.007 196.851C297.482 198.955 302.488 200.264 307.653 198.885C317.824 196.161 323.855 185.689 321.131 175.501L320.901 174.758Z" fill="#C2C2C2"/>
<rect x="37" y="104" width="80" height="14" fill="#C2C2C2"/>
<rect x="37" y="177" width="35" height="14" fill="#448EF7"/>
<rect x="37" y="124" width="150" height="7" fill="#E0E0E0"/>
<rect x="37" y="135" width="150" height="7" fill="#E0E0E0"/>
<rect x="37" y="146" width="110" height="7" fill="#E0E0E0"/>
<rect x="0.5" y="0.5" width="399" height="299" stroke="#C2C2C2"/>
</svg>
