<svg width="400" height="300" viewBox="0 0 400 300" fill="none" xmlns="http://www.w3.org/2000/svg">
<g clip-path="url(#clip0_100_1826)">
<rect width="400" height="300" fill="white"/>
<rect x="32" y="54" width="233" height="176" fill="#F2F2F2"/>
<rect x="298" y="54" width="233" height="176" fill="#F2F2F2"/>
<circle cx="303" cy="259" r="5" fill="#C2C2C2"/>
<circle cx="317" cy="259" r="5" fill="#E0E0E0"/>
<circle cx="331" cy="259" r="5" fill="#E0E0E0"/>
<rect x="50.15" y="124.177" width="86.2125" height="15.1613" fill="#C2C2C2"/>
<rect x="50.9062" y="195.436" width="37.8125" height="15.1613" fill="#448EF7"/>
<rect x="50.15" y="145.403" width="161.837" height="7.58065" fill="#E0E0E0"/>
<rect x="50.15" y="157.532" width="161.837" height="7.58065" fill="#E0E0E0"/>
<rect x="50.9062" y="169.661" width="118.731" height="7.58065" fill="#E0E0E0"/>
<rect x="316.15" y="124.177" width="86.2125" height="15.1613" fill="#C2C2C2"/>
<rect x="316.906" y="195.436" width="37.8125" height="15.1613" fill="#448EF7"/>
<rect x="316.15" y="145.403" width="161.837" height="7.58065" fill="#E0E0E0"/>
<rect x="316.15" y="157.532" width="161.837" height="7.58065" fill="#E0E0E0"/>
<rect x="316.906" y="169.661" width="118.731" height="7.58065" fill="#E0E0E0"/>
</g>
<rect x="0.5" y="0.5" width="399" height="299" stroke="#C2C2C2"/>
<defs>
<clipPath id="clip0_100_1826">
<rect width="400" height="300" fill="white"/>
</clipPath>
</defs>
</svg>
