<svg width="400" height="300" viewBox="0 0 400 300" fill="none" xmlns="http://www.w3.org/2000/svg">
<g clip-path="url(#clip0_100_2009)">
<rect width="400" height="300" fill="white"/>
<rect x="32" y="118" width="114" height="20" fill="#E0E0E0"/>
<rect x="33" y="221" width="50" height="20" fill="#448EF7"/>
<rect x="32" y="146" width="214" height="10" fill="#F2F2F2"/>
<rect x="32" y="162" width="214" height="10" fill="#F2F2F2"/>
<rect x="33" y="178" width="157" height="10" fill="#F2F2F2"/>
<path d="M57.5 59C43.4347 59 32 70.4347 32 84.5C32 98.5653 43.4347 110 57.5 110C71.5653 110 83 98.5653 83 84.5C83 70.4347 71.5653 59 57.5 59ZM63.62 71.1863C65.4991 71.1863 67.0022 72.6895 67.0022 74.5685C67.0022 76.4477 65.499 77.9507 63.62 77.9507C61.7409 77.9507 60.2378 76.4476 60.2378 74.5685C60.2378 72.6894 61.741 71.1863 63.62 71.1863ZM70.438 93.6263H44.5622C43.0056 93.6263 42.0925 91.8547 43.0056 90.6201L52.5613 77.3064C53.3129 76.2328 54.9235 76.2328 55.675 77.3064L61.2045 85.037C61.473 85.413 62.0096 85.413 62.2781 85.037L63.5666 83.2655C64.3182 82.1919 65.9288 82.1919 66.6803 83.2655L71.9948 90.6201C72.9074 91.8547 71.9948 93.6263 70.4382 93.6263H70.438Z" fill="#C2C2C2"/>
<rect x="278" y="118" width="114" height="20" fill="#E0E0E0"/>
<rect x="279" y="221" width="50" height="20" fill="#448EF7"/>
<rect x="278" y="146" width="214" height="10" fill="#F2F2F2"/>
<rect x="278" y="162" width="214" height="10" fill="#F2F2F2"/>
<rect x="279" y="178" width="157" height="10" fill="#F2F2F2"/>
<path d="M303.5 59C289.435 59 278 70.4347 278 84.5C278 98.5653 289.435 110 303.5 110C317.565 110 329 98.5653 329 84.5C329 70.4347 317.565 59 303.5 59ZM309.62 71.1863C311.499 71.1863 313.002 72.6895 313.002 74.5685C313.002 76.4477 311.499 77.9507 309.62 77.9507C307.741 77.9507 306.238 76.4476 306.238 74.5685C306.238 72.6894 307.741 71.1863 309.62 71.1863ZM316.438 93.6263H290.562C289.006 93.6263 288.093 91.8547 289.006 90.6201L298.561 77.3064C299.313 76.2328 300.924 76.2328 301.675 77.3064L307.204 85.037C307.473 85.413 308.01 85.413 308.278 85.037L309.567 83.2655C310.318 82.1919 311.929 82.1919 312.68 83.2655L317.995 90.6201C318.907 91.8547 317.995 93.6263 316.438 93.6263H316.438Z" fill="#C2C2C2"/>
<circle cx="283" cy="269" r="5" fill="#C2C2C2"/>
<circle cx="297" cy="269" r="5" fill="#E0E0E0"/>
<circle cx="311" cy="269" r="5" fill="#E0E0E0"/>
</g>
<rect x="0.5" y="0.5" width="399" height="299" stroke="#C2C2C2"/>
<defs>
<clipPath id="clip0_100_2009">
<rect width="400" height="300" fill="white"/>
</clipPath>
</defs>
</svg>
