<svg width="400" height="300" viewBox="0 0 400 300" fill="none" xmlns="http://www.w3.org/2000/svg">
<rect x="0.5" y="0.5" width="399" height="299" fill="white"/>
<rect x="93" y="118" width="114" height="20" fill="#E0E0E0"/>
<rect x="94" y="221" width="50" height="20" fill="#448EF7"/>
<rect x="93" y="146" width="214" height="10" fill="#F2F2F2"/>
<rect x="93" y="162" width="214" height="10" fill="#F2F2F2"/>
<rect x="94" y="178" width="157" height="10" fill="#F2F2F2"/>
<path d="M118.5 59C104.435 59 93 70.4347 93 84.5C93 98.5653 104.435 110 118.5 110C132.565 110 144 98.5653 144 84.5C144 70.4347 132.565 59 118.5 59ZM124.62 71.1863C126.499 71.1863 128.002 72.6895 128.002 74.5685C128.002 76.4477 126.499 77.9507 124.62 77.9507C122.741 77.9507 121.238 76.4476 121.238 74.5685C121.238 72.6894 122.741 71.1863 124.62 71.1863ZM131.438 93.6263H105.562C104.006 93.6263 103.093 91.8547 104.006 90.6201L113.561 77.3064C114.313 76.2328 115.924 76.2328 116.675 77.3064L122.204 85.037C122.473 85.413 123.01 85.413 123.278 85.037L124.567 83.2655C125.318 82.1919 126.929 82.1919 127.68 83.2655L132.995 90.6201C133.907 91.8547 132.995 93.6263 131.438 93.6263H131.438Z" fill="#C2C2C2"/>
<rect x="0.5" y="0.5" width="399" height="299" stroke="#C2C2C2"/>
</svg>
