<svg width="400" height="300" viewBox="0 0 400 300" fill="none" xmlns="http://www.w3.org/2000/svg">
<g clip-path="url(#clip0_100_1777)">
<rect width="400" height="300" fill="white"/>
<rect x="32" y="24" width="212" height="89" fill="#F2F2F2"/>
<path d="M109 47V90H167.982V47H109V47ZM117.022 53.5978C118.881 53.5978 120.394 55.1102 120.394 56.9701C120.394 58.8294 118.882 60.3634 117.022 60.3634C115.162 60.3634 113.628 58.8295 113.628 56.9701C113.628 55.1102 115.162 53.5978 117.022 53.5978ZM129.567 58.122L142.26 76.4282C145.643 74.33 148.598 71.0904 151.686 68.3221L166.034 79.4442V87.6128H111.241L111.464 72.8159C114.976 69.41 124.187 62.3756 129.568 58.1219L129.567 58.122Z" fill="#C2C2C2"/>
<rect x="32" y="127" width="114" height="20" fill="#E0E0E0"/>
<rect x="32" y="215" width="50" height="20" fill="#448EF7"/>
<rect x="32" y="155" width="212" height="10" fill="#F2F2F2"/>
<rect x="32" y="171" width="212" height="10" fill="#F2F2F2"/>
<rect x="32" y="187" width="212" height="10" fill="#F2F2F2"/>
<rect x="276" y="24" width="212" height="89" fill="#F2F2F2"/>
<path d="M353 47V90H411.982V47H353V47ZM361.022 53.5978C362.881 53.5978 364.394 55.1102 364.394 56.9701C364.394 58.8294 362.882 60.3634 361.022 60.3634C359.162 60.3634 357.628 58.8295 357.628 56.9701C357.628 55.1102 359.162 53.5978 361.022 53.5978ZM373.567 58.122L386.26 76.4282C389.643 74.33 392.598 71.0904 395.686 68.3221L410.034 79.4442V87.6128H355.241L355.464 72.8159C358.976 69.41 368.187 62.3756 373.568 58.1219L373.567 58.122Z" fill="#C2C2C2"/>
<rect x="276" y="127" width="114" height="20" fill="#E0E0E0"/>
<rect x="276" y="215" width="50" height="20" fill="#448EF7"/>
<rect x="276" y="155" width="212" height="10" fill="#F2F2F2"/>
<rect x="276" y="171" width="212" height="10" fill="#F2F2F2"/>
<rect x="276" y="187" width="212" height="10" fill="#F2F2F2"/>
<circle cx="281" cy="272" r="5" fill="#C2C2C2"/>
<circle cx="295" cy="272" r="5" fill="#E0E0E0"/>
<circle cx="309" cy="272" r="5" fill="#E0E0E0"/>
</g>
<rect x="0.5" y="0.5" width="399" height="299" stroke="#C2C2C2"/>
<defs>
<clipPath id="clip0_100_1777">
<rect width="400" height="300" fill="white"/>
</clipPath>
</defs>
</svg>
