<svg width="400" height="300" viewBox="0 0 400 300" fill="none" xmlns="http://www.w3.org/2000/svg">
<rect x="0.5" y="0.5" width="399" height="299" fill="white"/>
<rect x="75" y="37" width="214" height="89" fill="#F2F2F2"/>
<path d="M154 60V103H212.982V60H154V60ZM162.022 66.5978C163.881 66.5978 165.394 68.1102 165.394 69.9701C165.394 71.8294 163.882 73.3634 162.022 73.3634C160.162 73.3634 158.628 71.8295 158.628 69.9701C158.628 68.1102 160.162 66.5978 162.022 66.5978ZM174.567 71.122L187.26 89.4282C190.643 87.33 193.598 84.0904 196.686 81.3221L211.034 92.4442V100.613H156.241L156.464 85.8159C159.976 82.41 169.187 75.3756 174.568 71.1219L174.567 71.122Z" fill="#C2C2C2"/>
<rect x="75" y="140" width="114" height="20" fill="#E0E0E0"/>
<rect x="75" y="243" width="50" height="20" fill="#448EF7"/>
<rect x="75" y="168" width="214" height="10" fill="#F2F2F2"/>
<rect x="75" y="184" width="214" height="10" fill="#F2F2F2"/>
<rect x="75" y="200" width="157" height="10" fill="#F2F2F2"/>
<rect x="0.5" y="0.5" width="399" height="299" stroke="#C2C2C2"/>
</svg>
