<svg width="400" height="300" viewBox="0 0 400 300" fill="none" xmlns="http://www.w3.org/2000/svg">
<rect x="0.5" y="0.5" width="399" height="299" fill="white"/>
<path d="M144.472 94.0533C147.009 94.0533 149.286 94.6489 151.302 95.84C153.336 97.0133 154.947 98.6489 156.135 100.747C157.322 102.844 157.916 105.253 157.916 107.973V119.653C157.916 122.569 157.322 125.102 156.135 127.253C154.965 129.404 153.309 131.067 151.167 132.24C149.043 133.413 146.568 134 143.743 134C141.781 134 139.918 133.68 138.154 133.04C136.39 132.382 134.825 131.342 133.457 129.92L138.154 125.413C138.838 126.213 139.666 126.844 140.638 127.307C141.628 127.769 142.663 128 143.743 128C145.255 128 146.577 127.653 147.711 126.96C148.845 126.249 149.718 125.324 150.33 124.187C150.96 123.049 151.275 121.831 151.275 120.533V114.16L152.463 115.44C151.347 116.72 150.006 117.724 148.44 118.453C146.874 119.164 145.237 119.52 143.527 119.52C141.079 119.52 138.919 118.978 137.047 117.893C135.176 116.791 133.7 115.298 132.62 113.413C131.54 111.511 131 109.351 131 106.933C131 104.533 131.612 102.364 132.836 100.427C134.078 98.4711 135.716 96.9244 137.749 95.7867C139.783 94.6311 142.024 94.0533 144.472 94.0533ZM144.472 100.213C143.212 100.213 142.06 100.516 141.016 101.12C139.972 101.707 139.135 102.516 138.505 103.547C137.893 104.56 137.587 105.689 137.587 106.933C137.587 108.178 137.893 109.316 138.505 110.347C139.117 111.378 139.936 112.204 140.962 112.827C142.006 113.431 143.158 113.733 144.418 113.733C145.678 113.733 146.829 113.431 147.873 112.827C148.917 112.204 149.745 111.378 150.357 110.347C150.969 109.316 151.275 108.178 151.275 106.933C151.275 105.724 150.969 104.613 150.357 103.6C149.763 102.569 148.944 101.751 147.9 101.147C146.874 100.524 145.732 100.213 144.472 100.213Z" fill="#C2C2C2"/>
<path d="M175.848 94.0533C178.385 94.0533 180.662 94.6489 182.678 95.84C184.712 97.0133 186.323 98.6489 187.51 100.747C188.698 102.844 189.292 105.253 189.292 107.973V119.653C189.292 122.569 188.698 125.102 187.51 127.253C186.341 129.404 184.685 131.067 182.543 132.24C180.419 133.413 177.944 134 175.119 134C173.157 134 171.294 133.68 169.53 133.04C167.766 132.382 166.201 131.342 164.833 129.92L169.53 125.413C170.214 126.213 171.042 126.844 172.014 127.307C173.004 127.769 174.039 128 175.119 128C176.631 128 177.953 127.653 179.087 126.96C180.221 126.249 181.094 125.324 181.706 124.187C182.336 123.049 182.651 121.831 182.651 120.533V114.16L183.839 115.44C182.723 116.72 181.382 117.724 179.816 118.453C178.25 119.164 176.613 119.52 174.903 119.52C172.455 119.52 170.295 118.978 168.423 117.893C166.552 116.791 165.076 115.298 163.996 113.413C162.916 111.511 162.376 109.351 162.376 106.933C162.376 104.533 162.988 102.364 164.212 100.427C165.454 98.4711 167.092 96.9244 169.125 95.7867C171.159 94.6311 173.4 94.0533 175.848 94.0533ZM175.848 100.213C174.588 100.213 173.436 100.516 172.392 101.12C171.348 101.707 170.511 102.516 169.881 103.547C169.269 104.56 168.963 105.689 168.963 106.933C168.963 108.178 169.269 109.316 169.881 110.347C170.493 111.378 171.312 112.204 172.338 112.827C173.382 113.431 174.534 113.733 175.794 113.733C177.054 113.733 178.205 113.431 179.249 112.827C180.293 112.204 181.121 111.378 181.733 110.347C182.345 109.316 182.651 108.178 182.651 106.933C182.651 105.724 182.345 104.613 181.733 103.6C181.139 102.569 180.32 101.751 179.276 101.147C178.25 100.524 177.108 100.213 175.848 100.213Z" fill="#C2C2C2"/>
<path d="M195.486 133.2V126.613H202.154V133.2H195.486Z" fill="#C2C2C2"/>
<path d="M221.199 94.0533C223.737 94.0533 226.013 94.6489 228.029 95.84C230.063 97.0133 231.674 98.6489 232.862 100.747C234.05 102.844 234.644 105.253 234.644 107.973V119.653C234.644 122.569 234.05 125.102 232.862 127.253C231.692 129.404 230.036 131.067 227.894 132.24C225.77 133.413 223.296 134 220.47 134C218.508 134 216.645 133.68 214.882 133.04C213.118 132.382 211.552 131.342 210.184 129.92L214.882 125.413C215.566 126.213 216.393 126.844 217.365 127.307C218.355 127.769 219.39 128 220.47 128C221.982 128 223.305 127.653 224.439 126.96C225.573 126.249 226.445 125.324 227.057 124.187C227.687 123.049 228.002 121.831 228.002 120.533V114.16L229.19 115.44C228.074 116.72 226.733 117.724 225.168 118.453C223.602 119.164 221.964 119.52 220.254 119.52C217.806 119.52 215.646 118.978 213.775 117.893C211.903 116.791 210.427 115.298 209.347 113.413C208.267 111.511 207.727 109.351 207.727 106.933C207.727 104.533 208.339 102.364 209.563 100.427C210.805 98.4711 212.443 96.9244 214.477 95.7867C216.51 94.6311 218.751 94.0533 221.199 94.0533ZM221.199 100.213C219.939 100.213 218.787 100.516 217.743 101.12C216.699 101.707 215.862 102.516 215.233 103.547C214.621 104.56 214.315 105.689 214.315 106.933C214.315 108.178 214.621 109.316 215.233 110.347C215.844 111.378 216.663 112.204 217.689 112.827C218.733 113.431 219.885 113.733 221.145 113.733C222.405 113.733 223.557 113.431 224.601 112.827C225.644 112.204 226.472 111.378 227.084 110.347C227.696 109.316 228.002 108.178 228.002 106.933C228.002 105.724 227.696 104.613 227.084 103.6C226.49 102.569 225.671 101.751 224.628 101.147C223.602 100.524 222.459 100.213 221.199 100.213Z" fill="#C2C2C2"/>
<path d="M252.575 94.0533C255.113 94.0533 257.389 94.6489 259.405 95.84C261.439 97.0133 263.05 98.6489 264.238 100.747C265.426 102.844 266.02 105.253 266.02 107.973V119.653C266.02 122.569 265.426 125.102 264.238 127.253C263.068 129.404 261.412 131.067 259.27 132.24C257.146 133.413 254.672 134 251.846 134C249.884 134 248.021 133.68 246.258 133.04C244.494 132.382 242.928 131.342 241.56 129.92L246.258 125.413C246.941 126.213 247.769 126.844 248.741 127.307C249.731 127.769 250.766 128 251.846 128C253.358 128 254.681 127.653 255.815 126.96C256.948 126.249 257.821 125.324 258.433 124.187C259.063 123.049 259.378 121.831 259.378 120.533V114.16L260.566 115.44C259.45 116.72 258.109 117.724 256.544 118.453C254.978 119.164 253.34 119.52 251.63 119.52C249.182 119.52 247.022 118.978 245.151 117.893C243.279 116.791 241.803 115.298 240.723 113.413C239.643 111.511 239.103 109.351 239.103 106.933C239.103 104.533 239.715 102.364 240.939 100.427C242.181 98.4711 243.819 96.9244 245.853 95.7867C247.886 94.6311 250.127 94.0533 252.575 94.0533ZM252.575 100.213C251.315 100.213 250.163 100.516 249.119 101.12C248.075 101.707 247.238 102.516 246.608 103.547C245.997 104.56 245.691 105.689 245.691 106.933C245.691 108.178 245.997 109.316 246.608 110.347C247.22 111.378 248.039 112.204 249.065 112.827C250.109 113.431 251.261 113.733 252.521 113.733C253.781 113.733 254.933 113.431 255.977 112.827C257.02 112.204 257.848 111.378 258.46 110.347C259.072 109.316 259.378 108.178 259.378 106.933C259.378 105.724 259.072 104.613 258.46 103.6C257.866 102.569 257.047 101.751 256.004 101.147C254.978 100.524 253.835 100.213 252.575 100.213Z" fill="#C2C2C2"/>
<path d="M276.797 133.2L272.477 128.933L307.061 94.8L311.38 99.0933L276.797 133.2ZM303.281 134C301.499 134 299.87 133.573 298.394 132.72C296.937 131.849 295.767 130.693 294.885 129.253C294.003 127.796 293.562 126.178 293.562 124.4C293.562 122.658 294.012 121.058 294.912 119.6C295.812 118.142 297 116.978 298.475 116.107C299.951 115.236 301.553 114.8 303.281 114.8C305.063 114.8 306.692 115.236 308.167 116.107C309.643 116.96 310.813 118.116 311.677 119.573C312.559 121.013 313 122.622 313 124.4C313 126.178 312.559 127.796 311.677 129.253C310.813 130.693 309.643 131.849 308.167 132.72C306.692 133.573 305.063 134 303.281 134ZM303.281 128.507C304.019 128.507 304.703 128.32 305.333 127.947C305.981 127.573 306.494 127.076 306.872 126.453C307.25 125.831 307.439 125.147 307.439 124.4C307.439 123.653 307.25 122.969 306.872 122.347C306.494 121.724 305.981 121.227 305.333 120.853C304.703 120.48 304.019 120.293 303.281 120.293C302.525 120.293 301.832 120.48 301.202 120.853C300.572 121.227 300.059 121.724 299.663 122.347C299.285 122.969 299.096 123.653 299.096 124.4C299.096 125.147 299.285 125.831 299.663 126.453C300.059 127.076 300.572 127.573 301.202 127.947C301.832 128.32 302.525 128.507 303.281 128.507ZM280.576 113.2C278.794 113.2 277.166 112.773 275.69 111.92C274.214 111.049 273.035 109.893 272.153 108.453C271.289 106.996 270.857 105.378 270.857 103.6C270.857 101.858 271.307 100.258 272.207 98.8C273.107 97.3422 274.295 96.1778 275.771 95.3067C277.247 94.4356 278.848 94 280.576 94C282.358 94 283.978 94.4356 285.436 95.3067C286.912 96.16 288.09 97.3156 288.972 98.7733C289.854 100.213 290.295 101.822 290.295 103.6C290.295 105.378 289.854 106.996 288.972 108.453C288.09 109.893 286.912 111.049 285.436 111.92C283.978 112.773 282.358 113.2 280.576 113.2ZM280.576 107.707C281.332 107.707 282.025 107.52 282.655 107.147C283.285 106.773 283.789 106.276 284.167 105.653C284.545 105.031 284.734 104.347 284.734 103.6C284.734 102.853 284.545 102.169 284.167 101.547C283.789 100.924 283.285 100.427 282.655 100.053C282.025 99.68 281.332 99.4933 280.576 99.4933C279.82 99.4933 279.127 99.68 278.497 100.053C277.867 100.427 277.364 100.924 276.986 101.547C276.608 102.169 276.419 102.853 276.419 103.6C276.419 104.347 276.608 105.031 276.986 105.653C277.364 106.276 277.867 106.773 278.497 107.147C279.127 107.52 279.82 107.707 280.576 107.707Z" fill="#C2C2C2"/>
<rect x="131" y="152" width="200" height="10" fill="#E0E0E0"/>
<rect x="131" y="169" width="172" height="10" fill="#E0E0E0"/>
<rect x="131" y="197" width="39" height="16" fill="#448EF7"/>
<path d="M93.5 88C79.4347 88 68 99.4347 68 113.5C68 127.565 79.4347 139 93.5 139C107.565 139 119 127.565 119 113.5C119 99.4347 107.565 88 93.5 88ZM99.62 100.186C101.499 100.186 103.002 101.689 103.002 103.569C103.002 105.448 101.499 106.951 99.62 106.951C97.7409 106.951 96.2378 105.448 96.2378 103.569C96.2378 101.689 97.741 100.186 99.62 100.186ZM106.438 122.626H80.5622C79.0056 122.626 78.0925 120.855 79.0056 119.62L88.5613 106.306C89.3129 105.233 90.9235 105.233 91.675 106.306L97.2045 114.037C97.473 114.413 98.0096 114.413 98.2781 114.037L99.5666 112.265C100.318 111.192 101.929 111.192 102.68 112.265L107.995 119.62C108.907 120.855 107.995 122.626 106.438 122.626H106.438Z" fill="#C2C2C2"/>
<rect x="0.5" y="0.5" width="399" height="299" stroke="#C2C2C2"/>
</svg>
