<svg width="400" height="300" viewBox="0 0 400 300" fill="none" xmlns="http://www.w3.org/2000/svg">
<rect x="0.5" y="0.5" width="399" height="299" fill="white"/>
<rect x="266" y="160" width="100" height="66" fill="#F2F2F2"/>
<rect x="150" y="160" width="100" height="66" fill="#F2F2F2"/>
<rect x="34" y="160" width="100" height="66" fill="#F2F2F2"/>
<rect x="266" y="74" width="100" height="66" fill="#F2F2F2"/>
<rect x="150" y="74" width="100" height="66" fill="#F2F2F2"/>
<rect x="34" y="74" width="100" height="66" fill="#F2F2F2"/>
<path fill-rule="evenodd" clip-rule="evenodd" d="M91.6131 85.0585C88.1336 85.5956 85.0997 88.475 84.3319 91.9692C84.1789 92.6647 84.1087 93.7005 84.1876 94.0951L84.2101 94.208H84.6885C86.8748 94.208 89.2275 92.8148 90.6787 90.6608C91.7639 89.05 92.4279 86.7268 92.2379 85.2058L92.2124 85L92.0796 85.0035C92.0065 85.0054 91.7966 85.0303 91.6131 85.0585ZM91.3869 94.6645C90.127 94.729 88.8314 95.0687 86.9274 95.8333C84.6437 96.7506 84.4149 96.7491 81.9805 95.7965C79.5567 94.8482 78.2507 94.6374 76.6 94.9275C71.1337 95.8886 67.6804 100.977 68.0234 107.565C68.2346 111.624 69.6752 116.076 71.868 119.449C74.698 123.801 76.6371 125.282 79.0792 124.957C79.8209 124.858 80.1586 124.751 81.6555 124.144C83.2544 123.495 84.2712 123.309 85.6394 123.414C86.7385 123.499 87.0832 123.601 89.1844 124.468C92.0694 125.659 94.302 124.806 96.7002 121.597C98.4755 119.222 99.5807 117.194 100.432 114.751L100.552 114.405L100.113 114.178C93.9274 110.983 93.4675 102.766 99.2533 98.8132L99.5077 98.6395L99.369 98.4369C97.7551 96.0779 94.434 94.5082 91.3869 94.6645Z" fill="#C2C2C2"/>
<path d="M212.802 101.039L217.24 93.3514C217.49 92.9204 217.339 92.373 216.914 92.1225C216.488 91.8721 215.935 92.0177 215.691 92.4487L211.194 100.235C207.764 98.6688 203.903 97.7952 199.75 97.7952C195.597 97.7952 191.736 98.6688 188.306 100.235L183.809 92.4487C183.559 92.0177 183.012 91.8721 182.581 92.1225C182.15 92.373 182.004 92.9204 182.254 93.3514L186.692 101.039C179.04 105.186 173.856 112.932 173 122H226.5C225.644 112.932 220.46 105.186 212.802 101.039ZM187.467 114.487C186.226 114.487 185.225 113.479 185.225 112.245C185.225 111.004 186.232 110.002 187.467 110.002C188.708 110.002 189.709 111.01 189.709 112.245C189.715 113.479 188.708 114.487 187.467 114.487ZM212.027 114.487C210.787 114.487 209.785 113.479 209.785 112.245C209.785 111.004 210.793 110.002 212.027 110.002C213.268 110.002 214.27 111.01 214.27 112.245C214.275 113.479 213.268 114.487 212.027 114.487Z" fill="#C2C2C2"/>
<path fill-rule="evenodd" clip-rule="evenodd" d="M219 193.194C218.964 182.234 210.526 174.083 199.995 174C189.115 174.1 181.208 182.728 181.005 192.419C180.774 203.392 189.2 211.795 199.517 211.996C210.827 212.216 219.033 203.239 219 193.194ZM196.572 195.874C196.379 195.874 196.186 195.873 195.993 195.873C195.782 195.873 195.571 195.874 195.359 195.874C194.979 195.875 194.599 195.875 194.219 195.871C193.399 195.862 193.125 195.402 193.543 194.659C193.944 193.945 194.369 193.244 194.794 192.543C194.959 192.271 195.125 191.998 195.288 191.725C197.227 188.489 199.168 185.254 201.11 182.02C201.463 181.525 202.09 181.307 202.674 181.477C202.903 181.56 202.868 181.72 202.836 181.868C202.829 181.897 202.823 181.925 202.819 181.952C202.646 183.077 202.465 184.2 202.276 185.322L202.253 185.458C202.019 186.846 201.785 188.234 201.53 189.619C201.441 190.099 201.691 190.147 202.058 190.145C203.24 190.137 204.423 190.137 205.605 190.145C206.633 190.153 206.908 190.627 206.384 191.504C203.862 195.718 201.339 199.931 198.814 204.144C198.615 204.476 197.652 204.716 197.3 204.528C197.127 204.435 197.157 204.301 197.187 204.166C197.193 204.139 197.199 204.112 197.203 204.085C197.475 202.4 197.749 200.715 198.023 199.03C198.059 198.807 198.095 198.584 198.13 198.361C198.238 197.69 198.345 197.018 198.47 196.35C198.545 195.945 198.343 195.872 198.02 195.873C197.537 195.874 197.055 195.874 196.572 195.874Z" fill="#C2C2C2"/>
<path d="M64.9409 190.776C64.9409 190.776 69.3133 184.325 78.0436 183.657V181.317C68.3737 182.093 60 190.283 60 190.283C60 190.283 64.7427 203.994 78.0436 205.249V202.761C68.2828 201.533 64.9409 190.776 64.9409 190.776V190.776ZM78.0436 197.814V200.092C70.6666 198.777 68.6189 191.109 68.6189 191.109C68.6189 191.109 72.1609 187.185 78.0436 186.549V189.049C78.0391 189.049 78.036 189.047 78.0323 189.047C74.9448 188.677 72.5328 191.561 72.5328 191.561C72.5328 191.561 73.8847 196.416 78.0436 197.814ZM78.0436 177V181.317C78.3275 181.295 78.6113 181.277 78.8967 181.267C89.8903 180.896 97.0534 190.283 97.0534 190.283C97.0534 190.283 88.8264 200.287 80.2553 200.287C79.4697 200.287 78.7343 200.214 78.0436 200.092V202.761C78.6545 202.84 79.2698 202.88 79.8857 202.88C87.8617 202.88 93.6297 198.807 99.2149 193.986C100.141 194.727 103.932 196.532 104.711 197.321C99.4009 201.768 87.0245 205.352 80.0079 205.352C79.3316 205.352 78.682 205.311 78.0436 205.249V209H108.36V177H78.0436ZM78.0436 186.548V183.658C78.3245 183.638 78.6076 183.623 78.8967 183.614C86.8022 183.365 91.9887 190.407 91.9887 190.407C91.9887 190.407 86.3868 198.187 80.3804 198.187C79.516 198.187 78.7409 198.048 78.0434 197.814V189.048C81.121 189.42 81.7404 190.78 83.5907 193.864L87.7061 190.394C87.7061 190.394 84.7021 186.455 79.6382 186.455C79.0875 186.454 78.5608 186.493 78.0436 186.548" fill="#C2C2C2"/>
<path d="M311.376 91H298V123L311.376 91Z" fill="#C2C2C2"/>
<path d="M334.159 91H320.794L334.159 123V91Z" fill="#C2C2C2"/>
<path d="M324.6 123L316.085 102.794L310.241 116.565H316.472L319.019 123H324.6Z" fill="#C2C2C2"/>
<path fill-rule="evenodd" clip-rule="evenodd" d="M306.38 188.994L297 183.018L306.446 177L315.885 183.013L325.325 177L334.771 183.018L325.39 188.994L334.771 194.97L325.324 200.988L315.885 194.974L306.446 200.988L297 194.97L306.38 188.994ZM315.885 183.022L325.258 188.994L315.885 194.965L306.512 188.994L315.885 183.022Z" fill="#C2C2C2"/>
<path d="M315.953 209L306.507 202.982L315.953 196.965L325.4 202.982L315.953 209Z" fill="#C2C2C2"/>
<rect x="0.5" y="0.5" width="399" height="299" stroke="#C2C2C2"/>
</svg>
