<svg width="400" height="300" viewBox="0 0 400 300" fill="none" xmlns="http://www.w3.org/2000/svg">
<rect x="0.5" y="0.5" width="399" height="299" fill="white"/>
<rect x="143" y="152" width="114" height="20" fill="#E0E0E0"/>
<rect x="93" y="180" width="214" height="10" fill="#F2F2F2"/>
<rect x="93" y="194" width="214" height="10" fill="#F2F2F2"/>
<circle cx="215" cy="232" r="9" fill="#C2C2C2"/>
<circle cx="185" cy="232" r="9" fill="#C2C2C2"/>
<circle cx="199.5" cy="100.5" r="40.5" fill="#C2C2C2"/>
<path d="M199.528 100.51C205.169 100.51 209.784 95.8957 209.784 90.2552C209.784 84.6147 205.169 80 199.528 80C193.888 80 189.273 84.6147 189.273 90.2552C189.273 95.8957 193.888 100.51 199.528 100.51Z" fill="#F2F2F2"/>
<path d="M199.528 101.422C190.755 101.422 183.633 108.429 183.006 117.773C182.949 118.685 183.291 119.653 183.918 120.337C184.545 121.021 185.399 121.362 186.311 121.362H212.689C213.601 121.362 214.455 120.963 215.082 120.337C215.709 119.653 216.051 118.742 215.994 117.773C215.424 108.486 208.302 101.422 199.529 101.422H199.528Z" fill="#F2F2F2"/>
<rect x="0.5" y="0.5" width="399" height="299" stroke="#C2C2C2"/>
</svg>
