<svg width="400" height="300" viewBox="0 0 400 300" fill="none" xmlns="http://www.w3.org/2000/svg">
<rect x="0.5" y="0.5" width="399" height="299" fill="white"/>
<circle cx="199" cy="74" r="26" fill="#F2F2F2"/>
<rect x="137" y="120" width="124" height="20" fill="#E0E0E0"/>
<path fill-rule="evenodd" clip-rule="evenodd" d="M110.96 154.736C109.285 153.99 107.415 153.805 105.627 154.209C103.839 154.613 102.229 155.584 101.039 156.977C99.8476 158.371 99.139 160.112 99.0184 161.941C98.8978 163.77 99.3717 165.589 100.369 167.126C101.367 168.664 102.835 169.838 104.554 170.473C106.274 171.108 108.152 171.171 109.91 170.651C111.668 170.131 113.21 169.057 114.308 167.589C115.405 166.121 115.999 164.338 116 162.505V160.086H119V162.506C118.999 164.986 118.196 167.399 116.711 169.386C115.226 171.372 113.139 172.825 110.761 173.528C108.383 174.231 105.841 174.147 103.515 173.287C101.188 172.428 99.2024 170.84 97.8526 168.759C96.5029 166.679 95.8618 164.218 96.0249 161.743C96.1881 159.269 97.1468 156.913 98.758 155.028C100.369 153.143 102.547 151.829 104.966 151.283C107.385 150.736 109.915 150.986 112.181 151.996L113.551 152.606L112.33 155.346L110.96 154.736ZM119.621 154.505L108.561 165.576C108.28 165.857 107.898 166.016 107.5 166.016C107.102 166.016 106.721 165.858 106.439 165.576L102.379 161.516L104.5 159.394L107.499 162.394L117.499 152.384L119.621 154.505Z" fill="#C2C2C2"/>
<path fill-rule="evenodd" clip-rule="evenodd" d="M110.96 185.736C109.285 184.99 107.415 184.805 105.627 185.209C103.839 185.613 102.229 186.584 101.039 187.977C99.8476 189.371 99.139 191.112 99.0184 192.941C98.8978 194.77 99.3717 196.589 100.369 198.126C101.367 199.664 102.835 200.838 104.554 201.473C106.274 202.108 108.152 202.171 109.91 201.651C111.668 201.131 113.21 200.057 114.308 198.589C115.405 197.121 115.999 195.338 116 193.505V191.086H119V193.506C118.999 195.986 118.196 198.399 116.711 200.386C115.226 202.372 113.139 203.825 110.761 204.528C108.383 205.231 105.841 205.147 103.515 204.287C101.188 203.428 99.2024 201.84 97.8526 199.759C96.5029 197.679 95.8618 195.218 96.0249 192.743C96.1881 190.269 97.1468 187.913 98.758 186.028C100.369 184.143 102.547 182.829 104.966 182.283C107.385 181.736 109.915 181.986 112.181 182.996L113.551 183.606L112.33 186.346L110.96 185.736ZM119.621 185.505L108.561 196.576C108.28 196.857 107.898 197.016 107.5 197.016C107.102 197.016 106.721 196.858 106.439 196.576L102.379 192.516L104.5 190.394L107.499 193.394L117.499 183.384L119.621 185.505Z" fill="#C2C2C2"/>
<rect x="127" y="158" width="176" height="10" fill="#E0E0E0"/>
<rect x="178" y="231" width="50" height="20" fill="#448EF7"/>
<rect x="127" y="189" width="176" height="10" fill="#E0E0E0"/>
<path d="M187.215 89V85.1806H190.603V89H187.215ZM187.215 62.8357V59H190.603V62.8357H187.215ZM189.079 86.2416C187.458 86.2416 186.01 85.9478 184.734 85.3602C183.459 84.7726 182.41 83.9402 181.589 82.8629C180.778 81.7748 180.249 80.4908 180 79.0109L183.356 78.4723C183.68 79.8651 184.372 80.975 185.431 81.802C186.491 82.6181 187.761 83.0261 189.242 83.0261C190.712 83.0261 191.906 82.6725 192.825 81.9652C193.754 81.2579 194.219 80.3547 194.219 79.2557C194.219 78.4723 193.981 77.8357 193.506 77.346C193.041 76.8564 192.279 76.4429 191.22 76.1055L185.739 74.4081C182.497 73.3961 180.876 71.4374 180.876 68.5321C180.876 67.161 181.2 65.9695 181.848 64.9576C182.508 63.9456 183.432 63.1621 184.621 62.6072C185.81 62.0522 187.199 61.7748 188.788 61.7748C190.312 61.7965 191.663 62.0794 192.841 62.6235C194.03 63.1676 195.013 63.951 195.792 64.9739C196.581 65.9967 197.127 67.2263 197.429 68.6627L193.976 69.2829C193.824 68.445 193.506 67.7051 193.019 67.0631C192.544 66.4211 191.938 65.9206 191.203 65.5615C190.479 65.2024 189.663 65.0174 188.755 65.0065C187.901 64.9848 187.134 65.1208 186.453 65.4146C185.783 65.6975 185.248 66.1001 184.848 66.6224C184.459 67.1338 184.264 67.716 184.264 68.3689C184.264 69.0871 184.54 69.6964 185.091 70.197C185.642 70.6975 186.512 71.1273 187.701 71.4864L191.998 72.7432C193.965 73.3308 195.386 74.1197 196.262 75.1099C197.137 76.1001 197.575 77.4168 197.575 79.0598C197.575 80.4962 197.218 81.753 196.505 82.8302C195.802 83.8966 194.813 84.7345 193.538 85.3439C192.263 85.9423 190.776 86.2416 189.079 86.2416Z" fill="#999999"/>
<path d="M207.64 89V85.1806H211.028V89H207.64ZM207.64 62.8357V59H211.028V62.8357H207.64ZM209.504 86.2416C207.883 86.2416 206.435 85.9478 205.159 85.3602C203.884 84.7726 202.835 83.9402 202.014 82.8629C201.203 81.7748 200.673 80.4908 200.425 79.0109L203.781 78.4723C204.105 79.8651 204.797 80.975 205.856 81.802C206.916 82.6181 208.186 83.0261 209.666 83.0261C211.136 83.0261 212.331 82.6725 213.25 81.9652C214.179 81.2579 214.644 80.3547 214.644 79.2557C214.644 78.4723 214.406 77.8357 213.93 77.346C213.466 76.8564 212.704 76.4429 211.644 76.1055L206.164 74.4081C202.922 73.3961 201.3 71.4374 201.3 68.5321C201.3 67.161 201.625 65.9695 202.273 64.9576C202.933 63.9456 203.857 63.1621 205.046 62.6072C206.235 62.0522 207.624 61.7748 209.212 61.7748C210.736 61.7965 212.088 62.0794 213.266 62.6235C214.455 63.1676 215.438 63.951 216.217 64.9739C217.006 65.9967 217.551 67.2263 217.854 68.6627L214.401 69.2829C214.249 68.445 213.93 67.7051 213.444 67.0631C212.968 66.4211 212.363 65.9206 211.628 65.5615C210.904 65.2024 210.088 65.0174 209.18 65.0065C208.326 64.9848 207.559 65.1208 206.878 65.4146C206.208 65.6975 205.673 66.1001 205.273 66.6224C204.884 67.1338 204.689 67.716 204.689 68.3689C204.689 69.0871 204.965 69.6964 205.516 70.197C206.067 70.6975 206.937 71.1273 208.126 71.4864L212.423 72.7432C214.39 73.3308 215.811 74.1197 216.687 75.1099C217.562 76.1001 218 77.4168 218 79.0598C218 80.4962 217.643 81.753 216.93 82.8302C216.227 83.8966 215.238 84.7345 213.963 85.3439C212.687 85.9423 211.201 86.2416 209.504 86.2416Z" fill="#999999"/>
<rect x="0.5" y="0.5" width="399" height="299" stroke="#C2C2C2"/>
</svg>
