<svg width="400" height="300" viewBox="0 0 400 300" fill="none" xmlns="http://www.w3.org/2000/svg">
<g clip-path="url(#clip0_78_1832)">
<rect width="400" height="300" fill="white"/>
<circle cx="135" cy="54" r="26" fill="#F2F2F2"/>
<rect x="73" y="100" width="124" height="20" fill="#E0E0E0"/>
<path fill-rule="evenodd" clip-rule="evenodd" d="M46.9595 134.736C45.2852 133.99 43.4147 133.805 41.6268 134.209C39.8389 134.613 38.2295 135.584 37.0385 136.977C35.8476 138.371 35.139 140.112 35.0184 141.941C34.8978 143.77 35.3717 145.589 36.3693 147.126C37.367 148.664 38.8349 149.838 40.5543 150.473C42.2737 151.108 44.1523 151.171 45.9101 150.651C47.6678 150.131 49.2104 149.057 50.3079 147.589C51.4054 146.121 51.999 144.338 52 142.505V140.086H55V142.506C54.9986 144.986 54.1956 147.399 52.7107 149.386C51.2259 151.372 49.1388 152.825 46.7607 153.528C44.3825 154.231 41.8408 154.147 39.5146 153.287C37.1884 152.428 35.2024 150.84 33.8526 148.759C32.5029 146.679 31.8618 144.218 32.0249 141.743C32.1881 139.269 33.1468 136.913 34.758 135.028C36.3693 133.143 38.5467 131.829 40.9656 131.283C43.3845 130.736 45.9153 130.986 48.1805 131.996L49.5506 132.606L48.3296 135.346L46.9595 134.736ZM55.6213 134.505L44.5612 145.576C44.2799 145.857 43.8983 146.016 43.5004 146.016C43.1024 146.016 42.7207 145.858 42.4393 145.576L38.3787 141.516L40.5 139.394L43.4995 142.394L53.4989 132.384L55.6213 134.505Z" fill="#C2C2C2"/>
<path fill-rule="evenodd" clip-rule="evenodd" d="M46.9595 165.736C45.2852 164.99 43.4147 164.805 41.6268 165.209C39.8389 165.613 38.2295 166.584 37.0385 167.977C35.8476 169.371 35.139 171.112 35.0184 172.941C34.8978 174.77 35.3717 176.589 36.3693 178.126C37.367 179.664 38.8349 180.838 40.5543 181.473C42.2737 182.108 44.1523 182.171 45.9101 181.651C47.6678 181.131 49.2104 180.057 50.3079 178.589C51.4054 177.121 51.999 175.338 52 173.505V171.086H55V173.506C54.9986 175.986 54.1956 178.399 52.7107 180.386C51.2259 182.372 49.1388 183.825 46.7607 184.528C44.3825 185.231 41.8408 185.147 39.5146 184.287C37.1884 183.428 35.2024 181.84 33.8526 179.759C32.5029 177.679 31.8618 175.218 32.0249 172.743C32.1881 170.269 33.1468 167.913 34.758 166.028C36.3693 164.143 38.5467 162.829 40.9656 162.283C43.3845 161.736 45.9153 161.986 48.1805 162.996L49.5506 163.606L48.3296 166.346L46.9595 165.736ZM55.6213 165.505L44.5612 176.576C44.2799 176.857 43.8983 177.016 43.5004 177.016C43.1024 177.016 42.7207 176.858 42.4393 176.576L38.3787 172.516L40.5 170.394L43.4995 173.394L53.4989 163.384L55.6213 165.505Z" fill="#C2C2C2"/>
<rect x="63" y="138" width="176" height="10" fill="#E0E0E0"/>
<rect x="114" y="211" width="50" height="20" fill="#448EF7"/>
<rect x="63" y="169" width="176" height="10" fill="#E0E0E0"/>
<path d="M123.215 69V65.1806H126.603V69H123.215ZM123.215 42.8357V39H126.603V42.8357H123.215ZM125.079 66.2416C123.458 66.2416 122.01 65.9478 120.734 65.3602C119.459 64.7726 118.41 63.9402 117.589 62.8629C116.778 61.7748 116.249 60.4908 116 59.0109L119.356 58.4723C119.68 59.8651 120.372 60.975 121.431 61.802C122.491 62.6181 123.761 63.0261 125.242 63.0261C126.712 63.0261 127.906 62.6725 128.825 61.9652C129.754 61.2579 130.219 60.3547 130.219 59.2557C130.219 58.4723 129.981 57.8357 129.506 57.346C129.041 56.8564 128.279 56.4429 127.22 56.1055L121.739 54.4081C118.497 53.3961 116.876 51.4374 116.876 48.5321C116.876 47.161 117.2 45.9695 117.848 44.9576C118.508 43.9456 119.432 43.1621 120.621 42.6072C121.81 42.0522 123.199 41.7748 124.788 41.7748C126.312 41.7965 127.663 42.0794 128.841 42.6235C130.03 43.1676 131.013 43.951 131.792 44.9739C132.581 45.9967 133.127 47.2263 133.429 48.6627L129.976 49.2829C129.824 48.445 129.506 47.7051 129.019 47.0631C128.544 46.4211 127.938 45.9206 127.203 45.5615C126.479 45.2024 125.663 45.0174 124.755 45.0065C123.901 44.9848 123.134 45.1208 122.453 45.4146C121.783 45.6975 121.248 46.1001 120.848 46.6224C120.459 47.1338 120.264 47.716 120.264 48.3689C120.264 49.0871 120.54 49.6964 121.091 50.197C121.642 50.6975 122.512 51.1273 123.701 51.4864L127.998 52.7432C129.965 53.3308 131.386 54.1197 132.262 55.1099C133.137 56.1001 133.575 57.4168 133.575 59.0598C133.575 60.4962 133.218 61.753 132.505 62.8302C131.802 63.8966 130.813 64.7345 129.538 65.3439C128.263 65.9423 126.776 66.2416 125.079 66.2416Z" fill="#999999"/>
<path d="M143.64 69V65.1806H147.028V69H143.64ZM143.64 42.8357V39H147.028V42.8357H143.64ZM145.504 66.2416C143.883 66.2416 142.435 65.9478 141.159 65.3602C139.884 64.7726 138.835 63.9402 138.014 62.8629C137.203 61.7748 136.673 60.4908 136.425 59.0109L139.781 58.4723C140.105 59.8651 140.797 60.975 141.856 61.802C142.916 62.6181 144.186 63.0261 145.666 63.0261C147.136 63.0261 148.331 62.6725 149.25 61.9652C150.179 61.2579 150.644 60.3547 150.644 59.2557C150.644 58.4723 150.406 57.8357 149.93 57.346C149.466 56.8564 148.704 56.4429 147.644 56.1055L142.164 54.4081C138.922 53.3961 137.3 51.4374 137.3 48.5321C137.3 47.161 137.625 45.9695 138.273 44.9576C138.933 43.9456 139.857 43.1621 141.046 42.6072C142.235 42.0522 143.624 41.7748 145.212 41.7748C146.736 41.7965 148.088 42.0794 149.266 42.6235C150.455 43.1676 151.438 43.951 152.217 44.9739C153.006 45.9967 153.551 47.2263 153.854 48.6627L150.401 49.2829C150.249 48.445 149.93 47.7051 149.444 47.0631C148.968 46.4211 148.363 45.9206 147.628 45.5615C146.904 45.2024 146.088 45.0174 145.18 45.0065C144.326 44.9848 143.559 45.1208 142.878 45.4146C142.208 45.6975 141.673 46.1001 141.273 46.6224C140.884 47.1338 140.689 47.716 140.689 48.3689C140.689 49.0871 140.965 49.6964 141.516 50.197C142.067 50.6975 142.937 51.1273 144.126 51.4864L148.423 52.7432C150.39 53.3308 151.811 54.1197 152.687 55.1099C153.562 56.1001 154 57.4168 154 59.0598C154 60.4962 153.643 61.753 152.93 62.8302C152.227 63.8966 151.238 64.7345 149.963 65.3439C148.687 65.9423 147.201 66.2416 145.504 66.2416Z" fill="#999999"/>
<circle cx="370" cy="54" r="26" fill="#F2F2F2"/>
<rect x="308" y="100" width="124" height="20" fill="#E0E0E0"/>
<path fill-rule="evenodd" clip-rule="evenodd" d="M281.96 134.736C280.285 133.99 278.415 133.805 276.627 134.209C274.839 134.613 273.229 135.584 272.039 136.977C270.848 138.371 270.139 140.112 270.018 141.941C269.898 143.77 270.372 145.589 271.369 147.126C272.367 148.664 273.835 149.838 275.554 150.473C277.274 151.108 279.152 151.171 280.91 150.651C282.668 150.131 284.21 149.057 285.308 147.589C286.405 146.121 286.999 144.338 287 142.505V140.086H290V142.506C289.999 144.986 289.196 147.399 287.711 149.386C286.226 151.372 284.139 152.825 281.761 153.528C279.383 154.231 276.841 154.147 274.515 153.287C272.188 152.428 270.202 150.84 268.853 148.759C267.503 146.679 266.862 144.218 267.025 141.743C267.188 139.269 268.147 136.913 269.758 135.028C271.369 133.143 273.547 131.829 275.966 131.283C278.385 130.736 280.915 130.986 283.181 131.996L284.551 132.606L283.33 135.346L281.96 134.736ZM290.621 134.505L279.561 145.576C279.28 145.857 278.898 146.016 278.5 146.016C278.102 146.016 277.721 145.858 277.439 145.576L273.379 141.516L275.5 139.394L278.499 142.394L288.499 132.384L290.621 134.505Z" fill="#C2C2C2"/>
<path fill-rule="evenodd" clip-rule="evenodd" d="M281.96 165.736C280.285 164.99 278.415 164.805 276.627 165.209C274.839 165.613 273.229 166.584 272.039 167.977C270.848 169.371 270.139 171.112 270.018 172.941C269.898 174.77 270.372 176.589 271.369 178.126C272.367 179.664 273.835 180.838 275.554 181.473C277.274 182.108 279.152 182.171 280.91 181.651C282.668 181.131 284.21 180.057 285.308 178.589C286.405 177.121 286.999 175.338 287 173.505V171.086H290V173.506C289.999 175.986 289.196 178.399 287.711 180.386C286.226 182.372 284.139 183.825 281.761 184.528C279.383 185.231 276.841 185.147 274.515 184.287C272.188 183.428 270.202 181.84 268.853 179.759C267.503 177.679 266.862 175.218 267.025 172.743C267.188 170.269 268.147 167.913 269.758 166.028C271.369 164.143 273.547 162.829 275.966 162.283C278.385 161.736 280.915 161.986 283.181 162.996L284.551 163.606L283.33 166.346L281.96 165.736ZM290.621 165.505L279.561 176.576C279.28 176.857 278.898 177.016 278.5 177.016C278.102 177.016 277.721 176.858 277.439 176.576L273.379 172.516L275.5 170.394L278.499 173.394L288.499 163.384L290.621 165.505Z" fill="#C2C2C2"/>
<rect x="298" y="138" width="176" height="10" fill="#E0E0E0"/>
<rect x="349" y="211" width="50" height="20" fill="#448EF7"/>
<rect x="298" y="169" width="176" height="10" fill="#E0E0E0"/>
<path d="M358.215 69V65.1806H361.603V69H358.215ZM358.215 42.8357V39H361.603V42.8357H358.215ZM360.079 66.2416C358.458 66.2416 357.01 65.9478 355.734 65.3602C354.459 64.7726 353.41 63.9402 352.589 62.8629C351.778 61.7748 351.249 60.4908 351 59.0109L354.356 58.4723C354.68 59.8651 355.372 60.975 356.431 61.802C357.491 62.6181 358.761 63.0261 360.242 63.0261C361.712 63.0261 362.906 62.6725 363.825 61.9652C364.754 61.2579 365.219 60.3547 365.219 59.2557C365.219 58.4723 364.981 57.8357 364.506 57.346C364.041 56.8564 363.279 56.4429 362.22 56.1055L356.739 54.4081C353.497 53.3961 351.876 51.4374 351.876 48.5321C351.876 47.161 352.2 45.9695 352.848 44.9576C353.508 43.9456 354.432 43.1621 355.621 42.6072C356.81 42.0522 358.199 41.7748 359.788 41.7748C361.312 41.7965 362.663 42.0794 363.841 42.6235C365.03 43.1676 366.013 43.951 366.792 44.9739C367.581 45.9967 368.127 47.2263 368.429 48.6627L364.976 49.2829C364.824 48.445 364.506 47.7051 364.019 47.0631C363.544 46.4211 362.938 45.9206 362.203 45.5615C361.479 45.2024 360.663 45.0174 359.755 45.0065C358.901 44.9848 358.134 45.1208 357.453 45.4146C356.783 45.6975 356.248 46.1001 355.848 46.6224C355.459 47.1338 355.264 47.716 355.264 48.3689C355.264 49.0871 355.54 49.6964 356.091 50.197C356.642 50.6975 357.512 51.1273 358.701 51.4864L362.998 52.7432C364.965 53.3308 366.386 54.1197 367.262 55.1099C368.137 56.1001 368.575 57.4168 368.575 59.0598C368.575 60.4962 368.218 61.753 367.505 62.8302C366.802 63.8966 365.813 64.7345 364.538 65.3439C363.263 65.9423 361.776 66.2416 360.079 66.2416Z" fill="#999999"/>
<path d="M378.64 69V65.1806H382.028V69H378.64ZM378.64 42.8357V39H382.028V42.8357H378.64ZM380.504 66.2416C378.883 66.2416 377.435 65.9478 376.159 65.3602C374.884 64.7726 373.835 63.9402 373.014 62.8629C372.203 61.7748 371.673 60.4908 371.425 59.0109L374.781 58.4723C375.105 59.8651 375.797 60.975 376.856 61.802C377.916 62.6181 379.186 63.0261 380.666 63.0261C382.136 63.0261 383.331 62.6725 384.25 61.9652C385.179 61.2579 385.644 60.3547 385.644 59.2557C385.644 58.4723 385.406 57.8357 384.93 57.346C384.466 56.8564 383.704 56.4429 382.644 56.1055L377.164 54.4081C373.922 53.3961 372.3 51.4374 372.3 48.5321C372.3 47.161 372.625 45.9695 373.273 44.9576C373.933 43.9456 374.857 43.1621 376.046 42.6072C377.235 42.0522 378.624 41.7748 380.212 41.7748C381.736 41.7965 383.088 42.0794 384.266 42.6235C385.455 43.1676 386.438 43.951 387.217 44.9739C388.006 45.9967 388.551 47.2263 388.854 48.6627L385.401 49.2829C385.249 48.445 384.93 47.7051 384.444 47.0631C383.968 46.4211 383.363 45.9206 382.628 45.5615C381.904 45.2024 381.088 45.0174 380.18 45.0065C379.326 44.9848 378.559 45.1208 377.878 45.4146C377.208 45.6975 376.673 46.1001 376.273 46.6224C375.884 47.1338 375.689 47.716 375.689 48.3689C375.689 49.0871 375.965 49.6964 376.516 50.197C377.067 50.6975 377.937 51.1273 379.126 51.4864L383.423 52.7432C385.39 53.3308 386.811 54.1197 387.687 55.1099C388.562 56.1001 389 57.4168 389 59.0598C389 60.4962 388.643 61.753 387.93 62.8302C387.227 63.8966 386.238 64.7345 384.963 65.3439C383.687 65.9423 382.201 66.2416 380.504 66.2416Z" fill="#999999"/>
<circle cx="279" cy="272" r="5" fill="#C2C2C2"/>
<circle cx="293" cy="272" r="5" fill="#E0E0E0"/>
<circle cx="307" cy="272" r="5" fill="#E0E0E0"/>
</g>
<rect x="0.5" y="0.5" width="399" height="299" stroke="#C2C2C2"/>
<defs>
<clipPath id="clip0_78_1832">
<rect width="400" height="300" fill="white"/>
</clipPath>
</defs>
</svg>
