<svg width="400" height="300" viewBox="0 0 400 300" fill="none" xmlns="http://www.w3.org/2000/svg">
<rect x="0.5" y="0.5" width="399" height="299" fill="white"/>
<rect width="214" height="123" transform="matrix(1 0 0 -1 75 263)" fill="#E0E0E0"/>
<rect width="214" height="111" transform="matrix(1 0 0 -1 75 140)" fill="#F2F2F2"/>
<path d="M153 63V106H211.982V63H153V63ZM161.022 69.5978C162.881 69.5978 164.394 71.1102 164.394 72.9701C164.394 74.8294 162.882 76.3634 161.022 76.3634C159.162 76.3634 157.628 74.8295 157.628 72.9701C157.628 71.1102 159.162 69.5978 161.022 69.5978ZM173.567 74.122L186.26 92.4282C189.643 90.33 192.598 87.0904 195.686 84.3221L210.034 95.4442V103.613H155.241L155.464 88.8159C158.976 85.41 168.187 78.3756 173.568 74.1219L173.567 74.122Z" fill="#C2C2C2"/>
<rect x="85" y="152" width="103" height="20" fill="#C2C2C2"/>
<rect x="85" y="231" width="50" height="20" fill="#448EF7"/>
<rect x="85" y="184" width="194" height="10" fill="#C2C2C2"/>
<rect x="85" y="200" width="142" height="10" fill="#C2C2C2"/>
<rect x="0.5" y="0.5" width="399" height="299" stroke="#C2C2C2"/>
</svg>
