<svg width="400" height="300" viewBox="0 0 400 300" fill="none" xmlns="http://www.w3.org/2000/svg">
<g clip-path="url(#clip0_100_2119)">
<rect width="400" height="300" fill="white"/>
<circle cx="279" cy="272" r="5" fill="#C2C2C2"/>
<circle cx="293" cy="272" r="5" fill="#E0E0E0"/>
<circle cx="307" cy="272" r="5" fill="#E0E0E0"/>
<rect width="214" height="110.91" transform="matrix(1 0 0 -1 32 235)" fill="#E0E0E0"/>
<rect width="214" height="100.09" transform="matrix(1 0 0 -1 32 124.09)" fill="#F2F2F2"/>
<path d="M110 54.6581V93.4316H168.982V54.6581H110V54.6581ZM118.022 60.6074C119.881 60.6074 121.394 61.9712 121.394 63.6482C121.394 65.3248 119.882 66.7081 118.022 66.7081C116.162 66.7081 114.628 65.3249 114.628 63.6482C114.628 61.9712 116.162 60.6074 118.022 60.6074ZM130.567 64.687L143.26 81.1938C146.643 79.3018 149.598 76.3807 152.686 73.8845L167.034 83.9134V91.2791H112.241L112.464 77.9366C115.976 74.8654 125.187 68.5225 130.568 64.6869L130.567 64.687Z" fill="#C2C2C2"/>
<rect x="42" y="134.91" width="103" height="18.0342" fill="#C2C2C2"/>
<rect x="42" y="206.145" width="50" height="18.0342" fill="#448EF7"/>
<rect x="42" y="163.765" width="194" height="9.01709" fill="#C2C2C2"/>
<rect x="42" y="178.192" width="142" height="9.01709" fill="#C2C2C2"/>
<rect width="214" height="110.91" transform="matrix(1 0 0 -1 274 235)" fill="#E0E0E0"/>
<rect width="214" height="100.09" transform="matrix(1 0 0 -1 274 124.09)" fill="#F2F2F2"/>
<path d="M352 54.6581V93.4316H410.982V54.6581H352V54.6581ZM360.022 60.6074C361.881 60.6074 363.394 61.9712 363.394 63.6482C363.394 65.3248 361.882 66.7081 360.022 66.7081C358.162 66.7081 356.628 65.3249 356.628 63.6482C356.628 61.9712 358.162 60.6074 360.022 60.6074ZM372.567 64.687L385.26 81.1938C388.643 79.3018 391.598 76.3807 394.686 73.8845L409.034 83.9134V91.2791H354.241L354.464 77.9366C357.976 74.8654 367.187 68.5225 372.568 64.6869L372.567 64.687Z" fill="#C2C2C2"/>
<rect x="284" y="134.91" width="103" height="18.0342" fill="#C2C2C2"/>
<rect x="284" y="206.145" width="50" height="18.0342" fill="#448EF7"/>
<rect x="284" y="163.765" width="194" height="9.01709" fill="#C2C2C2"/>
<rect x="284" y="178.192" width="142" height="9.01709" fill="#C2C2C2"/>
</g>
<rect x="0.5" y="0.5" width="399" height="299" stroke="#C2C2C2"/>
<defs>
<clipPath id="clip0_100_2119">
<rect width="400" height="300" fill="white"/>
</clipPath>
</defs>
</svg>
