<svg width="400" height="300" viewBox="0 0 400 300" fill="none" xmlns="http://www.w3.org/2000/svg">
<rect x="0.5" y="0.5" width="399" height="299" fill="white"/>
<rect x="50" y="41" width="82" height="13" fill="#C1C6CC"/>
<rect x="159" y="41" width="82" height="13" fill="#448EF7"/>
<rect x="267" y="41" width="82" height="13" fill="#C1C6CC"/>
<rect x="66" y="115.16" width="112" height="10" fill="#F2F2F2"/>
<rect x="66" y="138.412" width="99.3893" height="10" fill="#F2F2F2"/>
<rect x="66" y="161.664" width="112" height="10" fill="#F2F2F2"/>
<rect x="66" y="184.916" width="99.3893" height="10" fill="#F2F2F2"/>
<rect x="66" y="208.168" width="112" height="10" fill="#F2F2F2"/>
<rect width="135.015" height="137" transform="translate(198 99.1603)" fill="#E0E0E0"/>
<rect x="212" y="115.16" width="99" height="10" fill="#F2F2F2"/>
<rect x="212" y="138.412" width="82" height="10" fill="#F2F2F2"/>
<rect x="212" y="161.664" width="94" height="10" fill="#F2F2F2"/>
<rect x="212" y="184.916" width="107.015" height="10" fill="#F2F2F2"/>
<rect x="159" y="69.1603" width="82" height="4.17285" fill="#448EF7"/>
<rect x="38.6458" y="69.8061" width="321.724" height="195.708" stroke="#C2C2C2" stroke-width="1.29167"/>
<rect x="0.5" y="0.5" width="399" height="299" stroke="#C1C6CD"/>
</svg>
