<svg width="400" height="300" viewBox="0 0 400 300" fill="none" xmlns="http://www.w3.org/2000/svg">
<rect x="0.5" y="0.5" width="399" height="299" fill="white"/>
<rect x="94" y="145" width="212" height="32" stroke="#C1C6CC" stroke-width="2"/>
<rect x="94" y="187" width="212" height="33" stroke="#C1C6CC" stroke-width="2"/>
<ellipse cx="199.5" cy="83" rx="43.5" ry="43" fill="#C1C6CD"/>
<path d="M199.5 83C205.275 83 210 78.0501 210 72C210 65.9499 205.275 61 199.5 61C193.725 61 189 65.9499 189 72C189 78.0501 193.725 83 199.5 83Z" fill="#F1F2F4"/>
<path d="M199.53 84C190.225 84 182.671 91.38 182.006 101.22C181.946 102.18 182.309 103.2 182.973 103.92C183.638 104.64 184.544 105 185.511 105H213.489C214.456 105 215.362 104.58 216.027 103.92C216.691 103.2 217.054 102.24 216.994 101.22C216.389 91.44 208.835 84 199.53 84H199.53Z" fill="#F1F2F4"/>
<rect x="173" y="238" width="54" height="21" fill="#448EF7"/>
<path d="M141.609 211L139.367 209.383L143.372 204.082L137 202.117L137.856 199.504L144.178 201.619L144.102 195H146.873L146.797 201.619L153.144 199.504L154 202.117L147.603 204.082L151.582 209.383L149.341 211L145.487 205.625L141.609 211Z" fill="#C1C6CC"/>
<path d="M163.609 211L161.367 209.383L165.372 204.082L159 202.117L159.856 199.504L166.178 201.619L166.102 195H168.873L168.797 201.619L175.144 199.504L176 202.117L169.603 204.082L173.582 209.383L171.341 211L167.487 205.625L163.609 211Z" fill="#C1C6CC"/>
<path d="M185.609 211L183.367 209.383L187.372 204.082L181 202.117L181.856 199.504L188.178 201.619L188.102 195H190.873L190.797 201.619L197.144 199.504L198 202.117L191.603 204.082L195.582 209.383L193.341 211L189.487 205.625L185.609 211Z" fill="#C1C6CC"/>
<path d="M207.609 211L205.367 209.383L209.372 204.082L203 202.117L203.856 199.504L210.178 201.619L210.102 195H212.873L212.797 201.619L219.144 199.504L220 202.117L213.603 204.082L217.582 209.383L215.341 211L211.487 205.625L207.609 211Z" fill="#C1C6CC"/>
<path d="M229.609 211L227.367 209.383L231.372 204.082L225 202.117L225.856 199.504L232.178 201.619L232.102 195H234.873L234.797 201.619L241.144 199.504L242 202.117L235.603 204.082L239.582 209.383L237.341 211L233.487 205.625L229.609 211Z" fill="#C1C6CC"/>
<path d="M251.609 211L249.367 209.383L253.372 204.082L247 202.117L247.856 199.504L254.178 201.619L254.102 195H256.873L256.797 201.619L263.144 199.504L264 202.117L257.603 204.082L261.582 209.383L259.341 211L255.487 205.625L251.609 211Z" fill="#C1C6CC"/>
<path d="M141.609 168L139.367 166.383L143.372 161.082L137 159.117L137.856 156.504L144.178 158.619L144.102 152H146.873L146.797 158.619L153.144 156.504L154 159.117L147.603 161.082L151.582 166.383L149.341 168L145.487 162.625L141.609 168Z" fill="#C1C6CC"/>
<path d="M163.609 168L161.367 166.383L165.372 161.082L159 159.117L159.856 156.504L166.178 158.619L166.102 152H168.873L168.797 158.619L175.144 156.504L176 159.117L169.603 161.082L173.582 166.383L171.341 168L167.487 162.625L163.609 168Z" fill="#C1C6CC"/>
<path d="M185.609 168L183.367 166.383L187.372 161.082L181 159.117L181.856 156.504L188.178 158.619L188.102 152H190.873L190.797 158.619L197.144 156.504L198 159.117L191.603 161.082L195.582 166.383L193.341 168L189.487 162.625L185.609 168Z" fill="#C1C6CC"/>
<path d="M207.609 168L205.367 166.383L209.372 161.082L203 159.117L203.856 156.504L210.178 158.619L210.102 152H212.873L212.797 158.619L219.144 156.504L220 159.117L213.603 161.082L217.582 166.383L215.341 168L211.487 162.625L207.609 168Z" fill="#C1C6CC"/>
<path d="M229.609 168L227.367 166.383L231.372 161.082L225 159.117L225.856 156.504L232.178 158.619L232.102 152H234.873L234.797 158.619L241.144 156.504L242 159.117L235.603 161.082L239.582 166.383L237.341 168L233.487 162.625L229.609 168Z" fill="#C1C6CC"/>
<path d="M251.609 168L249.367 166.383L253.372 161.082L247 159.117L247.856 156.504L254.178 158.619L254.102 152H256.873L256.797 158.619L263.144 156.504L264 159.117L257.603 161.082L261.582 166.383L259.341 168L255.487 162.625L251.609 168Z" fill="#C1C6CC"/>
<rect x="0.5" y="0.5" width="399" height="299" stroke="#C1C6CD"/>
</svg>
