<svg width="400" height="300" viewBox="0 0 400 300" fill="none" xmlns="http://www.w3.org/2000/svg">
<rect x="0.5" y="0.5" width="399" height="299" fill="white"/>
<rect x="146" y="133" width="108" height="16" fill="#C2C2C2"/>
<rect x="176" y="211" width="47" height="19" fill="#448EF7"/>
<rect x="99" y="165" width="202" height="10" fill="#E0E0E0"/>
<rect x="126" y="180" width="148" height="10" fill="#E0E0E0"/>
<path d="M170.69 112.16V105.496H153V99.196L165.782 71.84H173.407L160.625 99.196H170.69V88.696H177.455V99.196H181.198V105.496H177.455V112.16H170.69Z" fill="#C2C2C2"/>
<path d="M199.992 113C197.163 113 194.668 112.393 192.505 111.18C190.343 109.948 188.651 108.24 187.431 106.056C186.23 103.872 185.629 101.352 185.629 98.496V85.504C185.629 82.648 186.23 80.128 187.431 77.944C188.651 75.76 190.343 74.0613 192.505 72.848C194.668 71.616 197.163 71 199.992 71C202.82 71 205.306 71.616 207.45 72.848C209.613 74.0613 211.304 75.76 212.524 77.944C213.744 80.128 214.354 82.648 214.354 85.504V98.496C214.354 101.352 213.744 103.872 212.524 106.056C211.304 108.24 209.613 109.948 207.45 111.18C205.306 112.393 202.82 113 199.992 113ZM199.992 106.588C201.396 106.588 202.672 106.252 203.818 105.58C204.964 104.889 205.87 103.975 206.535 102.836C207.201 101.679 207.533 100.391 207.533 98.972V85C207.533 83.5627 207.201 82.2747 206.535 81.136C205.87 79.9787 204.964 79.064 203.818 78.392C202.672 77.7013 201.396 77.356 199.992 77.356C198.587 77.356 197.311 77.7013 196.165 78.392C195.019 79.064 194.113 79.9787 193.448 81.136C192.783 82.2747 192.45 83.5627 192.45 85V98.972C192.45 100.391 192.783 101.679 193.448 102.836C194.113 103.975 195.019 104.889 196.165 105.58C197.311 106.252 198.587 106.588 199.992 106.588Z" fill="#C2C2C2"/>
<path d="M236.491 112.16V105.496H218.802V99.196L231.584 71.84H239.209L226.427 99.196H236.491V88.696H243.257V99.196H247V105.496H243.257V112.16H236.491Z" fill="#C2C2C2"/>
<rect x="0.5" y="0.5" width="399" height="299" stroke="#C2C2C2"/>
</svg>
