<svg width="400" height="300" viewBox="0 0 400 300" fill="none" xmlns="http://www.w3.org/2000/svg">
<g clip-path="url(#clip0_303_1866)">
<rect width="400" height="300" fill="white"/>
<rect x="208" y="70" width="160" height="160" fill="#F2F2F2"/>
<rect x="228" y="-74" width="120" height="120" fill="#F2F2F2"/>
<rect x="228" y="254" width="120" height="120" fill="#F2F2F2"/>
<rect x="32" y="118" width="109" height="14" fill="#C2C2C2"/>
<rect x="32" y="148" width="146" height="7" fill="#E0E0E0"/>
<rect x="32" y="162" width="137" height="7" fill="#E0E0E0"/>
<rect x="32" y="176" width="121" height="7" fill="#E0E0E0"/>
<path d="M259 129V172H317.982V129H259ZM267.022 135.598C268.881 135.598 270.394 137.11 270.394 138.97C270.394 140.829 268.882 142.363 267.022 142.363C265.162 142.363 263.628 140.83 263.628 138.97C263.628 137.11 265.162 135.598 267.022 135.598ZM279.567 140.122L292.26 158.428C295.643 156.33 298.598 153.09 301.686 150.322L316.034 161.444V169.613H261.241L261.464 154.816C264.976 151.41 274.187 144.376 279.568 140.122L279.567 140.122Z" fill="#C2C2C2"/>
<path d="M290.613 245H285.42V259.059L280.672 254.311L277 257.983L288.017 269L299.033 257.983L295.361 254.311L290.613 259.059V245Z" fill="#C2C2C2"/>
<path d="M290.613 55.4854H285.42V41.4263L280.672 46.1746L277 42.5021L288.017 31.4854L299.033 42.5021L295.361 46.1746L290.613 41.4263V55.4854Z" fill="#C2C2C2"/>
</g>
<rect x="0.5" y="0.5" width="399" height="299" stroke="#C2C2C2"/>
<defs>
<clipPath id="clip0_303_1866">
<rect width="400" height="300" fill="white"/>
</clipPath>
</defs>
</svg>
