<svg width="400" height="300" viewBox="0 0 400 300" fill="none" xmlns="http://www.w3.org/2000/svg">
<rect x="0.5" y="0.5" width="399" height="299" fill="white"/>
<rect x="50" y="41" width="82" height="13" fill="#C1C6CC"/>
<rect x="159" y="41" width="82" height="13" fill="#448EF7"/>
<rect x="267" y="41" width="82" height="13" fill="#C1C6CC"/>
<rect x="71.1289" y="103.947" width="113.469" height="10" fill="#DDE0E4"/>
<rect x="71.1289" y="127.198" width="99.3893" height="10" fill="#DDE0E4"/>
<rect x="71.1289" y="150.45" width="113.469" height="10" fill="#DDE0E4"/>
<rect x="71.1289" y="173.702" width="99.3893" height="10" fill="#DDE0E4"/>
<rect x="71.1289" y="196.954" width="113.469" height="10" fill="#DDE0E4"/>
<rect x="214.414" y="103.947" width="99.3893" height="10" fill="#DDE0E4"/>
<rect x="214.414" y="127.198" width="113.469" height="10" fill="#DDE0E4"/>
<rect x="214.414" y="150.45" width="99.3893" height="10" fill="#DDE0E4"/>
<rect x="214.414" y="173.702" width="107.672" height="10" fill="#DDE0E4"/>
<rect x="214.414" y="196.954" width="113.469" height="10" fill="#DDE0E4"/>
<rect x="159" y="69.1603" width="82" height="3.65559" fill="#448EF7"/>
<rect x="38.6458" y="69.8061" width="321.724" height="171.288" stroke="#C2C2C2" stroke-width="1.29167"/>
<rect x="0.5" y="0.5" width="399" height="299" stroke="#C1C6CD"/>
</svg>
