<svg width="400" height="300" viewBox="0 0 400 300" fill="none" xmlns="http://www.w3.org/2000/svg">
<rect x="0.5" y="0.5" width="399" height="299" fill="white"/>
<rect x="55" y="151" width="67" height="11" fill="#E0E0E0"/>
<rect x="168" y="151" width="66" height="11" fill="#E0E0E0"/>
<rect x="279" y="151" width="67" height="11" fill="#E0E0E0"/>
<rect x="42" y="168" width="94" height="6" fill="#F2F2F2"/>
<rect x="155" y="168" width="92" height="6" fill="#F2F2F2"/>
<rect x="266" y="168" width="94" height="6" fill="#F2F2F2"/>
<rect x="42" y="177" width="94" height="5" fill="#F2F2F2"/>
<rect x="155" y="177" width="92" height="5" fill="#F2F2F2"/>
<rect x="266" y="177" width="94" height="5" fill="#F2F2F2"/>
<circle cx="97.9074" cy="197.254" r="5.05556" fill="#C2C2C2"/>
<circle cx="81.0556" cy="197.254" r="5.05556" fill="#C2C2C2"/>
<circle cx="209.907" cy="197.254" r="5.05556" fill="#C2C2C2"/>
<circle cx="193.056" cy="197.254" r="5.05556" fill="#C2C2C2"/>
<circle cx="321.907" cy="197.254" r="5.05556" fill="#C2C2C2"/>
<circle cx="305.056" cy="197.254" r="5.05556" fill="#C2C2C2"/>
<circle cx="89" cy="121" r="23" fill="#C2C2C2"/>
<circle cx="201" cy="121" r="23" fill="#C2C2C2"/>
<circle cx="313" cy="121" r="23" fill="#C2C2C2"/>
<path d="M89.2844 121.393C92.4529 121.393 95.0451 118.801 95.0451 115.632C95.0451 112.464 92.4529 109.871 89.2844 109.871C86.116 109.871 83.5238 112.464 83.5238 115.632C83.5238 118.801 86.116 121.393 89.2844 121.393Z" fill="#F2F2F2"/>
<path d="M89.2845 121.905C84.356 121.905 80.3555 125.841 80.0034 131.09C79.9715 131.602 80.1635 132.146 80.5155 132.53C80.8676 132.914 81.3476 133.106 81.8597 133.106H96.6773C97.1895 133.106 97.6694 132.882 98.0215 132.53C98.3735 132.146 98.5655 131.634 98.5336 131.09C98.2133 125.873 94.2128 121.905 89.2846 121.905H89.2845Z" fill="#F2F2F2"/>
<path d="M201.284 121.393C204.453 121.393 207.045 118.801 207.045 115.632C207.045 112.464 204.453 109.871 201.284 109.871C198.116 109.871 195.524 112.464 195.524 115.632C195.524 118.801 198.116 121.393 201.284 121.393Z" fill="#F2F2F2"/>
<path d="M201.284 121.905C196.356 121.905 192.355 125.841 192.003 131.09C191.972 131.602 192.164 132.146 192.516 132.53C192.868 132.914 193.348 133.106 193.86 133.106H208.677C209.189 133.106 209.669 132.882 210.021 132.53C210.374 132.146 210.566 131.634 210.534 131.09C210.213 125.873 206.213 121.905 201.285 121.905H201.284Z" fill="#F2F2F2"/>
<path d="M313.284 121.393C316.453 121.393 319.045 118.801 319.045 115.632C319.045 112.464 316.453 109.871 313.284 109.871C310.116 109.871 307.524 112.464 307.524 115.632C307.524 118.801 310.116 121.393 313.284 121.393Z" fill="#F2F2F2"/>
<path d="M313.284 121.905C308.356 121.905 304.355 125.841 304.003 131.09C303.972 131.602 304.164 132.146 304.516 132.53C304.868 132.914 305.348 133.106 305.86 133.106H320.677C321.189 133.106 321.669 132.882 322.021 132.53C322.374 132.146 322.566 131.634 322.534 131.09C322.213 125.873 318.213 121.905 313.285 121.905H313.284Z" fill="#F2F2F2"/>
<rect x="0.5" y="0.5" width="399" height="299" stroke="#C2C2C2"/>
</svg>
