<svg width="400" height="300" viewBox="0 0 400 300" fill="none" xmlns="http://www.w3.org/2000/svg">
<rect x="0.5" y="0.5" width="399" height="299" fill="white"/>
<path d="M66.5292 56.1405C66.0428 56.1405 65.576 56.2151 65.1114 56.283C65.2619 55.7745 65.4168 55.2571 65.6654 54.7924C65.9141 54.1173 66.3023 53.532 66.6884 52.9423C67.0112 52.3044 67.5805 51.8726 67.9993 51.3267C68.4377 50.7963 69.0354 50.4433 69.5087 50.0027C69.9733 49.5424 70.5819 49.3122 71.0661 48.9878C71.5721 48.6963 72.0127 48.374 72.4839 48.2206L73.6595 47.7339L74.6934 47.3021L73.6355 43.0538L72.3334 43.3695C71.9167 43.4747 71.4085 43.5975 70.8305 43.7444C70.2394 43.854 69.609 44.1543 68.9067 44.4283C68.2131 44.7396 67.4104 44.95 66.6644 45.4498C65.9141 45.9277 65.0481 46.3266 64.2847 46.9667C63.5453 47.6265 62.6532 48.1987 61.9945 49.0382C61.2747 49.823 60.5636 50.6472 60.0118 51.5854C59.3727 52.4798 58.9386 53.4618 58.4806 54.4329C58.0661 55.404 57.7324 56.397 57.4598 57.3615C56.9428 59.2949 56.7116 61.1319 56.6222 62.7036C56.548 64.2775 56.5916 65.5862 56.6832 66.5332C56.716 66.9804 56.777 67.4144 56.8207 67.7147L56.8752 68.083L56.9319 68.0698C57.3199 69.8911 58.2129 71.5647 59.5078 72.8972C60.8027 74.2296 62.4465 75.1664 64.249 75.5992C66.0516 76.032 67.9392 75.9431 69.6936 75.3428C71.4479 74.7424 72.9973 73.6552 74.1625 72.2069C75.3277 70.7586 76.0611 69.0083 76.2779 67.1586C76.4946 65.3088 76.1859 63.4352 75.3873 61.7545C74.5888 60.0738 73.3331 58.6546 71.7655 57.6611C70.1979 56.6676 68.3824 56.1404 66.5292 56.1405ZM90.5224 56.1405C90.036 56.1405 89.5692 56.2151 89.1046 56.283C89.2551 55.7745 89.41 55.2571 89.6586 54.7924C89.9073 54.1173 90.2955 53.532 90.6816 52.9423C91.0044 52.3044 91.5737 51.8726 91.9925 51.3267C92.4309 50.7963 93.0286 50.4433 93.5019 50.0027C93.9665 49.5424 94.5751 49.3122 95.0593 48.9878C95.5653 48.6963 96.0059 48.374 96.4771 48.2206L97.6527 47.7339L98.6866 47.3021L97.6287 43.0538L96.3266 43.3695C95.9099 43.4747 95.4017 43.5975 94.8237 43.7444C94.2326 43.854 93.6022 44.1543 92.8999 44.4283C92.2084 44.7417 91.4036 44.95 90.6576 45.452C89.9073 45.9299 89.0413 46.3288 88.2779 46.9689C87.5385 47.6287 86.6464 48.2008 85.9877 49.0382C85.2679 49.823 84.5568 50.6472 84.005 51.5854C83.3659 52.4798 82.9318 53.4618 82.4738 54.4329C82.0593 55.404 81.7256 56.397 81.453 57.3615C80.936 59.2949 80.7048 61.1319 80.6154 62.7036C80.5412 64.2775 80.5848 65.5862 80.6764 66.5332C80.7092 66.9804 80.7702 67.4144 80.8139 67.7147L80.8684 68.083L80.9251 68.0698C81.3131 69.8911 82.2061 71.5647 83.501 72.8972C84.7959 74.2296 86.4397 75.1664 88.2422 75.5992C90.0448 76.032 91.9324 75.9431 93.6868 75.3428C95.4411 74.7424 96.9905 73.6552 98.1557 72.2069C99.3209 70.7586 100.054 69.0083 100.271 67.1586C100.488 65.3088 100.179 63.4352 99.3805 61.7545C98.582 60.0738 97.3263 58.6546 95.7587 57.6611C94.1911 56.6676 92.3756 56.1404 90.5224 56.1405Z" fill="#C2C2C2"/>
<rect x="56.5846" y="105.646" width="286.831" height="15" fill="#E0E0E0"/>
<rect x="56" y="130.369" width="252.8" height="15" fill="#E0E0E0"/>
<circle cx="88.5" cy="200.5" r="31.5" fill="#C2C2C2"/>
<path d="M88.522 200.508C92.9091 200.508 96.4983 196.919 96.4983 192.532C96.4983 188.145 92.9091 184.556 88.522 184.556C84.135 184.556 80.5458 188.145 80.5458 192.532C80.5458 196.919 84.135 200.508 88.522 200.508Z" fill="#F2F2F2"/>
<path d="M88.522 201.217C81.6981 201.217 76.1588 206.667 75.6714 213.935C75.6272 214.644 75.893 215.397 76.3805 215.929C76.8679 216.461 77.5325 216.726 78.2416 216.726H98.7583C99.4674 216.726 100.132 216.416 100.619 215.929C101.107 215.397 101.373 214.688 101.329 213.935C100.885 206.712 95.3459 201.217 88.5222 201.217H88.522Z" fill="#F2F2F2"/>
<rect x="135.169" y="195.6" width="143.415" height="12.1538" fill="#F2F2F2"/>
<rect x="0.5" y="0.5" width="399" height="299" stroke="#C2C2C2"/>
</svg>
