<svg width="400" height="300" viewBox="0 0 400 300" fill="none" xmlns="http://www.w3.org/2000/svg">
<g clip-path="url(#clip0_78_1875)">
<rect width="400" height="300" fill="white"/>
<path d="M51.406 58.3534C51.0212 58.3534 50.6519 58.4124 50.2843 58.4661C50.4034 58.0638 50.5259 57.6545 50.7227 57.2868C50.9194 56.7527 51.2265 56.2897 51.532 55.8231C51.7874 55.3185 52.2378 54.9768 52.5691 54.545C52.9159 54.1253 53.3888 53.8461 53.7632 53.4975C54.1308 53.1333 54.6122 52.9512 54.9953 52.6946C55.3957 52.4639 55.7442 52.209 56.117 52.0876L57.0471 51.7026L57.865 51.361L57.0281 48L55.9979 48.2497C55.6683 48.333 55.2662 48.4301 54.809 48.5463C54.3413 48.633 53.8426 48.8706 53.2869 49.0874C52.7382 49.3336 52.1032 49.5001 51.513 49.8955C50.9194 50.2736 50.2343 50.5892 49.6303 51.0956C49.0453 51.6176 48.3396 52.0703 47.8184 52.7345C47.249 53.3553 46.6864 54.0074 46.2498 54.7497C45.7442 55.4572 45.4008 56.2342 45.0384 57.0024C44.7105 57.7707 44.4465 58.5563 44.2308 59.3194C43.8218 60.849 43.6389 62.3023 43.5682 63.5457C43.5095 64.7909 43.544 65.8262 43.6165 66.5754C43.6424 66.9292 43.6907 67.2726 43.7252 67.5102L43.7684 67.8015L43.8132 67.7911C44.1201 69.232 44.8267 70.5561 45.8511 71.6102C46.8756 72.6644 48.176 73.4055 49.6021 73.7479C51.0282 74.0903 52.5215 74.02 53.9095 73.545C55.2974 73.0701 56.5232 72.2099 57.445 71.0641C58.3669 69.9183 58.9471 68.5336 59.1186 67.0702C59.2901 65.6068 59.0458 64.1245 58.414 62.7948C57.7823 61.4651 56.7888 60.3423 55.5486 59.5563C54.3085 58.7704 52.8722 58.3533 51.406 58.3534ZM70.388 58.3534C70.0031 58.3534 69.6339 58.4124 69.2663 58.4661C69.3854 58.0638 69.5079 57.6545 69.7046 57.2868C69.9013 56.7527 70.2085 56.2897 70.5139 55.8231C70.7693 55.3185 71.2197 54.9768 71.551 54.545C71.8979 54.1253 72.3707 53.8461 72.7452 53.4975C73.1127 53.1333 73.5942 52.9512 73.9773 52.6946C74.3776 52.4639 74.7262 52.209 75.0989 52.0876L76.0291 51.7026L76.847 51.361L76.0101 48L74.9799 48.2497C74.6503 48.333 74.2482 48.4301 73.7909 48.5463C73.3233 48.633 72.8246 48.8706 72.2689 49.0874C71.7219 49.3354 71.0851 49.5001 70.495 49.8973C69.9013 50.2753 69.2163 50.591 68.6123 51.0973C68.0273 51.6194 67.3215 52.072 66.8004 52.7345C66.2309 53.3553 65.6684 54.0074 65.2318 54.7497C64.7262 55.4572 64.3828 56.2342 64.0204 57.0024C63.6925 57.7707 63.4285 58.5563 63.2128 59.3194C62.8038 60.849 62.6209 62.3023 62.5501 63.5457C62.4915 64.7909 62.526 65.8262 62.5985 66.5754C62.6243 66.9292 62.6727 67.2726 62.7072 67.5102L62.7503 67.8015L62.7952 67.7911C63.1021 69.232 63.8087 70.5561 64.8331 71.6102C65.8575 72.6644 67.158 73.4055 68.5841 73.7479C70.0101 74.0903 71.5035 74.02 72.8914 73.545C74.2794 73.0701 75.5052 72.2099 76.427 71.0641C77.3488 69.9183 77.9291 68.5336 78.1005 67.0702C78.272 65.6068 78.0277 64.1245 77.396 62.7948C76.7642 61.4651 75.7708 60.3423 74.5306 59.5563C73.2904 58.7704 71.8542 58.3533 70.388 58.3534Z" fill="#C2C2C2"/>
<rect x="43.5385" y="97.5192" width="226.923" height="11.8671" fill="#E0E0E0"/>
<rect x="44" y="117.079" width="200" height="11.8671" fill="#E0E0E0"/>
<rect x="105.71" y="168.685" width="113.462" height="9.61538" fill="#F2F2F2"/>
<path d="M317.406 58.3534C317.021 58.3534 316.652 58.4124 316.284 58.4661C316.403 58.0638 316.526 57.6545 316.723 57.2868C316.919 56.7527 317.227 56.2897 317.532 55.8231C317.787 55.3185 318.238 54.9768 318.569 54.545C318.916 54.1253 319.389 53.8461 319.763 53.4975C320.131 53.1333 320.612 52.9512 320.995 52.6946C321.396 52.4639 321.744 52.209 322.117 52.0876L323.047 51.7026L323.865 51.361L323.028 48L321.998 48.2497C321.668 48.333 321.266 48.4301 320.809 48.5463C320.341 48.633 319.843 48.8706 319.287 49.0874C318.738 49.3336 318.103 49.5001 317.513 49.8955C316.919 50.2736 316.234 50.5892 315.63 51.0956C315.045 51.6176 314.34 52.0703 313.818 52.7345C313.249 53.3553 312.686 54.0074 312.25 54.7497C311.744 55.4572 311.401 56.2342 311.038 57.0024C310.711 57.7707 310.447 58.5563 310.231 59.3194C309.822 60.849 309.639 62.3023 309.568 63.5457C309.51 64.7909 309.544 65.8262 309.616 66.5754C309.642 66.9292 309.691 67.2726 309.725 67.5102L309.768 67.8015L309.813 67.7911C310.12 69.232 310.827 70.5561 311.851 71.6102C312.876 72.6644 314.176 73.4055 315.602 73.7479C317.028 74.0903 318.522 74.02 319.909 73.545C321.297 73.0701 322.523 72.2099 323.445 71.0641C324.367 69.9183 324.947 68.5336 325.119 67.0702C325.29 65.6068 325.046 64.1245 324.414 62.7948C323.782 61.4651 322.789 60.3423 321.549 59.5563C320.308 58.7704 318.872 58.3533 317.406 58.3534ZM336.388 58.3534C336.003 58.3534 335.634 58.4124 335.266 58.4661C335.385 58.0638 335.508 57.6545 335.705 57.2868C335.901 56.7527 336.208 56.2897 336.514 55.8231C336.769 55.3185 337.22 54.9768 337.551 54.545C337.898 54.1253 338.371 53.8461 338.745 53.4975C339.113 53.1333 339.594 52.9512 339.977 52.6946C340.378 52.4639 340.726 52.209 341.099 52.0876L342.029 51.7026L342.847 51.361L342.01 48L340.98 48.2497C340.65 48.333 340.248 48.4301 339.791 48.5463C339.323 48.633 338.825 48.8706 338.269 49.0874C337.722 49.3354 337.085 49.5001 336.495 49.8973C335.901 50.2753 335.216 50.591 334.612 51.0973C334.027 51.6194 333.322 52.072 332.8 52.7345C332.231 53.3553 331.668 54.0074 331.232 54.7497C330.726 55.4572 330.383 56.2342 330.02 57.0024C329.693 57.7707 329.428 58.5563 329.213 59.3194C328.804 60.849 328.621 62.3023 328.55 63.5457C328.491 64.7909 328.526 65.8262 328.598 66.5754C328.624 66.9292 328.673 67.2726 328.707 67.5102L328.75 67.8015L328.795 67.7911C329.102 69.232 329.809 70.5561 330.833 71.6102C331.858 72.6644 333.158 73.4055 334.584 73.7479C336.01 74.0903 337.503 74.02 338.891 73.545C340.279 73.0701 341.505 72.2099 342.427 71.0641C343.349 69.9183 343.929 68.5336 344.101 67.0702C344.272 65.6068 344.028 64.1245 343.396 62.7948C342.764 61.4651 341.771 60.3423 340.531 59.5563C339.29 58.7704 337.854 58.3533 336.388 58.3534Z" fill="#C2C2C2"/>
<rect x="309.538" y="97.5192" width="226.923" height="11.8671" fill="#E0E0E0"/>
<rect x="309.538" y="117.079" width="200" height="11.8671" fill="#E0E0E0"/>
<rect x="371.71" y="168.685" width="113.462" height="9.61538" fill="#F2F2F2"/>
<circle cx="315" cy="252.135" r="5" fill="#C2C2C2"/>
<circle cx="329" cy="252.135" r="5" fill="#E0E0E0"/>
<circle cx="343" cy="252.135" r="5" fill="#E0E0E0"/>
<circle cx="70" cy="173" r="26" fill="#C2C2C2"/>
<path d="M70.0182 172.507C73.6393 172.507 76.6018 169.544 76.6018 165.923C76.6018 162.302 73.6393 159.339 70.0182 159.339C66.3972 159.339 63.4346 162.302 63.4346 165.923C63.4346 169.544 66.3972 172.507 70.0182 172.507Z" fill="#F2F2F2"/>
<path d="M70.0182 173.092C64.3857 173.092 59.8137 177.591 59.4113 183.589C59.3749 184.174 59.5943 184.796 59.9966 185.235C60.3989 185.674 60.9475 185.893 61.5328 185.893H78.4672C79.0525 185.893 79.601 185.637 80.0034 185.235C80.4057 184.796 80.6252 184.211 80.5887 183.589C80.2226 177.627 75.6506 173.092 70.0183 173.092H70.0182Z" fill="#F2F2F2"/>
<circle cx="336" cy="173" r="26" fill="#C2C2C2"/>
<path d="M336.018 172.507C339.639 172.507 342.602 169.544 342.602 165.923C342.602 162.302 339.639 159.339 336.018 159.339C332.397 159.339 329.435 162.302 329.435 165.923C329.435 169.544 332.397 172.507 336.018 172.507Z" fill="#F2F2F2"/>
<path d="M336.018 173.092C330.386 173.092 325.814 177.591 325.411 183.589C325.375 184.174 325.594 184.796 325.997 185.235C326.399 185.674 326.948 185.893 327.533 185.893H344.467C345.052 185.893 345.601 185.637 346.003 185.235C346.406 184.796 346.625 184.211 346.589 183.589C346.223 177.627 341.651 173.092 336.018 173.092H336.018Z" fill="#F2F2F2"/>
</g>
<rect x="0.5" y="0.5" width="399" height="299" stroke="#C2C2C2"/>
<defs>
<clipPath id="clip0_78_1875">
<rect width="400" height="300" fill="white"/>
</clipPath>
</defs>
</svg>
