<svg width="400" height="300" viewBox="0 0 400 300" fill="none" xmlns="http://www.w3.org/2000/svg">
<rect x="0.5" y="0.5" width="399" height="299" fill="white"/>
<rect x="31" y="133" width="108" height="16" fill="#C2C2C2"/>
<rect x="31" y="207" width="47" height="19" fill="#448EF7"/>
<rect x="31" y="161" width="149" height="10" fill="#E0E0E0"/>
<rect x="31" y="176" width="109" height="10" fill="#E0E0E0"/>
<path d="M46.2433 114.28V108.568H31V103.168L42.0144 79.72H48.5848L37.5704 103.168H46.2433V94.168H52.0731V103.168H55.2985V108.568H52.0731V114.28H46.2433Z" fill="#C2C2C2"/>
<path d="M71.4927 115C69.0557 115 66.9054 114.48 65.0418 113.44C63.1782 112.384 61.7207 110.92 60.6695 109.048C59.6341 107.176 59.1165 105.016 59.1165 102.568V91.432C59.1165 88.984 59.6341 86.824 60.6695 84.952C61.7207 83.08 63.1782 81.624 65.0418 80.584C66.9054 79.528 69.0557 79 71.4927 79C73.9297 79 76.0721 79.528 77.9198 80.584C79.7834 81.624 81.2408 83.08 82.2921 84.952C83.3433 86.824 83.869 88.984 83.869 91.432V102.568C83.869 105.016 83.3433 107.176 82.2921 109.048C81.2408 110.92 79.7834 112.384 77.9198 113.44C76.0721 114.48 73.9297 115 71.4927 115ZM71.4927 109.504C72.7033 109.504 73.8023 109.216 74.7899 108.64C75.7774 108.048 76.5579 107.264 77.1313 106.288C77.7047 105.296 77.9914 104.192 77.9914 102.976V91C77.9914 89.768 77.7047 88.664 77.1313 87.688C76.5579 86.696 75.7774 85.912 74.7899 85.336C73.8023 84.744 72.7033 84.448 71.4927 84.448C70.2822 84.448 69.1831 84.744 68.1956 85.336C67.208 85.912 66.4275 86.696 65.8541 87.688C65.2807 88.664 64.994 89.768 64.994 91V102.976C64.994 104.192 65.2807 105.296 65.8541 106.288C66.4275 107.264 67.208 108.048 68.1956 108.64C69.1831 109.216 70.2822 109.504 71.4927 109.504Z" fill="#C2C2C2"/>
<path d="M102.945 114.28V108.568H87.7015V103.168L98.7158 79.72H105.286L94.2719 103.168H102.945V94.168H108.775V103.168H112V108.568H108.775V114.28H102.945Z" fill="#C2C2C2"/>
<rect x="206" y="70" width="160" height="160" fill="#F2F2F2"/>
<path d="M257 129V172H315.982V129H257V129ZM265.022 135.598C266.881 135.598 268.394 137.11 268.394 138.97C268.394 140.829 266.882 142.363 265.022 142.363C263.162 142.363 261.628 140.83 261.628 138.97C261.628 137.11 263.162 135.598 265.022 135.598ZM277.567 140.122L290.26 158.428C293.643 156.33 296.598 153.09 299.686 150.322L314.034 161.444V169.613H259.241L259.464 154.816C262.976 151.41 272.187 144.376 277.568 140.122L277.567 140.122Z" fill="#C2C2C2"/>
<rect x="0.5" y="0.5" width="399" height="299" stroke="#C2C2C2"/>
</svg>
