<svg width="400" height="300" viewBox="0 0 400 300" fill="none" xmlns="http://www.w3.org/2000/svg">
<rect x="0.5" y="0.5" width="399" height="299" fill="white"/>
<path fill-rule="evenodd" clip-rule="evenodd" d="M54.9595 164.736C53.2852 163.99 51.4147 163.805 49.6268 164.209C47.8389 164.613 46.2295 165.584 45.0385 166.977C43.8476 168.371 43.139 170.112 43.0184 171.941C42.8978 173.77 43.3717 175.589 44.3693 177.126C45.367 178.664 46.8349 179.838 48.5543 180.473C50.2737 181.108 52.1523 181.171 53.9101 180.651C55.6678 180.131 57.2104 179.057 58.3079 177.589C59.4054 176.121 59.999 174.338 60 172.505V170.086H63V172.506C62.9986 174.986 62.1956 177.399 60.7107 179.386C59.2259 181.372 57.1388 182.825 54.7607 183.528C52.3825 184.231 49.8408 184.147 47.5146 183.287C45.1884 182.428 43.2024 180.84 41.8526 178.759C40.5029 176.679 39.8618 174.218 40.0249 171.743C40.1881 169.269 41.1468 166.913 42.758 165.028C44.3693 163.143 46.5467 161.829 48.9656 161.283C51.3845 160.736 53.9153 160.986 56.1805 161.996L57.5506 162.606L56.3296 165.346L54.9595 164.736ZM63.6213 164.505L52.5612 175.576C52.2799 175.857 51.8983 176.016 51.5004 176.016C51.1024 176.016 50.7207 175.858 50.4393 175.576L46.3787 171.516L48.5 169.394L51.4995 172.394L61.4989 162.384L63.6213 164.505Z" fill="#C2C2C2"/>
<path fill-rule="evenodd" clip-rule="evenodd" d="M54.9595 195.736C53.2852 194.99 51.4147 194.805 49.6268 195.209C47.8389 195.613 46.2295 196.584 45.0385 197.977C43.8476 199.371 43.139 201.112 43.0184 202.941C42.8978 204.77 43.3717 206.589 44.3693 208.126C45.367 209.664 46.8349 210.838 48.5543 211.473C50.2737 212.108 52.1523 212.171 53.9101 211.651C55.6678 211.131 57.2104 210.057 58.3079 208.589C59.4054 207.121 59.999 205.338 60 203.505V201.086H63V203.506C62.9986 205.986 62.1956 208.399 60.7107 210.386C59.2259 212.372 57.1388 213.825 54.7607 214.528C52.3825 215.231 49.8408 215.147 47.5146 214.287C45.1884 213.428 43.2024 211.84 41.8526 209.759C40.5029 207.679 39.8618 205.218 40.0249 202.743C40.1881 200.269 41.1468 197.913 42.758 196.028C44.3693 194.143 46.5467 192.829 48.9656 192.283C51.3845 191.736 53.9153 191.986 56.1805 192.996L57.5506 193.606L56.3296 196.346L54.9595 195.736ZM63.6213 195.505L52.5612 206.576C52.2799 206.857 51.8983 207.016 51.5004 207.016C51.1024 207.016 50.7207 206.858 50.4393 206.576L46.3787 202.516L48.5 200.394L51.4995 203.394L61.4989 193.384L63.6213 195.505Z" fill="#C2C2C2"/>
<rect x="71" y="169" width="115" height="7" fill="#E0E0E0"/>
<rect x="71" y="200" width="115" height="7" fill="#E0E0E0"/>
<rect x="206" y="70" width="160" height="160" fill="#F2F2F2"/>
<rect x="40" y="86" width="109" height="14" fill="#C2C2C2"/>
<rect x="40" y="116" width="146" height="7" fill="#E0E0E0"/>
<rect x="40" y="130" width="121" height="7" fill="#E0E0E0"/>
<path d="M257 129V172H315.982V129H257V129ZM265.022 135.598C266.881 135.598 268.394 137.11 268.394 138.97C268.394 140.829 266.882 142.363 265.022 142.363C263.162 142.363 261.628 140.83 261.628 138.97C261.628 137.11 263.162 135.598 265.022 135.598ZM277.567 140.122L290.26 158.428C293.643 156.33 296.598 153.09 299.686 150.322L314.034 161.444V169.613H259.241L259.464 154.816C262.976 151.41 272.187 144.376 277.568 140.122L277.567 140.122Z" fill="#C2C2C2"/>
<rect x="0.5" y="0.5" width="399" height="299" stroke="#C2C2C2"/>
</svg>
