<svg width="400" height="300" viewBox="0 0 400 300" fill="none" xmlns="http://www.w3.org/2000/svg">
<rect x="0.5" y="0.5" width="399" height="299" fill="white"/>
<rect x="171" y="70.2539" width="197" height="82" fill="#F2F2F2"/>
<path d="M243.724 91.2983V130.882H298.021V91.2983H243.724ZM251.109 97.372C252.821 97.372 254.213 98.7643 254.213 100.476C254.213 102.188 252.821 103.6 251.109 103.6C249.397 103.6 247.985 102.188 247.985 100.476C247.985 98.7643 249.397 97.372 251.109 97.372ZM262.658 101.537L274.342 118.389C277.457 116.457 280.177 113.475 283.019 110.927L296.227 121.165V128.685H245.787L245.993 115.063C249.226 111.928 257.705 105.453 262.658 101.537L262.658 101.537Z" fill="#C2C2C2"/>
<rect x="171" y="165.254" width="105" height="18" fill="#E0E0E0"/>
<rect x="171" y="190.254" width="197" height="10" fill="#F2F2F2"/>
<rect x="171" y="205.254" width="197" height="9" fill="#F2F2F2"/>
<rect x="171" y="220.254" width="145" height="9" fill="#F2F2F2"/>
<g clip-path="url(#clip0_303_1778)">
<path fill-rule="evenodd" clip-rule="evenodd" d="M48 154.5H32V151.5H48V154.5Z" fill="#448EF7"/>
<path d="M54.2112 163.533V160.297L61.9087 153.296C62.5634 152.673 63.1125 152.113 63.5559 151.615C64.0065 151.117 64.3479 150.63 64.5802 150.153C64.8125 149.669 64.9286 149.147 64.9286 148.587C64.9286 147.964 64.7843 147.428 64.4957 146.979C64.2071 146.522 63.8129 146.173 63.3131 145.931C62.8133 145.682 62.2466 145.558 61.6131 145.558C60.9514 145.558 60.3742 145.689 59.8814 145.952C59.3886 146.215 59.0085 146.592 58.741 147.083C58.4735 147.573 58.3398 148.158 58.3398 148.835H54C54 147.446 54.3203 146.239 54.9609 145.215C55.6015 144.192 56.499 143.4 57.6534 142.84C58.8079 142.28 60.1383 142 61.6448 142C63.1934 142 64.5415 142.27 65.6889 142.809C66.8433 143.342 67.7409 144.081 68.3814 145.029C69.022 145.976 69.3423 147.062 69.3423 148.286C69.3423 149.088 69.1804 149.88 68.8566 150.661C68.5398 151.442 67.9732 152.31 67.1566 153.264C66.34 154.212 65.1891 155.349 63.7038 156.677L60.5466 159.716V159.861H69.6274V163.533H54.2112Z" fill="#448EF7"/>
<path d="M79.6352 164C77.819 163.993 76.2563 163.554 74.947 162.683C73.6447 161.811 72.6416 160.549 71.9376 158.897C71.2407 157.244 70.8958 155.256 70.9028 152.933C70.9028 150.616 71.2513 148.642 71.9482 147.01C72.6521 145.378 73.6552 144.137 74.9575 143.286C76.2668 142.429 77.8261 142 79.6352 142C81.4443 142 83 142.429 84.3023 143.286C85.6116 144.144 86.6182 145.388 87.3222 147.02C88.0261 148.645 88.3746 150.616 88.3675 152.933C88.3675 155.263 88.0155 157.254 87.3116 158.907C86.6147 160.56 85.6151 161.822 84.3128 162.693C83.0106 163.564 81.4513 164 79.6352 164ZM79.6352 160.276C80.8741 160.276 81.8631 159.664 82.6023 158.44C83.3414 157.216 83.7075 155.38 83.7004 152.933C83.7004 151.321 83.5315 149.98 83.1936 148.908C82.8627 147.836 82.3911 147.031 81.7787 146.491C81.1733 145.952 80.4588 145.682 79.6352 145.682C78.4033 145.682 77.4178 146.287 76.6786 147.497C75.9395 148.708 75.5664 150.519 75.5594 152.933C75.5594 154.565 75.7248 155.927 76.0557 157.019C76.3935 158.105 76.8687 158.921 77.4811 159.467C78.0936 160.007 78.8116 160.276 79.6352 160.276Z" fill="#448EF7"/>
<path d="M89.8436 163.533V160.297L97.5411 153.296C98.1958 152.673 98.7448 152.113 99.1883 151.615C99.6388 151.117 99.9803 150.63 100.213 150.153C100.445 149.669 100.561 149.147 100.561 148.587C100.561 147.964 100.417 147.428 100.128 146.979C99.8395 146.522 99.4453 146.173 98.9455 145.931C98.4457 145.682 97.879 145.558 97.2455 145.558C96.5838 145.558 96.0065 145.689 95.5138 145.952C95.021 146.215 94.6409 146.592 94.3734 147.083C94.1059 147.573 93.9722 148.158 93.9722 148.835H89.6324C89.6324 147.446 89.9527 146.239 90.5933 145.215C91.2338 144.192 92.1314 143.4 93.2858 142.84C94.4403 142.28 95.7707 142 97.2771 142C98.8258 142 100.174 142.27 101.321 142.809C102.476 143.342 103.373 144.081 104.014 145.029C104.654 145.976 104.975 147.062 104.975 148.286C104.975 149.088 104.813 149.88 104.489 150.661C104.172 151.442 103.606 152.31 102.789 153.264C101.972 154.212 100.821 155.349 99.3362 156.677L96.179 159.716V159.861H105.26V163.533H89.8436Z" fill="#448EF7"/>
<path d="M115.268 164C113.451 163.993 111.889 163.554 110.579 162.683C109.277 161.811 108.274 160.549 107.57 158.897C106.873 157.244 106.528 155.256 106.535 152.933C106.535 150.616 106.884 148.642 107.581 147.01C108.284 145.378 109.288 144.137 110.59 143.286C111.899 142.429 113.458 142 115.268 142C117.077 142 118.632 142.429 119.935 143.286C121.244 144.144 122.251 145.388 122.955 147.02C123.658 148.645 124.007 150.616 124 152.933C124 155.263 123.648 157.254 122.944 158.907C122.247 160.56 121.247 161.822 119.945 162.693C118.643 163.564 117.084 164 115.268 164ZM115.268 160.276C116.506 160.276 117.496 159.664 118.235 158.44C118.974 157.216 119.34 155.38 119.333 152.933C119.333 151.321 119.164 149.98 118.826 148.908C118.495 147.836 118.023 147.031 117.411 146.491C116.806 145.952 116.091 145.682 115.268 145.682C114.036 145.682 113.05 146.287 112.311 147.497C111.572 148.708 111.199 150.519 111.192 152.933C111.192 154.565 111.357 155.927 111.688 157.019C112.026 158.105 112.501 158.921 113.114 159.467C113.726 160.007 114.444 160.276 115.268 160.276Z" fill="#448EF7"/>
</g>
<g clip-path="url(#clip1_303_1778)">
<path fill-rule="evenodd" clip-rule="evenodd" d="M48 210.5H32V209.5H48V210.5Z" fill="#C2C2C2"/>
<path d="M55.2045 216V214.977L59.0455 210.773C59.4962 210.28 59.8674 209.852 60.1591 209.489C60.4508 209.121 60.6667 208.777 60.8068 208.455C60.9508 208.129 61.0227 207.788 61.0227 207.432C61.0227 207.023 60.9242 206.669 60.7273 206.369C60.5341 206.07 60.2689 205.839 59.9318 205.676C59.5947 205.513 59.2159 205.432 58.7955 205.432C58.3485 205.432 57.9583 205.525 57.625 205.71C57.2955 205.892 57.0398 206.148 56.858 206.477C56.6799 206.807 56.5909 207.193 56.5909 207.636H55.25C55.25 206.955 55.4072 206.356 55.7216 205.841C56.036 205.326 56.464 204.924 57.0057 204.636C57.5511 204.348 58.1629 204.205 58.8409 204.205C59.5227 204.205 60.1269 204.348 60.6534 204.636C61.1799 204.924 61.5928 205.312 61.892 205.801C62.1913 206.29 62.3409 206.833 62.3409 207.432C62.3409 207.86 62.2633 208.278 62.108 208.688C61.9564 209.093 61.6913 209.545 61.3125 210.045C60.9375 210.542 60.4167 211.148 59.75 211.864L57.1364 214.659V214.75H62.5455V216H55.2045ZM67.7275 216.159C66.8714 216.159 66.1423 215.926 65.54 215.46C64.9377 214.991 64.4775 214.311 64.1593 213.42C63.8411 212.527 63.682 211.447 63.682 210.182C63.682 208.924 63.8411 207.85 64.1593 206.96C64.4813 206.066 64.9434 205.384 65.5457 204.915C66.1517 204.441 66.879 204.205 67.7275 204.205C68.576 204.205 69.3014 204.441 69.9036 204.915C70.5097 205.384 70.9718 206.066 71.29 206.96C71.612 207.85 71.773 208.924 71.773 210.182C71.773 211.447 71.6139 212.527 71.2957 213.42C70.9775 214.311 70.5173 214.991 69.915 215.46C69.3127 215.926 68.5836 216.159 67.7275 216.159ZM67.7275 214.909C68.576 214.909 69.2351 214.5 69.7048 213.682C70.1745 212.864 70.4093 211.697 70.4093 210.182C70.4093 209.174 70.3014 208.316 70.0855 207.608C69.8733 206.9 69.5665 206.36 69.165 205.989C68.7673 205.617 68.2881 205.432 67.7275 205.432C66.8866 205.432 66.2294 205.847 65.7559 206.676C65.2824 207.502 65.0457 208.67 65.0457 210.182C65.0457 211.189 65.1517 212.045 65.3639 212.75C65.576 213.455 65.8809 213.991 66.2786 214.358C66.6802 214.725 67.1631 214.909 67.7275 214.909ZM72.972 216V214.977L76.813 210.773C77.2637 210.28 77.6349 209.852 77.9266 209.489C78.2183 209.121 78.4342 208.777 78.5743 208.455C78.7183 208.129 78.7902 207.788 78.7902 207.432C78.7902 207.023 78.6917 206.669 78.4948 206.369C78.3016 206.07 78.0364 205.839 77.6993 205.676C77.3622 205.513 76.9834 205.432 76.563 205.432C76.116 205.432 75.7258 205.525 75.3925 205.71C75.063 205.892 74.8073 206.148 74.6255 206.477C74.4474 206.807 74.3584 207.193 74.3584 207.636H73.0175C73.0175 206.955 73.1747 206.356 73.4891 205.841C73.8035 205.326 74.2315 204.924 74.7732 204.636C75.3186 204.348 75.9304 204.205 76.6084 204.205C77.2902 204.205 77.8944 204.348 78.4209 204.636C78.9474 204.924 79.3603 205.312 79.6595 205.801C79.9588 206.29 80.1084 206.833 80.1084 207.432C80.1084 207.86 80.0308 208.278 79.8755 208.688C79.7239 209.093 79.4588 209.545 79.08 210.045C78.705 210.542 78.1842 211.148 77.5175 211.864L74.9039 214.659V214.75H80.313V216H72.972ZM85.7905 204.364V216H84.3814V205.841H84.3132L81.4723 207.727V206.295L84.3814 204.364H85.7905Z" fill="#999999"/>
</g>
<g clip-path="url(#clip2_303_1778)">
<path fill-rule="evenodd" clip-rule="evenodd" d="M48 40.5H32V39.5H48V40.5Z" fill="#C2C2C2"/>
<path d="M55.2045 46V44.9773L59.0455 40.7727C59.4962 40.2803 59.8674 39.8523 60.1591 39.4886C60.4508 39.1212 60.6667 38.7765 60.8068 38.4545C60.9508 38.1288 61.0227 37.7879 61.0227 37.4318C61.0227 37.0227 60.9242 36.6686 60.7273 36.3693C60.5341 36.0701 60.2689 35.839 59.9318 35.6761C59.5947 35.5133 59.2159 35.4318 58.7955 35.4318C58.3485 35.4318 57.9583 35.5246 57.625 35.7102C57.2955 35.892 57.0398 36.1477 56.858 36.4773C56.6799 36.8068 56.5909 37.1932 56.5909 37.6364H55.25C55.25 36.9545 55.4072 36.3561 55.7216 35.8409C56.036 35.3258 56.464 34.9242 57.0057 34.6364C57.5511 34.3485 58.1629 34.2045 58.8409 34.2045C59.5227 34.2045 60.1269 34.3485 60.6534 34.6364C61.1799 34.9242 61.5928 35.3125 61.892 35.8011C62.1913 36.2898 62.3409 36.8333 62.3409 37.4318C62.3409 37.8598 62.2633 38.2784 62.108 38.6875C61.9564 39.0928 61.6913 39.5455 61.3125 40.0455C60.9375 40.5417 60.4167 41.1477 59.75 41.8636L57.1364 44.6591V44.75H62.5455V46H55.2045ZM67.7275 46.1591C66.8714 46.1591 66.1423 45.9261 65.54 45.4602C64.9377 44.9905 64.4775 44.3106 64.1593 43.4205C63.8411 42.5265 63.682 41.447 63.682 40.1818C63.682 38.9242 63.8411 37.8504 64.1593 36.9602C64.4813 36.0663 64.9434 35.3845 65.5457 34.9148C66.1517 34.4413 66.879 34.2045 67.7275 34.2045C68.576 34.2045 69.3014 34.4413 69.9036 34.9148C70.5097 35.3845 70.9718 36.0663 71.29 36.9602C71.612 37.8504 71.773 38.9242 71.773 40.1818C71.773 41.447 71.6139 42.5265 71.2957 43.4205C70.9775 44.3106 70.5173 44.9905 69.915 45.4602C69.3127 45.9261 68.5836 46.1591 67.7275 46.1591ZM67.7275 44.9091C68.576 44.9091 69.2351 44.5 69.7048 43.6818C70.1745 42.8636 70.4093 41.697 70.4093 40.1818C70.4093 39.1742 70.3014 38.3163 70.0855 37.608C69.8733 36.8996 69.5665 36.3598 69.165 35.9886C68.7673 35.6174 68.2881 35.4318 67.7275 35.4318C66.8866 35.4318 66.2294 35.8466 65.7559 36.6761C65.2824 37.5019 65.0457 38.6705 65.0457 40.1818C65.0457 41.1894 65.1517 42.0455 65.3639 42.75C65.576 43.4545 65.8809 43.9905 66.2786 44.358C66.6802 44.7254 67.1631 44.9091 67.7275 44.9091ZM77.063 34.3636V46H75.6539V35.8409H75.5857L72.7448 37.7273V36.2955L75.6539 34.3636H77.063ZM83.1768 46.1591C82.3965 46.1591 81.7071 46.0208 81.1086 45.7443C80.5139 45.464 80.0499 45.0795 79.7166 44.5909C79.3833 44.0985 79.2185 43.5379 79.2223 42.9091C79.2185 42.4167 79.3151 41.9621 79.512 41.5455C79.709 41.125 79.978 40.7746 80.3189 40.4943C80.6636 40.2102 81.048 40.0303 81.4723 39.9545V39.8864C80.9155 39.7424 80.4723 39.4299 80.1427 38.9489C79.8132 38.464 79.6503 37.9129 79.6541 37.2955C79.6503 36.7045 79.7999 36.1761 80.103 35.7102C80.406 35.2443 80.8227 34.8769 81.353 34.608C81.887 34.339 82.495 34.2045 83.1768 34.2045C83.8511 34.2045 84.4533 34.339 84.9836 34.608C85.5139 34.8769 85.9306 35.2443 86.2336 35.7102C86.5405 36.1761 86.6958 36.7045 86.6995 37.2955C86.6958 37.9129 86.5272 38.464 86.1939 38.9489C85.8643 39.4299 85.4268 39.7424 84.8814 39.8864V39.9545C85.3018 40.0303 85.6806 40.2102 86.0177 40.4943C86.3548 40.7746 86.6238 41.125 86.8245 41.5455C87.0253 41.9621 87.1276 42.4167 87.1314 42.9091C87.1276 43.5379 86.9571 44.0985 86.62 44.5909C86.2867 45.0795 85.8227 45.464 85.228 45.7443C84.637 46.0208 83.9533 46.1591 83.1768 46.1591ZM83.1768 44.9091C83.7033 44.9091 84.1579 44.8239 84.5405 44.6534C84.923 44.483 85.2185 44.2424 85.4268 43.9318C85.6352 43.6212 85.7412 43.2576 85.745 42.8409C85.7412 42.4015 85.6276 42.0133 85.4041 41.6761C85.1806 41.339 84.8757 41.0739 84.4893 40.8807C84.1067 40.6875 83.6692 40.5909 83.1768 40.5909C82.6806 40.5909 82.2374 40.6875 81.8473 40.8807C81.4609 41.0739 81.156 41.339 80.9325 41.6761C80.7128 42.0133 80.6048 42.4015 80.6086 42.8409C80.6048 43.2576 80.7052 43.6212 80.9098 43.9318C81.1181 44.2424 81.4155 44.483 81.8018 44.6534C82.1882 44.8239 82.6465 44.9091 83.1768 44.9091ZM83.1768 39.3864C83.5935 39.3864 83.9628 39.303 84.2848 39.1364C84.6105 38.9697 84.8662 38.7367 85.0518 38.4375C85.2374 38.1383 85.3321 37.7879 85.3359 37.3864C85.3321 36.9924 85.2393 36.6496 85.0575 36.358C84.8757 36.0625 84.6238 35.8352 84.3018 35.6761C83.9798 35.5133 83.6048 35.4318 83.1768 35.4318C82.7412 35.4318 82.3605 35.5133 82.0348 35.6761C81.709 35.8352 81.4571 36.0625 81.2791 36.358C81.1011 36.6496 81.0139 36.9924 81.0177 37.3864C81.0139 37.7879 81.103 38.1383 81.2848 38.4375C81.4704 38.7367 81.7261 38.9697 82.0518 39.1364C82.3776 39.303 82.7526 39.3864 83.1768 39.3864Z" fill="#999999"/>
</g>
<g clip-path="url(#clip3_303_1778)">
<path fill-rule="evenodd" clip-rule="evenodd" d="M48 266.5H32V265.5H48V266.5Z" fill="#C2C2C2"/>
<path d="M55.2045 272V270.977L59.0455 266.773C59.4962 266.28 59.8674 265.852 60.1591 265.489C60.4508 265.121 60.6667 264.777 60.8068 264.455C60.9508 264.129 61.0227 263.788 61.0227 263.432C61.0227 263.023 60.9242 262.669 60.7273 262.369C60.5341 262.07 60.2689 261.839 59.9318 261.676C59.5947 261.513 59.2159 261.432 58.7955 261.432C58.3485 261.432 57.9583 261.525 57.625 261.71C57.2955 261.892 57.0398 262.148 56.858 262.477C56.6799 262.807 56.5909 263.193 56.5909 263.636H55.25C55.25 262.955 55.4072 262.356 55.7216 261.841C56.036 261.326 56.464 260.924 57.0057 260.636C57.5511 260.348 58.1629 260.205 58.8409 260.205C59.5227 260.205 60.1269 260.348 60.6534 260.636C61.1799 260.924 61.5928 261.312 61.892 261.801C62.1913 262.29 62.3409 262.833 62.3409 263.432C62.3409 263.86 62.2633 264.278 62.108 264.688C61.9564 265.093 61.6913 265.545 61.3125 266.045C60.9375 266.542 60.4167 267.148 59.75 267.864L57.1364 270.659V270.75H62.5455V272H55.2045ZM67.7275 272.159C66.8714 272.159 66.1423 271.926 65.54 271.46C64.9377 270.991 64.4775 270.311 64.1593 269.42C63.8411 268.527 63.682 267.447 63.682 266.182C63.682 264.924 63.8411 263.85 64.1593 262.96C64.4813 262.066 64.9434 261.384 65.5457 260.915C66.1517 260.441 66.879 260.205 67.7275 260.205C68.576 260.205 69.3014 260.441 69.9036 260.915C70.5097 261.384 70.9718 262.066 71.29 262.96C71.612 263.85 71.773 264.924 71.773 266.182C71.773 267.447 71.6139 268.527 71.2957 269.42C70.9775 270.311 70.5173 270.991 69.915 271.46C69.3127 271.926 68.5836 272.159 67.7275 272.159ZM67.7275 270.909C68.576 270.909 69.2351 270.5 69.7048 269.682C70.1745 268.864 70.4093 267.697 70.4093 266.182C70.4093 265.174 70.3014 264.316 70.0855 263.608C69.8733 262.9 69.5665 262.36 69.165 261.989C68.7673 261.617 68.2881 261.432 67.7275 261.432C66.8866 261.432 66.2294 261.847 65.7559 262.676C65.2824 263.502 65.0457 264.67 65.0457 266.182C65.0457 267.189 65.1517 268.045 65.3639 268.75C65.576 269.455 65.8809 269.991 66.2786 270.358C66.6802 270.725 67.1631 270.909 67.7275 270.909ZM72.972 272V270.977L76.813 266.773C77.2637 266.28 77.6349 265.852 77.9266 265.489C78.2183 265.121 78.4342 264.777 78.5743 264.455C78.7183 264.129 78.7902 263.788 78.7902 263.432C78.7902 263.023 78.6917 262.669 78.4948 262.369C78.3016 262.07 78.0364 261.839 77.6993 261.676C77.3622 261.513 76.9834 261.432 76.563 261.432C76.116 261.432 75.7258 261.525 75.3925 261.71C75.063 261.892 74.8073 262.148 74.6255 262.477C74.4474 262.807 74.3584 263.193 74.3584 263.636H73.0175C73.0175 262.955 73.1747 262.356 73.4891 261.841C73.8035 261.326 74.2315 260.924 74.7732 260.636C75.3186 260.348 75.9304 260.205 76.6084 260.205C77.2902 260.205 77.8944 260.348 78.4209 260.636C78.9474 260.924 79.3603 261.312 79.6595 261.801C79.9588 262.29 80.1084 262.833 80.1084 263.432C80.1084 263.86 80.0308 264.278 79.8755 264.688C79.7239 265.093 79.4588 265.545 79.08 266.045C78.705 266.542 78.1842 267.148 77.5175 267.864L74.9039 270.659V270.75H80.313V272H72.972ZM81.6995 272V270.977L85.5405 266.773C85.9912 266.28 86.3624 265.852 86.6541 265.489C86.9458 265.121 87.1617 264.777 87.3018 264.455C87.4458 264.129 87.5177 263.788 87.5177 263.432C87.5177 263.023 87.4192 262.669 87.2223 262.369C87.0291 262.07 86.7639 261.839 86.4268 261.676C86.0897 261.513 85.7109 261.432 85.2905 261.432C84.8435 261.432 84.4533 261.525 84.12 261.71C83.7905 261.892 83.5348 262.148 83.353 262.477C83.1749 262.807 83.0859 263.193 83.0859 263.636H81.745C81.745 262.955 81.9022 262.356 82.2166 261.841C82.531 261.326 82.959 260.924 83.5007 260.636C84.0461 260.348 84.6579 260.205 85.3359 260.205C86.0177 260.205 86.6219 260.348 87.1484 260.636C87.6749 260.924 88.0878 261.312 88.387 261.801C88.6863 262.29 88.8359 262.833 88.8359 263.432C88.8359 263.86 88.7583 264.278 88.603 264.688C88.4514 265.093 88.1863 265.545 87.8075 266.045C87.4325 266.542 86.9117 267.148 86.245 267.864L83.6314 270.659V270.75H89.0405V272H81.6995Z" fill="#999999"/>
</g>
<g clip-path="url(#clip4_303_1778)">
<path fill-rule="evenodd" clip-rule="evenodd" d="M48 96.5H32V95.5H48V96.5Z" fill="#C2C2C2"/>
<path d="M55.2045 102V100.977L59.0455 96.7727C59.4962 96.2803 59.8674 95.8523 60.1591 95.4886C60.4508 95.1212 60.6667 94.7765 60.8068 94.4545C60.9508 94.1288 61.0227 93.7879 61.0227 93.4318C61.0227 93.0227 60.9242 92.6686 60.7273 92.3693C60.5341 92.0701 60.2689 91.839 59.9318 91.6761C59.5947 91.5133 59.2159 91.4318 58.7955 91.4318C58.3485 91.4318 57.9583 91.5246 57.625 91.7102C57.2955 91.892 57.0398 92.1477 56.858 92.4773C56.6799 92.8068 56.5909 93.1932 56.5909 93.6364H55.25C55.25 92.9545 55.4072 92.3561 55.7216 91.8409C56.036 91.3258 56.464 90.9242 57.0057 90.6364C57.5511 90.3485 58.1629 90.2045 58.8409 90.2045C59.5227 90.2045 60.1269 90.3485 60.6534 90.6364C61.1799 90.9242 61.5928 91.3125 61.892 91.8011C62.1913 92.2898 62.3409 92.8333 62.3409 93.4318C62.3409 93.8598 62.2633 94.2784 62.108 94.6875C61.9564 95.0928 61.6913 95.5455 61.3125 96.0455C60.9375 96.5417 60.4167 97.1477 59.75 97.8636L57.1364 100.659V100.75H62.5455V102H55.2045ZM67.7275 102.159C66.8714 102.159 66.1423 101.926 65.54 101.46C64.9377 100.991 64.4775 100.311 64.1593 99.4205C63.8411 98.5265 63.682 97.447 63.682 96.1818C63.682 94.9242 63.8411 93.8504 64.1593 92.9602C64.4813 92.0663 64.9434 91.3845 65.5457 90.9148C66.1517 90.4413 66.879 90.2045 67.7275 90.2045C68.576 90.2045 69.3014 90.4413 69.9036 90.9148C70.5097 91.3845 70.9718 92.0663 71.29 92.9602C71.612 93.8504 71.773 94.9242 71.773 96.1818C71.773 97.447 71.6139 98.5265 71.2957 99.4205C70.9775 100.311 70.5173 100.991 69.915 101.46C69.3127 101.926 68.5836 102.159 67.7275 102.159ZM67.7275 100.909C68.576 100.909 69.2351 100.5 69.7048 99.6818C70.1745 98.8636 70.4093 97.697 70.4093 96.1818C70.4093 95.1742 70.3014 94.3163 70.0855 93.608C69.8733 92.8996 69.5665 92.3598 69.165 91.9886C68.7673 91.6174 68.2881 91.4318 67.7275 91.4318C66.8866 91.4318 66.2294 91.8466 65.7559 92.6761C65.2824 93.5019 65.0457 94.6705 65.0457 96.1818C65.0457 97.1894 65.1517 98.0455 65.3639 98.75C65.576 99.4545 65.8809 99.9905 66.2786 100.358C66.6802 100.725 67.1631 100.909 67.7275 100.909ZM77.063 90.3636V102H75.6539V91.8409H75.5857L72.7448 93.7273V92.2955L75.6539 90.3636H77.063ZM83.1541 90.2045C83.6314 90.2083 84.1086 90.2992 84.5859 90.4773C85.0632 90.6553 85.4988 90.9508 85.8927 91.3636C86.2867 91.7727 86.603 92.3314 86.8416 93.0398C87.0802 93.7481 87.1995 94.6364 87.1995 95.7045C87.1995 96.7386 87.1011 97.6572 86.9041 98.4602C86.7109 99.2595 86.4306 99.9337 86.0632 100.483C85.6995 101.032 85.2564 101.449 84.7336 101.733C84.2147 102.017 83.6276 102.159 82.9723 102.159C82.3208 102.159 81.7393 102.03 81.228 101.773C80.7204 101.511 80.3037 101.15 79.978 100.688C79.656 100.222 79.4495 99.6818 79.3586 99.0682H80.745C80.87 99.6023 81.1181 100.044 81.4893 100.392C81.8643 100.737 82.3586 100.909 82.9723 100.909C83.87 100.909 84.5783 100.517 85.0973 99.733C85.62 98.9489 85.8814 97.8409 85.8814 96.4091H85.7905C85.5783 96.7273 85.3264 97.0019 85.0348 97.233C84.7431 97.464 84.4192 97.642 84.0632 97.767C83.7071 97.892 83.3283 97.9545 82.9268 97.9545C82.2602 97.9545 81.6484 97.7898 81.0916 97.4602C80.5386 97.1269 80.0954 96.6705 79.762 96.0909C79.4325 95.5076 79.2677 94.8409 79.2677 94.0909C79.2677 93.3788 79.4268 92.7273 79.745 92.1364C80.067 91.5417 80.5177 91.0682 81.0973 90.7159C81.6806 90.3636 82.3662 90.1932 83.1541 90.2045ZM83.1541 91.4545C82.6768 91.4545 82.2469 91.5739 81.8643 91.8125C81.4855 92.0473 81.1844 92.3655 80.9609 92.767C80.7412 93.1648 80.6314 93.6061 80.6314 94.0909C80.6314 94.5758 80.7374 95.017 80.9495 95.4148C81.1655 95.8087 81.459 96.1231 81.8302 96.358C82.2052 96.589 82.6314 96.7045 83.1086 96.7045C83.4685 96.7045 83.8037 96.6345 84.1143 96.4943C84.4249 96.3504 84.6958 96.1553 84.9268 95.9091C85.1617 95.6591 85.3454 95.3769 85.478 95.0625C85.6105 94.7443 85.6768 94.4129 85.6768 94.0682C85.6768 93.6136 85.567 93.1875 85.3473 92.7898C85.1314 92.392 84.8321 92.0701 84.4495 91.8239C84.0708 91.5777 83.6389 91.4545 83.1541 91.4545Z" fill="#999999"/>
</g>
<rect x="0.5" y="0.5" width="399" height="299" stroke="#C2C2C2"/>
<defs>
<clipPath id="clip0_303_1778">
<rect width="92" height="22" fill="white" transform="translate(32 142)"/>
</clipPath>
<clipPath id="clip1_303_1778">
<rect width="56" height="20" fill="white" transform="translate(32 200)"/>
</clipPath>
<clipPath id="clip2_303_1778">
<rect width="57" height="20" fill="white" transform="translate(32 30)"/>
</clipPath>
<clipPath id="clip3_303_1778">
<rect width="59" height="20" fill="white" transform="translate(32 256)"/>
</clipPath>
<clipPath id="clip4_303_1778">
<rect width="57" height="20" fill="white" transform="translate(32 86)"/>
</clipPath>
</defs>
</svg>
