<svg width="400" height="300" viewBox="0 0 400 300" fill="none" xmlns="http://www.w3.org/2000/svg">
<rect x="0.5" y="0.5" width="399" height="299" fill="white"/>
<rect x="306" y="126" width="213" height="89" transform="rotate(-180 306 126)" fill="#F2F2F2"/>
<path fill-rule="evenodd" clip-rule="evenodd" d="M187.857 107C179.652 107 173 100.348 173 92.1429V69.8571C173 61.6517 179.652 55 187.857 55H210.143C218.348 55 225 61.6517 225 69.8571V92.1429C225 100.348 218.348 107 210.143 107H187.857ZM194.413 91.2954C193.176 92.0687 191.571 91.1794 191.571 89.7208V73.2078C191.571 71.7492 193.176 70.8598 194.413 71.6331L207.623 79.8894C208.787 80.6169 208.787 82.3117 207.623 83.0392L194.413 91.2954Z" fill="#C2C2C2"/>
<rect x="93" y="140" width="148" height="20" fill="#E0E0E0"/>
<rect x="94" y="243" width="50" height="20" fill="#448EF7"/>
<rect x="93" y="168" width="214" height="10" fill="#F2F2F2"/>
<rect x="93" y="184" width="214" height="10" fill="#F2F2F2"/>
<rect x="94" y="200" width="157" height="10" fill="#F2F2F2"/>
<rect x="0.5" y="0.5" width="399" height="299" stroke="#C2C2C2"/>
</svg>
