<svg width="67" height="66" viewBox="0 0 67 66" fill="none" xmlns="http://www.w3.org/2000/svg">
<rect x="5.5" y="5" width="56" height="56" rx="28" fill="#F5FCFC"/>
<path d="M37.5837 27.75L41.667 23.6667M44.0003 21.3334L41.667 23.6667L44.0003 21.3334ZM32.7887 32.545C33.3911 33.1394 33.8699 33.8471 34.1977 34.6273C34.5255 35.4075 34.6957 36.2448 34.6985 37.0911C34.7014 37.9374 34.5368 38.7758 34.2142 39.5582C33.8917 40.3406 33.4176 41.0515 32.8192 41.6499C32.2208 42.2483 31.5099 42.7224 30.7275 43.0449C29.9451 43.3675 29.1067 43.5321 28.2604 43.5292C27.4141 43.5264 26.5768 43.3562 25.7966 43.0284C25.0164 42.7006 24.3087 42.2218 23.7143 41.6194C22.5455 40.4092 21.8987 38.7883 21.9133 37.1059C21.9279 35.4235 22.6028 33.8141 23.7925 32.6244C24.9822 31.4347 26.5916 30.7598 28.274 30.7452C29.9564 30.7306 31.5773 31.3774 32.7875 32.5462L32.7887 32.545ZM32.7887 32.545L37.5837 27.75L32.7887 32.545ZM37.5837 27.75L41.0837 31.25L45.167 27.1667L41.667 23.6667L37.5837 27.75Z" stroke="#17494D" stroke-width="2.33333" stroke-linecap="round" stroke-linejoin="round"/>
<rect x="5.5" y="5" width="56" height="56" rx="28" stroke="#DAEDED" stroke-width="10"/>
</svg>
