<svg width="56" height="56" viewBox="0 0 56 56" fill="none" xmlns="http://www.w3.org/2000/svg">
<path d="M4 28C4 14.7452 14.7452 4 28 4C41.2548 4 52 14.7452 52 28C52 41.2548 41.2548 52 28 52C14.7452 52 4 41.2548 4 28Z" fill="#EDF8F4"/>
<path d="M38 27.08V28C37.9988 30.1564 37.3005 32.2547 36.0093 33.9818C34.7182 35.709 32.9033 36.9725 30.8354 37.5839C28.7674 38.1953 26.5573 38.1219 24.5345 37.3746C22.5117 36.6273 20.7847 35.2461 19.611 33.4371C18.4373 31.628 17.8798 29.4881 18.0217 27.3363C18.1636 25.1846 18.9972 23.1363 20.3983 21.4971C21.7994 19.8578 23.6928 18.7154 25.7962 18.2401C27.8996 17.7649 30.1003 17.9823 32.07 18.86M38 20L28 30.01L25 27.01" stroke="#038153" stroke-width="2" stroke-linecap="round" stroke-linejoin="round"/>
<path d="M28 48C16.9543 48 8 39.0457 8 28H0C0 43.464 12.536 56 28 56V48ZM48 28C48 39.0457 39.0457 48 28 48V56C43.464 56 56 43.464 56 28H48ZM28 8C39.0457 8 48 16.9543 48 28H56C56 12.536 43.464 0 28 0V8ZM28 0C12.536 0 0 12.536 0 28H8C8 16.9543 16.9543 8 28 8V0Z" fill="#DAEDED"/>
</svg>
