<svg width="138" height="24" viewBox="0 0 138 24" fill="none" xmlns="http://www.w3.org/2000/svg">
<g clip-path="url(#clip0_1131_343)">
<path d="M3.95648 23.2319H0L9.84352 0.767883H13.7762L3.95648 23.2319ZM13.8953 23.2319H9.93886L19.7824 0.767883H23.715L13.8953 23.2319Z" fill="#FF4700"/>
<path d="M37.3241 10.3678L34.3687 9.71982C31.1272 8.97582 29.7925 8.35182 29.7925 6.50382C29.7925 4.67982 31.8184 3.52782 34.3449 3.52782C36.7998 3.52782 38.635 4.46382 39.2785 6.69582H43.2112C42.5677 2.99982 39.4216 0.431824 34.3687 0.431824C29.6972 0.431824 26.0506 3.14382 26.0506 6.86382C26.0506 10.3198 28.5532 12.1438 32.1521 12.9598L35.1314 13.6078C38.4205 14.3518 40.0174 14.9038 40.0174 17.0398C40.0174 19.0798 38.063 20.4958 34.5117 20.4958C31.7946 20.4958 29.6734 19.1278 29.292 16.3918H25.3594C26.0029 20.8798 29.5304 23.5918 34.4164 23.5918C40.0412 23.5918 43.7594 20.8558 43.7594 16.6318C43.7594 13.1038 41.662 11.3518 37.3241 10.3678Z" fill="#1D1D1D"/>
<path d="M115.977 19.9438V13.3198H126.917V10.0558H115.977V4.05582H127.108V0.767822H112.188V23.2318H127.37V19.9438H115.977Z" fill="#1D1D1D"/>
<path d="M56.0108 0.767822H47.502V23.2078H51.2916V15.1198H56.0108C61.5403 15.1198 64.7817 12.4798 64.7817 7.94382C64.7817 3.40782 61.5403 0.767822 56.0108 0.767822ZM56.1061 11.8798H51.2916V4.05582H56.1061C59.1807 4.05582 60.8491 5.35182 60.8491 7.94382C60.8491 10.5598 59.1807 11.8798 56.1061 11.8798Z" fill="#1D1D1D"/>
<path d="M71.9313 0.767822L64.209 23.2318H68.2131L70.3344 16.7758L71.4308 13.5358L75.5541 1.24782L79.6774 13.5358L80.7499 16.7758L82.895 23.2318H86.8753L79.1769 0.767822H71.9313Z" fill="#1D1D1D"/>
<path d="M98.4359 20.4718C94.5271 20.4718 91.7147 17.0638 91.7147 11.9998C91.7147 6.95982 94.3841 3.52782 98.4597 3.52782C101.82 3.52782 103.775 5.56782 104.704 8.25582H108.685C107.517 3.50382 103.679 0.431824 98.4836 0.431824C92.382 0.431824 87.8535 4.99182 87.8535 11.9998C87.8535 19.0078 92.4535 23.5678 98.4597 23.5678C103.56 23.5678 107.374 20.9998 108.828 15.7198H104.895C103.87 18.7438 101.725 20.4718 98.4359 20.4718Z" fill="#1D1D1D"/>
<path d="M133.826 0.768005C136.043 0.768005 137.831 2.59201 137.831 4.82401C137.831 7.05601 136.043 8.88 133.826 8.88C131.61 8.88 129.822 7.05601 129.822 4.82401C129.822 2.59201 131.61 0.768005 133.826 0.768005ZM133.826 8.112C135.638 8.112 137.068 6.64801 137.068 4.82401C137.068 3.00001 135.614 1.53601 133.826 1.53601C132.015 1.53601 130.561 3.00001 130.561 4.82401C130.585 6.64801 132.015 8.112 133.826 8.112ZM135.709 3.93601C135.709 4.58401 135.352 5.04 134.708 5.23201L135.805 7.12801H134.899L133.922 5.32801H133.04V7.12801H132.23V2.54401H133.993C135.066 2.54401 135.709 3.07201 135.709 3.93601ZM133.969 3.21601H133.04V4.656H133.969C134.541 4.656 134.899 4.41601 134.899 3.93601C134.899 3.45601 134.518 3.21601 133.969 3.21601Z" fill="#1D1D1D"/>
</g>
<defs>
<clipPath id="clip0_1131_343">
<rect width="138" height="24" fill="white"/>
</clipPath>
</defs>
</svg>
