<svg width="433" height="49" viewBox="0 0 433 49" fill="none" xmlns="http://www.w3.org/2000/svg">
<path d="M27.791 13.34C26.511 12.3 25.231 11.54 23.951 11.06C22.671 10.54 21.4309 10.28 20.2309 10.28C18.7109 10.28 17.471 10.64 16.511 11.36C15.551 12.08 15.071 13.02 15.071 14.18C15.071 14.98 15.311 15.64 15.7909 16.16C16.2709 16.68 16.8909 17.14 17.6509 17.54C18.4509 17.9 19.331 18.22 20.291 18.5C21.2909 18.78 22.271 19.08 23.231 19.4C27.071 20.68 29.8709 22.4 31.631 24.56C33.431 26.68 34.331 29.46 34.331 32.9C34.331 35.22 33.931 37.32 33.131 39.2C32.371 41.08 31.231 42.7 29.711 44.06C28.231 45.38 26.391 46.4 24.191 47.12C22.0309 47.88 19.571 48.26 16.811 48.26C11.091 48.26 5.79095 46.56 0.91095 43.16L5.95095 33.68C7.71095 35.24 9.45095 36.4 11.1709 37.16C12.8909 37.92 14.591 38.3 16.271 38.3C18.191 38.3 19.6109 37.86 20.5309 36.98C21.4909 36.1 21.971 35.1 21.971 33.98C21.971 33.3 21.851 32.72 21.611 32.24C21.3709 31.72 20.9709 31.26 20.4109 30.86C19.8509 30.42 19.1109 30.02 18.1909 29.66C17.3109 29.3 16.231 28.9 14.951 28.46C13.431 27.98 11.931 27.46 10.451 26.9C9.01095 26.3 7.71095 25.52 6.55095 24.56C5.43095 23.6 4.51095 22.4 3.79095 20.96C3.11095 19.48 2.77095 17.62 2.77095 15.38C2.77095 13.14 3.13095 11.12 3.85095 9.32C4.61095 7.48 5.65095 5.92 6.97095 4.64C8.33095 3.32 9.97095 2.3 11.891 1.58C13.851 0.86 16.031 0.5 18.431 0.5C20.6709 0.5 23.0109 0.819998 25.451 1.46C27.891 2.06 30.231 2.96 32.471 4.16L27.791 13.34Z" fill="black"/>
<path d="M113.5 22.52H117.4C121.72 22.52 123.88 20.64 123.88 16.88C123.88 13.12 121.72 11.24 117.4 11.24H113.5V22.52ZM113.5 47H101.74V1.76H120.46C125.54 1.76 129.42 3.08 132.1 5.72C134.82 8.36 136.18 12.08 136.18 16.88C136.18 21.68 134.82 25.4 132.1 28.04C129.42 30.68 125.54 32 120.46 32H113.5V47Z" fill="black"/>
<path d="M224.485 30.2L219.205 15.14L213.925 30.2H224.485ZM227.605 39.14H210.805L208.105 47H195.565L212.785 1.76H225.625L242.845 47H230.305L227.605 39.14Z" fill="black"/>
<path d="M338.871 16.88C336.151 13.56 332.791 11.9 328.791 11.9C327.031 11.9 325.391 12.22 323.871 12.86C322.391 13.5 321.111 14.38 320.031 15.5C318.951 16.58 318.091 17.88 317.451 19.4C316.851 20.92 316.551 22.56 316.551 24.32C316.551 26.12 316.851 27.78 317.451 29.3C318.091 30.82 318.951 32.14 320.031 33.26C321.151 34.38 322.451 35.26 323.931 35.9C325.411 36.54 327.011 36.86 328.731 36.86C332.491 36.86 335.871 35.26 338.871 32.06V45.98L337.671 46.4C335.871 47.04 334.191 47.5 332.631 47.78C331.071 48.1 329.531 48.26 328.011 48.26C324.891 48.26 321.891 47.68 319.011 46.52C316.171 45.32 313.651 43.66 311.451 41.54C309.291 39.38 307.551 36.84 306.231 33.92C304.911 30.96 304.251 27.74 304.251 24.26C304.251 20.78 304.891 17.6 306.171 14.72C307.491 11.8 309.231 9.3 311.391 7.22C313.591 5.1 316.131 3.46 319.011 2.3C321.891 1.1 324.911 0.5 328.071 0.5C329.871 0.5 331.631 0.699999 333.351 1.1C335.111 1.46 336.951 2.04 338.871 2.84V16.88Z" fill="black"/>
<path d="M432.05 11.72H418.07V19.28H431.27V29.24H418.07V37.04H432.05V47H406.31V1.76H432.05V11.72Z" fill="black"/>
</svg>