<svg width="64" height="64" viewBox="0 0 64 64" fill="none" xmlns="http://www.w3.org/2000/svg">
<g clip-path="url(#clip0)">
<path d="M47.7 63.2002C56.2604 63.2002 63.2 56.2606 63.2 47.7002C63.2 39.1398 56.2604 32.2002 47.7 32.2002C39.1395 32.2002 32.2 39.1398 32.2 47.7002C32.2 56.2606 39.1395 63.2002 47.7 63.2002Z" fill="#608EFF"/>
<path fill-rule="evenodd" clip-rule="evenodd" d="M16.5 33.2002C8.49187 33.2002 2 39.6921 2 47.7002C2 55.7083 8.49187 62.2002 16.5 62.2002C24.5081 62.2002 31 55.7083 31 47.7002C31 39.6921 24.5081 33.2002 16.5 33.2002ZM0 47.7002C0 38.5875 7.3873 31.2002 16.5 31.2002C25.6127 31.2002 33 38.5875 33 47.7002C33 56.8129 25.6127 64.2002 16.5 64.2002C7.3873 64.2002 0 56.8129 0 47.7002Z" fill="#1D1D1B"/>
<path fill-rule="evenodd" clip-rule="evenodd" d="M32.1 6C24.0918 6 17.6 12.4919 17.6 20.5C17.6 28.5081 24.0918 35 32.1 35C40.1081 35 46.6 28.5081 46.6 20.5C46.6 12.4919 40.1081 6 32.1 6ZM15.6 20.5C15.6 11.3873 22.9873 4 32.1 4C41.2127 4 48.6 11.3873 48.6 20.5C48.6 29.6127 41.2127 37 32.1 37C22.9873 37 15.6 29.6127 15.6 20.5Z" fill="#1D1D1B"/>
<path fill-rule="evenodd" clip-rule="evenodd" d="M33.1428 17.4301L32.4 18.0996L31.679 17.4067C31.8714 17.2065 32.1384 17.0953 32.416 17.0997C32.6936 17.1042 32.9569 17.2238 33.1428 17.4301ZM32.3773 19.5657C32.2417 19.7066 32.0902 19.8639 31.925 20.0355C31.1919 20.7967 30.1884 21.8378 29.1066 22.9571C26.9458 25.1928 24.4644 27.7495 23.2072 29.0067C20.7754 31.4385 19.3 34.591 19.3 38.1996C19.3 45.338 25.143 51.0996 32.3001 51.0996C39.4533 51.0996 45.2938 45.3442 45.3001 38.2111C45.2516 36.1752 44.9227 34.6548 44.1918 33.1816C43.4481 31.6828 42.2589 30.1721 40.3838 28.1975C39.2127 27.0256 37.0284 24.665 35.1498 22.6122C34.2047 21.5795 33.3317 20.6189 32.6951 19.9165C32.5813 19.791 32.475 19.6737 32.3773 19.5657ZM32.4 18.0996C31.679 17.4067 31.6791 17.4066 31.679 17.4067L31.3565 17.7421C31.1494 17.9574 30.8507 18.2678 30.4844 18.6481C29.7519 19.4088 28.7492 20.449 27.6685 21.5672C25.5043 23.8064 23.0357 26.3497 21.7929 27.5925C19.0247 30.3607 17.3 34.0083 17.3 38.1996C17.3 46.4612 24.0571 53.0996 32.3001 53.0996C40.543 53.0996 47.3001 46.4612 47.3001 38.1996L47.2998 38.1764C47.2473 35.9182 46.876 34.0916 45.9833 32.2926C45.1032 30.5188 43.7449 28.8318 41.825 26.8109C41.8192 26.8047 41.8132 26.7985 41.8072 26.7925C40.6759 25.6613 38.5168 23.3289 36.6253 21.262C35.6829 20.2322 34.8121 19.2741 34.1769 18.5733C33.8593 18.223 33.6007 17.937 33.4215 17.7387L33.1428 17.4301L32.4 18.0996Z" fill="black"/>
</g>
<defs>
<clipPath id="clip0">
<rect width="64" height="64" fill="white"/>
</clipPath>
</defs>
</svg>
