<svg width="64" height="64" viewBox="0 0 64 64" fill="none" xmlns="http://www.w3.org/2000/svg">
<path d="M48 20H38L43 4H29L23 28H31L27 46L48 20Z" fill="#FFF641"/>
<path fill-rule="evenodd" clip-rule="evenodd" d="M25.0299 0.757464C25.1412 0.312297 25.5411 0 26 0H40C40.3181 0 40.6173 0.151359 40.8057 0.407664C40.9941 0.663968 41.0494 0.994637 40.9545 1.29827L36.3602 16H45C45.3853 16 45.7362 16.2213 45.9023 16.5689C46.0684 16.9165 46.02 17.3286 45.778 17.6283L24.778 43.6283C24.4862 43.9896 23.9842 44.1024 23.5659 43.9009C23.1476 43.6993 22.9231 43.2363 23.0238 42.7831L26.7534 26H20C19.6921 26 19.4013 25.8581 19.2118 25.6154C19.0223 25.3727 18.9552 25.0562 19.0299 24.7575L25.0299 0.757464ZM26.7808 2L21.2808 24H28C28.3033 24 28.5903 24.1377 28.7801 24.3743C28.9698 24.6109 29.042 24.9208 28.9762 25.2169L25.9011 39.0547L42.9069 18H35C34.6819 18 34.3828 17.8486 34.1943 17.5923C34.0059 17.336 33.9506 17.0054 34.0455 16.7017L38.6398 2H26.7808Z" fill="black"/>
<path fill-rule="evenodd" clip-rule="evenodd" d="M0 11C0 10.4477 0.447715 10 1 10H18C18.5523 10 19 10.4477 19 11C19 11.5523 18.5523 12 18 12H2V52H62V12H42C41.4477 12 41 11.5523 41 11C41 10.4477 41.4477 10 42 10H63C63.5523 10 64 10.4477 64 11V53C64 53.5523 63.5523 54 63 54H1C0.447715 54 0 53.5523 0 53V11Z" fill="black"/>
<path fill-rule="evenodd" clip-rule="evenodd" d="M16.9 63C16.9 62.4477 17.3477 62 17.9 62H46.1C46.6523 62 47.1 62.4477 47.1 63C47.1 63.5523 46.6523 64 46.1 64H17.9C17.3477 64 16.9 63.5523 16.9 63Z" fill="black"/>
<path d="M36 53H28V63H36V53Z" fill="black"/>
</svg>
