<svg width="48" height="48" viewBox="0 0 48 48" fill="none" xmlns="http://www.w3.org/2000/svg">
<path d="M0 24C0 10.7452 10.7452 0 24 0C37.2548 0 48 10.7452 48 24C48 37.2548 37.2548 48 24 48C10.7452 48 0 37.2548 0 24Z" fill="#F5FCFC"/>
<path d="M16 31.5C16 30.837 16.2634 30.2011 16.7322 29.7322C17.2011 29.2634 17.837 29 18.5 29H32M16 31.5C16 32.163 16.2634 32.7989 16.7322 33.2678C17.2011 33.7366 17.837 34 18.5 34H32V14H18.5C17.837 14 17.2011 14.2634 16.7322 14.7322C16.2634 15.2011 16 15.837 16 16.5V31.5Z" stroke="#17494D" stroke-width="2" stroke-linecap="round" stroke-linejoin="round"/>
</svg>
