<svg width="64" height="64" viewBox="0 0 64 64" fill="none" xmlns="http://www.w3.org/2000/svg">
<g clip-path="url(#clip0)">
<path d="M32 57C45.8071 57 57 45.8071 57 32C57 18.1929 45.8071 7 32 7C18.1929 7 7 18.1929 7 32C7 45.8071 18.1929 57 32 57Z" fill="#608EFF"/>
<path fill-rule="evenodd" clip-rule="evenodd" d="M29.7841 46.5415C30.3137 46.6984 30.6157 47.2549 30.4588 47.7844C29.6443 50.5335 28.629 53.1711 27.521 55.79L27.5138 55.8065C26.2833 58.5753 24.4405 61.6506 22.7809 63.725C22.4359 64.1563 21.8066 64.2262 21.3753 63.8812C20.9441 63.5362 20.8742 62.9069 21.2192 62.4756C22.758 60.5521 24.5132 57.6314 25.6826 55.0023C26.7732 52.424 27.7566 49.8643 28.5412 47.2162C28.6981 46.6867 29.2546 46.3846 29.7841 46.5415Z" fill="black"/>
<path fill-rule="evenodd" clip-rule="evenodd" d="M32.0333 31.0006C32.5853 31.019 33.0179 31.4813 32.9995 32.0333C32.898 35.0785 32.5933 38.0262 32.0845 40.8758C31.9874 41.4195 31.4679 41.7815 30.9242 41.6844C30.3805 41.5873 30.0185 41.0679 30.1156 40.5242C30.6067 37.7738 30.9021 34.9215 31.0006 31.9667C31.019 31.4147 31.4814 30.9822 32.0333 31.0006Z" fill="black"/>
<path fill-rule="evenodd" clip-rule="evenodd" d="M21.3328 31.0005C21.8848 31.0186 22.3176 31.4808 22.2995 32.0328C22.0959 38.2426 20.7747 44.7368 18.9504 50.311C18.7786 50.8359 18.2139 51.1222 17.689 50.9504C17.1641 50.7786 16.8778 50.2139 17.0496 49.689C18.8253 44.2632 20.1042 37.9574 20.3006 31.9672C20.3187 31.4153 20.7808 30.9824 21.3328 31.0005Z" fill="black"/>
<path fill-rule="evenodd" clip-rule="evenodd" d="M41.2392 43.0293C41.7755 43.1614 42.1031 43.7033 41.971 44.2395C40.2475 51.2347 37.6073 57.6374 33.8431 63.5381C33.546 64.0037 32.9278 64.1404 32.4622 63.8434C31.9966 63.5463 31.8599 62.9281 32.1569 62.4625C35.7927 56.7632 38.3525 50.5659 40.029 43.7611C40.1612 43.2248 40.703 42.8972 41.2392 43.0293Z" fill="black"/>
<path fill-rule="evenodd" clip-rule="evenodd" d="M32 22.2998C26.6523 22.2998 22.3 26.6521 22.3 31.9998C22.3 32.5521 21.8523 32.9998 21.3 32.9998C20.7478 32.9998 20.3 32.5521 20.3 31.9998C20.3 25.5476 25.5478 20.2998 32 20.2998C38.4524 20.2998 43.7001 25.5476 43.7001 31.9998V32.0068C43.7001 32.303 43.7002 32.6926 43.687 33.0605C43.6755 33.3823 43.6522 33.7752 43.5843 34.0827C43.5439 34.3787 43.5219 34.6813 43.4976 35.0211L43.4964 35.0359C43.4721 35.3764 43.445 35.7562 43.39 36.1413C43.3119 36.688 42.8054 37.0679 42.2586 36.9898C41.7119 36.9117 41.332 36.4052 41.4101 35.8584C41.4543 35.5491 41.4773 35.2343 41.5027 34.8786L41.5037 34.8638C41.528 34.5232 41.5551 34.1435 41.6101 33.7584C41.615 33.7244 41.6217 33.6906 41.63 33.6573C41.6512 33.5724 41.6755 33.3461 41.6883 32.9891C41.7 32.66 41.7001 32.3028 41.7001 31.9998C41.7001 26.6521 37.3478 22.2998 32 22.2998Z" fill="black"/>
<path fill-rule="evenodd" clip-rule="evenodd" d="M23.8315 11.2705C26.4491 10.2239 29.1741 9.7002 31.9999 9.7002C44.3522 9.7002 54.2999 19.6479 54.2999 32.0002C54.2999 32.0097 54.2998 32.0192 54.2995 32.0287C53.9943 42.7085 50.8417 52.7673 45.8688 61.4952C45.5953 61.9751 44.9847 62.1424 44.5048 61.869C44.025 61.5956 43.8576 60.985 44.131 60.5051C48.9559 52.037 52.0026 42.3009 52.2999 31.986C52.2923 20.7448 43.2429 11.7002 31.9999 11.7002C29.4268 11.7002 26.9528 12.176 24.5713 13.1286L24.5652 13.1311V13.131C17.0302 16.0878 11.5999 23.4304 11.5999 32.1002C11.5999 32.11 11.5997 32.1198 11.5995 32.1296C11.3961 39.0443 10.0732 45.3504 7.83881 51.4444C7.64868 51.9629 7.0742 52.2292 6.55568 52.039C6.03715 51.8489 5.77093 51.2744 5.96105 50.7559C8.12503 44.8542 9.4019 38.7648 9.59994 32.0852C9.60617 22.5627 15.5725 14.5128 23.8315 11.2705Z" fill="black"/>
<path fill-rule="evenodd" clip-rule="evenodd" d="M32 2C15.4523 2 2 15.4523 2 32C2 32.5523 1.55228 33 1 33C0.447715 33 0 32.5523 0 32C0 14.3477 14.3477 0 32 0C49.6523 0 64 14.3477 64 32C64 35.5323 63.1737 39.4666 61.9191 42.3939C61.7016 42.9016 61.1137 43.1367 60.6061 42.9191C60.0984 42.7016 59.8633 42.1137 60.0809 41.6061C61.2263 38.9334 62 35.2677 62 32C62 15.4523 48.5477 2 32 2Z" fill="black"/>
</g>
<defs>
<clipPath id="clip0">
<rect width="64" height="64" fill="white"/>
</clipPath>
</defs>
</svg>
