<svg width="64" height="64" viewBox="0 0 64 64" fill="none" xmlns="http://www.w3.org/2000/svg">
<path fill-rule="evenodd" clip-rule="evenodd" d="M31.7179 25.3039L31 26L30.2929 25.2929C30.4823 25.1035 30.7398 24.998 31.0077 25C31.2756 25.0021 31.5314 25.1115 31.7179 25.3039ZM31 26L30.2929 25.2929L30.1364 25.4492C30.0356 25.5498 29.8902 25.6948 29.7116 25.8726C29.3544 26.2283 28.8647 26.7148 28.3346 27.2387C27.269 28.2918 26.0568 29.479 25.4217 30.0652C23.9371 31.4356 23 33.2942 23 35.5C23 39.7187 26.6166 43 31 43C35.3834 43 39 39.7187 39 35.5C39 34.3445 38.8331 33.3744 38.3386 32.4164C37.8595 31.4881 37.1094 30.6446 36.0887 29.675L36.0757 29.6628C35.4977 29.133 34.416 28.0518 33.4617 27.085C32.9884 26.6055 32.5522 26.16 32.2344 25.8343C32.0755 25.6715 31.9462 25.5388 31.8567 25.4468L31.7179 25.3039L31 26Z" fill="black"/>
<path fill-rule="evenodd" clip-rule="evenodd" d="M51.3226 55.0359L41.2226 45.7359L42.5774 44.2646L52.6774 53.5647L51.3226 55.0359Z" fill="black"/>
<path fill-rule="evenodd" clip-rule="evenodd" d="M56 54C53.7909 54 52 55.7909 52 58C52 60.2091 53.7909 62 56 62C58.2091 62 60 60.2091 60 58C60 55.7909 58.2091 54 56 54ZM50 58C50 54.6863 52.6863 52 56 52C59.3137 52 62 54.6863 62 58C62 61.3137 59.3137 64 56 64C52.6863 64 50 61.3137 50 58Z" fill="black"/>
<path fill-rule="evenodd" clip-rule="evenodd" d="M30.6 20.0996C22.6471 20.0996 16.2 26.5467 16.2 34.4996C16.2 42.4525 22.6471 48.8996 30.6 48.8996C38.5529 48.8996 45 42.4525 45 34.4996C45 26.5467 38.5529 20.0996 30.6 20.0996ZM14.2 34.4996C14.2 25.4421 21.5425 18.0996 30.6 18.0996C39.6575 18.0996 47 25.4421 47 34.4996C47 43.5571 39.6575 50.8996 30.6 50.8996C21.5425 50.8996 14.2 43.5571 14.2 34.4996Z" fill="black"/>
<path fill-rule="evenodd" clip-rule="evenodd" d="M57.6935 6.27951C58.0914 6.66251 58.1035 7.29556 57.7205 7.69347L42.3205 23.6935C41.9375 24.0914 41.3045 24.1035 40.9065 23.7205C40.5086 23.3375 40.4965 22.7044 40.8795 22.3065L56.2795 6.30653C56.6625 5.90862 57.2956 5.89652 57.6935 6.27951Z" fill="black"/>
<path fill-rule="evenodd" clip-rule="evenodd" d="M20.348 16.4697L22.848 20.4697L21.152 21.5297L18.652 17.5297L20.348 16.4697Z" fill="black"/>
<path fill-rule="evenodd" clip-rule="evenodd" d="M8.39029 50.207L17.4903 43.207L18.7097 44.7923L9.60971 51.7923L8.39029 50.207Z" fill="black"/>
<path d="M57.5 13C61.0899 13 64 10.0899 64 6.5C64 2.91015 61.0899 0 57.5 0C53.9101 0 51 2.91015 51 6.5C51 10.0899 53.9101 13 57.5 13Z" fill="#A479FF"/>
<path d="M8.5 17C13.1944 17 17 13.1944 17 8.5C17 3.80558 13.1944 0 8.5 0C3.80558 0 0 3.80558 0 8.5C0 13.1944 3.80558 17 8.5 17Z" fill="#A479FF"/>
<path fill-rule="evenodd" clip-rule="evenodd" d="M15 3C11.134 3 8 6.13401 8 10C8 13.866 11.134 17 15 17C18.866 17 22 13.866 22 10C22 6.13401 18.866 3 15 3ZM6 10C6 5.02944 10.0294 1 15 1C19.9706 1 24 5.02944 24 10C24 14.9706 19.9706 19 15 19C10.0294 19 6 14.9706 6 10Z" fill="black"/>
<path d="M9 56C11.7614 56 14 53.7614 14 51C14 48.2386 11.7614 46 9 46C6.23858 46 4 48.2386 4 51C4 53.7614 6.23858 56 9 56Z" fill="#A479FF"/>
</svg>
