<svg width="64" height="64" viewBox="0 0 64 64" fill="none" xmlns="http://www.w3.org/2000/svg">
<path d="M17 48C17 39.7 23.7 33 32 33C40.3 33 47 39.7 47 48" fill="#FECD6D"/>
<path fill-rule="evenodd" clip-rule="evenodd" d="M32 10C22.6523 10 15 17.6523 15 27C15 27.5523 14.5523 28 14 28C13.4477 28 13 27.5523 13 27C13 16.5477 21.5477 8 32 8C42.4523 8 51 16.5477 51 27C51 27.5523 50.5523 28 50 28C49.4477 28 49 27.5523 49 27C49 17.6523 41.3477 10 32 10Z" fill="black"/>
<path fill-rule="evenodd" clip-rule="evenodd" d="M10 2C6.15228 2 3 5.15228 3 9V49.3575C4.65301 47.3126 7.17983 46 10 46H61.1V2H10ZM1 55V9C1 4.04772 5.04772 0 10 0H62.1C62.6523 0 63.1 0.447715 63.1 1V47C63.1 47.5523 62.6523 48 62.1 48H10C6.15228 48 3 51.1523 3 55C3 55.5523 2.55228 56 2 56C1.44772 56 1 55.5523 1 55Z" fill="black"/>
<path fill-rule="evenodd" clip-rule="evenodd" d="M10 48C6.15228 48 3 51.1523 3 55C3 58.8477 6.15228 62 10 62H61.1V48H10ZM1 55C1 50.0477 5.04772 46 10 46H62.1C62.6523 46 63.1 46.4477 63.1 47V63C63.1 63.5523 62.6523 64 62.1 64H10C5.04772 64 1 59.9523 1 55Z" fill="black"/>
<path d="M53 25H47V31H53V25Z" fill="black"/>
<path d="M17 25H11V31H17V25Z" fill="black"/>
<path fill-rule="evenodd" clip-rule="evenodd" d="M13 9C13 8.44772 13.4477 8 14 8H50C50.5523 8 51 8.44772 51 9C51 9.55228 50.5523 10 50 10H14C13.4477 10 13 9.55228 13 9Z" fill="black"/>
<path d="M51 12C52.6569 12 54 10.6569 54 9C54 7.34315 52.6569 6 51 6C49.3431 6 48 7.34315 48 9C48 10.6569 49.3431 12 51 12Z" fill="#FECD6D"/>
<path d="M32 35C33.1046 35 34 34.1046 34 33C34 31.8954 33.1046 31 32 31C30.8954 31 30 31.8954 30 33C30 34.1046 30.8954 35 32 35Z" fill="black"/>
<path d="M13 12C14.6569 12 16 10.6569 16 9C16 7.34315 14.6569 6 13 6C11.3431 6 10 7.34315 10 9C10 10.6569 11.3431 12 13 12Z" fill="#FECD6D"/>
<path fill-rule="evenodd" clip-rule="evenodd" d="M32 16C32.3788 16 32.725 16.214 32.8944 16.5528L40.8944 32.5528C41.0549 32.8738 41.0311 33.2561 40.8321 33.5547L36.8321 39.5547C36.6466 39.8329 36.3344 40 36 40H28C27.6656 40 27.3534 39.8329 27.168 39.5547L23.168 33.5547C22.9689 33.2561 22.9451 32.8738 23.1056 32.5528L31.1056 16.5528C31.275 16.214 31.6212 16 32 16ZM25.154 32.9282L28.5352 38H35.4648L38.846 32.9282L32 19.2361L25.154 32.9282Z" fill="black"/>
<path fill-rule="evenodd" clip-rule="evenodd" d="M25 43C25 42.4477 25.4477 42 26 42H38C38.5523 42 39 42.4477 39 43C39 43.5523 38.5523 44 38 44H26C25.4477 44 25 43.5523 25 43Z" fill="black"/>
<path fill-rule="evenodd" clip-rule="evenodd" d="M9 55C9 54.4477 9.44772 54 10 54H62.1C62.6523 54 63.1 54.4477 63.1 55C63.1 55.5523 62.6523 56 62.1 56H10C9.44772 56 9 55.5523 9 55Z" fill="black"/>
<path fill-rule="evenodd" clip-rule="evenodd" d="M32 16C32.5523 16 33 16.4477 33 17V33C33 33.5523 32.5523 34 32 34C31.4477 34 31 33.5523 31 33V17C31 16.4477 31.4477 16 32 16Z" fill="black"/>
<path d="M35 6H29V12H35V6Z" fill="black"/>
</svg>
