<svg width="64" height="64" viewBox="0 0 64 64" fill="none" xmlns="http://www.w3.org/2000/svg">
<path d="M42.9 20.4C40.1 17.6 32 9 32 9C32 9 23.1 18.3 20 21.3C16.9 24.4 14.8 28.6 14.8 33.3C14.8 36.4 15.6 39.2 17.1 41.7C19.1 45.1 22.4 47.8 26.3 49.1C28.1 49.7 30 50 32 50C34 50 35.9 49.7 37.6 49.1C41.5 47.8 44.8 45.1 46.8 41.7C48.3 39.2 49.1 36.4 49.1 33.3C49.2 28.1 47.6 25.1 42.9 20.4Z" fill="#FECD6D"/>
<path fill-rule="evenodd" clip-rule="evenodd" d="M32.7292 0.315686L32 1L31.2777 0.308429C31.4675 0.11016 31.7305 -0.00135994 32.005 1.25198e-05C32.2795 0.00138498 32.5413 0.115529 32.7292 0.315686ZM31.9929 2.45256C31.6249 2.83631 31.1305 3.35149 30.5399 3.96624C29.2019 5.3589 27.37 7.26276 25.3941 9.30741C21.4469 13.392 16.9114 18.053 14.5993 20.3148C9.96436 24.8534 7 30.9049 7 37.7C7 42.1046 8.24327 46.2314 10.3622 49.8934C13.3401 54.8855 18.047 58.7289 23.7187 60.6521C26.3197 61.5189 29.1122 62 32 62C34.884 62 37.5765 61.5201 40.1812 60.6522C45.862 58.7259 50.6671 54.8765 53.6411 49.8879C55.7526 46.3362 57 42.1123 57 37.7C57 33.8577 56.4426 30.9441 55.0533 28.1302C53.6519 25.2918 51.3706 22.4852 47.7969 18.9111C45.6297 16.794 41.4942 12.4827 37.9126 8.71388C36.1177 6.82516 34.4574 5.0679 33.2458 3.78288C32.7437 3.25028 32.3186 2.79875 31.9929 2.45256ZM32 1C31.2777 0.308429 31.2778 0.308325 31.2777 0.308429L30.6891 0.922534C30.3112 1.31667 29.7661 1.8848 29.0976 2.58064C27.7606 3.97235 25.93 5.87474 23.9559 7.91759C20.0031 12.008 15.4886 16.647 13.2007 18.8852C8.23583 23.7466 5 30.2953 5 37.7C5 42.4932 6.35548 46.9644 8.63457 50.901L8.64105 50.9121C11.863 56.3166 16.9538 60.4707 23.079 62.5471L23.0838 62.5487C25.882 63.4814 28.8887 64 32 64C35.1151 64 38.0217 63.4802 40.8162 62.5487L40.821 62.5471C46.9392 60.4731 52.1333 56.3228 55.3589 50.9121L55.3595 50.9111C57.6476 47.063 59 42.4874 59 37.7C59 33.6423 58.4074 30.4059 56.8467 27.2448C55.2986 24.1093 52.8311 21.1169 49.2071 17.4929L49.1987 17.4846C47.0647 15.4002 42.9534 11.1148 39.3624 7.33613C37.5698 5.44985 35.9114 3.69461 34.701 2.41088C34.0959 1.76904 33.6028 1.24514 33.2611 0.881738L32.7292 0.315686C32.7291 0.315592 32.7292 0.315686 32 1Z" fill="black"/>
<path d="M54.5 50.3996C51.4 55.5996 46.5 59.5996 40.5 61.5996L39 53.6996L40.4 43.4996C40.7 40.9996 42.9 39.0996 45.4 39.0996H48.3C50.9 39.0996 53 40.9996 53.3 43.4996L54.5 50.3996Z" fill="white"/>
<path fill-rule="evenodd" clip-rule="evenodd" d="M45.4 40.0996C43.3939 40.0996 41.6311 41.6334 41.3929 43.6187L41.3907 43.6356L40.0129 53.6737L41.2642 60.2637C46.4253 58.2822 50.6576 54.7304 53.4506 50.2017L52.3148 43.6709C52.3118 43.6536 52.3092 43.6362 52.3071 43.6187C52.0674 41.6212 50.3937 40.0996 48.3 40.0996H45.4ZM39.4082 43.3716C39.774 40.3614 42.409 38.0996 45.4 38.0996H48.3C51.3969 38.0996 53.9172 40.3642 54.2895 43.3531L55.4852 50.2283C55.5262 50.4638 55.4814 50.7063 55.3589 50.9117C52.1361 56.3177 47.0434 60.4726 40.8162 62.5483C40.5425 62.6395 40.2427 62.6081 39.9939 62.4621C39.745 62.316 39.5714 62.0696 39.5176 61.7861L38.0176 53.8862C37.9974 53.7798 37.9946 53.6709 38.0093 53.5636L39.4082 43.3716Z" fill="black"/>
<path d="M40.5 61.6C37.8 62.5 35 63 32 63C29 63 26.1 62.5 23.4 61.6L24.9 53.5L25.5 50.4C25.8 47.9 28 46 30.5 46H33.4C36 46 38.1 47.9 38.4 50.4L39 53.6L40.5 61.6Z" fill="white"/>
<path fill-rule="evenodd" clip-rule="evenodd" d="M30.5 47C28.494 47 26.7311 48.5338 26.4929 50.5191C26.49 50.5429 26.4863 50.5665 26.4818 50.59L25.8826 53.686L24.5444 60.9123C26.9073 61.6146 29.4155 62 32 62C34.5798 62 37.0064 61.616 39.3539 60.9138L37.4171 50.5843C37.4131 50.5627 37.4098 50.541 37.4071 50.5191C37.1674 48.5216 35.4937 47 33.4 47H30.5ZM24.5117 50.2436C24.8907 47.2475 27.5184 45 30.5 45H33.4C36.4946 45 39.0134 47.2611 39.3887 50.2467L41.4829 61.4157C41.575 61.9069 41.2903 62.3907 40.8162 62.5487C38.0217 63.4802 35.1151 64 32 64C28.8887 64 25.8821 63.4814 23.0838 62.5487C22.6105 62.3909 22.3259 61.9085 22.4167 61.4179L23.9182 53.31L24.5117 50.2436Z" fill="black"/>
<path d="M24.9 53.4996L23.4 61.5996C17.5 59.5996 12.6 55.5996 9.5 50.3996L10.5 43.4996C10.8 40.9996 13 39.0996 15.5 39.0996H18.4C21 39.0996 23.1 40.9996 23.4 43.4996L24.9 53.4996Z" fill="white"/>
<path fill-rule="evenodd" clip-rule="evenodd" d="M15.5 40.0996C13.4939 40.0996 11.7311 41.6334 11.4929 43.6187C11.4919 43.6269 11.4908 43.635 11.4897 43.643L10.5411 50.1881C13.3301 54.7171 17.5559 58.2702 22.632 60.2553L23.8862 53.4823L22.4111 43.6479C22.4096 43.6382 22.4083 43.6285 22.4071 43.6187C22.1674 41.6212 20.4937 40.0996 18.4 40.0996H15.5ZM9.50867 43.3677C9.87631 40.3594 12.5103 38.0996 15.5 38.0996H18.4C21.5011 38.0996 24.024 40.3703 24.391 43.3652L25.8889 53.3513C25.9054 53.461 25.9035 53.5726 25.8833 53.6817L24.3833 61.7817C24.3304 62.0671 24.1562 62.3154 23.9059 62.4622C23.6556 62.609 23.3538 62.6398 23.079 62.5467C16.9538 60.4703 11.863 56.3162 8.64105 50.9117C8.52359 50.7146 8.47744 50.4832 8.51034 50.2562L9.50867 43.3677Z" fill="black"/>
<path d="M32 42C34.7614 42 37 39.7614 37 37C37 34.2386 34.7614 32 32 32C29.2386 32 27 34.2386 27 37C27 39.7614 29.2386 42 32 42Z" fill="white"/>
<path fill-rule="evenodd" clip-rule="evenodd" d="M32 33C29.7909 33 28 34.7909 28 37C28 39.2091 29.7909 41 32 41C34.2091 41 36 39.2091 36 37C36 34.7909 34.2091 33 32 33ZM26 37C26 33.6863 28.6863 31 32 31C35.3137 31 38 33.6863 38 37C38 40.3137 35.3137 43 32 43C28.6863 43 26 40.3137 26 37Z" fill="black"/>
<path d="M17 35C19.7614 35 22 32.7614 22 30C22 27.2386 19.7614 25 17 25C14.2386 25 12 27.2386 12 30C12 32.7614 14.2386 35 17 35Z" fill="white"/>
<path fill-rule="evenodd" clip-rule="evenodd" d="M17 26C14.7909 26 13 27.7909 13 30C13 32.2091 14.7909 34 17 34C19.2091 34 21 32.2091 21 30C21 27.7909 19.2091 26 17 26ZM11 30C11 26.6863 13.6863 24 17 24C20.3137 24 23 26.6863 23 30C23 33.3137 20.3137 36 17 36C13.6863 36 11 33.3137 11 30Z" fill="black"/>
<path d="M47 35C49.7614 35 52 32.7614 52 30C52 27.2386 49.7614 25 47 25C44.2386 25 42 27.2386 42 30C42 32.7614 44.2386 35 47 35Z" fill="white"/>
<path fill-rule="evenodd" clip-rule="evenodd" d="M47 26C44.7909 26 43 27.7909 43 30C43 32.2091 44.7909 34 47 34C49.2091 34 51 32.2091 51 30C51 27.7909 49.2091 26 47 26ZM41 30C41 26.6863 43.6863 24 47 24C50.3137 24 53 26.6863 53 30C53 33.3137 50.3137 36 47 36C43.6863 36 41 33.3137 41 30Z" fill="black"/>
</svg>
