<svg width="64" height="64" viewBox="0 0 64 64" fill="none" xmlns="http://www.w3.org/2000/svg">
<path d="M29 57C38.9411 57 47 48.9411 47 39C47 29.0589 38.9411 21 29 21C19.0589 21 11 29.0589 11 39C11 48.9411 19.0589 57 29 57Z" fill="#FF8CDF"/>
<path fill-rule="evenodd" clip-rule="evenodd" d="M32.7292 0.315686L32 1L31.2777 0.308428C31.4675 0.110159 31.7305 -0.00136017 32.005 1.25242e-05C32.2795 0.00138516 32.5413 0.115529 32.7292 0.315686ZM31.9927 2.45272C32.3181 2.7988 32.7426 3.2501 33.2438 3.78241C34.4536 5.06725 36.1106 6.82423 37.8989 8.71262C41.4713 12.4849 45.5813 16.7956 47.6929 18.9071L48.9929 20.2071C49.3834 20.5976 50.0166 20.5976 50.4071 20.2071C50.7976 19.8166 50.7976 19.1834 50.4071 18.7929L49.1071 17.4929C47.0187 15.4045 42.9287 11.1152 39.3511 7.3374C37.5644 5.45078 35.9089 3.69526 34.6999 2.41135C34.0955 1.76941 33.6027 1.24542 33.2611 0.881946L32.7292 0.315686C32.7291 0.315591 32.7292 0.315686 32 1C31.2777 0.308428 31.2778 0.308324 31.2777 0.308428L30.6891 0.922532C30.3112 1.31667 29.7661 1.8848 29.0976 2.58063C27.7606 3.97234 25.93 5.87473 23.9559 7.91758C20.0031 12.008 15.4886 16.647 13.2007 18.8851C8.23582 23.7466 5 30.2953 5 37.7C5 52.2775 17.0733 64 32 64C46.9267 64 59 52.2775 59 37.7C59 34.643 58.6961 31.9014 57.7312 29.4356C57.53 28.9213 56.9499 28.6675 56.4356 28.8687C55.9213 29.07 55.6675 29.6501 55.8687 30.1644C56.7039 32.2986 57 34.7571 57 37.7C57 51.1225 45.8733 62 32 62C18.1267 62 7 51.1225 7 37.7C7 30.9049 9.96436 24.8533 14.5993 20.3148C16.9114 18.053 21.4469 13.392 25.3941 9.3074C27.37 7.26275 29.2019 5.35889 30.5399 3.96624C31.1304 3.35158 31.6247 2.83646 31.9927 2.45272Z" fill="black"/>
<path fill-rule="evenodd" clip-rule="evenodd" d="M57.7071 20.2929C58.0976 20.6834 58.0976 21.3166 57.7071 21.7071L30.7071 48.7071C30.3166 49.0976 29.6834 49.0976 29.2929 48.7071L17.2929 36.7071C16.9024 36.3166 16.9024 35.6834 17.2929 35.2929C17.6834 34.9024 18.3166 34.9024 18.7071 35.2929L30 46.5858L56.2929 20.2929C56.6834 19.9024 57.3166 19.9024 57.7071 20.2929Z" fill="black"/>
</svg>
