<svg width="64" height="64" viewBox="0 0 64 64" fill="none" xmlns="http://www.w3.org/2000/svg">
<path d="M42.1 25.5C39.5 22.9 32 15 32 15C32 15 23.7 23.6 20.8 26.4C17.9 29.3 16 33.2 16 37.5C16 46.1 23.2 53 32 53C40.8 53 48 46.1 48 37.5C48 32.7 46.6 30 42.1 25.5Z" fill="#6EF4FF"/>
<path fill-rule="evenodd" clip-rule="evenodd" d="M31.9 26C32.4523 26 32.9 26.4477 32.9 27V63C32.9 63.5523 32.4523 64 31.9 64C31.3477 64 30.9 63.5523 30.9 63V27C30.9 26.4477 31.3477 26 31.9 26Z" fill="black"/>
<path fill-rule="evenodd" clip-rule="evenodd" d="M31.895 26C32.1602 25.9987 32.4151 26.1028 32.6036 26.2894L42.7036 36.2894C43.096 36.678 43.0992 37.3111 42.7106 37.7036C42.322 38.096 41.6889 38.0992 41.2964 37.7106L31.9071 28.4142L22.7107 37.7035C22.3221 38.096 21.6889 38.0992 21.2965 37.7107C20.904 37.3221 20.9008 36.6889 21.2893 36.2965L31.1893 26.2965C31.3759 26.108 31.6298 26.0013 31.895 26Z" fill="black"/>
<path fill-rule="evenodd" clip-rule="evenodd" d="M32.7229 0.309068L32 1L31.2813 0.304676C31.4704 0.109186 31.731 -0.000824094 32.003 4.64871e-06C32.2751 0.000833332 32.535 0.112429 32.7229 0.309068ZM45.8975 16.7118C49.0216 19.8363 51.029 22.2941 52.2681 24.7722C53.4946 27.2252 54 29.7634 54 33.1C54 42.9058 47.0469 51.1346 37.6528 53.531C37.1177 53.6675 36.7945 54.212 36.931 54.7472C37.0675 55.2823 37.612 55.6055 38.1472 55.469C48.3531 52.8654 56 43.8942 56 33.1C56 29.5366 55.4554 26.6747 54.0569 23.8778C52.6716 21.1072 50.4804 18.4661 47.3071 15.2929L47.2976 15.2835C45.4108 13.4464 41.7722 9.70828 38.5943 6.41781C37.0078 4.77507 35.5398 3.24777 34.4685 2.13112C33.9328 1.57281 33.4963 1.11721 33.1938 0.801227L32.7229 0.309068C32.7228 0.308986 32.7229 0.309068 32 1C31.2813 0.304676 31.2814 0.304586 31.2813 0.304676L30.7624 0.84052C30.4292 1.18448 29.9485 1.68037 29.3589 2.28796C28.1796 3.50316 26.5647 5.16501 24.8217 6.95171C21.3318 10.5292 17.341 14.5946 15.3017 16.5842C10.9438 20.8383 8 26.5854 8 33.1C8 43.788 15.5403 52.7627 25.6504 55.3684C26.1852 55.5062 26.7305 55.1844 26.8684 54.6496C27.0062 54.1148 26.6844 53.5695 26.1496 53.4316C16.8597 51.0373 10 42.812 10 33.1C10 27.2147 12.6563 21.9617 16.6983 18.0158M45.8975 16.7118C43.983 14.8473 40.3251 11.0889 37.1557 7.80719C35.5672 6.16243 34.0977 4.63348 33.0253 3.51576C32.6206 3.09395 32.2724 2.73068 31.9957 2.44181C31.6809 2.7667 31.2735 3.18688 30.7942 3.68079C29.6141 4.89684 27.9978 6.55999 26.2533 8.34829C22.7683 11.9207 18.759 16.0053 16.6983 18.0158" fill="black"/>
</svg>
