<svg width="64" height="64" viewBox="0 0 64 64" fill="none" xmlns="http://www.w3.org/2000/svg">
<path fill-rule="evenodd" clip-rule="evenodd" d="M32.7292 0.315686L32 1L31.2777 0.308428C31.4675 0.110159 31.7305 -0.00136005 32.005 1.2522e-05C32.2795 0.0013851 32.5413 0.115529 32.7292 0.315686ZM31.9929 2.45256C31.6249 2.83631 31.1305 3.35149 30.5399 3.96624C29.2019 5.35889 27.37 7.26275 25.3941 9.3074C21.4469 13.392 16.9114 18.053 14.5993 20.3148C9.96436 24.8533 7 30.9049 7 37.7C7 42.2102 8.24625 46.3344 10.3589 49.888M31.9929 2.45256C32.3186 2.79875 32.7437 3.25028 33.2458 3.78288C34.4574 5.0679 36.1177 6.82516 37.9126 8.71388C41.4942 12.4827 45.6297 16.794 47.7969 18.9111C51.3706 22.4852 53.6519 25.2918 55.0533 28.1302C56.4426 30.9441 57 33.8577 57 37.7C57 42.1123 55.7526 46.3363 53.6411 49.888C50.6639 54.8819 45.9566 58.727 40.1838 60.6513C38.45 61.2292 36.7216 61.6131 34.8976 61.8052C33.8902 61.906 32.9408 62 32 62C31.0592 62 30.1098 61.906 29.1024 61.8052C27.2718 61.6124 25.4447 61.2272 23.7187 60.6521C18.0453 58.7283 13.3372 54.8833 10.3595 49.889M32 1C31.2777 0.308428 31.2778 0.308324 31.2777 0.308428L30.6892 0.922532C30.3112 1.31667 29.7661 1.8848 29.0976 2.58063C27.7606 3.97234 25.93 5.87473 23.9559 7.91758C20.0031 12.008 15.4886 16.647 13.2007 18.8851C8.23583 23.7466 5 30.2953 5 37.7C5 42.5894 6.35351 47.0649 8.64046 50.9111L8.64105 50.9121C11.863 56.3166 16.9538 60.4707 23.079 62.547L23.0838 62.5487C24.9563 63.1728 26.9276 63.5874 28.8953 63.7945L28.9005 63.795L28.924 63.7974C29.9086 63.8958 30.9501 64 32 64C33.0499 64 34.0914 63.8958 35.076 63.7974L35.0995 63.795L35.1047 63.7945C37.0799 63.5866 38.9507 63.1705 40.8162 62.5487C47.0434 60.4729 52.1361 56.3182 55.3589 50.9121L55.3595 50.9111C57.6476 47.063 59 42.4874 59 37.7C59 33.6423 58.4074 30.4059 56.8467 27.2448C55.2986 24.1093 52.8311 21.1169 49.2071 17.4929L49.1987 17.4846C47.0647 15.4002 42.9534 11.1148 39.3624 7.33613C37.5698 5.44985 35.9114 3.69461 34.701 2.41088C34.0959 1.76904 33.6028 1.24514 33.2611 0.881738L32.7292 0.315686C32.7291 0.315592 32.7292 0.315686 32 1Z" fill="black"/>
<path d="M52 40.4C52 44 51 47.3 49.3 50.2C46.9 54.2 43.1 57.3 38.6 58.8C37.2 59.3 35.8 59.6 34.4 59.8C33.6 59.9 32.9 59.9 32.1 59.9C31.3 59.9 30.5 59.9 29.8 59.8C28.3 59.6 26.9 59.3 25.5 58.8C21 57.3 17.2 54.1 14.8 50.1C13 47.4 12 44 12 40.4C12 34.9 14.4 30 18 26.4C21.6 22.9 32 12 32 12C32 12 41.4 22 44.7 25.3C50.2 30.9 52 34.3 52 40.4Z" fill="#608EFF"/>
<path d="M44 35.2002V47.4002C43.8 47.6002 43.5 47.8002 43.3 48.0002C40.2 50.5002 36.3 52.0002 32 52.0002C27.7 52.0002 23.8 50.5002 20.7 48.0002C20.5 47.8002 20.2 47.6002 20 47.4002V35.2002L32 40.0002L44 35.2002Z" fill="white"/>
<path fill-rule="evenodd" clip-rule="evenodd" d="M19.4394 34.3721C19.7141 34.1861 20.0633 34.1485 20.3714 34.2717L32 38.9232L43.6286 34.2717C43.9367 34.1485 44.2859 34.1861 44.5606 34.3721C44.8354 34.5582 45 34.8684 45 35.2002V47.4002C45 47.6654 44.8946 47.9198 44.7071 48.1073C44.5671 48.2474 44.4043 48.3775 44.2908 48.4682L44.2747 48.4811C44.1384 48.5901 44.0603 48.6541 44.0071 48.7073C43.9819 48.7325 43.9555 48.7563 43.9278 48.7786C40.6587 51.4149 36.5394 53.0002 32 53.0002C27.4606 53.0002 23.3413 51.4149 20.0722 48.7786C20.0445 48.7563 20.0181 48.7325 19.9929 48.7073C19.9397 48.6541 19.8616 48.5901 19.7253 48.4811L19.7092 48.4682C19.5957 48.3775 19.4329 48.2474 19.2929 48.1073C19.1054 47.9198 19 47.6654 19 47.4002V35.2002C19 34.8684 19.1646 34.5582 19.4394 34.3721ZM21 36.6772V46.9396C21.1012 47.0205 21.2385 47.1308 21.364 47.2509C24.289 49.5971 27.9561 51.0002 32 51.0002C36.0439 51.0002 39.711 49.5971 42.636 47.2509C42.7615 47.1308 42.8988 47.0205 43 46.9396V36.6772L32.3714 40.9287C32.133 41.024 31.867 41.024 31.6286 40.9287L21 36.6772Z" fill="black"/>
<path d="M52 32L44 35.2L32 40L20 35.2L12 32L32 24L52 32Z" fill="white"/>
<path fill-rule="evenodd" clip-rule="evenodd" d="M31.6286 23.0715C31.867 22.9762 32.133 22.9762 32.3714 23.0715L52.3714 31.0715C52.751 31.2234 53 31.5911 53 32C53 32.4089 52.751 32.7766 52.3714 32.9285L32.3714 40.9285C32.133 41.0238 31.867 41.0238 31.6286 40.9285L19.6286 36.1285L11.6286 32.9285C11.249 32.7766 11 32.4089 11 32C11 31.5911 11.249 31.2234 11.6286 31.0715L31.6286 23.0715ZM14.6926 32L32 38.923L49.3074 32L32 25.077L14.6926 32Z" fill="black"/>
<path fill-rule="evenodd" clip-rule="evenodd" d="M46 34C46 33.4477 46.4477 33 47 33C49.2523 33 51 34.7477 51 37V50C51 50.5523 50.5523 51 50 51C49.4477 51 49 50.5523 49 50V37C49 35.8523 48.1477 35 47 35C46.4477 35 46 34.5523 46 34Z" fill="black"/>
</svg>
