<svg width="64" height="64" viewBox="0 0 64 64" fill="none" xmlns="http://www.w3.org/2000/svg">
<path d="M47.7 42.7004L51 44.6004C50.2 47.0004 48.9 49.2004 47.2 51.1004L43.9 49.2004C41.8 51.5004 38.9 53.1004 35.8 53.9004V57.7004C34.6 57.9004 33.3 58.1004 32 58.1004C30.7 58.1004 29.4 58.0004 28.2 57.7004V53.9004C25 53.2004 22.2 51.5004 20.1 49.2004L16.8 51.1004C15.2 49.2004 13.9 47.0004 13 44.6004L16.3 42.7004C15.9 41.2004 15.6 39.7004 15.6 38.0004C15.6 36.4004 15.8 34.8004 16.3 33.3004L13 31.4004C13.8 29.0004 15.1 26.8004 16.8 24.9004L20.1 26.8004C22.2 24.5004 25.1 22.9004 28.2 22.1004V18.3004C29.4 18.1004 30.7 17.9004 32 17.9004C33.3 17.9004 34.6 18.0004 35.8 18.3004V22.1004C39 22.8004 41.8 24.5004 43.9 26.8004L47.2 24.9004C48.8 26.8004 50.1 29.0004 51 31.4004L47.7 33.3004C48.1 34.8004 48.4 36.3004 48.4 38.0004C48.3 39.6004 48.1 41.2004 47.7 42.7004Z" fill="#59FFE4"/>
<path fill-rule="evenodd" clip-rule="evenodd" d="M32.7292 0.315686L32 1L31.2802 0.305865C31.4703 0.108717 31.7329 -0.00183326 32.0068 2.30053e-05C32.2806 0.00187933 32.5418 0.115979 32.7292 0.315686ZM13.1965 18.8893C15.491 16.5946 20.0075 11.9534 23.957 7.87899C25.9315 5.842 27.7623 3.94866 29.0996 2.56455C29.7682 1.87251 30.3134 1.30779 30.6914 0.916106L31.2802 0.305865C31.2803 0.30576 31.2802 0.305864 32 1C32.7292 0.315686 32.7291 0.315592 32.7292 0.315686L33.2611 0.881738C33.6028 1.24514 34.0959 1.76904 34.701 2.41088C35.9114 3.69461 37.5698 5.44985 39.3624 7.33613C42.9534 11.1148 47.0647 15.4002 49.1987 17.4846L49.2072 17.4929C52.8312 21.1169 55.2986 24.1093 56.8467 27.2448C58.4074 30.4059 59 33.6423 59 37.7C59 42.4874 57.6476 47.063 55.3595 50.9111L55.3589 50.9121C52.1361 56.3181 47.0434 60.473 40.8162 62.5487C38.9507 63.1705 37.0799 63.5866 35.1047 63.7945L35.0995 63.795L35.076 63.7974C34.0914 63.8958 33.0499 64 32 64C30.9501 64 29.9086 63.8958 28.924 63.7974L28.9005 63.795L28.8953 63.7945C26.9276 63.5874 24.9563 63.1729 23.0838 62.5487L23.079 62.5471C16.9538 60.4707 11.863 56.3166 8.64105 50.9121L8.64046 50.9111C6.35352 47.0648 5 42.5894 5 37.7C5 30.2972 8.23381 23.7503 13.1965 18.8893ZM31.9905 2.45002C31.6226 2.83123 31.1283 3.3431 30.5379 3.9542C29.2002 5.33884 27.3685 7.23301 25.393 9.27101C21.4445 13.3445 16.9137 18.0005 14.6071 20.3071L14.5997 20.3146C9.96454 24.8531 7 30.9047 7 37.7C7 42.2102 8.24625 46.3344 10.3589 49.8879M31.9905 2.45002C32.3165 2.79654 32.7425 3.24897 33.2458 3.78288C34.4574 5.0679 36.1177 6.82516 37.9126 8.71388C41.4942 12.4827 45.6297 16.794 47.7969 18.9111C51.3706 22.4852 53.6519 25.2918 55.0533 28.1302C56.4426 30.9441 57 33.8577 57 37.7C57 42.1123 55.7526 46.3362 53.6411 49.8879C50.6639 54.8819 45.9566 58.727 40.1838 60.6513C38.45 61.2292 36.7216 61.6131 34.8976 61.8052C33.8902 61.906 32.9408 62 32 62C31.0592 62 30.1098 61.906 29.1024 61.8052C27.2717 61.6124 25.4446 61.2273 23.7187 60.6521C18.0453 58.7283 13.3372 54.8832 10.3595 49.8889" fill="black"/>
<path fill-rule="evenodd" clip-rule="evenodd" d="M28.5257 29.0497C28.8205 29.2319 29 29.5538 29 29.9004V39.0004H35V29.9004C35 29.5538 35.1795 29.2319 35.4743 29.0497C35.7691 28.8675 36.1372 28.851 36.4472 29.006C39.7789 30.6718 42 34.1138 42 38.0004C42 42.0969 39.5236 45.5817 36 47.1702V62.8004C36 63.3141 35.6107 63.7443 35.0995 63.7954L35.076 63.7978C34.0914 63.8962 33.0499 64.0004 32 64.0004C30.9501 64.0004 29.9086 63.8962 28.924 63.7978L28.9005 63.7954C28.3893 63.7443 28 63.3141 28 62.8004V47.1857C24.4556 45.662 22 42.0736 22 38.0004C22 34.1138 24.2211 30.6718 27.5528 29.006C27.8628 28.851 28.2309 28.8675 28.5257 29.0497ZM27 31.7252C25.1552 33.2134 24 35.4915 24 38.0004C24 41.4731 26.2285 44.493 29.3243 45.5545C29.7285 45.693 30 46.0731 30 46.5004V61.8926C30.6821 61.9546 31.3431 62.0004 32 62.0004C32.6569 62.0004 33.3179 61.9546 34 61.8926V46.5004C34 46.0824 34.26 45.7085 34.6518 45.563C37.7857 44.399 40 41.4557 40 38.0004C40 35.4915 38.8448 33.2134 37 31.7252V40.0004C37 40.5527 36.5523 41.0004 36 41.0004H28C27.4477 41.0004 27 40.5527 27 40.0004V31.7252Z" fill="black"/>
</svg>
