<svg width="64" height="64" viewBox="0 0 64 64" fill="none" xmlns="http://www.w3.org/2000/svg">
<path d="M41 25H1V53H41V25Z" fill="#FECD6D"/>
<path fill-rule="evenodd" clip-rule="evenodd" d="M36 21C36 20.4477 36.4477 20 37 20H49C49.5523 20 50 20.4477 50 21V33C50 33.5523 49.5523 34 49 34C48.4477 34 48 33.5523 48 33V22H37C36.4477 22 36 21.5523 36 21Z" fill="black"/>
<path fill-rule="evenodd" clip-rule="evenodd" d="M0 11C0 10.4477 0.447715 10 1 10H63C63.5523 10 64 10.4477 64 11V53C64 53.5523 63.5523 54 63 54H19.1C18.5477 54 18.1 53.5523 18.1 53C18.1 52.4477 18.5477 52 19.1 52H62V12H2V35.6C2 36.1523 1.55228 36.6 1 36.6C0.447715 36.6 0 36.1523 0 35.6V11Z" fill="black"/>
<path fill-rule="evenodd" clip-rule="evenodd" d="M16.9 63C16.9 62.4477 17.3477 62 17.9 62H46.1C46.6523 62 47.1 62.4477 47.1 63C47.1 63.5523 46.6523 64 46.1 64H17.9C17.3477 64 16.9 63.5523 16.9 63Z" fill="black"/>
<path fill-rule="evenodd" clip-rule="evenodd" d="M49.7071 20.2929C50.0976 20.6834 50.0976 21.3166 49.7071 21.7071L27.7071 43.7071C27.3166 44.0976 26.6834 44.0976 26.2929 43.7071L19 36.4142L1.70711 53.7071C1.31658 54.0976 0.683417 54.0976 0.292893 53.7071C-0.0976311 53.3166 -0.0976311 52.6834 0.292893 52.2929L18.2929 34.2929C18.6834 33.9024 19.3166 33.9024 19.7071 34.2929L27 41.5858L48.2929 20.2929C48.6834 19.9024 49.3166 19.9024 49.7071 20.2929Z" fill="black"/>
<path d="M36 53H28V63H36V53Z" fill="black"/>
</svg>
