<svg width="64" height="64" viewBox="0 0 64 64" fill="none" xmlns="http://www.w3.org/2000/svg">
<path d="M32 34L52 44L32 54L12 44L32 34Z" fill="#FF8CDF"/>
<path fill-rule="evenodd" clip-rule="evenodd" d="M0 1C0 0.447715 0.447715 0 1 0H11C11.5523 0 12 0.447715 12 1C12 1.55228 11.5523 2 11 2H2V11C2 11.5523 1.55228 12 1 12C0.447715 12 0 11.5523 0 11V1Z" fill="#1D1D1B"/>
<path fill-rule="evenodd" clip-rule="evenodd" d="M0.292893 0.292893C0.683417 -0.0976311 1.31658 -0.0976311 1.70711 0.292893L14.7071 13.2929C15.0976 13.6834 15.0976 14.3166 14.7071 14.7071C14.3166 15.0976 13.6834 15.0976 13.2929 14.7071L0.292893 1.70711C-0.0976311 1.31658 -0.0976311 0.683417 0.292893 0.292893Z" fill="#1D1D1B"/>
<path fill-rule="evenodd" clip-rule="evenodd" d="M52 1C52 0.447715 52.4477 0 53 0H63C63.5523 0 64 0.447715 64 1V11C64 11.5523 63.5523 12 63 12C62.4477 12 62 11.5523 62 11V2H53C52.4477 2 52 1.55228 52 1Z" fill="#1D1D1B"/>
<path fill-rule="evenodd" clip-rule="evenodd" d="M63.7071 0.292893C64.0976 0.683417 64.0976 1.31658 63.7071 1.70711L50.7071 14.7071C50.3166 15.0976 49.6834 15.0976 49.2929 14.7071C48.9024 14.3166 48.9024 13.6834 49.2929 13.2929L62.2929 0.292893C62.6834 -0.0976311 63.3166 -0.0976311 63.7071 0.292893Z" fill="#1D1D1B"/>
<path fill-rule="evenodd" clip-rule="evenodd" d="M1 52C1.55228 52 2 52.4477 2 53V62H11C11.5523 62 12 62.4477 12 63C12 63.5523 11.5523 64 11 64H1C0.447715 64 0 63.5523 0 63V53C0 52.4477 0.447715 52 1 52Z" fill="#1D1D1B"/>
<path fill-rule="evenodd" clip-rule="evenodd" d="M14.7071 49.2929C15.0976 49.6834 15.0976 50.3166 14.7071 50.7071L1.70711 63.7071C1.31658 64.0976 0.683417 64.0976 0.292893 63.7071C-0.0976311 63.3166 -0.0976311 62.6834 0.292893 62.2929L13.2929 49.2929C13.6834 48.9024 14.3166 48.9024 14.7071 49.2929Z" fill="#1D1D1B"/>
<path fill-rule="evenodd" clip-rule="evenodd" d="M63 52C63.5523 52 64 52.4477 64 53V63C64 63.5523 63.5523 64 63 64H53C52.4477 64 52 63.5523 52 63C52 62.4477 52.4477 62 53 62H62V53C62 52.4477 62.4477 52 63 52Z" fill="#1D1D1B"/>
<path fill-rule="evenodd" clip-rule="evenodd" d="M49.2929 49.2929C49.6834 48.9024 50.3166 48.9024 50.7071 49.2929L63.7071 62.2929C64.0976 62.6834 64.0976 63.3166 63.7071 63.7071C63.3166 64.0976 62.6834 64.0976 62.2929 63.7071L49.2929 50.7071C48.9024 50.3166 48.9024 49.6834 49.2929 49.2929Z" fill="#1D1D1B"/>
<path fill-rule="evenodd" clip-rule="evenodd" d="M31.5528 13.1056C31.8343 12.9648 32.1657 12.9648 32.4472 13.1056L52.4472 23.1056C52.786 23.275 53 23.6212 53 24C53 24.3788 52.786 24.725 52.4472 24.8944L32.4472 34.8944C32.1657 35.0352 31.8343 35.0352 31.5528 34.8944L11.5528 24.8944C11.214 24.725 11 24.3788 11 24C11 23.6212 11.214 23.275 11.5528 23.1056L31.5528 13.1056ZM14.2361 24L32 32.882L49.7639 24L32 15.118L14.2361 24Z" fill="#1D1D1B"/>
<path fill-rule="evenodd" clip-rule="evenodd" d="M11.1055 31.553C11.3525 31.059 11.9532 30.8588 12.4472 31.1058L32 40.8822L51.5528 31.1058C52.0467 30.8588 52.6474 31.059 52.8944 31.553C53.1414 32.047 52.9412 32.6477 52.4472 32.8946L32.4472 42.8946C32.1657 43.0354 31.8343 43.0354 31.5528 42.8946L11.5528 32.8946C11.0588 32.6477 10.8586 32.047 11.1055 31.553Z" fill="#1D1D1B"/>
<path fill-rule="evenodd" clip-rule="evenodd" d="M11.1055 39.553C11.3525 39.059 11.9532 38.8588 12.4472 39.1058L32 48.8822L51.5528 39.1058C52.0467 38.8588 52.6474 39.059 52.8944 39.553C53.1414 40.047 52.9412 40.6477 52.4472 40.8946L32.4472 50.8946C32.1657 51.0354 31.8343 51.0354 31.5528 50.8946L11.5528 40.8946C11.0588 40.6477 10.8586 40.047 11.1055 39.553Z" fill="#1D1D1B"/>
</svg>
