<svg width="64" height="64" viewBox="0 0 64 64" fill="none" xmlns="http://www.w3.org/2000/svg">
<path d="M28.5 49C35.9558 49 42 42.9558 42 35.5C42 28.0442 35.9558 22 28.5 22C21.0442 22 15 28.0442 15 35.5C15 42.9558 21.0442 49 28.5 49Z" fill="#A479FF"/>
<path fill-rule="evenodd" clip-rule="evenodd" d="M32 2C15.4315 2 2 15.4315 2 32C2 48.5685 15.4315 62 32 62C48.5685 62 62 48.5685 62 32C62 15.4315 48.5685 2 32 2ZM0 32C0 14.3269 14.3269 0 32 0C49.6731 0 64 14.3269 64 32C64 49.6731 49.6731 64 32 64C14.3269 64 0 49.6731 0 32Z" fill="black"/>
<path fill-rule="evenodd" clip-rule="evenodd" d="M8.73277 25.946C11.4451 15.6181 20.8335 8 32 8C40.8721 8 48.5941 12.8035 52.7651 19.9985C53.0421 20.4763 52.8793 21.0882 52.4015 21.3651C51.9237 21.6421 51.3118 21.4793 51.0348 21.0015C47.2058 14.3965 40.1279 10 32 10C21.9652 10 13.49 16.7133 10.819 25.9049L38.0951 53.1809C46.9798 50.5992 53.5488 42.5944 53.9777 33H41.6C41.0477 33 40.6 32.5523 40.6 32C40.6 31.4477 41.0477 31 41.6 31H55C55.5523 31 56 31.4477 56 32C56 43.1664 48.3818 52.5548 38.054 55.2672C37.7102 55.3575 37.3442 55.2585 37.0929 55.0071L8.99287 26.9071C8.7415 26.6558 8.64247 26.2898 8.73277 25.946Z" fill="black"/>
<path d="M29.9 54.8997C18.9 53.8997 10.1 45.0996 9.09998 34.0996L29.9 54.8997Z" fill="black"/>
<path fill-rule="evenodd" clip-rule="evenodd" d="M8.67584 33.194C9.05711 33.0155 9.5094 33.0948 9.8071 33.3925L30.6071 54.1926C30.9048 54.4903 30.9842 54.9426 30.8056 55.3238C30.627 55.7051 30.2288 55.9337 29.8095 55.8956C18.3287 54.8519 9.14781 45.6709 8.1041 34.1902C8.06599 33.7709 8.29457 33.3726 8.67584 33.194ZM27.0096 53.4235C18.8872 51.5299 12.4698 45.1124 10.5762 36.9901L27.0096 53.4235Z" fill="black"/>
</svg>
