<svg width="40" height="40" viewBox="0 0 40 40" fill="none" xmlns="http://www.w3.org/2000/svg">
<path d="M0 20C0 8.95431 8.95431 0 20 0C31.0457 0 40 8.95431 40 20C40 31.0457 31.0457 40 20 40C8.95431 40 0 31.0457 0 20Z" fill="#FFF7ED"/>
<path d="M19.9999 16.6667V20M19.9999 23.3333H20.0082M18.5749 12.3833L11.5166 24.1667C11.371 24.4187 11.294 24.7044 11.2932 24.9954C11.2924 25.2865 11.3678 25.5726 11.5119 25.8254C11.656 26.0783 11.8638 26.289 12.1147 26.4366C12.3655 26.5841 12.6506 26.6635 12.9416 26.6667H27.0582C27.3492 26.6635 27.6343 26.5841 27.8851 26.4366C28.136 26.289 28.3438 26.0783 28.4879 25.8254C28.632 25.5726 28.7074 25.2865 28.7066 24.9954C28.7058 24.7044 28.6288 24.4187 28.4832 24.1667L21.4249 12.3833C21.2763 12.1384 21.0672 11.9359 20.8176 11.7954C20.568 11.6549 20.2863 11.5811 19.9999 11.5811C19.7134 11.5811 19.4318 11.6549 19.1822 11.7954C18.9326 11.9359 18.7235 12.1384 18.5749 12.3833Z" stroke="#ED8F1C" stroke-width="1.66667" stroke-linecap="round" stroke-linejoin="round"/>
</svg>
