<svg width="32" height="32" viewBox="0 0 32 32" fill="none" xmlns="http://www.w3.org/2000/svg">
<path d="M0 16C0 7.16344 7.16344 0 16 0C24.8366 0 32 7.16344 32 16C32 24.8366 24.8366 32 16 32C7.16344 32 0 24.8366 0 16Z" fill="#FFF0F1"/>
<path d="M15.9999 13.3333V16M15.9999 18.6666H16.0066M22.6666 16C22.6666 19.6819 19.6818 22.6666 15.9999 22.6666C12.318 22.6666 9.33325 19.6819 9.33325 16C9.33325 12.3181 12.318 9.33331 15.9999 9.33331C19.6818 9.33331 22.6666 12.3181 22.6666 16Z" stroke="#CC3340" stroke-width="1.33333" stroke-linecap="round" stroke-linejoin="round"/>
</svg>
