<svg width="46" height="46" viewBox="0 0 46 46" fill="none" xmlns="http://www.w3.org/2000/svg">
<path d="M3 23C3 11.9543 11.9543 3 23 3C34.0457 3 43 11.9543 43 23C43 34.0457 34.0457 43 23 43C11.9543 43 3 34.0457 3 23Z" fill="#228F67"/>
<path d="M31.3334 22.2333V23C31.3324 24.797 30.7505 26.5455 29.6745 27.9848C28.5986 29.4241 27.0862 30.477 25.3629 30.9866C23.6396 31.4961 21.7978 31.4349 20.1121 30.8121C18.4265 30.1894 16.9873 29.0384 16.0092 27.5309C15.0311 26.0233 14.5666 24.24 14.6848 22.4469C14.8031 20.6538 15.4978 18.9469 16.6653 17.5809C17.8329 16.2148 19.4107 15.2628 21.1636 14.8668C22.9164 14.4707 24.7503 14.6519 26.3918 15.3833M31.3334 16.3333L23.0001 24.675L20.5001 22.175" stroke="white" stroke-width="1.66667" stroke-linecap="round" stroke-linejoin="round"/>
<path d="M23 40C13.6112 40 6 32.3888 6 23H0C0 35.7025 10.2975 46 23 46V40ZM40 23C40 32.3888 32.3888 40 23 40V46C35.7025 46 46 35.7025 46 23H40ZM23 6C32.3888 6 40 13.6112 40 23H46C46 10.2975 35.7025 0 23 0V6ZM23 0C10.2975 0 0 10.2975 0 23H6C6 13.6112 13.6112 6 23 6V0Z" fill="#038153"/>
</svg>
