<svg width="36" height="36" viewBox="0 0 36 36" fill="none" xmlns="http://www.w3.org/2000/svg">
<path d="M2 18C2 9.16344 9.16344 2 18 2C26.8366 2 34 9.16344 34 18C34 26.8366 26.8366 34 18 34C9.16344 34 2 26.8366 2 18Z" fill="#228F67"/>
<path d="M24.6666 17.3866V18C24.6658 19.4376 24.2003 20.8364 23.3395 21.9878C22.4787 23.1393 21.2688 23.9816 19.8902 24.3892C18.5115 24.7968 17.0381 24.7479 15.6896 24.2497C14.341 23.7515 13.1897 22.8307 12.4072 21.6247C11.6248 20.4186 11.2531 18.992 11.3477 17.5575C11.4423 16.123 11.9981 14.7575 12.9321 13.6647C13.8662 12.5718 15.1284 11.8102 16.5307 11.4934C17.933 11.1766 19.4001 11.3215 20.7133 11.9066M24.6666 12.6666L17.9999 19.34L15.9999 17.34" stroke="white" stroke-width="1.33333" stroke-linecap="round" stroke-linejoin="round"/>
<path d="M18 32C10.268 32 4 25.732 4 18H0C0 27.9411 8.05887 36 18 36V32ZM32 18C32 25.732 25.732 32 18 32V36C27.9411 36 36 27.9411 36 18H32ZM18 4C25.732 4 32 10.268 32 18H36C36 8.05887 27.9411 0 18 0V4ZM18 0C8.05887 0 0 8.05887 0 18H4C4 10.268 10.268 4 18 4V0Z" fill="#038153"/>
</svg>
