<svg width="46" height="46" viewBox="0 0 46 46" fill="none" xmlns="http://www.w3.org/2000/svg">
<path d="M3 23C3 11.9543 11.9543 3 23 3C34.0457 3 43 11.9543 43 23C43 34.0457 34.0457 43 23 43C11.9543 43 3 34.0457 3 23Z" fill="#F79A3E"/>
<path d="M22.9999 19.6667V23M22.9999 26.3333H23.0082M21.5749 15.3833L14.5166 27.1667C14.371 27.4187 14.294 27.7044 14.2932 27.9954C14.2924 28.2865 14.3678 28.5726 14.5119 28.8254C14.656 29.0783 14.8638 29.289 15.1147 29.4366C15.3655 29.5841 15.6506 29.6635 15.9416 29.6667H30.0582C30.3492 29.6635 30.6343 29.5841 30.8851 29.4366C31.136 29.289 31.3438 29.0783 31.4879 28.8254C31.632 28.5726 31.7074 28.2865 31.7066 27.9954C31.7058 27.7044 31.6288 27.4187 31.4832 27.1667L24.4249 15.3833C24.2763 15.1384 24.0672 14.9359 23.8176 14.7954C23.568 14.6549 23.2863 14.5811 22.9999 14.5811C22.7134 14.5811 22.4318 14.6549 22.1822 14.7954C21.9326 14.9359 21.7235 15.1384 21.5749 15.3833Z" stroke="white" stroke-width="1.66667" stroke-linecap="round" stroke-linejoin="round"/>
<path d="M23 40C13.6112 40 6 32.3888 6 23H0C0 35.7025 10.2975 46 23 46V40ZM40 23C40 32.3888 32.3888 40 23 40V46C35.7025 46 46 35.7025 46 23H40ZM23 6C32.3888 6 40 13.6112 40 23H46C46 10.2975 35.7025 0 23 0V6ZM23 0C10.2975 0 0 10.2975 0 23H6C6 13.6112 13.6112 6 23 6V0Z" fill="#ED8F1C"/>
</svg>
