<svg width="26" height="26" viewBox="0 0 26 26" fill="none" xmlns="http://www.w3.org/2000/svg">
<path d="M1 13C1 6.37258 6.37258 1 13 1C19.6274 1 25 6.37258 25 13C25 19.6274 19.6274 25 13 25C6.37258 25 1 19.6274 1 13Z" fill="#D93F4C"/>
<path d="M13 11V13M13 15H13.005M18 13C18 15.7614 15.7614 18 13 18C10.2386 18 8 15.7614 8 13C8 10.2386 10.2386 8 13 8C15.7614 8 18 10.2386 18 13Z" stroke="white" stroke-linecap="round" stroke-linejoin="round"/>
<path d="M13 24C6.92487 24 2 19.0751 2 13H0C0 20.1797 5.8203 26 13 26V24ZM24 13C24 19.0751 19.0751 24 13 24V26C20.1797 26 26 20.1797 26 13H24ZM13 2C19.0751 2 24 6.92487 24 13H26C26 5.8203 20.1797 0 13 0V2ZM13 0C5.8203 0 0 5.8203 0 13H2C2 6.92487 6.92487 2 13 2V0Z" fill="#CC3340"/>
</svg>
