<svg width="24" height="24" viewBox="0 0 24 24" fill="none" xmlns="http://www.w3.org/2000/svg">
<path d="M0 12C0 5.37258 5.37258 0 12 0C18.6274 0 24 5.37258 24 12C24 18.6274 18.6274 24 12 24C5.37258 24 0 18.6274 0 12Z" fill="#EDF8F4"/>
<path d="M17 11.54V12C16.9994 13.0782 16.6503 14.1273 16.0047 14.9909C15.3591 15.8545 14.4516 16.4862 13.4177 16.7919C12.3837 17.0977 11.2786 17.0609 10.2672 16.6873C9.25584 16.3136 8.39233 15.623 7.80548 14.7185C7.21863 13.814 6.9399 12.744 7.01084 11.6682C7.08178 10.5923 7.4986 9.56816 8.19914 8.74853C8.89968 7.9289 9.84639 7.35768 10.8981 7.12007C11.9498 6.88245 13.0501 6.99116 14.035 7.42999M17 7.99999L12 13.005L10.5 11.505" stroke="#038153" stroke-linecap="round" stroke-linejoin="round"/>
</svg>
