<svg width="32" height="32" viewBox="0 0 32 32" fill="none" xmlns="http://www.w3.org/2000/svg">
<path d="M0 16C0 7.16344 7.16344 0 16 0C24.8366 0 32 7.16344 32 16C32 24.8366 24.8366 32 16 32C7.16344 32 0 24.8366 0 16Z" fill="#EDF8F4"/>
<path d="M22.6666 15.3867V16C22.6658 17.4376 22.2003 18.8365 21.3395 19.9879C20.4787 21.1393 19.2688 21.9817 17.8902 22.3893C16.5115 22.7969 15.0381 22.7479 13.6896 22.2497C12.341 21.7515 11.1897 20.8307 10.4072 19.6247C9.62476 18.4187 9.25311 16.9921 9.3477 15.5576C9.44229 14.1231 9.99806 12.7576 10.9321 11.6647C11.8662 10.5719 13.1284 9.81027 14.5307 9.49344C15.933 9.17662 17.4001 9.32157 18.7133 9.90668M22.6666 10.6667L15.9999 17.34L13.9999 15.34" stroke="#038153" stroke-width="1.33333" stroke-linecap="round" stroke-linejoin="round"/>
</svg>
