<svg width="56" height="56" viewBox="0 0 56 56" fill="none" xmlns="http://www.w3.org/2000/svg">
<path d="M0 28C0 12.536 12.536 0 28 0C43.464 0 56 12.536 56 28C56 43.464 43.464 56 28 56C12.536 56 0 43.464 0 28Z" fill="#FFF7ED"/>
<path d="M27.9997 23.3333V28M27.9997 32.6666H28.0113M26.0047 17.3366L16.123 33.8333C15.9193 34.1861 15.8115 34.5862 15.8103 34.9936C15.8092 35.401 15.9147 35.8016 16.1165 36.1556C16.3182 36.5096 16.6092 36.8045 16.9603 37.0111C17.3115 37.2178 17.7106 37.3288 18.118 37.3333H37.8813C38.2887 37.3288 38.6879 37.2178 39.039 37.0111C39.3901 36.8045 39.6811 36.5096 39.8828 36.1556C40.0846 35.8016 40.1901 35.401 40.189 34.9936C40.1879 34.5862 40.0801 34.1861 39.8763 33.8333L29.9947 17.3366C29.7867 16.9938 29.4938 16.7103 29.1444 16.5135C28.7949 16.3168 28.4007 16.2134 27.9997 16.2134C27.5986 16.2134 27.2044 16.3168 26.8549 16.5135C26.5055 16.7103 26.2126 16.9938 26.0047 17.3366Z" stroke="#ED8F1C" stroke-width="2.33333" stroke-linecap="round" stroke-linejoin="round"/>
</svg>
