<svg width="26" height="26" viewBox="0 0 26 26" fill="none" xmlns="http://www.w3.org/2000/svg">
<path d="M1 13C1 6.37258 6.37258 1 13 1C19.6274 1 25 6.37258 25 13C25 19.6274 19.6274 25 13 25C6.37258 25 1 19.6274 1 13Z" fill="#EDF8F4"/>
<path d="M18 12.5401V13.0001C17.9994 14.0783 17.6503 15.1274 17.0047 15.991C16.3591 16.8545 15.4516 17.4863 14.4177 17.792C13.3837 18.0977 12.2786 18.061 11.2672 17.6873C10.2558 17.3137 9.39233 16.6231 8.80548 15.7186C8.21863 14.8141 7.9399 13.7441 8.01084 12.6682C8.08178 11.5923 8.4986 10.5682 9.19914 9.74859C9.89968 8.92896 10.8464 8.35775 11.8981 8.12013C12.9498 7.88251 14.0501 7.99122 15.035 8.43005M18 9.00005L13 14.0051L11.5 12.5051" stroke="#038153" stroke-linecap="round" stroke-linejoin="round"/>
<path d="M13 24C6.92487 24 2 19.0751 2 13H0C0 20.1797 5.8203 26 13 26V24ZM24 13C24 19.0751 19.0751 24 13 24V26C20.1797 26 26 20.1797 26 13H24ZM13 2C19.0751 2 24 6.92487 24 13H26C26 5.8203 20.1797 0 13 0V2ZM13 0C5.8203 0 0 5.8203 0 13H2C2 6.92487 6.92487 2 13 2V0Z" fill="#DAEDED"/>
</svg>
