<svg width="40" height="40" viewBox="0 0 40 40" fill="none" xmlns="http://www.w3.org/2000/svg">
<path d="M0 20C0 8.95431 8.95431 0 20 0C31.0457 0 40 8.95431 40 20C40 31.0457 31.0457 40 20 40C8.95431 40 0 31.0457 0 20Z" fill="#F8F9F9"/>
<path fill-rule="evenodd" clip-rule="evenodd" d="M28.4942 12.3167L16.5608 23.8334L13.3942 20.45C12.8108 19.9 11.8942 19.8667 11.2275 20.3334C10.5775 20.8167 10.3942 21.6667 10.7942 22.35L14.5442 28.45C14.9108 29.0167 15.5442 29.3667 16.2608 29.3667C16.9442 29.3667 17.5942 29.0167 17.9608 28.45C18.5608 27.6667 30.0108 14.0167 30.0108 14.0167C31.5108 12.4834 29.6942 11.1334 28.4942 12.3V12.3167Z" fill="#68737D"/>
</svg>
