<svg width="66" height="66" viewBox="0 0 66 66" fill="none" xmlns="http://www.w3.org/2000/svg">
<path d="M5 33C5 17.536 17.536 5 33 5C48.464 5 61 17.536 61 33C61 48.464 48.464 61 33 61C17.536 61 5 48.464 5 33Z" fill="#FFF0F1"/>
<path d="M32.9999 28.3334V33M32.9999 37.6667H33.0116M44.6666 33C44.6666 39.4434 39.4432 44.6667 32.9999 44.6667C26.5566 44.6667 21.3333 39.4434 21.3333 33C21.3333 26.5567 26.5566 21.3334 32.9999 21.3334C39.4432 21.3334 44.6666 26.5567 44.6666 33Z" stroke="#CC3340" stroke-width="2.33333" stroke-linecap="round" stroke-linejoin="round"/>
<path d="M33 56C20.2975 56 10 45.7025 10 33H0C0 51.2254 14.7746 66 33 66V56ZM56 33C56 45.7025 45.7025 56 33 56V66C51.2254 66 66 51.2254 66 33H56ZM33 10C45.7025 10 56 20.2975 56 33H66C66 14.7746 51.2254 0 33 0V10ZM33 0C14.7746 0 0 14.7746 0 33H10C10 20.2975 20.2975 10 33 10V0Z" fill="#FEF3F2"/>
</svg>
