<svg width="40" height="40" viewBox="0 0 40 40" fill="none" xmlns="http://www.w3.org/2000/svg">
<path d="M0 20C0 8.95431 8.95431 0 20 0C31.0457 0 40 8.95431 40 20C40 31.0457 31.0457 40 20 40C8.95431 40 0 31.0457 0 20Z" fill="#EDF8F4"/>
<path d="M28.3334 19.2334V20C28.3324 21.797 27.7505 23.5456 26.6745 24.9849C25.5986 26.4242 24.0862 27.4771 22.3629 27.9866C20.6396 28.4961 18.7978 28.4349 17.1121 27.8122C15.4265 27.1894 13.9873 26.0384 13.0092 24.5309C12.0311 23.0234 11.5666 21.2401 11.6848 19.447C11.8031 17.6538 12.4978 15.947 13.6653 14.5809C14.8329 13.2149 16.4107 12.2628 18.1636 11.8668C19.9164 11.4708 21.7503 11.652 23.3918 12.3834M28.3334 13.3334L20.0001 21.675L17.5001 19.175" stroke="#038153" stroke-width="1.66667" stroke-linecap="round" stroke-linejoin="round"/>
</svg>
