<svg width="56" height="56" viewBox="0 0 56 56" fill="none" xmlns="http://www.w3.org/2000/svg">
<path d="M4 28C4 14.7452 14.7452 4 28 4C41.2548 4 52 14.7452 52 28C52 41.2548 41.2548 52 28 52C14.7452 52 4 41.2548 4 28Z" fill="#FFF7ED"/>
<path d="M27.9998 24V28M27.9998 32H28.0098M26.2898 18.86L17.8198 33C17.6451 33.3024 17.5527 33.6453 17.5518 33.9945C17.5508 34.3437 17.6413 34.6871 17.8142 34.9905C17.9871 35.2939 18.2365 35.5467 18.5375 35.7238C18.8385 35.9009 19.1806 35.9961 19.5298 36H36.4698C36.819 35.9961 37.1611 35.9009 37.4621 35.7238C37.7631 35.5467 38.0124 35.2939 38.1854 34.9905C38.3583 34.6871 38.4488 34.3437 38.4478 33.9945C38.4468 33.6453 38.3544 33.3024 38.1798 33L29.7098 18.86C29.5315 18.5661 29.2805 18.3231 28.981 18.1544C28.6814 17.9858 28.3435 17.8972 27.9998 17.8972C27.656 17.8972 27.3181 17.9858 27.0186 18.1544C26.7191 18.3231 26.468 18.5661 26.2898 18.86Z" stroke="#ED8F1C" stroke-width="2" stroke-linecap="round" stroke-linejoin="round"/>
<path d="M28 48C16.9543 48 8 39.0457 8 28H0C0 43.464 12.536 56 28 56V48ZM48 28C48 39.0457 39.0457 48 28 48V56C43.464 56 56 43.464 56 28H48ZM28 8C39.0457 8 48 16.9543 48 28H56C56 12.536 43.464 0 28 0V8ZM28 0C12.536 0 0 12.536 0 28H8C8 16.9543 16.9543 8 28 8V0Z" fill="#FFFAEB"/>
</svg>
