<svg width="66" height="66" viewBox="0 0 66 66" fill="none" xmlns="http://www.w3.org/2000/svg">
<path d="M5 33C5 17.536 17.536 5 33 5C48.464 5 61 17.536 61 33C61 48.464 48.464 61 33 61C17.536 61 5 48.464 5 33Z" fill="#EDF8F4"/>
<path d="M44.6666 31.9267V33C44.6652 35.5158 43.8505 37.9638 42.3441 39.9788C40.8378 41.9938 38.7204 43.4679 36.3078 44.1812C33.8953 44.8945 31.3167 44.8089 28.9568 43.937C26.5969 43.0652 24.582 41.4538 23.2127 39.3432C21.8434 37.2327 21.193 34.7361 21.3585 32.2257C21.5241 29.7153 22.4967 27.3257 24.1312 25.4133C25.7658 23.5008 27.9748 22.168 30.4288 21.6135C32.8828 21.0591 35.4502 21.3127 37.7483 22.3367M44.6666 23.6667L32.9999 35.345L29.4999 31.845" stroke="#038153" stroke-width="2.33333" stroke-linecap="round" stroke-linejoin="round"/>
<path d="M33 56C20.2975 56 10 45.7025 10 33H0C0 51.2254 14.7746 66 33 66V56ZM56 33C56 45.7025 45.7025 56 33 56V66C51.2254 66 66 51.2254 66 33H56ZM33 10C45.7025 10 56 20.2975 56 33H66C66 14.7746 51.2254 0 33 0V10ZM33 0C14.7746 0 0 14.7746 0 33H10C10 20.2975 20.2975 10 33 10V0Z" fill="#DAEDED"/>
</svg>
