<svg width="36" height="36" viewBox="0 0 36 36" fill="none" xmlns="http://www.w3.org/2000/svg">
<path d="M0 18C0 8.05888 8.05888 0 18 0C27.9411 0 36 8.05888 36 18C36 27.9411 27.9411 36 18 36C8.05888 36 0 27.9411 0 18Z" fill="#F8F9F9"/>
<path fill-rule="evenodd" clip-rule="evenodd" d="M25.6445 11.0851L14.9045 21.4501L12.0545 18.4051C11.5295 17.9101 10.7045 17.8801 10.1045 18.3001C9.51951 18.7351 9.35451 19.5001 9.71451 20.1151L13.0895 25.6051C13.4195 26.1151 13.9895 26.4301 14.6345 26.4301C15.2495 26.4301 15.8345 26.1151 16.1645 25.6051C16.7045 24.9001 27.0095 12.6151 27.0095 12.6151C28.3595 11.2351 26.7245 10.0201 25.6445 11.0701V11.0851Z" fill="#68737D"/>
</svg>
