<svg width="40" height="40" viewBox="0 0 40 40" fill="none" xmlns="http://www.w3.org/2000/svg">
<path d="M0 20C0 8.95431 8.95431 0 20 0C31.0457 0 40 8.95431 40 20C40 31.0457 31.0457 40 20 40C8.95431 40 0 31.0457 0 20Z" fill="#FFF0F1"/>
<path d="M20.0001 16.6667V20M20.0001 23.3334H20.0084M28.3334 20C28.3334 24.6024 24.6025 28.3334 20.0001 28.3334C15.3977 28.3334 11.6667 24.6024 11.6667 20C11.6667 15.3976 15.3977 11.6667 20.0001 11.6667C24.6025 11.6667 28.3334 15.3976 28.3334 20Z" stroke="#CC3340" stroke-width="1.66667" stroke-linecap="round" stroke-linejoin="round"/>
</svg>
