<svg width="64" height="64" viewBox="0 0 64 64" fill="none" xmlns="http://www.w3.org/2000/svg">
<path d="M60 22V62C60 63.1 59.1 64 58 64L6 63.9C4.9 63.9 4 63 4 61.9V22C4 20.9 4.9 20 6 20H58C59.1 20 60 20.9 60 22Z" fill="#FFF641"/>
<path fill-rule="evenodd" clip-rule="evenodd" d="M5 9C3.35228 9 2 10.3523 2 12V55.9C2 57.5477 3.35228 58.9 5 58.9H5.00185L59 59C59.0005 59 59.0011 59 59.0016 59C60.6486 58.9991 62 57.6472 62 56V12C62 10.3523 60.6477 9 59 9H5ZM0 12C0 9.24772 2.24772 7 5 7H59C61.7523 7 64 9.24772 64 12V56C64 58.7523 61.7523 61 59 61H58.9981L5 60.9H4.99815C2.24671 60.899 0 58.6517 0 55.9V12Z" fill="black"/>
<path fill-rule="evenodd" clip-rule="evenodd" d="M1.32928e-06 16.8988C0.00089218 16.3465 0.449329 15.8995 1.00161 15.9004L63.0016 16.0004C63.5539 16.0013 64.0009 16.4497 64 17.002C63.9991 17.5543 63.5507 18.0013 62.9984 18.0004L0.998387 17.9004C0.446103 17.8995 -0.000889522 17.4511 1.32928e-06 16.8988Z" fill="black"/>
<path fill-rule="evenodd" clip-rule="evenodd" d="M12.7071 27.2929C13.0976 27.6834 13.0976 28.3166 12.7071 28.7071L7.41421 34L12.7071 39.2929C13.0976 39.6834 13.0976 40.3166 12.7071 40.7071C12.3166 41.0976 11.6834 41.0976 11.2929 40.7071L5.29289 34.7071C4.90237 34.3166 4.90237 33.6834 5.29289 33.2929L11.2929 27.2929C11.6834 26.9024 12.3166 26.9024 12.7071 27.2929Z" fill="black"/>
<path fill-rule="evenodd" clip-rule="evenodd" d="M27.2929 27.2929C27.6834 26.9024 28.3166 26.9024 28.7071 27.2929L34.7071 33.2929C35.0976 33.6834 35.0976 34.3166 34.7071 34.7071L28.7071 40.7071C28.3166 41.0976 27.6834 41.0976 27.2929 40.7071C26.9024 40.3166 26.9024 39.6834 27.2929 39.2929L32.5858 34L27.2929 28.7071C26.9024 28.3166 26.9024 27.6834 27.2929 27.2929Z" fill="black"/>
<path fill-rule="evenodd" clip-rule="evenodd" d="M24.3163 21.0516C24.8402 21.2262 25.1234 21.7926 24.9487 22.3165L16.9487 46.3165C16.7741 46.8404 16.2077 47.1236 15.6838 46.949C15.1599 46.7743 14.8767 46.208 15.0513 45.684L23.0513 21.684C23.226 21.1601 23.7923 20.8769 24.3163 21.0516Z" fill="black"/>
<path d="M46.8 50.7004C46.8 52.9004 45.5 54.0004 43.5 54.0004C41.3 54.0004 40 52.8004 40 50.7004V49.7004H42V50.7004C42 51.7004 42.5 52.3004 43.5 52.3004C44.4 52.3004 44.9 51.7004 44.9 50.7004V43.4004H46.9V50.7004H46.8Z" fill="black"/>
<path d="M57.8 46.5001V46.7001H55.9V46.5001C55.9 45.3001 55.2 44.8001 54 44.8001C52.8 44.8001 52.3 45.3001 52.3 46.1001C52.3 46.9001 52.9 47.2001 54.1 47.5001L54.4 47.6001C56.6 48.1001 58 48.9001 58 50.8001C58 52.7001 56.5 54.0001 54 54.0001C51.6 54.0001 49.9 52.7001 49.9 50.4001V50.3001H51.8V50.4001C51.8 51.7001 52.6 52.3001 54 52.3001C55.3 52.3001 56 51.7001 56 50.9001C56 50.0001 55.3 49.7001 54 49.4001L53.7 49.3001C51.5 48.8001 50.3 48.1001 50.3 46.2001C50.3 44.3001 51.7 43.2001 54 43.2001C56.2 43.1001 57.8 44.3001 57.8 46.5001Z" fill="black"/>
</svg>
