<svg width="64" height="64" viewBox="0 0 64 64" fill="none" xmlns="http://www.w3.org/2000/svg">
<path d="M46 43C52.0751 43 57 38.0751 57 32C57 25.9249 52.0751 21 46 21C39.9249 21 35 25.9249 35 32C35 38.0751 39.9249 43 46 43Z" fill="#59FFE4"/>
<path d="M19 43C25.0751 43 30 38.0751 30 32C30 25.9249 25.0751 21 19 21C12.9249 21 8 25.9249 8 32C8 38.0751 12.9249 43 19 43Z" fill="#59FFE4"/>
<path fill-rule="evenodd" clip-rule="evenodd" d="M32 15C22.6112 15 15 22.6112 15 32C15 41.3888 22.6112 49 32 49C41.3888 49 49 41.3888 49 32C49 22.6112 41.3888 15 32 15ZM13 32C13 21.5066 21.5066 13 32 13C42.4934 13 51 21.5066 51 32C51 42.4934 42.4934 51 32 51C21.5066 51 13 42.4934 13 32Z" fill="#1D1D1B"/>
<path fill-rule="evenodd" clip-rule="evenodd" d="M52 22C46.4772 22 42 26.4772 42 32C42 37.5228 46.4772 42 52 42C57.5228 42 62 37.5228 62 32C62 26.4772 57.5228 22 52 22ZM40 32C40 25.3726 45.3726 20 52 20C58.6274 20 64 25.3726 64 32C64 38.6274 58.6274 44 52 44C45.3726 44 40 38.6274 40 32Z" fill="#1D1D1B"/>
<path fill-rule="evenodd" clip-rule="evenodd" d="M12 22C6.47715 22 2 26.4772 2 32C2 37.5228 6.47715 42 12 42C17.5228 42 22 37.5228 22 32C22 26.4772 17.5228 22 12 22ZM0 32C0 25.3726 5.37258 20 12 20C18.6274 20 24 25.3726 24 32C24 38.6274 18.6274 44 12 44C5.37258 44 0 38.6274 0 32Z" fill="#1D1D1B"/>
<path fill-rule="evenodd" clip-rule="evenodd" d="M32 2C22.324 2 13.8088 6.54523 8.28823 13.6154C7.94834 14.0507 7.31991 14.1281 6.88461 13.7882C6.44931 13.4483 6.37196 12.8199 6.71186 12.3846C12.5913 4.85477 21.6761 0 32 0C42.324 0 51.4088 4.85477 57.2882 12.3846C57.6281 12.8199 57.5508 13.4483 57.1155 13.7882C56.6802 14.1281 56.0518 14.0507 55.7119 13.6154C50.1913 6.54523 41.6761 2 32 2Z" fill="#1D1D1B"/>
<path fill-rule="evenodd" clip-rule="evenodd" d="M6.88461 50.2119C7.31991 49.872 7.94834 49.9493 8.28823 50.3846C13.8088 57.4548 22.324 62 32 62C41.6761 62 50.1913 57.4548 55.7119 50.3846C56.0518 49.9493 56.6802 49.872 57.1155 50.2119C57.5508 50.5518 57.6281 51.1802 57.2882 51.6155C51.4088 59.1453 42.324 64 32 64C21.6761 64 12.5913 59.1453 6.71186 51.6155C6.37196 51.1802 6.44931 50.5518 6.88461 50.2119Z" fill="#1D1D1B"/>
</svg>
