<svg width="48" height="48" viewBox="0 0 48 48" fill="none" xmlns="http://www.w3.org/2000/svg">
<path d="M0 24C0 10.7452 10.7452 0 24 0C37.2548 0 48 10.7452 48 24C48 37.2548 37.2548 48 24 48C10.7452 48 0 37.2548 0 24Z" fill="#F5FCFC"/>
<path d="M33.2099 27.89C32.5737 29.3945 31.5787 30.7202 30.3118 31.7513C29.0449 32.7824 27.5447 33.4874 25.9424 33.8048C24.34 34.1221 22.6843 34.0421 21.1201 33.5718C19.5558 33.1014 18.1305 32.2551 16.9689 31.1067C15.8073 29.9582 14.9447 28.5428 14.4565 26.9839C13.9684 25.4251 13.8695 23.7705 14.1685 22.1646C14.4675 20.5588 15.1554 19.0506 16.172 17.772C17.1885 16.4934 18.5028 15.4833 19.9999 14.83M33.9999 24C33.9999 22.6868 33.7413 21.3864 33.2387 20.1732C32.7362 18.9599 31.9996 17.8575 31.071 16.9289C30.1424 16.0003 29.04 15.2638 27.8267 14.7612C26.6135 14.2587 25.3131 14 23.9999 14V24H33.9999Z" stroke="#17494D" stroke-width="2" stroke-linecap="round" stroke-linejoin="round"/>
</svg>
