<svg width="64" height="64" viewBox="0 0 64 64" fill="none" xmlns="http://www.w3.org/2000/svg">
<path d="M61 54H51C49.9 54 49 53.1 49 52V31C49 29.9 49.9 29 51 29H61C62.1 29 63 29.9 63 31V52C63 53.1 62.1 54 61 54Z" fill="#6EF4FF"/>
<path fill-rule="evenodd" clip-rule="evenodd" d="M5 11C5 10.4477 5.44772 10 6 10H58C58.5523 10 59 10.4477 59 11V29H57V12H7V29H5V11Z" fill="black"/>
<path fill-rule="evenodd" clip-rule="evenodd" d="M26 42H50V44H26V42Z" fill="black"/>
<path fill-rule="evenodd" clip-rule="evenodd" d="M31 51V43H33V51H31Z" fill="black"/>
<path fill-rule="evenodd" clip-rule="evenodd" d="M26 51C26 50.4477 26.4477 50 27 50H39C39.5523 50 40 50.4477 40 51C40 51.5523 39.5523 52 39 52H27C26.4477 52 26 51.5523 26 51Z" fill="black"/>
<path fill-rule="evenodd" clip-rule="evenodd" d="M51 30C50.4523 30 50 30.4523 50 31V55C50 55.5477 50.4523 56 51 56H61C61.5477 56 62 55.5477 62 55V31C62 30.4523 61.5477 30 61 30H51ZM48 31C48 29.3477 49.3477 28 51 28H61C62.6523 28 64 29.3477 64 31V55C64 56.6523 62.6523 58 61 58H51C49.3477 58 48 56.6523 48 55V31Z" fill="black"/>
<path fill-rule="evenodd" clip-rule="evenodd" d="M54 54C54 53.4477 54.4477 53 55 53H57C57.5523 53 58 53.4477 58 54C58 54.5523 57.5523 55 57 55H55C54.4477 55 54 54.5523 54 54Z" fill="black"/>
<path fill-rule="evenodd" clip-rule="evenodd" d="M3 30C2.45228 30 2 30.4523 2 31V61C2 61.5477 2.45228 62 3 62H25C25.5477 62 26 61.5477 26 61V31C26 30.4523 25.5477 30 25 30H3ZM0 31C0 29.3477 1.34772 28 3 28H25C26.6523 28 28 29.3477 28 31V61C28 62.6523 26.6523 64 25 64H3C1.34772 64 0 62.6523 0 61V31Z" fill="black"/>
<path d="M14 61C15.1046 61 16 60.1046 16 59C16 57.8954 15.1046 57 14 57C12.8954 57 12 57.8954 12 59C12 60.1046 12.8954 61 14 61Z" fill="black"/>
<path d="M24 56H4C3.4 56 3 55.6 3 55V32C3 31.4 3.4 31 4 31H24C24.6 31 25 31.4 25 32V55C25 55.6 24.6 56 24 56Z" fill="#6EF4FF"/>
</svg>
