<svg width="78" height="59" viewBox="0 0 78 59" fill="none" xmlns="http://www.w3.org/2000/svg">
<path d="M20.6918 58.1158C18.9135 58.8035 16.877 59.0901 14.5824 58.9754C12.2878 58.8608 10.1652 58.2877 8.21482 57.2561C6.32175 56.2244 4.77288 54.9063 3.56821 53.3015C-2.22571 45.5643 -0.963671 34.9615 7.35433 21.4931C11.0831 15.5326 14.6398 10.9763 18.0243 7.82407C23.7609 2.55133 27.3749 -0.0563881 28.8664 0.000924394C32.1936 0.0582368 34.2588 1.08986 35.0619 3.0958C34.3161 3.78355 33.427 4.75786 32.3944 6.01873L29.2106 10.3172C22.9004 18.9713 19.4298 25.9635 18.7988 31.2935C24.3632 32.2105 27.9772 35.2481 29.6408 40.4062C30.8455 43.9596 30.5587 47.5129 28.7804 51.0663C27.1168 54.4478 24.4206 56.7976 20.6918 58.1158ZM63.6299 58.1158C61.8516 58.8035 59.8151 59.0901 57.5205 58.9754C55.2259 58.8608 53.1034 58.2877 51.1529 57.2561C49.2599 56.2244 47.711 54.9063 46.5063 53.3015C40.7124 45.5643 41.9744 34.9615 50.2924 21.4931C54.0212 15.5326 57.5779 10.9763 60.9624 7.82407C66.699 2.55133 70.313 -0.0563881 71.8045 0.000924394C75.1317 0.0582368 77.1969 1.08986 78 3.0958C77.2542 3.78355 76.3651 4.75786 75.3325 6.01873L72.1487 10.3172C65.8385 18.9713 62.3679 25.9635 61.7369 31.2935C67.3013 32.2105 70.9154 35.2481 72.579 40.4062C73.7836 43.9596 73.4968 47.5129 71.7185 51.0663C70.0549 54.4478 67.3587 56.7976 63.6299 58.1158Z" fill="#00DAB3"/>
</svg>
