<svg width="40" height="30" viewBox="0 0 40 30" fill="none" xmlns="http://www.w3.org/2000/svg">
<path d="M9.09139 11.9639C8.64672 11.9639 8.21999 12.0321 7.79525 12.0942C7.93284 11.6293 8.07442 11.1563 8.30175 10.7315C8.52907 10.1142 8.88401 9.57916 9.23696 9.04008C9.53208 8.45691 10.0525 8.06212 10.4354 7.56313C10.8362 7.07816 11.3826 6.75551 11.8153 6.3527C12.24 5.93186 12.7964 5.72144 13.239 5.42485C13.7017 5.15832 14.1045 4.86373 14.5352 4.72345L15.61 4.27856L16.5552 3.88377L15.5881 0L14.3976 0.288576C14.0167 0.384769 13.5521 0.496993 13.0237 0.631262C12.4833 0.731462 11.907 1.00601 11.2649 1.25651C10.6308 1.54108 9.897 1.73347 9.21503 2.19038C8.52907 2.62725 7.73742 2.99198 7.0395 3.57715C6.36351 4.18036 5.54794 4.70341 4.94573 5.47094C4.28769 6.18838 3.63763 6.94188 3.13313 7.7996C2.54887 8.61723 2.15205 9.51503 1.7333 10.4028C1.35442 11.2906 1.04933 12.1984 0.800073 13.0802C0.32748 14.8477 0.116109 16.5271 0.0343523 17.9639C-0.033446 19.4028 0.00643535 20.5992 0.0901861 21.4649C0.120097 21.8737 0.175931 22.2705 0.215812 22.5451L0.265664 22.8818L0.317509 22.8697C0.672176 24.5347 1.48863 26.0648 2.67243 27.2829C3.85622 28.5011 5.35899 29.3575 7.00688 29.7532C8.65477 30.1488 10.3804 30.0675 11.9843 29.5187C13.5881 28.9699 15.0046 27.9759 16.0698 26.6519C17.1351 25.3278 17.8055 23.7277 18.0037 22.0367C18.2019 20.3456 17.9196 18.6328 17.1896 17.0962C16.4595 15.5597 15.3116 14.2623 13.8785 13.354C12.4453 12.4458 10.7857 11.9638 9.09139 11.9639ZM31.0261 11.9639C30.5814 11.9639 30.1547 12.0321 29.73 12.0942C29.8676 11.6293 30.0091 11.1563 30.2365 10.7315C30.4638 10.1142 30.8187 9.57916 31.1717 9.04008C31.4668 8.45691 31.9872 8.06212 32.3701 7.56313C32.7709 7.07816 33.3173 6.75551 33.75 6.3527C34.1747 5.93186 34.7311 5.72144 35.1738 5.42485C35.6364 5.15832 36.0392 4.86373 36.4699 4.72345L37.5447 4.27856L38.4899 3.88377L37.5228 0L36.3323 0.288576C35.9514 0.384769 35.4868 0.496993 34.9584 0.631262C34.418 0.731462 33.8417 1.00601 33.1996 1.25651C32.5675 1.54309 31.8317 1.73347 31.1497 2.19238C30.4638 2.62926 29.6721 2.99399 28.9742 3.57916C28.2982 4.18236 27.4827 4.70541 26.8804 5.47094C26.2224 6.18838 25.5723 6.94188 25.0678 7.7996C24.4836 8.61723 24.0868 9.51503 23.668 10.4028C23.2891 11.2906 22.984 12.1984 22.7348 13.0802C22.2622 14.8477 22.0508 16.5271 21.9691 17.9639C21.9013 19.4028 21.9411 20.5992 22.0249 21.4649C22.0548 21.8737 22.1106 22.2705 22.1505 22.5451L22.2004 22.8818L22.2522 22.8697C22.6069 24.5347 23.4233 26.0648 24.6071 27.2829C25.7909 28.5011 27.2937 29.3575 28.9416 29.7532C30.5895 30.1488 32.3152 30.0675 33.919 29.5187C35.5228 28.9699 36.9393 27.9759 38.0045 26.6519C39.0698 25.3278 39.7403 23.7277 39.9384 22.0367C40.1366 20.3456 39.8543 18.6328 39.1243 17.0962C38.3942 15.5597 37.2463 14.2623 35.8132 13.354C34.3801 12.4458 32.7204 11.9638 31.0261 11.9639Z" fill="#DAEDED"/>
</svg>
