<svg width="64" height="64" viewBox="0 0 64 64" fill="none" xmlns="http://www.w3.org/2000/svg">
<g clip-path="url(#clip0)">
<g clip-path="url(#clip1)">
<rect width="64" height="64" transform="translate(0 2)" fill="white"/>
<path d="M32 60.3018C35.7 60.3018 38.9 56.3018 41 50.0018C47.4 51.3018 52.5 50.5018 54.3 47.3018C56.1 44.1018 54.3 39.2018 50 34.3018C54.3 29.4018 56.2 24.5018 54.3 21.3018C52.5 18.1018 47.4 17.3017 41 18.6017C38.9 12.3017 35.7 8.30176 32 8.30176C28.3 8.30176 25.1 12.3017 23 18.6017C16.6 17.3017 11.5 18.1018 9.70003 21.3018C7.90003 24.5018 9.70003 29.4018 14 34.3018C9.70003 39.2018 7.80003 44.1018 9.70003 47.3018C11.5 50.5018 16.6 51.3018 23 50.0018C25.1 56.3018 28.3 60.3018 32 60.3018Z" fill="#6EF4FF"/>
<path fill-rule="evenodd" clip-rule="evenodd" d="M4.15858 29.6603C2.71315 31.1706 2 32.7373 2 34.3016C2 35.8658 2.71315 37.4325 4.15858 38.9428C5.60882 40.4581 7.75499 41.8683 10.4839 43.0743C15.9391 45.4851 23.5453 47.0016 32 47.0016C40.4547 47.0016 48.0609 45.4851 53.5161 43.0743C56.245 41.8683 58.3912 40.4581 59.8414 38.9428C61.2868 37.4325 62 35.8658 62 34.3016C62 32.7373 61.2868 31.1706 59.8414 29.6603C58.3912 28.1451 56.245 26.7349 53.5161 25.5289C48.0609 23.118 40.4547 21.6016 32 21.6016C23.5453 21.6016 15.9391 23.118 10.4839 25.5289C7.75499 26.7349 5.60882 28.1451 4.15858 29.6603ZM9.67547 23.6995C15.4401 21.1519 23.3338 19.6016 32 19.6016C40.6662 19.6016 48.5599 21.1519 54.3245 23.6995C57.2055 24.9728 59.5992 26.5147 61.2863 28.2775C62.9783 30.0453 64 32.0827 64 34.3016C64 36.5205 62.9783 38.5578 61.2863 40.3257C59.5992 42.0885 57.2055 43.6304 54.3245 44.9036C48.5599 47.4512 40.6662 49.0016 32 49.0016C23.3338 49.0016 15.4401 47.4512 9.67547 44.9036C6.79449 43.6304 4.40082 42.0885 2.71369 40.3257C1.02175 38.5578 0 36.5205 0 34.3016C0 32.0827 1.02175 30.0453 2.71369 28.2775C4.40082 26.5147 6.79449 24.9728 9.67547 23.6995Z" fill="black"/>
<path fill-rule="evenodd" clip-rule="evenodd" d="M14.132 56.4805C14.7149 58.491 15.7104 59.8803 17.0533 60.6433C18.3962 61.4063 20.0993 61.5502 22.1248 61.0216C24.1565 60.4913 26.4455 59.2982 28.8491 57.4927C33.6537 53.8837 38.7587 47.9469 42.9772 40.5218C47.1957 33.0968 49.6819 25.6722 50.3222 19.6973C50.6426 16.7082 50.4957 14.1312 49.911 12.1144C49.3281 10.1039 48.3326 8.71459 46.9897 7.95161C45.6468 7.18864 43.9437 7.04477 41.9182 7.57335C39.8865 8.10358 37.5975 9.29675 35.1939 11.1023C30.3893 14.7112 25.2843 20.648 21.0658 28.0731C16.8473 35.4982 14.3611 42.9228 13.7207 48.8976C13.4004 51.8867 13.5473 54.4638 14.132 56.4805ZM11.7321 48.6844C12.408 42.3776 15.0058 34.6906 19.3268 27.0851C23.6478 19.4795 28.9211 13.3126 33.9926 9.5031C36.527 7.59939 39.0506 6.25467 41.4132 5.6381C43.782 5.0199 46.0552 5.12035 47.9777 6.21261C49.9002 7.30487 51.1502 9.20609 51.832 11.5575C52.5119 13.9026 52.6487 16.7588 52.3109 19.9105C51.635 26.2173 49.0372 33.9043 44.7162 41.5098C40.3951 49.1154 35.1219 55.2823 30.0503 59.0918C27.516 60.9955 24.9924 62.3403 22.6298 62.9568C20.2609 63.575 17.9878 63.4746 16.0653 62.3823C14.1428 61.2901 12.8927 59.3888 12.211 57.0375C11.5311 54.6923 11.3943 51.8361 11.7321 48.6844Z" fill="black"/>
<path fill-rule="evenodd" clip-rule="evenodd" d="M13.6978 19.7235C14.3382 25.6983 16.8243 33.1229 21.0428 40.548C25.2614 47.9731 30.3663 53.9099 35.1709 57.5188C37.5746 59.3243 39.8635 60.5175 41.8953 61.0477C43.9207 61.5763 45.6238 61.4324 46.9667 60.6694C48.3097 59.9065 49.3052 58.5172 49.8881 56.5067C50.4728 54.4899 50.6197 51.9128 50.2993 48.9237C49.6589 42.9489 47.1728 35.5243 42.9542 28.0992C38.7357 20.6741 33.6308 14.7374 28.8262 11.1284C26.4225 9.3229 24.1336 8.12973 22.1018 7.59951C20.0764 7.07092 18.3733 7.2148 17.0304 7.97777C15.6874 8.74075 14.6919 10.13 14.109 12.1406C13.5243 14.1573 13.3774 16.7344 13.6978 19.7235ZM12.1881 11.5836C12.8698 9.23224 14.1198 7.33103 16.0424 6.23877C17.9649 5.14651 20.238 5.04606 22.6069 5.66426C24.9695 6.28082 27.493 7.62554 30.0274 9.52925C35.0989 13.3387 40.3722 19.5057 44.6932 27.1112C49.0143 34.7167 51.612 42.4038 52.288 48.7106C52.6258 51.8622 52.489 54.7185 51.809 57.0636C51.1273 59.415 49.8773 61.3162 47.9547 62.4084C46.0322 63.5007 43.7591 63.6012 41.3902 62.983C39.0276 62.3664 36.5041 61.0217 33.9697 59.118C28.8982 55.3085 23.6249 49.1415 19.3038 41.536C14.9828 33.9305 12.3851 26.2434 11.7091 19.9367C11.3713 16.785 11.5081 13.9288 12.1881 11.5836Z" fill="black"/>
<path d="M32 40.2014C35.2032 40.2014 37.7999 37.5599 37.7999 34.3014C37.7999 31.0429 35.2032 28.4014 32 28.4014C28.7967 28.4014 26.2 31.0429 26.2 34.3014C26.2 37.5599 28.7967 40.2014 32 40.2014Z" fill="black"/>
</g>
</g>
<defs>
<clipPath id="clip0">
<rect width="64" height="64" fill="white"/>
</clipPath>
<clipPath id="clip1">
<rect width="64" height="64" fill="white" transform="translate(0 2)"/>
</clipPath>
</defs>
</svg>
