<svg width="64" height="64" viewBox="0 0 64 64" fill="none" xmlns="http://www.w3.org/2000/svg">
<g clip-path="url(#clip0)">
<path d="M41.5002 26.5004L44.0002 27.9004C43.4002 29.7004 42.4002 31.4004 41.2002 32.8004L38.7002 31.4004C37.1002 33.1004 35.1002 34.3004 32.7002 34.9004V37.8004C31.8002 38.0004 30.9002 38.1003 29.9002 38.1003C28.9002 38.1003 28.0002 38.0004 27.1002 37.8004V34.9004C24.8002 34.3004 22.7002 33.1004 21.1002 31.4004L18.6002 32.8004C17.4002 31.4004 16.4002 29.7004 15.8002 27.9004L18.3002 26.5004C18.0002 25.4004 17.8002 24.2004 17.8002 23.0004C17.8002 21.8004 18.0002 20.6004 18.3002 19.5004L15.8002 18.1003C16.4002 16.3003 17.4002 14.6004 18.6002 13.2004L21.1002 14.6003C22.7002 12.9003 24.7002 11.7003 27.1002 11.1003V8.20038C28.0002 8.00038 28.9002 7.90039 29.9002 7.90039C30.9002 7.90039 31.8002 8.00038 32.7002 8.20038V11.1003C35.0002 11.7003 37.1002 12.9003 38.7002 14.6003L41.2002 13.2004C42.4002 14.6004 43.4002 16.3003 44.0002 18.1003L41.5002 19.5004C41.8002 20.6004 42.0002 21.8004 42.0002 23.0004C42.0002 24.2004 41.9002 25.4004 41.5002 26.5004Z" fill="#FECD6D"/>
<path fill-rule="evenodd" clip-rule="evenodd" d="M18.2001 24.166V27.1C18.2001 27.556 17.8916 27.9543 17.45 28.0683C14.5079 28.8275 11.7882 30.339 9.83862 32.4743C9.52232 32.8207 9.00772 32.9007 8.60118 32.6666L6.01998 31.1805C4.83762 32.6245 3.89197 34.2296 3.22452 35.9511L5.79909 37.4334C6.21114 37.6706 6.39917 38.1652 6.24882 38.6162C5.79044 39.9914 5.60013 41.4803 5.60013 43C5.60013 44.5777 5.87737 45.9836 6.26637 47.4424C6.38299 47.8797 6.19133 48.3408 5.79909 48.5666L3.24921 50.0347C3.9757 51.7593 4.92076 53.3647 6.04079 54.8075L8.60118 53.3334C9.00772 53.0993 9.52232 53.1793 9.83862 53.5257C11.8067 55.6812 14.4264 57.2696 17.4138 57.9231C17.8729 58.0235 18.2001 58.4301 18.2001 58.9V61.8889C19.0838 62.0417 20.0288 62.1 21.0001 62.1C21.9294 62.1 22.8694 61.9898 23.8001 61.8479V58.9C23.8001 58.444 24.1087 58.0457 24.5503 57.9317C27.4924 57.1725 30.212 55.661 32.1616 53.5257C32.478 53.1793 32.9925 53.0993 33.3991 53.3334L35.9803 54.8195C37.1626 53.3755 38.1083 51.7704 38.7757 50.0489L36.2012 48.5666C35.8089 48.3408 35.6173 47.8797 35.7339 47.4424C36.1082 46.0386 36.3018 44.521 36.4001 42.9692C36.3965 41.404 36.1204 40.0069 35.7339 38.5577C35.6173 38.1203 35.8089 37.6592 36.2012 37.4334L38.7511 35.9653C38.0246 34.2407 37.0795 32.6353 35.9595 31.1925L33.3991 32.6666C32.9925 32.9007 32.478 32.8207 32.1616 32.4743C30.1936 30.3188 27.5738 28.7304 24.5864 28.0769C24.1274 27.9765 23.8001 27.5699 23.8001 27.1V24.166C22.8992 24.0557 21.9515 24 21.0001 24C20.0488 24 19.101 24.0557 18.2001 24.166ZM17.0357 22.3136C18.2956 22.1036 19.651 22 21.0001 22C22.3493 22 23.7047 22.1036 24.9645 22.3136C25.4467 22.394 25.8001 22.8111 25.8001 23.3V26.3158C28.6126 27.0806 31.1019 28.5753 33.0799 30.5426L35.7012 29.0334C36.1208 28.7918 36.6532 28.8855 36.965 29.2559C38.6377 31.2422 39.996 33.5411 40.9365 36.0489C41.1083 36.5072 40.9232 37.0225 40.4991 37.2667L37.8562 38.7883C38.1725 40.1005 38.4001 41.4698 38.4001 43C38.4001 43.0208 38.3995 43.0416 38.3982 43.0624C38.3119 44.4436 38.1515 45.8492 37.8493 47.2078L40.4991 48.7333C40.9111 48.9706 41.0992 49.4651 40.9488 49.9162C40.1038 52.4513 38.7324 54.7695 36.9454 56.7668C36.6301 57.1192 36.111 57.2026 35.7012 56.9666L33.0776 55.4561C31.0732 57.4258 28.5174 58.841 25.8001 59.6587V62.7C25.8001 63.1889 25.4467 63.606 24.9645 63.6864C23.7652 63.8863 22.3918 64.1 21.0001 64.1C19.655 64.1 18.266 63.9972 16.9576 63.6702C16.5124 63.5589 16.2001 63.1589 16.2001 62.7V59.6841C13.3876 58.9194 10.8983 57.4247 8.92038 55.4574L6.29909 56.9666C5.87949 57.2082 5.3471 57.1145 5.03522 56.7441C3.36257 54.7578 2.00425 52.4589 1.0638 49.9511C0.891959 49.4928 1.07704 48.9775 1.50118 48.7333L4.14403 47.2117C3.82772 45.8995 3.60013 44.5302 3.60013 43C3.60013 41.5893 3.74794 40.1569 4.11587 38.7721L1.50118 37.2667C1.08913 37.0294 0.901096 36.5349 1.05145 36.0838C1.89649 33.5487 3.26789 31.2305 5.05489 29.2332C5.37021 28.8808 5.88928 28.7974 6.29909 29.0334L8.92265 30.5439C10.9271 28.5742 13.4828 27.159 16.2001 26.3413V23.3C16.2001 22.8111 16.5535 22.394 17.0357 22.3136Z" fill="black"/>
<path fill-rule="evenodd" clip-rule="evenodd" d="M45.0001 2.1428V4.40002C45.0001 4.86241 44.6831 5.2645 44.2335 5.37241C41.9248 5.9265 39.8956 7.12586 38.3271 8.7866C38.0091 9.1233 37.5016 9.1976 37.1004 8.96616L35.2377 7.89154C34.4391 8.93608 33.774 10.115 33.2468 11.3647L35.0999 12.4338C35.4866 12.6569 35.6786 13.1094 35.5703 13.5425C35.2833 14.6905 35.1001 15.8058 35.1001 17C35.1001 18.2516 35.1975 19.3297 35.5488 20.3838C35.6991 20.8345 35.5114 21.3288 35.0999 21.5662L33.2468 22.6353C33.774 23.885 34.4391 25.0639 35.2377 26.1085L37.1004 25.0338C37.5016 24.8024 38.0091 24.8767 38.3271 25.2134C39.8956 26.8741 41.9248 28.0735 44.2335 28.6276C44.6831 28.7355 45.0001 29.1376 45.0001 29.6V31.8572C45.6678 31.9525 46.3343 32 47.0001 32C47.6659 32 48.3325 31.9525 49.0001 31.8572V29.6C49.0001 29.1376 49.3171 28.7355 49.7668 28.6276C52.0754 28.0735 54.1046 26.8741 55.6731 25.2134C55.9911 24.8767 56.4987 24.8024 56.8999 25.0338L58.7625 26.1085C59.5611 25.0639 60.2263 23.885 60.7535 22.6353L58.9004 21.5662C58.5137 21.3431 58.3217 20.8906 58.43 20.4575C58.717 19.3095 58.9001 18.1942 58.9001 17C58.9001 15.7484 58.8028 14.6703 58.4514 13.6162C58.3012 13.1655 58.4889 12.6712 58.9004 12.4338L60.7535 11.3647C60.2263 10.115 59.5611 8.93608 58.7625 7.89154L56.8999 8.96616C56.4987 9.1976 55.9911 9.1233 55.6731 8.7866C54.1046 7.12586 52.0754 5.9265 49.7668 5.37241C49.3171 5.2645 49.0001 4.86241 49.0001 4.40002V2.1428C48.3325 2.04749 47.6659 2 47.0001 2C46.3343 2 45.6678 2.04749 45.0001 2.1428ZM43.804 0.319407C44.8673 0.106747 45.933 0 47.0001 0C48.0673 0 49.1329 0.106747 50.1962 0.319407C50.6637 0.412892 51.0001 0.823307 51.0001 1.29999V3.63451C53.1139 4.26913 55.0067 5.37862 56.5646 6.85063L58.5004 5.73379C58.9154 5.49434 59.442 5.58295 59.7558 5.94504C61.1471 7.55042 62.2038 9.46006 62.9385 11.4543C63.1068 11.9112 62.9216 12.4229 62.4999 12.6662L60.5755 13.7764C60.8339 14.8513 60.9001 15.9171 60.9001 17C60.9001 18.1311 60.7597 19.1838 60.5418 20.2042L62.4999 21.3338C62.9216 21.5771 63.1068 22.0888 62.9385 22.5457C62.2038 24.5399 61.1471 26.4496 59.7558 28.055C59.442 28.417 58.9154 28.5057 58.5004 28.2662L56.5646 27.1494C55.0067 28.6214 53.1139 29.7309 51.0001 30.3655V32.7C51.0001 33.1767 50.6637 33.5871 50.1962 33.6806C49.1329 33.8933 48.0673 34 47.0001 34C45.933 34 44.8673 33.8933 43.804 33.6806C43.3366 33.5871 43.0001 33.1767 43.0001 32.7V30.3655C40.8864 29.7309 38.9936 28.6214 37.4357 27.1494L35.4999 28.2662C35.0848 28.5057 34.5583 28.417 34.2444 28.055C32.8531 26.4496 31.7965 24.5399 31.0618 22.5457C30.8935 22.0888 31.0787 21.5771 31.5004 21.3338L33.4248 20.2236C33.1663 19.1487 33.1001 18.0829 33.1001 17C33.1001 15.8689 33.2405 14.8162 33.4584 13.7958L31.5004 12.6662C31.0787 12.4229 30.8935 11.9112 31.0618 11.4543C31.7965 9.46006 32.8531 7.55042 34.2444 5.94504C34.5583 5.58295 35.0848 5.49434 35.4999 5.73379L37.4357 6.85063C38.9936 5.37862 40.8864 4.26913 43.0001 3.63451V1.29999C43.0001 0.823307 43.3366 0.412892 43.804 0.319407Z" fill="black"/>
<path fill-rule="evenodd" clip-rule="evenodd" d="M17.7072 39.2929C18.0978 39.6834 18.0978 40.3166 17.7072 40.7071L14.4143 44L17.7072 47.2929C18.0978 47.6834 18.0978 48.3166 17.7072 48.7071C17.3167 49.0976 16.6835 49.0976 16.293 48.7071L12.293 44.7071C11.9025 44.3166 11.9025 43.6834 12.293 43.2929L16.293 39.2929C16.6835 38.9024 17.3167 38.9024 17.7072 39.2929Z" fill="black"/>
<path fill-rule="evenodd" clip-rule="evenodd" d="M28.293 39.2929C28.6835 38.9024 29.3167 38.9024 29.7072 39.2929L33.7072 43.2929C34.0978 43.6834 34.0978 44.3166 33.7072 44.7071L29.7072 48.7071C29.3167 49.0976 28.6835 49.0976 28.293 48.7071C27.9025 48.3166 27.9025 47.6834 28.293 47.2929L31.5859 44L28.293 40.7071C27.9025 40.3166 27.9025 39.6834 28.293 39.2929Z" fill="black"/>
<path fill-rule="evenodd" clip-rule="evenodd" d="M25.2427 35.0301C25.7784 35.164 26.1042 35.707 25.9703 36.2428L21.9703 52.2428C21.8363 52.7786 21.2934 53.1043 20.7576 52.9704C20.2218 52.8364 19.896 52.2935 20.03 51.7577L24.03 35.7577C24.1639 35.2219 24.7069 34.8961 25.2427 35.0301Z" fill="black"/>
<path fill-rule="evenodd" clip-rule="evenodd" d="M47.0001 12C44.2387 12 42.0001 14.2386 42.0001 17C42.0001 19.7614 44.2387 22 47.0001 22C49.7615 22 52.0001 19.7614 52.0001 17C52.0001 14.2386 49.7615 12 47.0001 12ZM40.0001 17C40.0001 13.134 43.1341 10 47.0001 10C50.8661 10 54.0001 13.134 54.0001 17C54.0001 20.866 50.8661 24 47.0001 24C43.1341 24 40.0001 20.866 40.0001 17Z" fill="black"/>
</g>
<defs>
<clipPath id="clip0">
<rect width="64" height="64" fill="white"/>
</clipPath>
</defs>
</svg>
