<svg width="20" height="18" viewBox="0 0 20 18" fill="none" xmlns="http://www.w3.org/2000/svg">
<path fill-rule="evenodd" clip-rule="evenodd" d="M0.984463 10.0784C-0.36568 9.3557 -0.320858 8.27044 1.08056 7.65616L18.0541 0.21632C19.4573 -0.398741 20.2883 0.341767 19.9077 1.88005L16.3216 16.3757C15.9421 17.9096 14.5983 18.4535 13.3179 17.589L11.3419 16.2548C10.2235 15.4997 8.65551 15.7767 7.83929 16.874L8.03329 16.6132C7.21724 17.7103 6.20523 17.5343 5.77591 16.2294L5.23717 14.5918C4.74385 13.0923 3.25223 11.2923 1.89929 10.5681L0.984463 10.0784ZM7.61882 14.1451L7.44689 14.6814C7.80746 13.5567 8.7306 11.9482 9.50961 11.0861L14.9314 5.08589C15.974 3.93211 15.8094 3.74176 14.5654 4.65903L6.25429 10.7871C5.94041 11.0186 5.76667 11.5151 5.86493 11.897L6.43136 14.0988C6.72593 15.2439 7.25862 15.2686 7.61882 14.1451Z" fill="#1F1F1F"/>
</svg>
