<svg width="24" height="24" viewBox="0 0 24 24" fill="none" xmlns="http://www.w3.org/2000/svg">
<path d="M23.9142 17.4679C23.7474 17.014 23.4298 16.7711 23.068 16.57C22.9999 16.5301 22.9374 16.4982 22.884 16.4737C22.7761 16.4178 22.6657 16.3639 22.556 16.3068C21.4283 15.7088 20.5478 14.9543 19.937 14.06C19.7636 13.8083 19.6132 13.5414 19.4876 13.2626C19.4354 13.1136 19.4379 13.0289 19.4753 12.9517C19.5124 12.8921 19.5615 12.8409 19.6194 12.8014C19.8132 12.6732 20.0131 12.5431 20.1486 12.4554C20.3902 12.299 20.5815 12.1751 20.7048 12.0874C21.1677 11.7636 21.4915 11.4194 21.6938 11.0349C21.835 10.7692 21.9173 10.4761 21.9352 10.1758C21.9531 9.8754 21.9061 9.57469 21.7975 9.2941C21.4909 8.4869 20.7287 7.98577 19.8052 7.98577C19.6104 7.98559 19.4162 8.00615 19.2257 8.04711C19.1748 8.05815 19.1239 8.0698 19.0743 8.08268C19.0829 7.53065 19.0706 6.94794 19.0215 6.37443C18.8474 4.35827 18.1416 3.30143 17.4058 2.45865C16.9346 1.93053 16.3796 1.48372 15.763 1.13621C14.6464 0.498301 13.3802 0.174438 11.9999 0.174438C10.6196 0.174438 9.35948 0.498301 8.24163 1.13621C7.6236 1.48383 7.06746 1.93153 6.59582 2.4611C5.85999 3.30388 5.15421 4.36257 4.98006 6.37689C4.931 6.9504 4.91874 7.53617 4.92671 8.08514C4.87704 8.07226 4.82676 8.0606 4.77587 8.04956C4.58543 8.0086 4.39118 7.98804 4.1964 7.98823C3.27232 7.98823 2.50889 8.48935 2.20353 9.29656C2.09437 9.57726 2.04691 9.87819 2.06437 10.1789C2.08183 10.4796 2.1638 10.773 2.3047 11.0392C2.50767 11.4237 2.83143 11.7678 3.29439 12.0917C3.41703 12.1776 3.60896 12.3015 3.85056 12.4597C3.98117 12.5444 4.17187 12.6683 4.3589 12.7922C4.42433 12.8345 4.47995 12.8903 4.522 12.956C4.56125 13.0363 4.56248 13.1228 4.50422 13.2823C4.38032 13.5552 4.23236 13.8165 4.06211 14.0631C3.46486 14.9372 2.61007 15.6781 1.51859 16.2712C0.94035 16.5779 0.339422 16.7828 0.0855607 17.4728C-0.105755 17.9936 0.0193358 18.5861 0.505597 19.0854C0.684059 19.2718 0.891048 19.4285 1.11879 19.5497C1.59266 19.8102 2.09654 20.0119 2.61927 20.1502C2.72714 20.1781 2.82955 20.2239 2.92219 20.2858C3.0994 20.441 3.07426 20.6747 3.31034 21.0169C3.42884 21.1938 3.57942 21.3469 3.75429 21.4684C4.24975 21.8106 4.80653 21.8321 5.39642 21.8548C5.92928 21.875 6.53327 21.8983 7.22311 22.1259C7.50886 22.2204 7.80565 22.4032 8.14965 22.6166C8.97562 23.1245 10.1063 23.8194 11.9987 23.8194C13.891 23.8194 15.0297 23.1208 15.8618 22.6111C16.2033 22.4013 16.4983 22.2204 16.776 22.1284C17.4659 21.9002 18.0699 21.8775 18.6027 21.8573C19.1926 21.8346 19.7494 21.8131 20.2449 21.4708C20.452 21.3264 20.6245 21.1379 20.7501 20.9188C20.92 20.6299 20.9157 20.4281 21.0751 20.287C21.162 20.2281 21.2582 20.1841 21.3596 20.157C21.8895 20.0182 22.4003 19.8147 22.8804 19.551C23.1223 19.4211 23.3401 19.2506 23.5242 19.0468L23.5303 19.0394C23.9866 18.5512 24.1012 17.9758 23.9142 17.4679ZM22.2322 18.3721C21.2063 18.9388 20.5245 18.8781 19.9941 19.2197C19.5434 19.5099 19.8101 20.1355 19.4827 20.3612C19.0804 20.6391 17.8914 20.3416 16.3554 20.8489C15.0885 21.2678 14.2803 22.4725 12.0017 22.4725C9.7231 22.4725 8.93392 21.2703 7.64622 20.8458C6.11324 20.3385 4.92181 20.636 4.51894 20.3582C4.19211 20.1324 4.45762 19.5068 4.00754 19.2167C3.47651 18.875 2.79464 18.9357 1.76939 18.3721C1.11634 18.0114 1.4867 17.7881 1.70439 17.6826C5.42033 15.883 6.01329 13.1044 6.03965 12.8983C6.07154 12.6487 6.10711 12.4524 5.8324 12.1984C5.56688 11.9531 4.38894 11.2238 4.06211 10.9956C3.52128 10.6178 3.28336 10.2405 3.45873 9.77683C3.58137 9.45603 3.88061 9.3352 4.19456 9.3352C4.29379 9.3355 4.39268 9.34661 4.4895 9.36832C5.08307 9.49713 5.65948 9.79462 5.99244 9.87497C6.03253 9.88526 6.07369 9.89082 6.11508 9.89153C6.2929 9.89153 6.35545 9.80198 6.34318 9.59834C6.30517 8.94877 6.21319 7.68277 6.31559 6.49956C6.45601 4.87167 6.98029 4.06508 7.60329 3.35172C7.90253 3.00885 9.30858 1.52264 11.9974 1.52264C14.6863 1.52264 16.096 3.00271 16.3952 3.34436C17.0189 4.05772 17.5437 4.86431 17.6829 6.4922C17.7853 7.6754 17.697 8.94202 17.6553 9.59097C17.6412 9.80504 17.7056 9.88417 17.8835 9.88417C17.9248 9.8835 17.966 9.87794 18.0061 9.86761C18.3397 9.78726 18.9161 9.48977 19.5096 9.36096C19.6065 9.33925 19.7054 9.32814 19.8046 9.32784C20.1204 9.32784 20.4178 9.45051 20.5404 9.76947C20.7158 10.2332 20.4791 10.6104 19.9377 10.9882C19.6108 11.2164 18.4329 11.9451 18.1674 12.1911C17.892 12.445 17.9282 12.6413 17.9601 12.8909C17.9865 13.1001 18.5788 15.8787 22.2954 17.6753C22.5149 17.7851 22.8853 18.0083 22.2322 18.3721Z" fill="black"/>
</svg>
