<svg width="64" height="64" viewBox="0 0 64 64" fill="none" xmlns="http://www.w3.org/2000/svg">
<path d="M51 39C54.3137 39 57 36.3137 57 33C57 29.6863 54.3137 27 51 27C47.6863 27 45 29.6863 45 33C45 36.3137 47.6863 39 51 39Z" fill="#59FFE4"/>
<path d="M13 39C16.3137 39 19 36.3137 19 33C19 29.6863 16.3137 27 13 27C9.68629 27 7 29.6863 7 33C7 36.3137 9.68629 39 13 39Z" fill="#59FFE4"/>
<path d="M32 2C48.5 2 62 15.5 62 32C62 48.5 48.5 62 32 62C15.5 62 2 48.5 2 32C2 15.5 15.5 2 32 2ZM32 0C14.3 0 0 14.3 0 32C0 49.7 14.3 64 32 64C49.7 64 64 49.7 64 32C64 14.3 49.7 0 32 0Z" fill="black"/>
<path fill-rule="evenodd" clip-rule="evenodd" d="M13 34C13 33.4477 13.4477 33 14 33H50C50.5523 33 51 33.4477 51 34C51 44.4523 42.4523 53 32 53C21.5477 53 13 44.4523 13 34ZM15.0293 35C15.5517 43.8873 22.9879 51 32 51C41.0121 51 48.4483 43.8873 48.9707 35H15.0293Z" fill="black"/>
<path fill-rule="evenodd" clip-rule="evenodd" d="M42 19C39.2523 19 37 21.2523 37 24C37 24.5523 36.5523 25 36 25C35.4477 25 35 24.5523 35 24C35 20.1477 38.1477 17 42 17C45.8523 17 49 20.1477 49 24C49 24.5523 48.5523 25 48 25C47.4477 25 47 24.5523 47 24C47 21.2523 44.7477 19 42 19Z" fill="black"/>
<path fill-rule="evenodd" clip-rule="evenodd" d="M22 19C19.2523 19 17 21.2523 17 24C17 24.5523 16.5523 25 16 25C15.4477 25 15 24.5523 15 24C15 20.1477 18.1477 17 22 17C25.8523 17 29 20.1477 29 24C29 24.5523 28.5523 25 28 25C27.4477 25 27 24.5523 27 24C27 21.2523 24.7477 19 22 19Z" fill="black"/>
</svg>
