<svg width="108" height="42" viewBox="0 0 108 42" fill="none" xmlns="http://www.w3.org/2000/svg">
<path d="M25.9666 0.502883C25.519 0.78802 25.3156 1.07316 25.0714 1.52123C25.0714 1.6027 25.1121 1.7249 25.0714 1.76564C24.99 1.92858 24.9087 1.80637 24.8273 1.88784C24.7052 2.09151 24.6645 2.25445 24.5831 2.37665C24.3797 2.70252 24.2576 2.98766 24.0542 3.2728C24.0135 3.31354 24.1355 3.47647 24.0542 3.51721C24.0542 3.55794 23.8507 3.59867 23.81 3.63941C23.81 3.68014 23.7286 4.00602 23.7286 4.04675C23.7286 4.16895 23.6066 4.08748 23.5659 4.12822C23.4845 4.29115 23.5252 4.49482 23.4438 4.65776C23.4438 4.65776 23.3624 4.69849 23.3217 4.73923C23.2404 4.9429 23.0776 5.14657 23.0776 5.30951C23.0776 5.43171 22.9962 5.35024 22.9555 5.39097C22.8742 5.59465 22.9148 5.83905 22.8335 6.00199C22.8335 6.04272 22.5893 6.12419 22.5893 6.12419C22.5486 6.20566 22.5893 6.36859 22.5893 6.40933C22.5486 6.40933 22.4673 6.36859 22.4673 6.40933C22.4266 6.40933 22.4673 6.57226 22.4673 6.65373C22.4673 6.69447 22.3452 6.65373 22.3452 6.65373C22.3045 6.69447 22.2231 6.9796 22.1824 7.02034C22.1417 7.14254 22.101 7.22401 22.0604 7.38695C22.0604 7.46841 21.979 7.50915 21.979 7.50915C21.9383 7.63135 22.101 7.71282 22.0604 7.75355C22.0197 7.83502 21.7348 7.91649 21.6941 8.03869C21.5721 8.20163 21.6535 8.48677 21.5721 8.6497C21.5721 8.6497 21.4907 8.73117 21.45 8.77191C21.3686 8.93484 21.3686 8.93484 21.2059 9.01631C21.1652 9.05704 21.0838 9.50512 21.0838 9.54585C20.7583 10.1569 20.5141 10.8493 20.1886 11.5011C20.1479 11.7048 20.1886 11.827 20.1072 11.9899C20.0665 12.0714 19.8631 12.0714 19.8224 12.1528C19.741 12.3565 19.8631 12.3972 19.7003 12.5194C19.6596 12.5194 19.741 12.7231 19.7003 12.7638C19.7003 12.8046 19.619 12.7638 19.5783 12.7638C19.5783 12.8046 19.619 12.9675 19.5783 13.0083H19.4562C19.4155 13.0083 19.4562 13.3341 19.4562 13.3749C19.4562 13.5378 19.3341 13.4563 19.3341 13.5378C19.09 14.1895 18.9272 14.9635 18.4389 15.5338C18.1948 15.5338 17.8693 15.5338 17.5845 15.5338C17.4217 15.656 17.0148 15.6967 16.9741 15.7374C16.8113 15.9411 16.201 15.9411 15.9569 16.0226C15.672 16.0633 15.55 16.104 15.3058 16.1448C15.2651 16.1448 15.2244 16.2262 15.2244 16.3077C15.021 16.3484 14.7362 16.3484 14.492 16.3892C14.4106 16.4299 14.2886 16.5929 14.2072 16.6336C13.963 16.7558 13.841 16.5929 13.7189 16.7965C13.7189 16.7965 13.4748 16.7558 13.4341 16.7965C13.1492 16.878 13.1492 16.9595 12.9458 17.0002C12.9051 17.0409 12.783 17.0002 12.7423 17.0002C12.0506 17.1631 11.481 17.4075 10.9927 17.7741C10.6672 17.7741 10.423 17.7741 10.0975 17.7741C9.81266 18.0593 9.28369 18.1407 8.8361 18.263C8.63265 18.2222 8.55127 18.4259 8.46989 18.263C8.63265 18.0593 8.46989 17.7741 8.59196 17.489C8.63265 17.489 8.71403 17.5297 8.71403 17.489C8.75472 17.489 8.67334 17.3261 8.71403 17.2853C8.75472 17.2446 8.91749 17.3261 8.99886 17.2853C9.03955 17.2446 8.91749 17.0409 8.99886 17.0002C9.12093 16.7558 9.32438 16.3892 9.32438 16.3077C9.36508 16.104 9.44646 16.0226 9.48715 15.9004C9.52783 15.7374 9.52783 15.6967 9.60921 15.656C9.6499 15.6152 9.56852 15.4523 9.60921 15.4116C9.6499 15.2894 9.81266 15.2079 9.81266 15.1264C9.89404 15.045 9.81266 14.8413 9.81266 14.7598C9.89404 14.7191 10.0568 14.5969 10.0975 14.5154C10.1789 14.3117 10.2196 14.1081 10.3823 13.8637C10.3823 13.8229 10.5451 13.7415 10.5858 13.66C10.6672 13.5378 10.6672 13.3749 10.7078 13.2527C10.7078 13.2527 10.8299 13.2934 10.8706 13.2527C10.9113 13.2527 10.8299 13.0897 10.8706 13.0083C10.9113 12.8453 10.9927 12.7638 11.0741 12.6416C11.1147 12.6416 11.1961 12.275 11.1961 12.275C11.2775 12.1528 11.2775 12.0714 11.3589 11.9899C11.3996 11.9899 11.3182 11.827 11.3589 11.7862C11.3996 11.7048 11.5623 11.5826 11.603 11.5011C11.7251 11.2974 11.7658 11.0123 11.8472 10.8086C11.8879 10.7271 12.0506 10.6864 12.0913 10.6457C12.132 10.5642 12.2134 10.3605 12.2541 10.2383C12.3761 9.99393 12.4575 9.62732 12.5796 9.54585C12.5796 9.50512 12.7423 9.13851 12.7423 9.13851C12.783 9.01631 12.8237 8.85337 12.8644 8.77191C12.9458 8.4053 12.9051 8.4053 12.9458 8.16089C12.5796 7.87575 12.2541 7.63135 11.603 7.67208C11.481 7.26474 11.0741 7.18327 10.7078 7.02034C10.5451 7.22401 10.3823 7.30548 10.2196 7.38695C10.1789 7.42768 10.2603 7.63135 10.2196 7.67208C10.0161 7.87575 9.77197 8.03869 9.60921 8.2831C9.52783 8.36456 9.56852 8.5275 9.48715 8.6497C9.36508 8.73117 9.16162 8.7719 9.12093 8.93484C8.99886 9.05704 9.08025 9.21998 8.99886 9.42365C8.99886 9.42365 8.87679 9.50512 8.8361 9.54585C8.79541 9.62732 8.75472 9.66806 8.71403 9.74952C8.67334 9.87173 8.55127 9.95319 8.46989 10.0347C8.4292 10.0754 8.46989 10.1976 8.46989 10.2383C8.4292 10.3198 8.26644 10.3605 8.22575 10.4013C8.18506 10.442 8.26644 10.5642 8.22575 10.6457C8.22575 10.6864 7.98161 10.7271 7.98161 10.8086C7.94092 10.8086 7.85954 10.9715 7.85954 11.0123C7.85954 11.1345 7.77816 11.053 7.73747 11.1345C7.41195 11.6233 7.16781 12.2343 6.96436 12.7638C6.59815 13.0083 6.27263 13.6193 6.23194 14.0266C6.23194 14.2303 5.94711 14.3117 5.86573 14.3932C5.82504 14.3932 5.90642 14.5969 5.86573 14.6376C5.78435 14.7598 5.70297 14.8006 5.5809 14.9228C5.54021 14.9635 5.62159 15.0857 5.5809 15.1264C5.54021 15.2079 5.37745 15.2079 5.37745 15.4116C5.37745 15.6152 5.09262 15.6967 5.09262 15.9004C5.09262 16.104 4.84848 16.4706 4.72641 16.6336C4.07537 17.9778 3.46502 19.4035 2.85467 20.9107C2.61053 21.0329 2.48846 21.1143 2.24432 21.1551C2.12225 21.1551 2.20363 21.2365 2.12225 21.2365C1.79673 21.4402 1.38983 21.5624 1.34914 21.7253C1.34914 22.092 0.942243 22.3364 0.982933 22.7844C1.22707 23.0696 2.00018 22.8252 1.95949 23.3954C1.83742 24.4138 0.982933 25.147 1.26776 26.1246C0.982933 26.1654 1.06431 26.3283 0.982933 26.532C0.901553 26.6542 0.820173 26.7356 0.738793 26.8986C0.657413 27.0615 0.616723 27.2652 0.616723 27.3874C0.494653 27.6725 0.453963 28.1613 0.372583 28.4057C0.372583 28.4057 0.250513 28.365 0.250513 28.4057C0.169133 28.4465 0.291203 28.8131 0.250513 28.8946C0.128443 29.2612 -0.0343174 29.6278 0.00637271 29.8722C0.00637271 30.0758 0.169133 30.1166 0.250513 30.2795C0.331893 30.4424 0.169133 30.7683 0.372583 30.8905C0.657413 30.8905 0.820173 31.0942 1.26776 31.0127C1.43052 31.1757 1.63397 31.3386 1.87811 31.5423C1.95949 31.7459 2.3257 31.7867 2.7326 31.7459C2.77329 31.6237 2.89536 31.6237 3.01743 31.5423C3.09881 31.3793 3.05812 31.2571 3.09881 31.1349C3.18019 31.0535 3.30226 30.9313 3.34295 30.8905C3.46502 30.7276 3.38364 30.4832 3.62778 30.4832C3.62778 30.2388 3.62778 29.9129 3.62778 29.6685C3.79054 29.4241 3.99399 29.1797 3.99399 28.8946C3.99399 28.7724 4.07537 28.8131 4.11606 28.7723C4.19744 28.4465 4.19744 27.9984 4.31951 27.6318C4.48227 27.2652 4.68572 27.2245 4.72641 26.8986C4.72641 26.7356 4.84848 26.8578 4.88917 26.7356C4.92986 26.5727 4.92986 26.4505 4.97055 26.2468C5.05193 26.1246 5.174 25.8802 5.21469 25.758C5.33676 25.5951 5.33676 25.3914 5.37745 25.2692C5.5809 24.7397 5.78435 24.2509 5.9878 23.7621C5.9878 23.7213 6.10987 23.5584 6.10987 23.5177C6.10987 23.3954 6.23194 23.4362 6.23194 23.3954C6.35401 23.0696 6.3947 22.7844 6.47608 22.6215C6.76091 22.1734 6.84229 21.929 7.08643 21.7253C7.41195 21.5624 7.77816 21.2365 8.22575 21.3995C8.30713 21.1143 8.30713 20.707 8.59196 20.6255C8.67334 20.7885 8.4292 21.2773 8.71403 21.2365C8.99886 21.0329 9.28369 21.1143 9.60921 21.0329V20.9107C9.73128 20.7477 10.0568 20.9107 10.2196 20.7477C10.5044 20.5033 11.0741 20.5848 11.481 20.5441C11.4403 20.2997 11.7251 20.4626 11.8472 20.4219C11.9285 20.3404 11.8472 20.0145 12.0913 20.1367C12.5389 20.096 12.9051 19.9738 13.4341 20.0145C13.9224 19.7294 14.6955 19.5664 15.2244 19.5257C15.3058 19.5257 15.3058 19.4035 15.3058 19.3628C15.55 19.322 15.7534 19.4442 15.9569 19.3628C16.1196 19.322 16.3231 18.9962 16.4858 19.1591C16.6079 19.2813 16.5265 19.1998 16.6893 19.1591C16.9741 19.1184 17.0962 18.9554 17.3403 18.9962C17.0962 19.7294 16.6079 20.1367 16.6893 21.1551C16.201 21.4809 16.2417 22.2956 15.9569 22.4993C15.9569 22.54 15.9975 22.7437 15.9569 22.7844C15.9569 22.9881 15.9569 23.1103 15.8755 23.2732C15.672 23.5177 15.5906 24.0472 15.4686 24.1694C15.4279 24.1694 15.5093 24.3323 15.4686 24.3731C15.4686 24.4138 15.3465 24.3731 15.3058 24.3731C15.3058 24.4138 15.3465 24.6175 15.3058 24.6582C15.2244 25.0248 15.1431 25.2285 15.1024 25.3914V25.5136C15.1024 25.6358 14.9803 25.5951 14.9803 25.6358C14.8582 25.8395 14.9396 26.0839 14.8175 26.2468C14.8175 26.2468 14.7362 26.2468 14.6955 26.2468C14.6955 26.2876 14.7362 26.4912 14.6955 26.532C14.6141 26.7764 14.5734 27.1022 14.492 27.3874C14.492 27.4281 14.3293 27.3874 14.3293 27.3874C14.2072 27.5096 14.3293 27.7947 14.2072 27.8762C14.2072 27.9169 14.2072 28.2428 14.2072 28.2835C14.2072 28.365 14.1258 28.365 14.0851 28.4057C13.963 28.8538 13.8003 29.5463 13.7189 29.75C13.7189 29.7907 13.7189 29.8314 13.7189 29.8722C13.7189 29.9944 13.6375 29.9536 13.5968 29.9944C13.4748 30.3202 13.3934 30.6461 13.3527 30.7683C13.312 30.7683 13.3527 30.8498 13.3527 30.8905C13.3527 31.0127 13.2306 30.9313 13.2306 31.0127C13.1899 31.2164 13.1899 31.4608 13.1086 31.6237C13.0272 31.8274 12.9865 32.0311 12.9458 32.1533C12.9051 32.3162 12.9051 32.6014 12.8644 32.7236C12.8237 32.7643 12.7423 32.7236 12.7423 32.7236C12.7017 32.7643 12.7423 32.968 12.7423 33.0087H12.5796C12.5389 33.0087 12.4575 33.7012 12.4575 33.6197C12.4575 33.7826 12.3761 33.7012 12.3354 33.7826C12.2541 34.1493 12.4168 34.2307 12.2541 34.3937C12.2134 34.3937 12.2541 34.5566 12.2541 34.5973C12.2134 34.6788 12.0913 34.5973 12.0913 34.5973C12.0506 34.6788 12.0913 34.8417 12.0913 34.8825C11.9692 35.2898 11.8472 35.6157 11.8472 35.8601C11.8472 35.9823 11.7251 35.9823 11.7251 35.9823C11.603 36.3896 11.7658 36.5118 11.603 36.634C11.5623 36.6748 11.603 36.8377 11.603 36.8784C11.5623 37.0006 11.481 37.2043 11.481 37.245C11.481 37.3265 11.603 37.3672 11.603 37.3672C11.603 37.4894 11.4403 37.5709 11.481 37.6116C11.5216 37.8153 11.7251 37.9783 11.7251 38.1412C11.9692 38.3856 12.5389 38.2227 12.9458 38.2227C13.312 38.4671 13.7596 38.5485 14.3293 38.5078C14.8582 38.019 14.6548 37.3672 14.8175 36.7562C14.8582 36.7155 15.0617 36.5933 15.1024 36.5118C15.1431 36.3489 15.1837 36.1452 15.2244 35.9823C15.3058 35.7379 15.3465 35.412 15.4686 35.1676C15.5093 35.1269 15.55 35.1269 15.5906 35.0047C15.6313 34.8417 15.7127 34.5566 15.7127 34.5159C15.7127 34.3937 15.7941 34.4344 15.8755 34.3937C15.9975 33.9863 15.9975 33.4568 16.0789 33.1309C16.1196 33.0494 16.201 33.0494 16.201 33.0087C16.3231 32.7236 16.4044 32.4791 16.4858 32.3977C16.73 31.9496 16.8113 31.2164 16.9741 30.7683C17.0148 30.5646 17.1776 30.4017 17.1776 30.1573C17.2589 29.8314 17.381 29.7092 17.4624 29.5056C17.4624 29.4648 17.5438 29.5056 17.5845 29.3834C17.6251 29.2204 17.7065 28.976 17.7472 28.8946C17.7879 28.7316 17.7879 28.6094 17.8286 28.4872C17.8693 28.4872 17.8286 28.4057 17.8286 28.4057C17.8286 28.2835 17.9507 28.3243 17.9507 28.2835C18.032 27.9984 18.1541 27.6725 18.2355 27.3874C18.3169 27.1022 18.4389 26.7356 18.4389 26.6542C18.4389 26.532 18.561 26.5727 18.561 26.532C18.7238 26.1654 18.6424 26.0432 18.7238 25.8802C18.8865 25.5951 18.9272 25.0248 19.09 24.6582C19.1307 24.4545 19.2527 24.3731 19.3341 24.2509C19.4155 24.1694 19.3748 23.7621 19.4562 23.6399C19.6596 23.3547 19.5376 22.9066 19.7003 22.7844C19.741 22.7437 19.7817 22.4178 19.8224 22.3771C19.9852 22.1734 20.0259 21.8068 20.1072 21.5217H20.1886C20.2293 21.4809 20.1886 21.2773 20.1886 21.2365C20.3514 20.9107 20.5548 20.5033 20.4734 20.0145C21.0838 19.4442 21.0024 18.2222 21.5721 17.6112C21.9383 17.6112 22.3045 17.6927 22.4673 17.489C22.6707 17.1224 23.3217 17.2446 23.4438 17.1224C23.5659 17.0409 23.688 16.9187 23.81 16.878C23.9321 16.878 24.1355 16.9595 24.2169 16.878C24.2983 16.8373 24.3797 16.5929 24.4204 16.5114C24.6645 16.3077 24.7052 16.3892 24.7052 16.0226C24.7459 15.2894 23.8914 15.2486 23.5659 14.5154C23.3217 14.3117 22.9148 14.271 22.6707 14.0266C22.7928 13.5785 22.9555 13.2119 23.0776 12.8861C23.1997 12.5602 23.2404 12.2343 23.3217 11.9899C23.3624 11.9492 23.5252 11.8677 23.5659 11.7862C23.7286 11.5011 23.7286 11.1345 23.81 10.8901C24.0135 10.4013 24.2576 9.95319 24.4204 9.42365C24.6645 8.93484 24.99 8.36456 24.9493 7.75355C25.3562 7.59062 25.3156 7.02034 25.4376 6.77593C25.519 6.7352 25.6818 6.57226 25.6818 6.4908C25.7225 6.45006 25.6818 6.36859 25.6818 6.28713C25.7631 5.96125 26.0887 5.43171 26.2107 5.30951C26.3328 5.02437 26.2921 4.57629 26.4549 4.25042C26.4549 4.25042 26.6583 4.16895 26.699 4.12822C26.7397 4.12822 26.6583 3.96528 26.699 3.92455C26.699 3.88381 26.7804 3.92455 26.8211 3.92455C26.8211 3.88381 26.7804 3.68014 26.8211 3.63941C26.9025 3.43574 27.0652 3.2728 27.0652 3.1506C27.0652 3.0284 27.1466 3.10987 27.1873 3.0284C27.2687 2.82473 27.228 2.58032 27.3501 2.37665C27.3501 2.37665 27.5535 2.29518 27.5535 2.25445C27.5942 2.25445 27.5535 2.09151 27.5535 2.05078C27.8383 1.52123 28.1232 1.03243 28.0825 0.421413C27.8383 0.217743 27.4721 0.217743 27.0652 0.136276C26.7397 0.0955425 26.2921 -0.148864 26.0887 0.136276C25.9666 0.217743 25.5597 0.462149 25.8038 0.502883C25.8038 0.462149 25.8852 0.38068 25.9666 0.502883ZM8.59196 11.6233C8.59196 12.5602 7.98161 12.9675 7.6154 13.5378C7.37126 13.4156 7.6154 13.2934 7.6154 13.1712C8.10368 12.2343 8.67334 11.3789 9.20231 10.5235C9.28369 10.3198 9.44645 10.6457 9.20231 10.6457C9.08024 11.0123 8.91748 11.4196 8.59196 11.6233Z" fill="#1F1F1F"/>
<path d="M33.2444 11.827C33.2851 12.0714 33.1223 12.1121 33.163 12.3158C33.0816 12.3158 33.0002 12.438 33.163 12.4787C33.4071 11.8677 33.7327 11.4196 34.0175 10.9308C34.1803 10.6864 34.3023 10.3605 34.4244 10.1161C34.4244 10.0347 34.5058 9.99393 34.5058 9.95319C34.7092 9.70879 34.7499 9.42365 34.7906 9.21998C35.0347 9.34218 35.1975 9.01631 35.401 8.93484C35.523 8.89411 35.7672 8.97558 35.8892 8.93484C35.9706 8.93484 35.8892 8.81264 36.0113 8.93484C36.0927 9.01631 36.1741 8.85337 36.1741 8.85337C36.7844 8.69044 37.3948 8.85337 38.0458 8.69044C38.2493 8.6497 38.4527 8.48677 38.6562 8.44603C38.9003 8.44603 39.0224 8.56824 39.1444 8.56824C39.3072 8.56824 39.3072 8.44603 39.3886 8.44603C39.5106 8.44603 39.5513 8.56824 39.6327 8.56824C39.6327 8.56824 39.6734 8.44603 39.7955 8.44603C39.9582 8.44603 39.8769 8.60897 39.9989 8.44603C40.0396 8.44603 40.2431 8.44603 40.2838 8.44603C40.8534 8.4053 40.8127 8.36456 41.1382 8.07942C41.4231 8.4053 41.8707 7.99796 42.2776 7.95722C42.6031 7.91649 42.8065 7.99796 43.1321 7.95722C43.3762 7.63135 43.6203 7.38695 43.7424 6.9796C43.6203 6.9796 43.7017 6.81667 43.6203 6.69447C43.4983 6.32786 43.1321 6.28713 43.01 5.92052C42.8472 5.71685 42.7659 5.35024 42.6438 5.10584C42.2776 4.98363 42.2776 4.90216 42.1555 5.10584C42.0741 5.1873 41.9927 4.9429 41.9927 4.9429C41.3824 4.86143 41.3417 5.14657 41.0162 5.30951C40.772 5.10584 40.2838 5.10583 39.9175 4.9429C39.8769 5.14657 39.6734 5.10584 39.5106 5.10584C39.4293 5.10584 39.4293 5.1873 39.3886 5.22804C38.6155 5.43171 37.9644 5.43171 37.5168 5.83905C37.4761 5.63538 37.232 5.71685 37.1506 5.83905C37.1099 5.83905 36.9065 5.79832 36.8658 5.83905C36.581 6.00199 36.1741 6.04272 36.0113 6.20566C35.9706 6.24639 35.8079 6.20566 35.7672 6.20566C35.6451 6.24639 35.2789 6.24639 35.1161 6.32786C35.0754 6.36859 35.1975 6.613 35.0347 6.57226C35.0347 6.4908 34.9941 6.4908 34.9127 6.4908C34.7906 6.45006 34.7092 6.57226 34.6278 6.57226C34.1803 6.65373 33.6513 6.77593 33.5292 6.9796C33.4885 6.9796 33.2851 6.93887 33.2444 6.9796C33.0002 7.06107 32.7561 7.10181 32.5527 7.18327C32.512 7.18327 32.5527 7.30548 32.5527 7.30548C32.512 7.38695 32.3085 7.30548 32.2678 7.30548C31.8609 7.50915 31.4133 7.63135 31.0471 7.83502C30.9251 7.87575 30.8437 7.95722 30.7623 7.95722C30.6402 7.95722 30.7216 8.03869 30.6809 8.07942C30.4775 8.16089 30.2333 8.12016 30.0299 8.20163C29.9892 8.20163 29.9078 8.44603 29.9078 8.44603C29.8671 8.48677 29.7044 8.44603 29.6637 8.44603C29.6637 8.44603 29.7044 8.56824 29.6637 8.56824C29.6637 8.60897 29.4602 8.56824 29.4195 8.56824C29.3788 8.56824 29.4195 8.69044 29.4195 8.69044C29.3788 8.7719 29.0533 8.81264 29.0126 8.85337C28.9312 8.89411 28.8906 8.89411 28.8092 8.93484C28.6464 9.05704 28.5243 9.21998 28.4023 9.34218C28.1581 9.54585 27.7512 9.70879 27.7512 10.1161C28.1988 10.5235 28.5243 11.0937 29.1347 11.3382C29.1347 11.053 29.5823 11.2567 29.7857 11.216C30.0299 11.1752 29.8671 10.7271 30.274 10.8086C29.9892 11.0937 29.9078 11.3789 29.7857 11.7048C29.7857 11.7455 29.5416 11.7862 29.5416 11.827C29.5009 11.8677 29.4195 12.0714 29.4195 12.0714C29.4195 12.2343 29.3381 12.1528 29.2975 12.1936C29.1347 12.438 29.1347 12.6009 29.0126 12.8046C29.0126 12.886 28.8092 12.9268 28.8092 12.9675C28.7685 13.0083 28.8092 13.1305 28.8092 13.1712C28.7685 13.2119 28.565 13.2527 28.5243 13.3341C28.5243 13.3749 28.4023 13.5378 28.4023 13.5785C28.4023 13.7415 28.1988 13.9859 28.1581 14.0673C28.1174 14.1081 28.0768 14.1488 28.0361 14.1895C27.9954 14.3117 27.9547 14.3932 27.914 14.4339C27.7512 14.6376 27.5885 14.8413 27.5478 14.9635C27.4257 15.0857 27.263 15.3301 27.263 15.4523C27.263 15.656 27.0595 15.656 27.0595 15.8189C27.0188 15.9411 26.9781 15.8596 26.9374 15.9411C26.734 16.2262 26.7747 16.6336 26.4492 16.7151C25.6354 16.878 24.4147 17.2446 24.0484 17.6927C24.0078 17.7334 23.845 17.6519 23.8043 17.6927C23.5195 17.8149 23.1533 17.9778 23.1533 18.3037C22.6243 18.3037 22.4208 18.6703 22.2581 19.0776C22.4615 19.4035 22.5429 19.7701 22.9091 19.8516C22.9905 20.1775 23.2346 20.4219 23.5195 20.5441C23.6009 20.4219 23.8857 20.3811 24.0484 20.3404C24.0484 20.3404 24.0078 20.1775 24.0484 20.1775C24.1705 20.0553 24.6181 20.1775 24.6995 20.0553C24.496 20.3811 24.2926 20.9107 24.1705 21.0736C24.0078 21.318 23.8857 21.8476 23.8043 21.929C23.7229 22.092 23.6009 22.1734 23.5195 22.3364C23.4788 22.3771 23.4381 22.4586 23.4381 22.5808C23.316 22.8252 23.2346 23.0696 23.1533 23.1918C23.0312 23.4769 23.0312 23.7213 22.9091 23.9657C22.9091 24.0065 22.8277 24.0065 22.8277 24.0879C22.665 24.2916 22.5836 24.6175 22.5429 24.8211C22.4615 25.0655 22.3395 25.3507 22.2581 25.4322C22.2174 25.5951 22.1767 25.7988 22.1767 25.9617C22.136 26.2876 21.607 26.98 21.9326 27.0615C21.9733 26.7356 22.0953 26.5727 22.1767 26.4505C22.1767 26.4098 22.1767 26.369 22.1767 26.3283C22.1767 26.2061 22.2581 26.2876 22.2581 26.2061C22.3802 26.0024 22.3395 25.8802 22.4208 25.6766C22.4615 25.5951 22.665 25.5951 22.665 25.4322C22.665 25.3099 22.7871 25.3914 22.8277 25.3507C22.9905 24.9433 23.0312 24.4138 23.1533 24.1694C23.316 23.9657 23.3567 23.5176 23.6415 23.5584C23.4788 24.3731 23.0719 25.1063 22.8277 25.5544C22.665 25.758 22.5836 26.0024 22.5429 26.2061C22.4615 26.4912 22.3802 26.6949 22.2581 26.8171C22.136 27.0615 22.0546 27.2245 22.0546 27.5911C21.8105 27.8355 21.485 28.1206 21.4443 28.5687C21.3222 29.0982 21.607 29.587 21.6477 30.0758C22.0953 30.0758 22.136 30.5239 22.665 30.4424C22.8277 30.6461 22.9498 30.9313 23.316 30.9313C23.2753 31.3386 23.5195 31.3793 23.6415 31.5423C25.025 31.4608 25.7981 30.6869 27.0595 30.4424C27.1816 30.1166 27.385 29.8722 27.6699 29.6685C27.914 29.6685 28.1581 29.6685 28.4023 29.6685C28.6057 29.4648 28.9719 29.3426 29.2975 29.1797C29.3381 29.1797 29.4602 29.0982 29.5416 29.0575C29.7857 29.0575 29.8671 28.8131 30.0299 28.8131C30.1926 28.8131 30.0706 28.7316 30.1926 28.6909C30.3554 28.6094 30.4775 28.6501 30.6809 28.5687C30.8437 28.5279 30.9657 28.365 31.1692 28.3243C31.4947 28.2021 31.8202 28.1206 32.1458 27.9169C32.4306 27.7947 32.7154 27.6318 33.0409 27.4281C33.6513 27.0615 34.2616 26.7764 34.7906 26.4505C34.9534 26.3283 35.0347 26.1246 35.1161 26.0432C35.3603 25.9617 35.6451 26.0432 35.7672 25.9617C35.8079 25.921 35.8892 25.8395 35.8892 25.8395C35.9299 25.7988 36.1741 25.5951 36.1741 25.5544C36.1741 25.2285 36.4996 25.4322 36.4996 25.1877C36.4996 24.9841 36.7844 24.9026 36.8658 24.8211C36.9065 24.8211 36.8658 24.6175 36.8658 24.5767C37.0286 23.6399 36.0113 23.5584 35.2789 23.314C35.3196 23.151 35.0754 23.2325 35.0347 23.1918C34.7499 22.9881 34.7092 22.703 34.3023 22.703C33.9361 22.703 33.9768 22.8659 33.814 22.9066C33.3665 23.0696 33.2851 23.314 33.0409 23.4769C32.6747 23.3547 32.4713 23.5991 32.1458 23.6806C31.8609 23.8028 31.5761 23.9657 31.2913 24.0879C31.2099 24.0879 31.1285 24.2509 31.0471 24.2916C30.803 24.4545 30.3554 24.5767 30.274 24.5767C30.1519 24.5767 30.2333 24.6582 30.1926 24.6989C29.9892 24.8211 29.8264 24.6989 29.6637 24.8211C29.5823 24.8619 29.4602 25.0248 29.4195 25.0655C29.3381 25.1063 29.2568 25.0248 29.1347 25.0655C29.094 25.0655 29.0533 25.3099 29.0126 25.3507C28.8906 25.4322 28.7685 25.3507 28.5243 25.4322C28.5243 25.4729 28.443 25.6358 28.4023 25.6766C28.4023 25.758 28.1988 25.6358 28.1581 25.6766C27.6292 25.9617 27.1816 26.369 26.5305 26.4505C26.4898 26.532 26.3678 26.6134 26.2864 26.6949C26.1643 26.8171 26.1236 26.9393 25.8795 26.9393C26.1643 25.7988 26.6933 24.8619 27.1409 23.8028C27.263 23.5991 27.3036 23.314 27.4257 23.0696C27.4664 23.0288 27.6292 22.8659 27.6699 22.8252C27.7105 22.6622 27.7105 22.4178 27.7512 22.3364C27.914 22.092 28.0361 21.8068 28.1581 21.6031C28.1988 21.4402 28.1988 21.3587 28.3209 21.1958C28.3616 21.0329 28.4837 20.9514 28.5243 20.8292C28.6057 20.707 28.6057 20.5441 28.6464 20.4626C28.8092 20.1775 28.9312 20.0145 29.0126 19.8516C29.0533 19.7701 29.1347 19.6072 29.1347 19.5664C29.1347 19.4442 29.2568 19.5257 29.2975 19.4442C29.4195 19.1591 29.3381 19.0369 29.4195 18.7925C29.4195 18.7518 29.6637 18.7518 29.6637 18.6703C29.7857 18.4666 29.7857 18.1407 29.9078 17.8149C29.9485 17.7334 30.1519 17.6519 30.1926 17.5705C30.274 17.3668 30.2333 17.2446 30.274 17.0817C30.3554 16.8373 30.4775 16.7151 30.5182 16.5929C30.6402 16.3892 30.6402 16.267 30.6809 16.104C30.6809 15.9818 30.7623 15.9818 30.7623 15.9411C30.8437 15.7782 30.803 15.656 30.8844 15.4523C30.9251 15.3708 31.1285 15.2894 31.1692 15.2079C31.2506 15.045 31.1692 14.8413 31.3726 14.8413C31.2099 15.2894 31.1692 15.9411 31.0471 16.104C30.9657 16.104 31.0878 16.267 31.0471 16.3077C30.9657 16.3892 30.803 16.4706 30.7623 16.5929C30.6809 16.7965 30.6402 17.1224 30.5182 17.3261C30.4775 17.3668 30.3147 17.5297 30.274 17.5705C30.2333 17.6927 30.1926 17.8556 30.1926 17.9778C30.0299 18.1815 29.9485 18.4259 29.9078 18.6703C30.3554 18.7518 30.4775 18.4666 30.7623 18.3037C31.0878 18.6703 31.5761 18.3444 31.6575 18.3037C32.0237 18.2222 32.1458 18.2222 32.2678 18.1815C32.3492 18.1815 32.4713 18.2222 32.5527 18.1815C32.9189 18.1 33.5699 17.8556 33.814 17.8149C34.0989 17.7334 34.0175 17.6519 34.3023 17.5705C34.4244 17.5297 34.6278 17.5705 34.7906 17.5705C34.872 17.5705 34.872 17.489 34.9127 17.489C35.1161 17.3668 35.2382 17.3668 35.401 17.3261C35.7672 17.2039 36.1334 17.2446 36.3775 16.9187C36.8251 17.2446 37.3948 16.7558 37.761 16.5929C37.7203 16.1855 38.0051 16.1448 37.9237 15.6967C37.5982 15.4116 37.3134 15.0857 36.8658 14.9635C36.6623 14.3117 36.1334 13.9044 35.401 14.0673C35.2382 14.1081 35.1975 14.3117 35.0347 14.3525C34.872 14.3525 34.7906 14.1081 34.5058 14.1895C34.5872 14.1488 34.3837 14.3525 34.4244 14.3525C34.0582 14.5969 33.163 14.4339 32.7561 14.5561C32.6747 14.7598 32.4306 14.8006 32.2678 14.8413C32.1864 14.8413 32.2271 14.9635 32.0237 14.9635C32.0237 14.9228 31.9016 14.7598 31.7795 14.8413C31.7795 14.6376 32.2271 14.3117 31.9016 14.1895C31.8202 14.3525 31.4947 14.8413 31.3726 14.5561C31.6575 14.3932 31.6575 14.0673 31.7795 13.8229C31.9016 13.5378 32.1051 13.2527 32.1458 12.9675C32.512 12.9675 32.4306 12.4787 32.9189 12.5602C32.9189 12.3565 32.8782 12.1121 33.0409 12.0714C32.9596 11.8677 33.2444 11.5418 33.2444 11.827ZM35.6858 7.10181C35.8079 6.9796 35.9706 6.93887 36.1741 6.69447C36.4589 6.81667 35.9299 6.9796 35.8892 7.10181C35.8485 7.14254 35.9299 7.26474 35.8892 7.30548C35.7672 7.46841 35.523 7.54988 35.523 7.95722C35.2789 7.95722 35.0347 8.60897 34.9127 8.32383C34.7906 8.44603 34.7092 8.56824 34.6278 8.69044C34.2616 8.5275 34.9127 8.4053 34.7906 8.07942C34.9127 8.07942 34.872 8.20163 34.9127 8.32383C35.1161 8.2831 35.0347 7.91649 35.1161 7.67208C35.1975 7.63135 35.3603 7.63135 35.401 7.59062C35.401 7.54988 35.3603 7.38695 35.401 7.30548C35.4416 7.26474 35.6451 7.38695 35.6858 7.30548C35.6858 7.26474 35.6451 7.10181 35.6858 7.10181ZM33.163 8.32383C33.692 8.12016 33.8954 7.59062 34.3023 7.18327C34.5058 7.42768 33.9768 7.91649 33.814 8.20163C33.6513 8.36456 33.5292 8.56824 33.4071 8.69044C33.2444 8.85337 33.163 9.13851 32.9189 9.05704C32.7561 8.60897 33.2037 8.69044 33.163 8.32383ZM30.8844 11.0937C31.0878 11.0937 31.2506 11.0937 31.2913 10.9308C31.4947 10.9715 31.2506 11.1345 31.2913 11.3382C31.0471 11.3789 31.0471 11.664 30.8844 11.827C30.8844 11.8677 30.6809 12.0306 30.6809 12.0714C30.6402 12.1936 30.7216 12.3565 30.6809 12.4787C30.6402 12.5194 30.4368 12.5602 30.3961 12.5602C30.3554 12.6416 30.4368 12.7638 30.3961 12.8046C30.3554 12.886 30.1926 12.9268 30.1926 12.9675C30.0299 13.1712 30.1926 13.1305 29.9078 13.1712C29.7857 13.2119 29.6637 13.3749 29.5416 13.5785C29.2975 13.5378 29.5823 13.2527 29.6637 13.0897C29.745 12.7638 29.8264 12.7638 30.0299 12.4787C30.0706 12.3565 30.274 12.1936 30.274 12.0714V11.9899C30.3554 11.827 30.5995 11.7048 30.6809 11.5826C30.7623 11.3789 30.803 11.2567 30.8844 11.0937ZM28.8092 15.045C28.4023 14.882 29.0533 14.8006 28.9312 14.4339C29.2568 14.5561 28.8092 14.882 28.8092 15.045ZM25.676 19.6886C25.676 19.5664 26.0016 19.3628 26.0423 19.1998C26.3678 19.4035 25.8388 19.6886 25.7981 19.8516C25.7574 19.8923 25.8388 20.0145 25.7981 20.0553C25.7167 20.1367 25.6354 20.1775 25.554 20.3404C25.3505 20.5848 25.3098 20.8292 25.1878 21.0736C24.8622 20.9107 25.3912 20.0145 25.554 19.8516C25.5947 19.7701 25.676 19.8516 25.676 19.6886ZM24.0484 22.8252C24.0484 22.092 24.2112 21.4809 24.9029 21.4402C24.9029 21.6439 24.6995 21.7253 24.6995 21.929C24.6588 22.1327 24.4553 21.9698 24.4147 22.092C24.374 22.1327 24.5367 22.2549 24.5367 22.3364C24.5367 22.2956 24.4147 22.3771 24.4147 22.4178C24.4147 22.5808 24.3333 22.8659 24.0484 22.8252ZM32.7561 12.8046C32.7968 13.0897 32.1864 13.3749 32.5527 13.5785C32.6747 13.4156 32.6747 13.049 32.9189 12.9675C32.9189 12.8046 32.8782 12.6416 32.7561 12.8046Z" fill="#1F1F1F"/>
<path d="M49.3195 20.2589C48.9533 20.7885 48.7091 21.2365 48.4243 21.7661C48.3836 21.8883 48.5057 22.092 48.4243 22.1734C48.2209 22.4178 47.936 22.54 47.9767 22.7844C48.0174 22.9881 47.7733 23.2325 47.6919 23.3547C47.6512 23.4362 47.7326 23.5584 47.6512 23.7213C47.5698 23.8028 47.3664 23.8435 47.2443 24.0065C47.2036 24.0472 47.3664 24.2101 47.3257 24.2509C47.3257 24.2916 47.1222 24.3731 47.0408 24.4138C47.0408 24.4545 47.2036 24.6175 47.1222 24.6582C47.1222 24.7397 46.9595 24.7804 46.8781 24.8211C46.756 25.0248 46.7153 25.3507 46.6339 25.3914C46.5526 25.5136 46.5526 25.6358 46.5119 25.758C46.4712 25.7988 46.5119 25.8395 46.5119 25.8802C46.5119 25.921 46.227 25.8802 46.1864 25.921C46.1457 26.0432 46.3084 26.2876 46.2677 26.4505C46.227 26.532 46.105 26.6134 45.9829 26.7356C45.9422 26.8578 45.8608 27.0208 45.8608 27.143C45.7388 27.3874 45.5353 27.5096 45.3726 27.7133C45.3319 27.754 45.4132 27.9169 45.4132 27.9577C45.3319 28.1613 45.0877 28.3243 45.0877 28.4465C45.1691 28.6094 45.047 28.5279 45.047 28.5687C44.8843 28.9353 45.047 29.0982 44.925 29.3019C44.8843 29.3834 44.5994 29.4241 44.5994 29.4648C44.5587 29.5463 44.396 29.6278 44.3553 29.7092C44.3146 29.9129 44.4367 30.1166 44.396 30.2388C44.396 30.2795 44.3553 30.2795 44.3146 30.4017C44.1518 30.6054 43.9077 30.7276 43.8263 30.972C43.7449 31.0535 43.8263 31.2571 43.7043 31.3386C43.6229 31.7867 43.216 32.1533 43.3787 32.6828C43.0939 32.7643 42.8905 33.0902 42.9718 33.2531C43.0125 33.416 42.7277 33.7826 42.6463 33.8641C42.6056 33.8641 42.7684 34.027 42.687 34.1085C42.6463 34.19 42.5243 34.2307 42.4429 34.3529C42.3615 34.5566 42.3615 34.801 42.3208 34.9639C42.2801 35.1269 42.0767 35.1269 42.0767 35.2083C42.0767 35.2491 42.1173 35.3713 42.1173 35.4527C42.1173 35.5342 41.9546 35.4935 41.9546 35.5342C41.8325 36.0638 41.7918 36.4711 41.7511 36.8784C41.7104 36.9192 41.6698 36.8784 41.6291 37.0414C41.6698 37.408 41.5884 37.3672 41.7104 37.6931C41.9953 37.8968 42.3615 38.2227 42.9311 38.1412C43.4194 38.2634 43.7449 38.4671 44.3146 38.4263C44.3146 38.3041 44.396 38.2634 44.5588 38.2227C44.8843 38.0597 44.6808 37.4894 44.8029 37.2043C44.8843 36.9192 44.8436 36.7562 44.8843 36.4711C44.8436 36.4304 45.1284 36.4304 45.1691 36.3489C45.1691 36.2674 45.1284 36.1452 45.1691 36.1045C45.1691 36.0638 45.4539 35.9823 45.3726 35.9416C45.4132 35.7379 45.3726 35.5749 45.3726 35.412C45.3726 35.3713 45.6574 35.3305 45.6167 35.2491C45.6574 35.2491 45.576 35.0861 45.576 35.0454C45.6167 35.0047 45.7795 34.9232 45.8608 34.8825C45.8608 34.801 45.7388 34.6788 45.8201 34.5973C45.8201 34.5566 45.9829 34.5159 46.0236 34.4751C46.0236 34.4344 45.9422 34.19 45.9015 34.1493C46.0236 34.0678 46.227 33.8641 46.3084 33.7826C46.3898 33.5382 46.3084 33.416 46.3898 33.0902C46.4712 33.0902 46.6339 33.0494 46.6339 32.968C46.7967 32.5606 47.0408 32.0718 47.0815 31.8681C47.2036 31.7459 47.1629 31.6645 47.2036 31.5423C47.3257 31.3793 47.4884 31.1757 47.4884 31.0535C47.5698 30.972 47.5291 30.8905 47.5698 30.7683C47.7326 30.4832 48.0581 30.2388 48.0174 30.1166C47.936 29.9129 48.1802 29.8314 48.2209 29.7092C48.1802 29.4648 48.2209 29.587 48.3022 29.5463C48.6684 28.8946 48.9533 27.9984 49.3195 27.5503C49.3602 27.2652 49.7671 26.98 49.6857 26.8171C49.645 26.6542 49.9298 26.5727 49.8891 26.4098C49.9298 26.2061 49.9705 26.2876 50.0112 26.2468C50.174 25.9617 50.174 25.5951 50.3367 25.3099C50.4995 25.0655 50.7843 24.7804 50.9064 24.6175C50.9471 24.5767 50.8657 24.4545 50.825 24.3323C50.825 24.2916 51.1098 24.2916 51.1098 24.2509C51.1912 24.0472 51.1505 23.8028 51.0691 23.5584C51.3947 23.5584 51.354 23.3954 51.5167 23.2325C51.8423 22.8252 52.1678 22.4178 52.2085 21.7253C52.6561 21.6031 52.5747 21.1551 52.6968 20.8699C52.6968 20.8699 52.8188 20.8292 52.8188 20.7885C53.0223 20.6255 53.1036 20.4626 53.1443 20.3404C53.185 20.2589 53.063 20.0553 53.185 19.9331C53.3071 19.6886 53.5919 19.6072 53.5512 19.3628C53.5106 19.1591 54.0395 18.6703 54.1616 18.5888C54.2837 18.3444 54.365 18.1815 54.4057 18.0593C54.5278 17.8963 54.5685 17.6927 54.6906 17.5705C54.8126 17.2446 55.0975 16.9595 55.2195 16.6743C55.3416 16.5114 55.423 16.3484 55.4637 16.2262C55.7485 15.8596 56.0333 15.5745 56.2368 15.2486C56.3589 15.0857 56.1961 14.8413 56.3182 14.7191C56.3589 14.6784 56.5216 14.7191 56.603 14.7191C56.6437 14.6784 56.6844 14.5154 56.6844 14.4747C57.0099 13.9451 57.2133 13.4563 57.5796 12.9268C57.9051 12.4787 58.1492 11.9899 58.6375 11.5011C58.8003 11.3382 59.1665 11.216 59.2885 10.9308C59.3292 10.9308 59.3292 10.6864 59.3292 10.6864C59.3292 10.3605 59.8175 10.3198 59.5327 9.99393C58.9223 9.38292 58.0271 9.34218 57.3761 8.89411C57.4168 9.05704 57.2947 9.17925 57.132 9.21998C56.9285 8.97558 57.4575 8.69044 56.8471 8.77191C56.8064 8.5275 56.6437 8.77191 56.5623 8.77191C56.2775 8.81264 56.3182 9.13851 56.074 9.17925C55.5857 9.38292 55.6671 9.74952 55.3823 9.95319C54.8126 10.1161 54.4464 10.5642 54.1616 10.7679C53.9581 10.9715 53.9174 11.216 53.6733 11.2567C53.4699 11.2974 53.5919 11.5011 53.3885 11.5418C52.9816 11.7048 52.9816 11.9492 52.7374 12.1121C52.4933 12.3158 52.4119 12.4787 52.2085 12.6009C52.0457 12.7231 51.8016 12.8453 51.5981 13.049C51.5981 13.0897 51.5574 13.2119 51.5167 13.2527C51.4354 13.3749 51.2319 13.3749 51.0285 13.4563C50.9471 13.6193 50.9064 13.8637 50.6623 14.0673C50.5402 14.1081 50.4588 14.1488 50.4181 14.1895C50.296 14.271 50.2147 14.3525 50.1333 14.4747C50.0519 14.5969 49.5636 14.6376 49.7671 15.045C49.1567 14.9635 49.0346 15.4116 48.994 15.5745C48.994 15.6152 48.6684 15.5745 48.6684 15.6152C48.5871 15.7374 48.465 15.8596 48.3429 15.9818C48.3022 16.1448 48.1802 16.1448 48.0988 16.1855C48.0174 16.3077 48.0174 16.3892 47.8953 16.5114C47.8546 16.5114 47.8953 16.5929 47.8953 16.5929C47.936 16.6743 47.6919 16.5929 47.6512 16.5929C47.7326 16.6743 47.7326 16.7558 47.7326 16.7558C47.7326 16.7965 47.4884 16.7965 47.4071 16.7965C47.3257 16.8373 47.285 17.0002 47.2443 17.0409C47.2443 17.1631 46.9188 17.1224 46.9188 17.2039C46.7967 17.3668 46.6746 17.489 46.4712 17.6519C46.4712 17.6519 46.3491 17.6112 46.3491 17.6519C46.3084 17.6519 46.5119 17.8556 46.4712 17.8963C46.3898 17.9778 46.1457 17.9778 46.0236 18.0593C45.9829 18.1815 45.6574 18.4259 45.5353 18.4666C45.3726 18.4666 45.4946 18.6296 45.4539 18.6703C45.3725 18.711 45.2098 18.711 45.047 18.8332C45.047 18.9147 45.0877 19.1591 45.047 19.1998C45.0063 19.2406 44.8029 19.1591 44.7215 19.1998C44.6808 19.2406 44.7215 19.4035 44.6401 19.4442C44.5994 19.5664 44.396 19.5664 44.2739 19.6072C44.0705 19.7294 44.0298 19.9738 43.9484 20.0553C43.7449 20.2182 43.6229 20.3404 43.4601 20.5033C43.216 20.5848 43.0939 20.9107 42.9718 20.9107C42.7277 20.9514 42.687 21.4402 42.6056 21.1551C42.7684 20.8699 42.6056 20.5441 42.6463 20.2997C42.6463 20.1775 42.8498 20.1367 42.8905 20.0553C42.9312 19.8516 42.8905 19.6072 42.8905 19.5257C42.9312 19.322 42.8905 19.2406 42.8905 19.1184C43.0125 18.9554 42.9311 18.8332 42.9718 18.5481C42.9718 18.263 43.1346 18.1815 43.0532 17.9371C43.1346 17.7741 43.216 17.8149 43.216 17.7741C43.2974 17.5297 43.0939 17.2039 43.216 16.9595C43.216 16.9187 43.3787 16.8373 43.3381 16.7558C43.4194 16.5521 43.3787 16.3484 43.3787 16.1855C43.5415 15.6152 43.5822 15.045 43.745 14.4747C43.745 14.271 43.8263 14.0266 43.8263 13.9044C43.9077 13.7415 43.9077 13.7007 43.9484 13.5378C43.9484 13.3341 44.0705 13.2934 43.9891 13.0083C43.9891 12.8453 44.0705 12.886 44.1112 12.8453C44.1112 12.6009 44.3146 12.4787 44.2332 12.1936C44.1925 12.0714 44.3146 12.1528 44.3146 12.0714C44.3553 11.7048 44.3553 11.3789 44.3553 11.0937C44.3553 11.053 44.5588 11.0937 44.5181 11.0123C44.5181 10.8086 44.5181 10.6864 44.5181 10.5642C44.5588 10.2383 44.5587 10.1161 44.6401 9.95319C44.7215 9.74952 44.8029 9.87173 44.7215 9.66806C44.6808 9.50512 44.8029 9.54585 44.8436 9.46439C44.925 8.93484 45.047 8.24236 44.925 7.67208C44.1112 7.63135 43.7043 7.06107 42.9311 6.93887C42.7277 6.9796 42.6463 7.14254 42.687 7.30548C42.1987 7.38695 42.0767 7.87575 41.9546 8.03869C41.9139 8.12016 41.7918 8.20163 41.7918 8.2831C41.6698 8.5275 41.7918 8.89411 41.6698 9.26072C41.6698 9.30145 41.4663 9.38292 41.4663 9.38292C41.4256 9.42365 41.5477 9.62732 41.5477 9.66806C41.4663 9.99393 41.0594 10.2791 41.1408 10.5642C41.1408 10.9308 40.8966 11.0123 40.8153 11.3382C40.8153 11.3789 40.9373 11.4604 40.8966 11.5011C40.8966 11.5418 40.7746 11.6233 40.6932 11.7048C40.6118 11.7455 40.7339 11.8677 40.7339 11.9084C40.6932 12.0306 40.6525 11.9899 40.6118 12.0306C40.5711 12.3565 40.5304 12.6009 40.5304 12.7638C40.327 13.1305 40.2863 13.66 40.2863 13.9859C40.2456 14.0266 40.1642 13.9859 40.1235 14.0673C40.1235 14.5561 40.1235 14.3932 39.9201 14.6376C39.9201 14.6784 39.9608 14.882 39.9608 14.9635C39.9201 15.2079 39.7573 15.5338 39.5946 15.6967C39.5132 15.9411 39.7573 16.1855 39.6353 16.3484C39.5539 16.5114 39.4318 16.5929 39.4318 16.7151C39.4318 17.0817 39.4318 17.2446 39.4318 17.4483C39.3504 17.5297 39.2284 17.6112 39.2284 17.6927C39.269 17.8556 39.147 17.7334 39.147 17.8149C39.0249 18.0593 39.1877 18.1407 39.0656 18.3852C39.0656 18.4259 38.9842 18.4259 39.0656 18.5074C38.9842 18.5481 39.0656 18.5888 39.0656 18.6296C39.0249 18.7518 38.9028 18.711 38.9028 18.7518C38.8215 19.0776 38.9028 19.4035 38.8215 19.6886C38.7808 19.9738 38.6587 20.3404 38.5773 20.6255C38.5773 20.9107 38.4552 21.2773 38.4552 21.5624C38.4146 21.7661 38.4959 21.929 38.4959 22.0512C38.4552 22.1327 38.3739 22.2549 38.3739 22.2956C38.4552 22.4586 38.3332 22.4586 38.3332 22.4993C38.2925 22.9474 38.4146 23.0288 38.2925 23.314C38.2518 23.5991 38.4959 23.7213 38.5773 24.2101C38.4959 24.4138 38.4959 24.6582 38.4959 24.9841C38.4146 25.2285 38.4146 25.5951 38.5773 25.8802C38.9435 26.2061 39.6759 26.2468 40.4491 26.2876C40.8153 26.6134 41.1408 26.6949 41.507 26.8171C41.5477 26.8578 41.507 26.8986 41.6698 26.9393C41.7104 26.9393 41.7918 26.9393 41.8732 26.9393C42.6056 26.8578 42.9718 26.0839 43.6636 26.0024C43.7449 25.758 43.867 25.5951 44.0705 25.3099C44.6401 25.0248 45.047 24.5767 45.3726 24.1287C45.576 23.925 45.7388 23.6806 45.9422 23.4769C46.1457 23.2325 46.5119 23.151 46.6339 22.9066C46.9188 22.8252 46.7153 22.5808 46.8781 22.4586C47.0408 22.2956 47.3664 22.3364 47.4477 22.2549C47.4884 22.2142 47.3257 22.0105 47.3664 21.9698C47.3664 21.9698 47.5698 21.8883 47.5698 21.8476C47.7326 21.6846 47.8953 21.6439 47.936 21.5217C48.1802 21.318 48.3022 21.0736 48.5057 20.8699C48.5871 20.8292 48.7498 20.8699 48.8312 20.8292C48.8719 20.8292 48.8719 20.6255 48.9126 20.6255C48.994 20.4219 49.0346 20.2997 49.3195 20.2589ZM56.1961 10.2383C56.2775 9.95319 56.3182 9.62732 56.5623 9.26072C56.7251 9.26072 56.6844 9.66806 56.9692 9.66806C56.8471 10.4827 56.4809 11.2567 55.8299 11.7455C55.7485 11.827 56.0333 12.3158 55.8706 12.3972C55.7892 12.3972 55.7078 12.438 55.7078 12.438C55.7078 12.6009 55.7892 12.886 55.7485 13.049C55.7078 13.1305 55.4637 13.1305 55.4637 13.2527C55.423 13.2934 55.5044 13.4156 55.5451 13.4971C55.5044 13.4971 55.3823 13.4971 55.3823 13.4971C55.2602 13.66 55.423 14.0673 55.0568 13.9044C55.0161 13.8229 55.0161 13.7822 55.0975 13.7007C55.1382 13.6193 55.0568 13.4156 55.0568 13.3749C55.1381 13.3749 55.2195 13.4156 55.2195 13.3749C55.2195 13.0897 55.1382 12.7638 55.2602 12.438C55.2602 12.3972 55.3823 12.438 55.3009 12.3158C55.3416 12.1936 55.5857 12.1936 55.6264 12.0714C55.6671 11.9492 55.5451 11.8677 55.5451 11.7862C55.5857 11.7455 55.7485 11.7048 55.8299 11.664C55.8299 11.6233 55.6671 11.4196 55.7485 11.3382C55.7892 11.3382 55.8706 11.3382 55.8706 11.3382C55.9113 11.2974 55.7485 11.0937 55.7892 11.0937C55.7892 11.053 55.952 11.0937 55.952 11.0937C55.952 11.053 55.8299 10.8086 55.8706 10.7679C55.8706 10.7679 55.952 10.7679 55.9926 10.7679C55.9926 10.7271 55.952 10.5642 55.9926 10.5642C55.952 10.5235 56.1961 10.5235 56.1961 10.5235C56.1961 10.4827 56.074 10.3198 56.074 10.2791C56.1147 10.2383 56.1961 10.2383 56.1961 10.2383ZM42.6463 11.8677C42.6463 11.664 42.9718 11.6233 42.9311 11.3382C43.0939 11.3789 43.0532 11.5011 43.0125 11.5011C42.7684 11.827 43.2974 12.0306 42.7684 12.0714C42.8905 12.1121 42.9311 12.2343 43.0125 12.3972C42.7684 12.3972 43.0125 12.8046 42.9718 12.9268C42.8091 13.0897 42.8091 13.2934 42.687 13.3749C42.687 13.4156 42.4836 13.4563 42.4836 13.4971C42.4429 13.66 42.4429 13.7822 42.4836 13.8637C42.4429 13.9859 42.2801 13.9044 42.2801 14.0266C42.3208 14.1895 42.036 14.3525 42.036 14.5969C41.5884 14.3117 41.8325 13.7822 41.9546 13.4156C42.036 13.3749 42.0767 13.3341 42.0767 13.3341C42.2394 13.1712 42.3208 12.9675 42.3208 12.8046C42.2801 12.6009 42.4836 12.4787 42.4429 12.3158C42.4022 12.1528 42.687 12.1121 42.6463 11.8677ZM54.4464 15.9411C54.365 15.4116 54.6499 15.1264 54.7719 14.7598C55.1382 14.8006 54.8533 15.1672 54.8533 15.3301C54.7313 15.6152 54.6906 15.9818 54.4464 15.9411ZM41.3442 16.7558C41.0187 16.6743 41.4256 16.3077 41.3849 16.0633C41.5884 15.8596 41.5884 16.0226 41.6291 16.1855C41.3036 16.267 41.4663 16.5521 41.3442 16.7558ZM40.5304 17.6112C40.5711 17.4483 40.7339 17.0817 40.7339 16.7965C41.2629 16.7558 40.5711 17.2853 41.0594 17.1631C41.1408 17.3261 40.8153 17.2853 40.7746 17.3261C40.7746 17.4483 40.8966 17.6927 40.856 17.8556C40.8966 17.9371 40.4491 18.1 40.5304 18.3852C40.4084 18.5074 40.4084 18.4259 40.2049 18.3852C40.2863 18.8332 39.8387 18.874 39.9201 19.3628C39.676 19.3628 39.8387 19.1184 39.8387 18.9147C39.8794 18.8332 39.8794 18.6296 39.8794 18.5481C39.9201 18.5074 40.1642 18.4666 40.2049 18.3852C40.1235 18.3852 40.0828 18.2222 40.0828 18.1815C40.1235 18.0593 40.3677 18.1 40.4491 18.0185C40.5304 17.9371 40.5304 17.7334 40.5304 17.6112ZM53.8768 17.5297C53.7954 17.489 53.9988 17.2039 54.0395 17.0002C54.4871 16.878 53.9988 17.5705 53.8768 17.5297Z" fill="#1F1F1F"/>
<path d="M58.5632 38.6938V27.0895H60.0876V38.6938H58.5632ZM57.3882 28.2976V27.0895H60.0876V28.2976H57.3882Z" fill="#1F1F1F"/>
<path d="M63.4243 38.6938V30.2052H64.9487V38.6938H63.4243ZM62.1222 31.4133V30.2052H64.9487V31.4133H62.1222ZM63.8531 28.8381C63.5143 28.8381 63.2602 28.748 63.0909 28.5679C62.9321 28.3877 62.8527 28.1599 62.8527 27.8843C62.8527 27.6088 62.9321 27.3809 63.0909 27.2008C63.2602 27.0206 63.5143 26.9305 63.8531 26.9305C64.1918 26.9305 64.4406 27.0206 64.5994 27.2008C64.7687 27.3809 64.8534 27.6088 64.8534 27.8843C64.8534 28.1599 64.7687 28.3877 64.5994 28.5679C64.4406 28.748 64.1918 28.8381 63.8531 28.8381Z" fill="#1F1F1F"/>
<path d="M72.374 38.9799C71.6753 38.9799 71.0508 38.8262 70.5003 38.5189C69.9604 38.2116 69.5317 37.7665 69.2141 37.1836C68.8965 36.5902 68.7218 35.8801 68.6901 35.0535H69.1029V38.6938H67.8961V27.0895L69.4205 27.0895V32.7327L68.8806 33.8931C68.923 32.9711 69.1082 32.2187 69.4364 31.6358C69.7646 31.053 70.1933 30.6238 70.7226 30.3482C71.2625 30.0621 71.8553 29.919 72.501 29.919C73.1045 29.919 73.6549 30.0356 74.1525 30.2688C74.65 30.4913 75.0787 30.8039 75.4387 31.2066C75.7986 31.5987 76.0738 32.0597 76.2644 32.5896C76.4549 33.1089 76.5502 33.6705 76.5502 34.2746V34.5607C76.5502 35.1648 76.4496 35.7318 76.2485 36.2616C76.0579 36.7915 75.7774 37.2631 75.4069 37.6764C75.0364 38.0791 74.5918 38.397 74.0731 38.6302C73.5649 38.8633 72.9986 38.9799 72.374 38.9799ZM72.1993 37.6446C72.771 37.6446 73.2685 37.5068 73.692 37.2313C74.1154 36.9558 74.4436 36.5796 74.6765 36.1027C74.9094 35.6152 75.0258 35.0535 75.0258 34.4177C75.0258 33.7818 74.9041 33.2255 74.6606 32.7486C74.4277 32.2717 74.0995 31.9061 73.6761 31.6517C73.2527 31.3868 72.7604 31.2543 72.1993 31.2543C71.6912 31.2543 71.2201 31.3709 70.7861 31.604C70.3521 31.8266 70.0027 32.1551 69.7381 32.5896C69.484 33.0135 69.357 33.5275 69.357 34.1315V34.8628C69.357 35.4456 69.4893 35.9437 69.754 36.357C70.0186 36.7703 70.368 37.0882 70.802 37.3108C71.236 37.5333 71.7018 37.6446 72.1993 37.6446Z" fill="#1F1F1F"/>
<path d="M78.844 38.6938V30.2052H80.0508V33.7023H79.9873C79.9873 32.4624 80.2572 31.5563 80.7971 30.9841C81.3476 30.4012 82.168 30.1098 83.2583 30.1098H83.5442V31.4769H83.0043C82.1574 31.4769 81.5064 31.7047 81.0512 32.1604C80.596 32.6055 80.3684 33.2519 80.3684 34.0997V38.6938H78.844Z" fill="#1F1F1F"/>
<path d="M90.4548 38.6938V36.1504H90.2007V33.2096C90.2007 32.6267 90.0472 32.1869 89.7402 31.8902C89.4438 31.5934 89.0045 31.4451 88.4223 31.4451C88.0941 31.4451 87.7553 31.4504 87.406 31.461C87.0567 31.4716 86.7232 31.4822 86.4056 31.4928C86.088 31.5034 85.8128 31.5193 85.5799 31.5404V30.2052C85.8128 30.184 86.0563 30.1681 86.3103 30.1575C86.575 30.1363 86.8449 30.1257 87.1202 30.1257C87.3954 30.1151 87.6601 30.1098 87.9141 30.1098C88.7822 30.1098 89.4914 30.2158 90.0419 30.4277C90.5924 30.6291 91 30.9629 91.2646 31.4292C91.5293 31.8955 91.6616 32.526 91.6616 33.3208V38.6938H90.4548ZM87.6759 38.9163C87.0408 38.9163 86.4903 38.8103 86.0245 38.5984C85.5693 38.3758 85.2147 38.0579 84.9606 37.6446C84.7171 37.2313 84.5954 36.7332 84.5954 36.1504C84.5954 35.5463 84.7277 35.0429 84.9924 34.6402C85.2676 34.2375 85.6646 33.9355 86.1833 33.7341C86.702 33.5222 87.3266 33.4162 88.057 33.4162H90.3595V34.5607H87.9935C87.3795 34.5607 86.9085 34.7091 86.5803 35.0058C86.2521 35.3026 86.088 35.6841 86.088 36.1504C86.088 36.6166 86.2521 36.9929 86.5803 37.279C86.9085 37.5651 87.3795 37.7082 87.9935 37.7082C88.3534 37.7082 88.6975 37.6446 89.0257 37.5174C89.3538 37.3797 89.6238 37.1571 89.8355 36.8498C90.0578 36.5319 90.1795 36.0974 90.2007 35.5463L90.6136 36.1504C90.5606 36.7544 90.4124 37.2631 90.1689 37.6764C89.9361 38.0791 89.6079 38.3864 89.1844 38.5984C88.7716 38.8103 88.2688 38.9163 87.6759 38.9163Z" fill="#1F1F1F"/>
<path d="M94.4594 38.6938V30.2052H95.6662V33.7023H95.6027C95.6027 32.4624 95.8726 31.5563 96.4125 30.9841C96.963 30.4012 97.7834 30.1098 98.8738 30.1098H99.1596V31.4769H98.6197C97.7728 31.4769 97.1218 31.7047 96.6666 32.1604C96.2114 32.6055 95.9838 33.2519 95.9838 34.0997V38.6938H94.4594Z" fill="#1F1F1F"/>
<path d="M100.68 42.0002V40.6331H101.902C102.262 40.6331 102.564 40.5854 102.808 40.49C103.062 40.4052 103.268 40.2569 103.427 40.0449C103.596 39.833 103.734 39.5522 103.84 39.2024L106.507 30.2052H108L105.174 39.5998C105.004 40.1615 104.766 40.6172 104.459 40.9669C104.152 41.3272 103.776 41.5869 103.332 41.7458C102.898 41.9154 102.389 42.0002 101.807 42.0002H100.68ZM103.268 38.503V37.2313H105.11V38.503H103.268ZM103.109 38.503L100.076 30.2052H101.632L104.538 38.503H103.109Z" fill="#1F1F1F"/>
</svg>
