<svg width="174" height="27" viewBox="0 0 174 27" fill="none" xmlns="http://www.w3.org/2000/svg">
<path d="M11.8155 18.536H11.5355C10.5089 19.992 8.99687 20.72 6.99954 20.72C5.87954 20.72 4.84354 20.4213 3.89154 19.824C2.93954 19.2267 2.17421 18.368 1.59554 17.248C1.01687 16.128 0.727539 14.84 0.727539 13.384C0.727539 11.928 1.01687 10.64 1.59554 9.52C2.17421 8.4 2.93954 7.54133 3.89154 6.944C4.84354 6.34667 5.87954 6.048 6.99954 6.048C8.99687 6.048 10.5275 6.804 11.5915 8.316H11.8715V6.44H15.3435V25.928H11.8155V18.536ZM8.06354 17.696C9.18354 17.696 10.0982 17.3133 10.8075 16.548C11.5169 15.7827 11.8715 14.728 11.8715 13.384C11.8715 12.04 11.5169 10.9853 10.8075 10.22C10.0982 9.45467 9.18354 9.072 8.06354 9.072C6.94354 9.072 6.02887 9.45467 5.31954 10.22C4.61021 10.9853 4.25554 12.04 4.25554 13.384C4.25554 14.728 4.61021 15.7827 5.31954 16.548C6.02887 17.3133 6.94354 17.696 8.06354 17.696Z" fill="#1F1F1F"/>
<path d="M17.626 13.384C17.626 11.928 17.9153 10.6493 18.494 9.548C19.0913 8.428 19.9126 7.56933 20.958 6.972C22.022 6.356 23.2353 6.048 24.598 6.048C25.942 6.048 27.118 6.34667 28.126 6.944C29.1526 7.54133 29.946 8.39067 30.506 9.492C31.066 10.5747 31.346 11.816 31.346 13.216V14.42H21.238C21.2753 15.372 21.6206 16.156 22.274 16.772C22.946 17.388 23.7766 17.696 24.766 17.696C25.662 17.696 26.3526 17.5 26.838 17.108C27.342 16.716 27.734 16.2027 28.014 15.568L30.898 17.08C29.61 19.5067 27.5286 20.72 24.654 20.72C23.2913 20.72 22.078 20.4213 21.014 19.824C19.95 19.208 19.1193 18.3493 18.522 17.248C17.9246 16.128 17.626 14.84 17.626 13.384ZM27.762 11.788C27.6686 10.9853 27.3326 10.332 26.754 9.828C26.194 9.324 25.466 9.072 24.57 9.072C23.6553 9.072 22.8993 9.324 22.302 9.828C21.7233 10.332 21.378 10.9853 21.266 11.788H27.762Z" fill="#1F1F1F"/>
<path d="M43.8364 20.328V18.452H43.5564C42.4924 19.964 40.9617 20.72 38.9644 20.72C37.8444 20.72 36.8084 20.4213 35.8564 19.824C34.9044 19.2267 34.139 18.368 33.5604 17.248C32.9817 16.128 32.6924 14.84 32.6924 13.384C32.6924 11.928 32.9817 10.64 33.5604 9.52C34.139 8.4 34.9044 7.54133 35.8564 6.944C36.8084 6.34667 37.8444 6.048 38.9644 6.048C40.9617 6.048 42.4737 6.776 43.5004 8.232H43.7804V0.727999H47.3084V20.328H43.8364ZM40.0284 9.072C38.9084 9.072 37.9937 9.45467 37.2844 10.22C36.5751 10.9853 36.2204 12.04 36.2204 13.384C36.2204 14.728 36.5751 15.7827 37.2844 16.548C37.9937 17.3133 38.9084 17.696 40.0284 17.696C41.1484 17.696 42.063 17.3133 42.7724 16.548C43.4817 15.7827 43.8364 14.728 43.8364 13.384C43.8364 12.04 43.4817 10.9853 42.7724 10.22C42.063 9.45467 41.1484 9.072 40.0284 9.072Z" fill="#1F1F1F"/>
<path d="M62.4708 0.727999V13.104H65.6628V16.464H62.4708V20.328H58.7748V16.464H49.0308V13.216L56.7028 0.727999H62.4708ZM52.8948 13.104H58.7748V3.92H58.4388L52.8948 13.104Z" fill="#1F1F1F"/>
<path d="M66.6273 7.28C66.6273 5.80533 66.954 4.54533 67.6073 3.5C68.2793 2.45467 69.166 1.67067 70.2673 1.148C71.3873 0.606666 72.6286 0.335999 73.9913 0.335999C75.2793 0.335999 76.4553 0.606666 77.5193 1.148C78.602 1.67067 79.4606 2.42667 80.0953 3.416C80.7486 4.38667 81.0753 5.52533 81.0753 6.832C81.0753 8.68 80.5433 10.1267 79.4793 11.172C78.4153 12.1987 76.8006 12.9827 74.6353 13.524C73.1046 13.916 72.022 14.3173 71.3873 14.728C70.7526 15.1387 70.4353 15.7733 70.4353 16.632V16.968H80.9633V20.328H66.7393V16.968C66.7393 15.288 67.2713 13.9627 68.3353 12.992C69.418 12.0027 70.9393 11.2373 72.8993 10.696C74.43 10.2853 75.5593 9.79067 76.2873 9.212C77.0153 8.63333 77.3793 7.80267 77.3793 6.72C77.3793 5.768 77.0713 5.02133 76.4553 4.48C75.858 3.92 75.0553 3.64 74.0473 3.64C72.9646 3.64 72.0686 3.95733 71.3593 4.592C70.6686 5.208 70.3233 6.12267 70.3233 7.336V7.952H66.6273V7.28Z" fill="#1F1F1F"/>
<path d="M83.0454 18.06C83.0454 17.276 83.2974 16.6413 83.8014 16.156C84.3054 15.652 84.94 15.4 85.7054 15.4C86.4707 15.4 87.1054 15.652 87.6094 16.156C88.1133 16.6413 88.3654 17.276 88.3654 18.06C88.3654 18.844 88.1133 19.488 87.6094 19.992C87.1054 20.4773 86.4707 20.72 85.7054 20.72C84.94 20.72 84.3054 20.4773 83.8014 19.992C83.2974 19.488 83.0454 18.844 83.0454 18.06Z" fill="#1F1F1F"/>
<path d="M101.258 20.328V18.452H100.978C99.9143 19.964 98.3836 20.72 96.3863 20.72C95.2663 20.72 94.2303 20.4213 93.2783 19.824C92.3263 19.2267 91.5609 18.368 90.9823 17.248C90.4036 16.128 90.1143 14.84 90.1143 13.384C90.1143 11.928 90.4036 10.64 90.9823 9.52C91.5609 8.4 92.3263 7.54133 93.2783 6.944C94.2303 6.34667 95.2663 6.048 96.3863 6.048C98.3836 6.048 99.8956 6.776 100.922 8.232H101.202V0.727999H104.73V20.328H101.258ZM97.4503 9.072C96.3303 9.072 95.4156 9.45467 94.7063 10.22C93.9969 10.9853 93.6423 12.04 93.6423 13.384C93.6423 14.728 93.9969 15.7827 94.7063 16.548C95.4156 17.3133 96.3303 17.696 97.4503 17.696C98.5703 17.696 99.4849 17.3133 100.194 16.548C100.904 15.7827 101.258 14.728 101.258 13.384C101.258 12.04 100.904 10.9853 100.194 10.22C99.4849 9.45467 98.5703 9.072 97.4503 9.072Z" fill="#1F1F1F"/>
<path d="M107.013 13.384C107.013 11.928 107.302 10.6493 107.881 9.548C108.478 8.428 109.299 7.56933 110.345 6.972C111.409 6.356 112.622 6.048 113.985 6.048C115.329 6.048 116.505 6.34667 117.513 6.944C118.539 7.54133 119.333 8.39067 119.893 9.492C120.453 10.5747 120.733 11.816 120.733 13.216V14.42H110.625C110.662 15.372 111.007 16.156 111.661 16.772C112.333 17.388 113.163 17.696 114.153 17.696C115.049 17.696 115.739 17.5 116.225 17.108C116.729 16.716 117.121 16.2027 117.401 15.568L120.285 17.08C118.997 19.5067 116.915 20.72 114.041 20.72C112.678 20.72 111.465 20.4213 110.401 19.824C109.337 19.208 108.506 18.3493 107.909 17.248C107.311 16.128 107.013 14.84 107.013 13.384ZM117.149 11.788C117.055 10.9853 116.719 10.332 116.141 9.828C115.581 9.324 114.853 9.072 113.957 9.072C113.042 9.072 112.286 9.324 111.689 9.828C111.11 10.332 110.765 10.9853 110.653 11.788H117.149Z" fill="#1F1F1F"/>
<path d="M122.695 10.332C122.695 8.988 123.19 7.94267 124.179 7.196C125.168 6.43067 126.503 6.048 128.183 6.048C129.695 6.048 130.955 6.39333 131.963 7.084C132.971 7.756 133.652 8.67067 134.007 9.828L130.815 10.808C130.516 9.42667 129.639 8.736 128.183 8.736C127.511 8.736 126.998 8.85733 126.643 9.1C126.288 9.34267 126.111 9.67867 126.111 10.108C126.111 10.556 126.288 10.9013 126.643 11.144C127.016 11.368 127.586 11.5547 128.351 11.704L129.079 11.844C130.292 12.0867 131.282 12.3573 132.047 12.656C132.812 12.9547 133.419 13.384 133.867 13.944C134.334 14.504 134.567 15.2413 134.567 16.156C134.567 17.5933 134.044 18.7133 132.999 19.516C131.954 20.3187 130.535 20.72 128.743 20.72C126.914 20.72 125.42 20.328 124.263 19.544C123.124 18.76 122.434 17.64 122.191 16.184L125.439 15.344C125.756 17.136 126.858 18.032 128.743 18.032C129.527 18.032 130.124 17.8827 130.535 17.584C130.946 17.2853 131.151 16.9027 131.151 16.436C131.151 16.0067 130.955 15.6707 130.563 15.428C130.171 15.1667 129.527 14.952 128.631 14.784L127.903 14.644C126.242 14.3267 124.954 13.8507 124.039 13.216C123.143 12.5627 122.695 11.6013 122.695 10.332Z" fill="#1F1F1F"/>
<path d="M140.447 20.328H136.919V6.44H140.447V20.328ZM136.191 2.408C136.191 1.69867 136.424 1.12 136.891 0.672C137.376 0.224 137.974 0 138.683 0C139.392 0 139.98 0.224 140.447 0.672C140.932 1.12 141.175 1.69867 141.175 2.408C141.175 3.11733 140.932 3.696 140.447 4.144C139.98 4.592 139.392 4.816 138.683 4.816C137.974 4.816 137.376 4.592 136.891 4.144C136.424 3.696 136.191 3.11733 136.191 2.408Z" fill="#1F1F1F"/>
<path d="M157.367 6.44V19.516C157.367 21.7187 156.704 23.3987 155.379 24.556C154.072 25.732 152.29 26.32 150.031 26.32C148.052 26.32 146.466 25.8907 145.271 25.032C144.095 24.1733 143.292 23.128 142.863 21.896L146.027 20.524C146.288 21.3827 146.736 22.064 147.371 22.568C148.024 23.0907 148.892 23.352 149.975 23.352C151.17 23.352 152.112 23.0253 152.803 22.372C153.494 21.7187 153.839 20.7387 153.839 19.432V18.088H153.559C152.514 19.544 151.002 20.272 149.023 20.272C147.922 20.272 146.886 19.9733 145.915 19.376C144.963 18.7787 144.198 17.948 143.619 16.884C143.04 15.8013 142.751 14.56 142.751 13.16C142.751 11.76 143.04 10.528 143.619 9.464C144.198 8.38133 144.963 7.54133 145.915 6.944C146.886 6.34667 147.922 6.048 149.023 6.048C151.02 6.048 152.551 6.804 153.615 8.316H153.895V6.44H157.367ZM150.087 17.248C151.207 17.248 152.122 16.8747 152.831 16.128C153.54 15.3813 153.895 14.392 153.895 13.16C153.895 11.928 153.54 10.9387 152.831 10.192C152.122 9.44533 151.207 9.072 150.087 9.072C148.967 9.072 148.052 9.44533 147.343 10.192C146.634 10.9387 146.279 11.928 146.279 13.16C146.279 14.392 146.634 15.3813 147.343 16.128C148.052 16.8747 148.967 17.248 150.087 17.248Z" fill="#1F1F1F"/>
<path d="M163.961 8.512H164.241C164.969 6.98133 166.397 6.216 168.525 6.216C169.589 6.216 170.532 6.468 171.353 6.972C172.175 7.45733 172.809 8.13867 173.257 9.016C173.705 9.89333 173.929 10.9013 173.929 12.04V20.328H170.401V12.208C170.401 11.1627 170.149 10.3787 169.645 9.856C169.141 9.33333 168.404 9.072 167.433 9.072C166.351 9.072 165.511 9.436 164.913 10.164C164.316 10.8733 164.017 11.872 164.017 13.16V20.328H160.489V6.44H163.961V8.512Z" fill="#1F1F1F"/>
</svg>
