<svg width="189" height="21" viewBox="0 0 189 21" fill="none" xmlns="http://www.w3.org/2000/svg">
<path d="M8.09221 0C10.2762 0 12.0309 0.550667 13.3562 1.652C14.6815 2.75333 15.3442 4.33067 15.3442 6.384V6.832H11.7042V6.384C11.7042 4.29333 10.5002 3.248 8.09221 3.248C6.99088 3.248 6.16954 3.45333 5.62821 3.864C5.08688 4.27467 4.81621 4.85333 4.81621 5.6C4.81621 6.30933 5.07754 6.86 5.60021 7.252C6.14154 7.644 7.02821 7.98 8.26021 8.26L8.90421 8.4C11.1629 8.88533 12.8615 9.576 14.0002 10.472C15.1575 11.3493 15.7362 12.6373 15.7362 14.336C15.7362 15.5307 15.4282 16.5853 14.8122 17.5C14.2149 18.4147 13.3562 19.124 12.2362 19.628C11.1162 20.132 9.80954 20.384 8.31621 20.384C6.80421 20.384 5.46021 20.1133 4.28421 19.572C3.12688 19.0307 2.22154 18.256 1.56821 17.248C0.933544 16.2213 0.616211 15.008 0.616211 13.608V13.328H4.25621V13.608C4.25621 14.7653 4.61088 15.6427 5.32021 16.24C6.02954 16.8373 7.02821 17.136 8.31621 17.136C9.54821 17.136 10.4815 16.8933 11.1162 16.408C11.7695 15.904 12.0962 15.2507 12.0962 14.448C12.0962 13.6827 11.7975 13.1133 11.2002 12.74C10.6215 12.348 9.64154 12.0027 8.26021 11.704L7.61621 11.564C5.41354 11.0787 3.78954 10.4067 2.74421 9.548C1.69888 8.68933 1.17621 7.41067 1.17621 5.712C1.17621 3.93867 1.80154 2.548 3.05221 1.54C4.30288 0.513333 5.98288 0 8.09221 0Z" fill="#1F1F1F"/>
<path d="M53.2545 0.392C54.4865 0.392 55.5691 0.653333 56.5025 1.176C57.4545 1.68 58.1918 2.408 58.7145 3.36C59.2558 4.29333 59.5265 5.376 59.5265 6.608C59.5265 7.84 59.2558 8.932 58.7145 9.884C58.1731 10.8173 57.4265 11.5453 56.4745 12.068C55.5225 12.572 54.4491 12.824 53.2545 12.824H48.8865V19.992H45.1905V0.392H53.2545ZM52.8905 9.464C53.7678 9.464 54.4771 9.20267 55.0185 8.68C55.5598 8.15733 55.8305 7.46667 55.8305 6.608C55.8305 5.74933 55.5598 5.05867 55.0185 4.536C54.4771 4.01333 53.7678 3.752 52.8905 3.752H48.8865V9.464H52.8905Z" fill="#1F1F1F"/>
<path d="M96.6674 0.392L102.155 19.992H98.3754L97.1994 15.624H90.3674L89.1914 19.992H85.4114L90.8994 0.392H96.6674ZM96.3034 12.264L93.9234 3.416H93.6434L91.2634 12.264H96.3034Z" fill="#1F1F1F"/>
<path d="M129.789 7.84C129.789 5.35733 130.508 3.43467 131.945 2.072C133.382 0.690667 135.352 0 137.853 0C139.477 0 140.868 0.289334 142.025 0.868001C143.201 1.44667 144.097 2.268 144.713 3.332C145.329 4.396 145.637 5.63733 145.637 7.056V7.56H141.941V7C141.941 5.95467 141.577 5.07733 140.849 4.368C140.14 3.65867 139.141 3.304 137.853 3.304C136.509 3.304 135.445 3.70533 134.661 4.508C133.877 5.31067 133.485 6.40267 133.485 7.784V12.6C133.485 13.9813 133.877 15.0733 134.661 15.876C135.445 16.6787 136.509 17.08 137.853 17.08C139.141 17.08 140.14 16.7253 140.849 16.016C141.577 15.3067 141.941 14.4293 141.941 13.384V12.6H145.637V13.328C145.637 14.7467 145.329 15.988 144.713 17.052C144.097 18.116 143.201 18.9373 142.025 19.516C140.868 20.0947 139.477 20.384 137.853 20.384C135.352 20.384 133.382 19.7027 131.945 18.34C130.508 16.9587 129.789 15.0267 129.789 12.544V7.84Z" fill="#1F1F1F"/>
<path d="M188.031 0.392V3.752H178.847V8.428H187.247V11.788H178.847V16.632H188.199V19.992H175.151V0.392H188.031Z" fill="#1F1F1F"/>
</svg>
