<svg width="180" height="120" viewBox="0 0 180 120" fill="none" xmlns="http://www.w3.org/2000/svg">
<path d="M64.4046 54.7761C66.3592 54.7761 68.225 55.5531 69.4244 56.7873C69.8687 55.3703 70.6239 54.1362 71.5568 52.8563C69.6021 51.3022 67.1588 50.3423 64.4046 50.3423C58.0076 50.388 52.6768 55.736 52.6768 62.4552C52.6768 69.0372 57.8299 74.4766 64.3601 74.4766C67.1144 74.4766 69.5133 73.5167 71.5123 71.9626C70.5794 70.7284 70.0019 69.4486 69.38 68.0316C68.0029 69.2658 66.3592 70.0428 64.3601 70.0428C60.2732 70.0428 56.897 66.6147 56.897 62.3637C56.9414 58.2042 60.2732 54.7761 64.4046 54.7761ZM40.2382 46C39.483 46 38.8611 46.4571 38.5501 47.097L27 73.5167H31.5756L33.2637 69.7686H47.2571L48.9452 73.5167H53.5208L42.0596 47.2798C41.7486 46.5028 40.9934 46 40.2382 46ZM35.2183 65.5634L40.3715 53.8162L45.569 65.5634H35.2183ZM95.5454 62.4552C95.5454 55.8731 90.5256 50.708 84.3063 50.4338C84.173 50.4338 83.9953 50.5709 84.173 50.7537C84.6173 51.7136 85.6834 53.8619 87.5048 55.2789C89.9481 57.1529 91.3252 59.4841 91.3252 62.318C91.3252 65.929 88.5709 69.9971 84.0398 69.9971C79.4641 69.9971 76.7543 65.929 76.7543 62.318C76.7543 59.4841 78.2647 57.1529 80.5747 55.2789C82.3961 53.7248 83.5955 51.5308 83.9065 50.5709C84.0398 50.4338 83.9065 50.2509 83.7732 50.2509C77.3762 50.388 72.3564 55.736 72.3564 62.2723C72.3564 67.5745 76.7543 73.8366 83.9065 73.8366C87.105 73.8366 89.8148 72.8768 91.8139 71.1855L94.0795 73.3796H100.476L94.4793 67.5745C95.1012 66.2033 95.5454 64.4663 95.5454 62.4552ZM123.799 50.8451H128.197V73.5167H123.799V50.8451ZM115.269 62.2723C115.269 66.9803 113.004 69.9514 109.183 69.9514C105.363 69.9514 103.097 66.9803 103.097 62.2723V50.8451H98.6995V62.2723C98.6995 69.1286 103.097 74.1566 109.183 74.1566C115.269 74.1566 119.667 69.1743 119.667 62.2723V50.8451H115.269V62.2723ZM149.342 54.4561L148.409 53.4962C146.455 51.3022 144.145 50.2052 141.568 50.2052C138.681 50.2052 136.104 51.3022 134.283 53.6334C132.328 55.8274 131.395 58.7985 131.395 62.0895C131.395 65.5176 132.461 68.4887 134.283 70.6827C136.237 72.8768 138.858 74.1109 141.746 74.1109C144.189 74.1109 146.321 73.0139 148.409 71.1398L149.165 70.3628V73.5167H153.562V50.8451H149.165V54.4561H149.342ZM147.654 68.0773C146.277 69.6314 144.633 70.2714 142.501 70.2714C140.546 70.2714 138.858 69.4943 137.659 67.9402C136.459 66.3861 135.838 64.5121 135.838 62.1352C135.838 59.9412 136.459 58.0671 137.792 56.513C139.125 54.9589 140.813 54.1819 142.634 54.1819C144.767 54.1819 146.455 54.9589 147.654 56.513C148.854 58.0671 149.609 59.9412 149.609 62.318C149.609 64.6035 149.031 66.5232 147.654 68.0773Z" fill="#1F1F1F"/>
</svg>
