<svg width="180" height="120" viewBox="0 0 180 120" fill="none" xmlns="http://www.w3.org/2000/svg">
<path d="M93.5327 96.7322C92.5577 96.5057 91.9401 95.891 91.6801 94.9528C91.3551 93.8851 91.4201 92.8499 92.0701 91.9116C92.5252 91.2646 93.2077 90.9411 93.9877 90.9087C94.7028 90.8764 95.4178 90.9734 96.0028 91.4587C96.8479 92.1381 97.0754 93.0763 97.0104 94.0793C96.9779 94.5322 96.8479 94.9851 96.6854 95.3734C96.3279 96.1822 95.6453 96.6351 94.8003 96.7645C94.5728 96.7969 94.1827 96.8616 93.5327 96.7322ZM94.8978 92.6557C94.7678 92.3646 94.5728 92.2028 94.2477 92.2028C93.9227 92.2028 93.6952 92.3969 93.5977 92.6881C93.3052 93.4646 93.3052 94.241 93.5652 95.0175C93.6627 95.341 93.9227 95.5351 94.2802 95.5351C94.6378 95.5351 94.8653 95.3087 94.9953 94.9851C95.1578 94.4028 95.1578 93.2057 94.8978 92.6557Z" fill="#1F1F1F"/>
<path d="M78.0649 96.8282C77.7724 96.7634 77.4473 96.6987 77.1548 96.6017C76.4398 96.3429 76.0173 95.8252 75.8223 95.0811C76.3748 94.9841 76.8948 94.887 77.4148 94.7899C77.8049 95.4046 78.2599 95.6311 78.8774 95.437C79.0074 95.4046 79.1699 95.2429 79.1699 95.1458C79.1699 95.0164 79.0399 94.8223 78.9424 94.7899C78.6174 94.6605 78.2924 94.6282 77.9674 94.5311C77.6749 94.4341 77.3823 94.3694 77.0898 94.24C75.6923 93.6576 75.8873 91.9753 76.8298 91.3282C77.7074 90.7135 79.3324 90.7459 80.1775 91.3929C80.47 91.6194 80.6975 91.9106 80.8275 92.2988C80.34 92.4606 79.885 92.59 79.3974 92.7517C79.1699 92.2664 78.7474 92.137 78.2599 92.2017C78.0649 92.2341 77.8699 92.3311 77.8699 92.5253C77.8699 92.6547 78.0649 92.8488 78.1949 92.8811C78.7149 93.0429 79.2349 93.14 79.755 93.2694C80.275 93.4311 80.665 93.7223 80.86 94.24C81.185 95.0811 80.8925 95.9546 80.1125 96.3752C79.7875 96.5693 79.3974 96.634 79.0074 96.7634C78.9424 96.7958 78.8449 96.7958 78.7799 96.8282C78.5524 96.8282 78.3249 96.8282 78.0649 96.8282Z" fill="#1F1F1F"/>
<path d="M87.004 96.699C87.004 95.9548 87.004 95.2431 87.004 94.499C86.5489 94.499 86.1264 94.499 85.7039 94.499C85.6714 94.499 85.6064 94.6607 85.6064 94.7254C85.6064 95.2754 85.6064 95.8254 85.6064 96.3754C85.6064 96.4725 85.6064 96.5695 85.6064 96.699C85.0214 96.699 84.4688 96.699 83.8838 96.699C83.8838 94.7901 83.8838 92.9137 83.8838 91.0049C84.4363 91.0049 84.9889 91.0049 85.6064 91.0049C85.6064 91.7166 85.6064 92.396 85.6064 93.1078C86.0939 93.1078 86.5489 93.1078 87.004 93.1078C87.004 92.396 87.004 91.7166 87.004 91.0049C87.589 91.0049 88.1415 91.0049 88.7266 91.0049C88.7266 92.9137 88.7266 94.7901 88.7266 96.699C88.1415 96.699 87.589 96.699 87.004 96.699Z" fill="#1F1F1F"/>
<path d="M101.4 96.6994C100.814 96.6994 100.294 96.6994 99.7744 96.6994C99.7744 94.7906 99.7744 92.8817 99.7744 90.9729C100.294 90.9729 100.847 90.9729 101.4 90.9729C101.4 91.7494 101.4 92.4935 101.4 93.2376C101.432 93.2376 101.432 93.2376 101.465 93.27C101.66 92.9788 101.855 92.6876 102.082 92.3964C102.375 91.9758 102.635 91.5553 102.96 91.1347C103.025 91.07 103.122 90.9729 103.22 90.9729C103.675 90.9729 104.13 90.9729 104.617 90.9729C104.552 91.07 104.552 91.1347 104.487 91.1994C104.097 91.7494 103.707 92.3317 103.317 92.8817C103.22 93.0435 103.187 93.1406 103.285 93.3347C103.837 94.4023 104.357 95.47 104.877 96.57C104.91 96.6023 104.91 96.6671 104.942 96.7641C104.325 96.7641 103.707 96.7641 103.122 96.7641C103.057 96.7641 102.96 96.6347 102.927 96.57C102.635 95.9553 102.342 95.3082 102.05 94.6612C101.302 95.1465 101.367 95.9229 101.4 96.6994Z" fill="#1F1F1F"/>
<path d="M112.515 96.7316C111.963 96.7316 111.442 96.7316 110.89 96.7316C110.825 96.7316 110.727 96.6345 110.695 96.5698C110.597 96.311 110.532 96.0198 110.435 95.761C110.402 95.6963 110.305 95.5992 110.24 95.5992C109.85 95.5992 109.427 95.5669 109.037 95.5992C108.972 95.5992 108.842 95.6963 108.81 95.761C108.712 96.0198 108.647 96.2786 108.55 96.5375C108.517 96.6022 108.42 96.6992 108.355 96.6992C107.932 96.6992 107.51 96.6992 107.055 96.6992C107.315 95.8904 107.542 95.1139 107.802 94.3375C108.127 93.2698 108.452 92.2345 108.777 91.1669C108.842 91.0051 108.907 90.9404 109.07 90.9404C109.557 90.9404 110.012 90.9404 110.5 90.9404C110.597 90.9404 110.727 91.0051 110.727 91.1022C111.312 92.9463 111.897 94.7904 112.483 96.6345C112.548 96.6669 112.515 96.6992 112.515 96.7316ZM110.142 94.3698C109.98 93.8198 109.85 93.3022 109.687 92.7845C109.655 92.7845 109.655 92.7845 109.622 92.7845C109.46 93.3022 109.33 93.8198 109.167 94.3698C109.492 94.3698 109.785 94.3698 110.142 94.3698Z" fill="#1F1F1F"/>
<path d="M69.8723 90.9729C70.5223 90.9729 71.1073 90.9729 71.7249 90.9729C72.3099 92.8817 72.9274 94.7905 73.5449 96.6993C72.9599 96.6993 72.4074 96.6993 71.8549 96.6993C71.7899 96.6993 71.7249 96.6023 71.7249 96.5376C71.6274 96.2787 71.5624 96.0523 71.4973 95.7935C71.4648 95.664 71.3998 95.567 71.2373 95.567C70.8473 95.567 70.4573 95.567 70.0998 95.567C69.9373 95.567 69.8723 95.6317 69.8398 95.7611C69.7748 95.9876 69.6773 96.2464 69.6123 96.4729C69.5798 96.6346 69.5148 96.6993 69.3522 96.667C68.9622 96.667 68.5722 96.667 68.1172 96.667C68.7022 94.7905 69.2872 92.8817 69.8723 90.9729ZM70.6848 92.7847C70.6523 92.7847 70.6198 92.7847 70.6198 92.7847C70.4898 93.3023 70.3273 93.8199 70.1973 94.3699C70.5548 94.3699 70.8148 94.3699 71.1723 94.3699C70.9773 93.8199 70.8148 93.3023 70.6848 92.7847Z" fill="#1F1F1F"/>
<path d="M132.375 49.5292C132.31 49.5939 132.277 49.6586 132.212 49.6909C131.725 49.8527 131.627 50.2409 131.627 50.6615C131.627 51.3086 131.692 51.988 131.725 52.635C131.757 53.185 131.595 53.2821 131.042 53.1203C130.685 52.9909 130.327 52.8291 129.937 52.7321C129.547 52.6027 129.417 52.635 129.19 52.9586C128.995 53.2497 128.735 53.3468 128.41 53.3468C127.76 53.3144 127.175 53.4115 126.622 53.735C126.427 53.8321 126.2 53.8968 125.972 53.8968C125.615 53.8968 125.355 54.0262 125.127 54.2203C124.185 55.0615 123.859 55.0938 122.787 54.3821C122.657 54.285 122.592 54.0909 122.527 53.9615C122.267 53.185 121.682 52.7968 120.934 52.635C120.512 52.538 120.317 52.7968 120.512 53.185C120.609 53.4115 120.837 53.5733 121.032 53.7027C121.227 53.8321 121.227 53.8968 121.097 54.0909C120.902 54.3497 120.772 54.6732 120.609 54.9644C120.479 55.2232 120.414 55.2556 120.154 55.1262C119.862 54.9321 119.602 54.7379 119.277 54.5438C118.822 54.2527 118.334 54.1556 117.782 54.4144C117.489 54.5438 117.164 54.6085 116.839 54.6732C116.612 54.7056 116.449 54.6085 116.384 54.3821C116.287 53.9938 116.124 53.8968 115.702 53.9615C115.246 54.0262 114.824 54.0909 114.369 54.1556C114.206 54.188 114.044 54.1556 113.881 54.1556C113.654 54.1232 113.524 53.9938 113.491 53.735C113.459 53.5409 113.361 53.3144 113.231 53.1527C113.004 52.8615 112.711 52.8938 112.516 53.2174C112.451 53.3144 112.386 53.4438 112.289 53.5409C111.931 53.8644 111.964 53.9291 112.191 54.3497C112.354 54.6409 112.354 54.6732 112.029 54.8674C111.866 54.9644 111.736 55.0615 111.574 55.1585C111.281 55.385 111.151 55.6762 111.151 56.0321C111.151 56.2909 111.249 56.5173 111.509 56.5821C111.769 56.6468 111.996 56.5173 112.126 56.3232C112.224 56.2262 112.256 56.0644 112.289 55.935C112.516 55.3203 113.004 54.9968 113.654 54.8674C114.011 54.8027 114.336 54.9321 114.531 55.2232C114.824 55.6438 115.214 55.8703 115.734 55.7732C115.962 55.7409 116.189 55.7732 116.417 55.7732C116.839 55.8056 117.099 55.9674 117.164 56.3556C117.294 57.0026 117.749 57.1644 118.302 57.2291C118.822 57.3262 119.342 57.3909 119.862 57.5203C120.057 57.5526 120.252 57.682 120.414 57.7791C120.512 57.8438 120.642 57.9732 120.642 58.0703C120.642 58.6203 120.999 58.8144 121.454 58.9438C121.844 59.0732 122.202 59.1056 122.592 58.9761C123.209 58.782 123.567 58.9438 123.827 59.5585C123.892 59.6879 123.924 59.8497 123.99 60.0114C124.087 60.2055 124.217 60.335 124.477 60.3026C124.835 60.2703 125.127 60.3997 125.355 60.6261C125.55 60.7879 125.517 61.0467 125.452 61.2408C125.29 61.7261 125.095 62.2438 124.9 62.7291C124.64 63.3438 124.282 63.5379 123.697 63.2467C123.079 62.9555 122.657 63.2143 122.234 63.5379C121.974 63.732 121.942 63.9261 122.104 64.2173C122.137 64.282 122.169 64.3467 122.169 64.4114C122.137 64.5084 122.104 64.6055 122.039 64.6702C122.007 64.7026 121.877 64.6379 121.812 64.6379C121.779 64.6379 121.747 64.5732 121.714 64.5408C121.292 64.0232 120.739 63.8614 120.089 63.9261C119.797 63.9585 119.537 63.8614 119.277 63.6996C119.082 63.5702 118.822 63.5055 118.562 63.4732C118.464 63.4408 118.302 63.5379 118.237 63.6349C118.204 63.6996 118.237 63.8937 118.302 63.9585C118.497 64.1849 118.724 64.379 118.952 64.5732C119.114 64.7026 119.342 64.832 119.244 65.0908C119.147 65.3173 118.854 65.4143 118.529 65.3496C118.107 65.2526 117.684 65.1879 117.262 65.0908C117.099 65.0584 116.969 64.929 116.839 64.832C116.709 64.7349 116.612 64.6055 116.514 64.4761C116.352 64.282 116.157 64.1526 115.864 64.2496C115.572 64.3143 115.279 64.2496 114.986 64.282C114.824 64.3143 114.564 64.379 114.531 64.4761C114.466 64.6379 114.564 64.8643 114.629 65.0261C114.759 65.2849 115.051 65.3173 115.311 65.3496C115.767 65.382 116.027 65.6084 116.189 66.0614C116.352 66.5467 116.482 66.6114 117.002 66.482C117.457 66.3849 117.619 66.4496 117.749 66.9349C117.814 67.1614 117.847 67.4202 117.847 67.679C117.847 67.8084 117.782 67.9702 117.717 68.0996C117.294 68.6172 116.872 69.1349 116.417 69.6525C116.027 70.1055 115.572 70.4937 114.954 70.5584C114.466 70.6231 113.979 70.5907 113.459 70.5584C113.329 70.5584 113.231 70.3966 113.134 70.2996C113.004 70.1378 112.906 69.9437 112.776 69.7496C112.646 69.5878 112.516 69.5231 112.289 69.6202C112.061 69.7172 111.801 69.7819 111.606 69.9437C111.119 70.2996 110.631 70.3643 110.079 70.2349C109.721 70.1378 109.461 70.2672 109.201 70.4937C108.876 70.7849 108.811 70.7849 108.486 70.4937C108.096 70.1378 107.869 70.1702 107.576 70.6878C107.576 70.0731 107.251 69.879 106.763 69.8466C106.373 69.8143 106.113 69.976 106.048 70.3966C105.983 70.6231 105.886 70.8172 105.626 70.8496C105.333 70.9143 105.138 71.1407 104.976 71.3996C104.813 71.6907 104.748 71.6907 104.488 71.4643C104.196 71.2054 104.228 71.2378 103.936 71.4966C103.708 71.6907 103.416 71.8525 103.123 72.0143C102.928 72.1113 102.701 72.079 102.538 71.9172C102.376 71.7231 102.343 71.4966 102.441 71.2702C102.538 71.076 102.668 70.8819 102.766 70.6878C102.863 70.526 103.026 70.3643 102.831 70.2025C102.701 70.1055 102.506 70.0731 102.311 70.0731C102.116 70.0731 101.953 70.1055 101.758 70.1055C101.336 70.0731 101.011 69.9437 100.816 69.5231C100.751 69.3937 100.588 69.2643 100.458 69.1672C100.361 69.1025 100.263 69.0702 100.166 69.0378C100.003 68.9408 99.8731 68.8114 99.7431 68.7143C99.8731 68.5849 100.003 68.3584 100.166 68.2937C100.426 68.1967 100.751 68.1643 101.043 68.1643C101.433 68.1643 101.498 68.0996 101.336 67.7437C101.108 67.2584 100.783 67.1614 100.361 67.4525C100.036 67.679 99.7431 67.9378 99.6456 68.3584C99.5806 68.7467 99.288 68.9731 98.9305 69.1349C98.248 69.3937 97.7929 69.879 97.5329 70.526C97.0454 71.6907 96.5579 72.8878 96.2004 74.0848C95.8753 75.1525 96.1353 76.1231 96.9804 76.8672C97.2404 77.0936 97.4679 77.3525 97.7279 77.5789C97.9555 77.8054 98.1505 78.0319 98.2805 78.3554C98.443 78.8407 98.833 79.1318 99.353 79.2289C101.141 79.5201 102.896 79.7789 104.683 80.0701C107.316 80.5554 109.916 81.1701 112.451 82.0112C114.044 82.5289 115.637 83.1759 117.229 83.7583C117.359 83.7906 117.489 83.8877 117.587 83.9524C116.579 83.6612 115.604 83.37 114.596 83.1112C111.769 82.3348 108.909 81.6877 106.016 81.1701C104.293 80.8789 102.571 80.5877 100.816 80.3612C99.4505 80.1671 98.0855 80.0701 96.7204 79.9407C94.3477 79.7142 92.0076 79.6818 89.635 79.7142C88.0424 79.7465 86.4498 79.8436 84.8897 79.9407C83.6546 80.0054 82.387 80.1024 81.152 80.2318C79.8519 80.3613 78.5518 80.523 77.2517 80.7171C75.6266 80.976 73.969 81.2348 72.3439 81.5583C69.4513 82.1406 66.5911 82.8848 63.8284 83.92C63.7634 83.9524 63.6984 83.9524 63.6334 83.9847C63.6334 83.9524 63.6009 83.9524 63.6009 83.92C64.186 83.6289 64.771 83.3053 65.356 83.0142C67.8587 81.8818 70.4588 81.073 73.124 80.523C74.7491 80.1671 76.4067 79.9083 78.0318 79.6495C79.2669 79.4554 80.5019 79.3583 81.737 79.2289C83.3296 79.0671 84.6297 78.4848 85.4422 76.9642C85.8972 76.0907 86.4823 75.2495 86.8073 74.2789C87.2298 72.9525 87.5548 71.5613 87.5548 70.1702C87.5548 69.7496 87.4573 69.329 87.3598 68.9084C87.2623 68.4878 86.9698 68.1643 86.6123 67.9055C85.7997 67.3231 84.9547 66.7731 83.9796 66.5467C82.8746 66.2878 81.867 66.579 80.9244 67.1614C80.6644 67.3231 80.5344 67.5496 80.6644 67.8731C80.6969 67.9378 80.5994 68.0996 80.5344 68.1643C80.3069 68.3584 80.0469 68.4878 79.8194 68.6819C79.4944 68.9731 79.5594 69.1025 79.8194 69.3937C79.9819 69.5878 80.1444 69.8143 80.2094 70.0731C80.3069 70.3643 80.1119 70.4937 79.8194 70.4613C79.5594 70.429 79.2994 70.4937 79.0393 70.526C78.9093 70.526 78.7793 70.5584 78.6493 70.5908C78.3893 70.5908 78.2918 70.4937 78.2918 70.2349C78.2918 70.0731 78.2918 69.9113 78.2918 69.7496C78.2918 69.5231 78.1618 69.3613 77.9668 69.3613C76.8942 69.2319 75.8216 69.1349 74.7816 69.6202C74.6191 69.6849 74.4566 69.7819 74.2941 69.9113C74.0665 70.1055 73.9365 70.2996 74.0015 70.6231C74.034 70.7849 74.0015 71.0437 73.8715 71.1731C73.6115 71.4319 73.644 71.6584 73.8065 71.9172C74.0015 72.2407 74.099 72.629 73.9365 72.9848C73.8065 73.276 73.6115 73.5672 73.384 73.7937C73.2865 73.8907 73.059 73.8907 72.929 73.8584C72.864 73.826 72.799 73.5995 72.799 73.4701C72.799 73.276 72.864 73.0819 72.8965 72.8878C72.994 72.3378 72.734 71.9496 72.1814 71.9172C71.5639 71.8849 70.9464 71.8849 70.3288 71.8849C69.6463 71.8849 68.9637 71.8849 68.2812 71.8525C67.9237 71.8201 67.8587 71.6584 68.0537 71.3672C68.2162 71.1084 68.4112 70.9143 68.5737 70.6555C68.8012 70.3319 68.7037 70.1702 68.3462 70.1055C68.0862 70.0731 67.8262 70.1055 67.5337 70.1378C67.0136 70.1702 66.5261 70.2025 66.0061 70.2349C65.9411 70.2349 65.8436 70.2025 65.8111 70.1702C65.4535 69.7496 64.966 69.7496 64.4785 69.7496C63.9584 69.7172 63.4059 69.7496 62.8859 69.7496C62.5934 69.7496 62.3333 69.6849 62.2033 69.3937C62.0408 69.1025 62.2033 68.8761 62.3333 68.6496C62.4634 68.4555 62.5284 68.229 62.5609 68.0025C62.6259 67.5173 62.7559 67.129 63.2434 66.9349C63.6659 66.7731 63.6659 66.4496 63.3409 66.0937C63.2434 65.9643 63.1459 65.8349 63.0484 65.6731C63.2434 65.5761 63.4059 65.4467 63.6009 65.382C63.7309 65.3496 63.8934 65.3173 64.0234 65.3496C64.511 65.479 64.966 65.3173 65.356 65.0261C66.2661 64.3467 66.1036 64.4114 67.0136 64.9937C67.1436 65.0584 67.2736 65.1555 67.4036 65.1879C67.4687 65.2202 67.5987 65.2202 67.6637 65.1555C67.6962 65.1231 67.7287 64.9937 67.6962 64.929C67.5987 64.5732 67.5012 64.2496 67.0461 64.1849C66.7536 64.1526 66.4611 63.9908 66.1686 63.8614C65.8761 63.732 65.6485 63.5379 65.5185 63.2143C65.3235 62.7291 64.836 62.5349 64.251 62.6643C63.8284 62.7614 63.4059 62.9232 62.9509 62.9879C62.2033 63.0849 61.4883 62.8908 61.0008 62.2761C60.5457 61.7261 60.7408 60.6585 61.3258 60.2703C61.4883 60.1732 61.7483 60.2055 61.9108 60.2703C62.1058 60.335 62.2683 60.4967 62.4634 60.6261C62.8209 60.8526 63.0809 60.7879 63.3409 60.432C63.4709 60.2379 63.6659 60.0761 63.8609 59.9467C64.0885 59.785 64.121 59.6232 63.8934 59.4614C63.6984 59.332 63.5034 59.235 63.2759 59.1703C63.0159 59.0732 62.9509 58.9761 63.1459 58.7497C63.5359 58.3291 64.0234 58.2644 64.5435 58.2967C65.3885 58.3291 66.2661 58.3614 67.1111 58.3291C67.5662 58.3291 67.8912 57.8762 67.8262 57.3909C67.7937 57.132 67.6637 57.035 67.4036 57.0673C67.3711 57.0673 67.3386 57.0673 67.3061 57.0997C66.6886 57.4556 66.2336 57.1644 65.8111 56.7438C65.421 56.3879 65.031 56.0321 64.446 55.9997C64.121 55.9997 63.8284 56.0644 63.6009 56.2585C63.1784 56.6468 62.6584 56.9056 62.1058 57.0026C61.7483 57.0673 61.4883 57.2615 61.2933 57.585C61.0983 57.9409 60.7733 58.1026 60.3507 58.1026C60.0257 58.1026 59.7657 57.9732 59.6682 57.6497C59.4082 56.9379 59.1807 56.8409 58.4656 57.3262C58.2706 57.4556 58.1081 57.585 57.8806 57.682C57.6206 57.8115 57.4581 57.682 57.4581 57.4232C57.4256 56.8732 57.5231 56.7438 58.0431 56.485C58.1406 56.4526 58.2381 56.2909 58.2381 56.1938C58.2056 55.7409 58.1731 55.2556 58.0756 54.8027C58.0106 54.3821 57.7181 54.2527 57.3931 54.5115C57.1655 54.6732 57.003 54.9321 56.8405 55.1585C56.7755 55.2556 56.7105 55.3526 56.6455 55.4497C56.613 55.4497 56.5805 55.4497 56.5805 55.4174C56.5805 55.2879 56.548 55.1585 56.5805 55.0291C56.613 54.7703 56.7105 54.5438 56.743 54.285C56.808 53.8644 56.613 53.5733 56.1905 53.638C55.638 53.7027 55.2804 53.4762 54.9879 53.0233C54.6304 52.5056 54.1429 52.2791 53.5253 52.3115C53.2003 52.3439 52.8753 52.3115 52.5828 52.3115C52.4203 52.3115 52.2903 52.2468 52.1277 52.1821C51.9977 52.1497 51.8352 52.085 51.8027 52.1497C51.7052 52.2468 51.6402 52.4086 51.6727 52.538C51.7052 52.635 51.8677 52.7321 51.9652 52.7644C52.1277 52.7968 52.2903 52.7644 52.4528 52.7644C52.6803 52.7644 52.8428 52.8291 52.8428 53.088C52.8428 53.3468 53.0378 53.4438 53.2328 53.4762C53.2978 53.5085 53.3953 53.5085 53.4928 53.5409C53.7853 53.638 53.9153 53.7997 53.8828 53.9938C53.8178 54.285 53.5253 54.5438 53.2653 54.4468C52.9403 54.3174 52.6153 54.1556 52.2903 53.9938C52.0952 53.8968 51.9002 53.7997 51.6727 53.7674C51.0227 53.6703 50.8602 53.4762 50.8277 52.8291C50.8277 52.3439 50.7952 51.8909 50.6977 51.4056C50.6002 50.9527 50.3726 50.8556 49.9501 51.0497C49.5926 51.1792 49.2026 51.3733 48.8451 51.5027C48.4225 51.6321 48.195 51.5674 48 51.2115C48 51.1468 48 51.0497 48 50.985C48.2275 50.7909 48.455 50.5645 48.6825 50.3703C49.0076 50.0792 49.2676 49.7556 49.3651 49.3027C49.3651 49.2703 49.3651 49.238 49.3976 49.238C49.4626 49.1409 49.5276 49.0439 49.5926 48.9792C49.6901 49.0439 49.7876 49.1086 49.8201 49.1733C49.9176 49.3351 50.0151 49.5292 50.1126 49.7233C50.2101 49.9498 50.4051 50.0468 50.6652 50.0468C50.8277 50.0468 50.9902 50.0145 51.1527 49.9821C51.8027 49.788 51.9977 49.2056 51.5752 48.6556C51.4452 48.4939 51.3152 48.4939 51.2177 48.688C51.1527 48.8174 51.0552 48.9792 50.9902 49.1086C50.8602 49.2704 50.7302 49.2704 50.6652 49.0762C50.5677 48.7851 50.5677 48.4939 50.7627 48.2674C50.9577 48.0733 50.9577 47.8792 50.8927 47.6527C50.8277 47.3615 50.9252 47.1027 51.1202 46.8763C51.2827 46.7145 51.4127 46.5204 51.5427 46.3263C51.6727 46.0674 51.8677 45.9704 52.1602 45.938C52.4853 45.9057 52.6153 45.7763 52.6478 45.4527C52.6478 45.3233 52.6478 45.1939 52.6478 45.0969C52.6803 44.7733 52.6153 44.4175 52.9078 44.2233C53.2003 43.9969 53.5578 43.8028 53.8828 43.6086C54.0454 43.5116 54.1754 43.5763 54.2404 43.738C54.5004 44.2233 54.5654 44.2557 55.0529 43.9645C55.1504 43.8998 55.2479 43.8351 55.3129 43.8351C55.5079 43.8028 55.768 43.7704 55.9305 43.8351C56.1905 43.9969 56.353 43.9322 56.548 43.7704C56.678 43.6733 56.7755 43.5763 56.9055 43.4792C57.0355 43.4145 57.2956 43.2528 57.3606 43.3175C57.4906 43.4145 57.5231 43.6086 57.5556 43.8028C57.5881 43.9969 57.5556 44.1586 57.5556 44.3527C57.5556 44.4498 57.5881 44.5469 57.5881 44.6439C57.6856 44.9998 57.8806 45.1292 58.2381 44.9998C58.4981 44.9027 58.7581 44.7733 59.0182 44.6763C59.4407 44.5145 59.6032 44.5469 59.8632 44.9027C59.9932 45.0969 60.1232 45.2586 60.2532 45.4527C60.5782 45.938 61.0333 46.0998 61.5858 46.0674C61.7158 46.0674 61.8458 46.0351 61.9433 46.0998C62.2358 46.2616 62.5284 46.4557 62.8209 46.6498C63.2109 46.941 63.5034 46.8763 63.7309 46.4233C63.7959 46.2939 63.8609 46.1321 63.8934 45.9704C63.9584 45.7116 63.9909 45.4527 64.056 45.2263C64.2185 44.7086 64.641 44.288 65.031 44.3851C65.5835 44.4822 66.1361 44.7086 66.6886 44.8704C66.8836 44.9351 67.0461 45.0969 67.2411 45.1616C68.2812 45.6469 68.9962 45.4527 69.6788 44.4822C69.9713 44.0616 69.9713 43.8028 69.5488 43.5116C68.9637 43.091 68.5412 42.541 68.1837 41.9263C67.7937 41.2792 67.6962 41.2792 66.9811 41.6028C66.5261 41.8292 66.1036 42.0234 65.6485 42.2175C65.356 42.3469 65.0635 42.3469 64.771 42.1851C64.316 41.8939 63.8609 41.6351 63.4059 41.3116C63.2109 41.1822 63.0484 40.9881 62.8859 40.794C62.6909 40.5351 62.7559 40.3087 63.0484 40.1469C63.2759 40.0498 63.5359 39.9851 63.7959 39.9204C64.0885 39.8557 64.381 39.8234 64.6735 39.7587C64.8035 39.7263 64.9335 39.5969 65.0635 39.4999C64.966 39.3704 64.901 39.2087 64.771 39.1116C64.6085 38.9822 64.4135 38.8851 64.251 38.7881C64.1535 38.7234 64.056 38.6263 63.9259 38.4969C64.121 38.4322 64.251 38.3675 64.381 38.3675C64.641 38.3352 64.901 38.3352 65.161 38.3028C65.7461 38.2381 66.3636 38.2057 66.9486 38.141C67.2411 38.1087 67.4036 37.8499 67.4036 37.494C67.4361 37.2028 67.2736 37.041 67.0136 36.944C66.9486 36.9116 66.8836 36.8793 66.8186 36.8793C66.6561 36.8469 66.5911 36.7499 66.5586 36.5558C66.5261 36.2322 66.4611 35.9087 66.3311 35.6175C66.2336 35.3587 66.0386 35.2293 65.746 35.294C65.551 35.3264 65.3885 35.3264 65.1935 35.3587C64.6085 35.4558 64.121 35.6499 63.6984 36.1028C63.2759 36.5558 62.7559 36.9116 62.1708 37.1058C61.9433 37.1705 61.7158 37.1705 61.4883 37.0087C61.3583 36.9116 61.1958 36.8793 61.0333 36.8793C60.6757 36.8793 60.3182 36.944 59.9282 36.944C59.6032 36.9763 59.3107 36.8793 59.0832 36.5881C58.8881 36.3616 58.5956 36.1675 58.3031 36.1028C58.0106 36.0058 57.6856 36.0381 57.3606 36.0058C57.068 35.9734 56.9705 35.8764 57.1005 35.6175C57.5231 34.7764 58.1406 34.0646 58.9531 33.547C59.1482 33.4176 59.3757 33.3528 59.5707 33.5146C59.7657 33.644 59.7657 33.8381 59.7332 34.0646C59.7007 34.3234 59.7657 34.5499 59.9932 34.647C60.2857 34.8087 60.6107 34.9058 60.9358 34.744C61.1958 34.5822 61.1958 34.3234 61.1958 34.0646C61.1958 33.7411 61.1633 33.4499 61.1958 33.1264C61.2933 32.3499 61.8133 31.8323 62.5934 31.7676C62.9834 31.7352 63.3734 31.7352 63.7309 31.7676C64.381 31.8323 64.5435 31.7029 64.6085 31.0882C64.6085 31.0235 64.6085 30.9911 64.6085 30.9264C64.641 30.6029 64.6735 30.247 64.7385 29.9235C64.771 29.7941 64.836 29.5999 64.9985 29.7294C65.226 29.8588 65.3885 29.7617 65.551 29.6323C65.6485 29.5676 65.7786 29.4705 65.8761 29.5029C66.0386 29.5676 66.1036 29.4705 66.2011 29.3411C66.2661 29.2441 66.2986 29.1147 66.3961 29.0499C66.4611 28.9529 66.5911 28.8882 66.6886 28.8235C66.7536 28.9205 66.8511 29.0176 66.8836 29.1147C67.0136 29.5029 67.0136 29.5029 67.3711 29.2764C67.5337 29.1794 67.7287 29.0823 67.9237 29.0823C68.2162 29.0823 68.5087 29.147 68.8012 29.147C69.2563 29.147 69.6788 29.2764 70.0038 29.5676C70.5238 30.0205 71.0114 30.5058 71.5314 30.9588C71.8564 31.2499 72.1814 31.5735 72.5715 31.7999C72.9615 32.0587 73.254 31.8646 73.2865 31.4117C73.319 31.1205 73.2865 30.8293 73.319 30.5058C73.319 30.3764 73.3515 30.2793 73.384 30.1176C73.449 30.1499 73.514 30.1499 73.514 30.1823C74.3916 30.9588 75.1716 31.7676 75.7891 32.7705C75.8541 32.8676 75.9192 33.0293 75.9192 33.1264C75.8867 33.5146 76.1142 33.7411 76.4067 33.8705C76.6992 33.9999 77.0242 34.097 77.3492 34.1617C77.7068 34.2264 77.8368 34.3881 77.7718 34.744C77.7393 34.9058 77.7068 35.0999 77.6418 35.2617C77.5767 35.6175 77.6743 35.8116 78.0318 35.844C78.3568 35.8764 78.6818 35.9411 78.9743 35.8764C80.0144 35.6175 80.8919 35.0999 81.672 34.4205C81.932 34.194 81.8995 34.097 81.5745 33.9352C81.347 33.8381 81.0545 33.7411 80.957 33.547C80.7294 33.1264 80.3719 33.1264 79.9819 33.1911C79.7869 33.2234 79.5594 33.2234 79.3644 33.2234C79.2994 33.2234 79.2018 33.0617 79.2018 32.997C79.3319 32.4793 79.7869 32.2529 80.2744 32.4793C80.3719 32.544 80.5019 32.5764 80.5994 32.6087C80.6969 32.6087 80.7944 32.6087 80.8919 32.544C81.152 32.4146 81.3795 32.2205 81.6395 32.0911C81.867 31.9617 81.9645 31.7999 81.8995 31.5735C81.802 30.9911 81.022 30.6029 80.4694 30.8617C80.2419 30.9911 80.0144 31.0882 79.7544 31.2176C79.3644 31.3793 79.0068 31.347 78.6818 31.0882C78.3568 30.8293 77.9993 30.7323 77.5768 30.7323C77.4467 30.7323 77.2517 30.6676 77.2192 30.5705C77.0242 30.1499 76.6667 30.0852 76.2767 30.0852C76.1792 30.0852 76.0492 30.0205 75.9517 29.9882C76.0492 29.8911 76.1142 29.7617 76.2442 29.7294C76.5042 29.6323 76.7967 29.5676 77.0567 29.5029C77.1542 29.4705 77.2192 29.3735 77.3167 29.3088C77.2517 29.2441 77.1867 29.1147 77.0892 29.1147C76.6992 29.0176 76.3092 28.8882 75.8867 28.8882C75.4641 28.8882 75.0416 28.9852 74.6191 29.0176C74.4241 29.0176 74.1315 29.0499 74.034 28.9205C73.774 28.6617 73.449 28.597 73.124 28.5C72.929 28.4352 72.734 28.4029 72.5715 28.3382C72.3439 28.2411 72.2139 28.0794 72.3114 27.8205C72.4414 27.4323 72.5715 27.0117 72.7665 26.6235C73.0915 26.0735 73.449 26.0411 73.969 26.397C74.7491 26.947 75.6266 27.0117 76.5042 26.6558C77.0242 26.4617 77.1217 26.2029 76.8942 25.6853C76.7967 25.4912 76.7317 25.297 76.6992 25.0706C76.6342 24.5529 76.6342 24.5529 76.1467 24.4235C75.9517 24.3588 75.8867 24.2618 75.9192 24.0676C75.9842 23.5176 76.4392 23.2265 76.9592 23.3882C77.2517 23.4853 77.5442 23.6471 77.8043 23.8088C78.0318 23.9382 78.1943 23.9382 78.4218 23.8088C78.5843 23.7118 78.7793 23.6147 78.9743 23.6147C79.2344 23.6147 79.4944 23.55 79.7219 23.4206C79.9169 23.2912 80.1119 23.2912 80.2744 23.4853C80.3394 23.55 80.4369 23.6147 80.5344 23.6794C80.7294 23.7765 80.8594 23.7118 80.8919 23.4853C80.9244 23.3235 80.957 23.1618 80.9895 23C81.0545 23 81.087 23 81.152 23C81.3145 23.1618 81.477 23.3559 81.6395 23.5176C81.7045 23.55 81.867 23.5823 81.8995 23.55C82.0295 23.3559 82.192 23.4206 82.322 23.5176C82.7121 23.7441 83.1021 23.9706 83.4596 24.2294C83.7521 24.4235 83.8496 24.4235 84.0771 24.1647C84.1746 24.0676 84.3046 23.9059 84.4347 23.8735C84.9872 23.8088 85.5397 23.8735 85.9297 24.3265C86.1248 24.5529 86.3523 24.5853 86.6123 24.4882C86.7423 24.4235 86.9048 24.3912 87.0023 24.2941C87.4248 24.0029 87.8149 24.1 88.1724 24.3912C88.6599 24.7794 88.6924 25.1676 88.1724 25.5559C87.9449 25.7176 87.7174 25.8794 87.4573 26.0411C87.2623 26.1706 87.1973 26.3647 87.2948 26.5911C87.3598 26.7529 87.4248 26.947 87.4573 27.1411C87.5548 27.8205 86.6773 28.4676 86.0598 28.5C85.7997 28.5 85.6372 28.597 85.5397 28.7911C85.3772 29.0823 85.2472 29.3735 85.1822 29.697C85.1172 29.8911 85.2147 30.1499 85.4747 30.2146C86.5473 30.5058 86.9373 30.5382 87.6198 29.697C87.6523 29.6646 87.6848 29.6323 87.7174 29.5999C88.2699 28.9852 88.8549 28.4029 89.7975 28.3705C89.9275 28.3705 90.0575 28.3058 90.155 28.2411C90.2525 28.1764 90.3175 28.0794 90.415 28.0147C90.3175 27.95 90.2525 27.8205 90.155 27.7882C90.025 27.7235 89.8625 27.6911 89.7 27.6264C89.5375 27.5617 89.3424 27.497 89.1799 27.4C89.0174 27.3029 88.8549 27.1735 88.9524 26.947C89.0499 26.7529 89.2449 26.7206 89.44 26.7206C89.7 26.7529 89.96 26.7529 90.22 26.7206C90.5125 26.6882 90.545 26.5264 90.3175 26.3323C90.155 26.1706 89.96 26.0411 89.7975 25.847C89.7 25.75 89.6025 25.5882 89.635 25.4588C89.6675 25.3617 89.8625 25.2647 89.9925 25.2323C90.545 25.1029 91.1301 25.0059 91.6826 24.9088C91.9426 24.8765 92.2676 24.8117 92.4626 25.0382C92.7551 25.3617 93.0152 25.297 93.3402 25.1353C93.8277 24.8765 94.2827 24.5853 94.7703 24.3265C95.1603 24.1 95.5828 24.0029 96.0703 24.1647C96.8829 24.4235 97.6304 24.8117 98.2805 25.3617C98.508 25.5559 98.638 25.75 98.6055 26.0735C98.6055 26.2676 98.638 26.4294 98.6705 26.6235C98.7355 26.9794 98.963 27.1088 99.288 26.9147C99.5155 26.7853 99.6781 26.6235 99.8731 26.4294C100.166 26.1706 100.523 26.0411 100.946 26.1059C101.368 26.1706 101.758 26.3323 102.083 26.6235C102.408 26.9147 102.766 27.0117 103.221 26.9147C103.513 26.85 103.806 26.85 104.098 26.85C104.586 26.8823 105.073 26.9794 105.496 27.2705C105.723 27.4323 105.756 27.5941 105.528 27.7235C105.041 28.0147 104.683 28.4029 104.423 28.9205C104.326 29.147 104.131 29.2441 103.903 29.2117C103.448 29.147 103.156 29.3411 102.993 29.7617C102.928 29.9882 102.733 30.0852 102.506 30.0852C102.083 30.0529 101.661 29.9235 101.368 29.6323C101.108 29.3411 100.816 29.2441 100.458 29.2117C99.8081 29.147 99.5155 29.3088 99.3205 29.9235C99.158 30.4411 99.0605 30.4735 98.508 30.3764C98.0855 30.2793 97.6629 30.247 97.2404 30.4088C96.8504 30.5382 96.6879 30.8293 96.7204 31.2176C96.7854 31.7352 97.0129 32.1558 97.3704 32.5117C97.6304 32.7705 97.8905 32.8029 98.2155 32.6734C98.3455 32.6087 98.4755 32.544 98.6055 32.447C98.8655 32.2529 99.1255 32.1558 99.4505 32.1558C100.068 32.1234 100.653 32.0587 100.783 31.2176C100.816 30.894 101.108 30.8293 101.401 31.0235C101.531 31.1205 101.661 31.2176 101.791 31.347C102.018 31.5411 102.246 31.7676 102.506 31.9617C102.993 32.3176 103.221 32.2852 103.611 31.8323C103.871 31.5087 104.163 31.4764 104.488 31.7029C104.618 31.7999 104.748 31.9293 104.878 32.0587C105.138 32.2205 105.366 32.4146 105.658 32.544C105.788 32.6087 106.016 32.5764 106.146 32.5117C106.503 32.3499 106.536 32.3499 106.828 32.6087C106.991 32.7381 107.186 32.8999 107.381 32.9646C107.511 32.997 107.739 32.9323 107.836 32.8352C107.934 32.7381 107.934 32.544 107.869 32.4146C107.771 32.1234 107.544 31.897 107.219 31.8323C106.958 31.7676 106.698 31.7352 106.438 31.6382C105.983 31.5087 105.918 31.2499 106.276 30.9264C106.601 30.6352 106.926 30.3764 107.316 30.1823C107.609 30.0529 107.966 29.9558 108.259 29.9882C108.551 30.0205 108.714 29.9558 108.909 29.7294C109.104 29.4705 109.299 29.5029 109.526 29.697C109.689 29.8588 109.819 30.0205 109.981 30.1499C110.306 30.4088 110.566 30.4088 110.891 30.1823C111.281 29.9235 111.509 29.9882 111.769 30.3764C111.866 30.5382 111.964 30.7323 111.964 30.9264C112.029 31.3793 112.224 31.7029 112.516 32.0264C112.614 32.1234 112.711 32.2205 112.776 32.3176C113.166 32.7705 113.556 33.1911 113.881 33.6764C114.076 33.9352 114.206 34.2587 114.109 34.6146C114.011 34.9381 113.881 35.294 113.719 35.5852C113.654 35.6822 113.524 35.8116 113.426 35.844C113.166 35.8764 113.069 36.0705 113.036 36.2969C113.036 36.394 113.036 36.5234 113.101 36.5558C113.166 36.5881 113.296 36.5558 113.361 36.5234C113.524 36.394 113.686 36.2322 113.849 36.1028C114.174 35.844 114.369 35.8764 114.596 36.2322C114.661 36.3616 114.694 36.4911 114.791 36.5881C114.889 36.6852 115.084 36.8469 115.181 36.8469C115.311 36.8146 115.474 36.6205 115.506 36.4911C115.539 36.3293 115.474 36.1352 115.409 35.9411C115.376 35.8116 115.246 35.7469 115.181 35.6175C114.856 35.0999 115.019 34.744 115.604 34.6146C115.994 34.5499 116.384 34.4852 116.774 34.3881C117.099 34.2911 117.132 34.097 116.904 33.8705C116.742 33.7087 116.547 33.5793 116.352 33.4176C116.157 33.2558 115.929 33.094 115.734 32.8676C115.441 32.5117 115.539 32.2205 115.929 31.994C116.027 31.9293 116.124 31.897 116.222 31.8646C116.547 31.7999 116.872 31.7029 117.099 31.444C117.099 31.444 117.132 31.444 117.164 31.444C117.164 31.5087 117.164 31.5735 117.164 31.6382C117.164 31.7352 117.164 31.8323 117.197 31.9617C117.294 31.9293 117.424 31.897 117.489 31.8646C117.652 31.7676 117.782 31.6705 117.944 31.6058C118.107 31.5411 118.269 31.4764 118.432 31.4764C118.692 31.4764 118.887 31.3793 118.984 31.1529C119.179 30.6999 119.569 30.5058 119.959 30.2793C120.382 30.0205 120.609 30.1176 120.804 30.5705C120.934 30.9588 121.064 30.9911 121.389 30.7323C121.552 30.6352 121.714 30.5705 121.877 30.4735C122.039 30.4088 122.202 30.3764 122.364 30.3441C122.462 30.3117 122.559 30.2793 122.689 30.2146C122.689 30.4088 122.689 30.5382 122.689 30.6999C122.657 31.3793 122.917 31.6382 123.599 31.5735C123.697 31.5735 123.794 31.5411 123.859 31.5411C124.25 31.4764 124.867 31.8646 124.9 32.2529C124.9 32.447 124.997 32.5117 125.127 32.5764C125.322 32.6734 125.517 32.8029 125.68 32.9323C126.005 33.1911 125.972 33.3528 125.615 33.5793C125.517 33.644 125.42 33.6764 125.355 33.7411C125.29 33.8058 125.192 33.9028 125.192 33.9675C125.192 34.0323 125.29 34.1617 125.387 34.1617C125.745 34.2587 126.102 34.3558 126.46 34.3881C126.817 34.4528 126.915 34.5822 126.687 34.9058C126.59 35.0352 126.46 35.1322 126.33 35.2293C126.232 35.3264 126.102 35.3911 126.037 35.4558C125.68 35.8116 125.582 35.8116 125.192 35.4881C124.997 35.3264 124.802 35.1969 124.607 35.0675C124.315 34.9058 124.022 34.9058 123.762 35.0675C123.534 35.1969 123.307 35.3264 123.079 35.4881C122.494 35.9411 122.397 35.9087 122.039 35.2293C122.007 35.1322 121.942 35.0352 121.909 34.9705C121.844 34.8734 121.747 34.744 121.649 34.6793C121.552 34.6146 121.357 34.5499 121.292 34.6146C121.194 34.6793 121.129 34.8734 121.097 35.0028C121.064 35.0999 121.129 35.2293 121.227 35.294C121.519 35.6175 121.682 36.0058 121.812 36.394C121.909 36.6852 122.137 36.8469 122.462 36.8793C123.014 36.944 123.404 36.6528 123.794 36.3293C124.282 35.9087 124.542 35.8764 125.03 36.2646C125.517 36.6528 126.037 36.7175 126.622 36.6205C127.175 36.5234 127.337 36.6528 127.532 37.1705C127.63 37.4293 127.76 37.591 128.085 37.5263C128.117 37.5263 128.182 37.5263 128.215 37.5587C128.28 37.8175 128.15 37.9469 127.987 38.0763C127.695 38.2705 127.402 38.4646 127.142 38.6587C126.817 38.8852 126.492 39.1116 126.2 39.3381C126.037 39.4675 125.972 39.694 126.135 39.8881C126.297 40.0822 126.492 40.0498 126.655 39.9204C127.24 39.4675 127.955 39.4028 128.67 39.3057C129.027 39.241 129.352 39.3381 129.547 39.694C129.775 40.1469 130.165 40.341 130.652 40.4057C130.782 40.4381 130.88 40.4381 131.01 40.4704C131.237 40.5351 131.335 40.6969 131.27 40.891C131.172 41.1175 131.01 41.3116 130.815 41.441C130.555 41.6028 130.23 41.6675 130.002 41.8616C129.58 42.1851 129.19 42.1528 128.767 41.9263C128.182 41.6028 127.565 41.5704 126.915 41.6351C126.687 41.6675 126.427 41.6028 126.232 41.5057C125.94 41.344 125.712 41.3763 125.452 41.5057C125.257 41.6351 125.062 41.7645 124.867 41.8939C124.77 41.9587 124.607 42.0234 124.51 41.991C124.282 41.8939 124.152 41.6998 124.12 41.441C124.087 41.2145 124.185 41.0204 124.412 40.9234C124.542 40.8587 124.737 40.8587 124.867 40.794C124.997 40.7293 125.127 40.6322 125.225 40.5351C125.095 40.4381 124.997 40.2763 124.867 40.244C124.705 40.1793 124.477 40.2116 124.282 40.1793C123.534 40.0498 122.819 39.9528 122.072 39.8234C121.649 39.7587 121.324 39.8557 121.097 40.2116C120.967 40.3734 120.869 40.5675 120.739 40.7292C120.609 40.9234 120.479 40.9881 120.252 40.8263C119.959 40.6322 119.634 40.6645 119.342 40.8263C119.147 40.9234 119.049 41.0851 119.179 41.2792C119.407 41.6675 119.764 41.8939 120.187 41.991C120.544 42.0557 120.739 41.8292 120.934 41.6028C121.162 41.3116 121.454 41.344 121.649 41.6675C121.747 41.8292 121.812 42.0234 121.909 42.2175C122.072 42.6057 122.364 42.7998 122.787 42.7675C122.949 42.7675 123.079 42.7351 123.242 42.7351C123.567 42.7998 123.892 42.8322 124.185 42.9292C124.445 43.0263 124.412 43.2528 124.185 43.3822C124.022 43.4792 123.827 43.5116 123.664 43.5763C123.014 43.7704 122.364 43.9322 121.747 44.1263C121.259 44.288 121.259 44.4175 121.454 44.8704C121.584 45.1292 121.519 45.3557 121.292 45.5174C121.064 45.6792 120.804 45.6469 120.609 45.4527C120.447 45.2586 120.219 45.2263 119.992 45.3233C119.764 45.4204 119.732 45.6469 119.764 45.8733C119.797 46.0027 119.829 46.0998 119.894 46.1968C120.187 46.6821 120.609 47.0057 121.162 47.1351C121.584 47.2321 121.974 47.1674 122.267 46.8116C122.527 46.488 122.884 46.2616 123.307 46.1968C123.827 46.1321 124.185 46.2292 124.25 46.7468C124.282 46.9086 124.315 47.1027 124.38 47.2645C124.477 47.5557 124.64 47.588 124.867 47.3615C124.965 47.2645 125.062 47.1027 125.16 47.0057C125.387 46.7145 125.55 46.7468 125.712 47.0704C125.777 47.1998 125.842 47.3292 125.875 47.4586C126.005 47.9115 126.265 48.2351 126.622 48.5262C127.11 48.9145 127.565 48.9468 128.085 48.688C128.182 48.6233 128.312 48.5586 128.41 48.5586C128.507 48.5262 128.637 48.5262 128.735 48.5909C128.995 48.7851 129.19 48.6557 129.385 48.4615C129.482 48.3645 129.58 48.2351 129.677 48.138C129.872 47.9762 130.035 47.8145 130.262 47.7174C130.782 47.4586 131.335 47.8145 131.465 48.4615C131.53 48.7527 131.627 48.9468 131.92 49.0439C132.017 49.0762 132.115 49.2056 132.212 49.3027C132.375 49.3674 132.375 49.4645 132.375 49.5292ZM119.439 48.9145C119.537 49.3674 119.829 49.3998 120.122 49.3351C120.382 49.2704 120.642 49.1733 120.869 49.0439C121.162 48.8821 121.194 48.7204 120.934 48.4939C120.577 48.2027 120.187 47.8792 119.764 47.7174C119.244 47.5233 118.984 47.1998 118.822 46.7468C118.757 46.6174 118.692 46.488 118.659 46.3586C118.432 45.7116 117.944 45.3557 117.359 45.0969C116.612 44.7733 116.319 45.0969 116.124 45.7763C116.124 45.841 116.124 45.9057 116.092 45.938C115.962 46.0998 115.897 46.3263 115.702 46.4233C115.507 46.5527 115.376 46.3263 115.279 46.1645C115.116 45.938 114.954 45.9057 114.694 46.0351C114.239 46.2616 113.979 46.7468 114.044 47.2645C114.076 47.588 114.239 47.6851 114.564 47.6204C114.921 47.5557 115.051 47.7174 114.954 48.041C114.921 48.138 114.856 48.2674 114.759 48.3321C114.564 48.4939 114.564 48.688 114.661 48.8821C114.856 49.2056 115.084 49.4968 115.311 49.788C115.572 50.1115 115.767 50.1115 116.059 49.788C116.157 49.6586 116.254 49.5292 116.287 49.3674C116.352 49.1409 116.482 49.0115 116.709 49.0762C117.164 49.2056 117.652 49.3351 118.074 49.4968C118.432 49.6262 118.529 49.6586 118.822 49.3674C119.082 49.2704 119.212 49.1086 119.439 48.9145ZM85.7997 39.0146C85.7997 38.7881 85.8322 38.594 85.8322 38.3999C85.8322 38.141 85.9622 37.9793 86.1573 37.8499C86.5473 37.6234 86.9373 37.3969 87.3273 37.1705C87.6523 36.9763 87.9449 36.7175 88.0749 36.3293C88.1724 35.9734 88.1399 35.8764 87.7824 35.7469C87.4898 35.6175 87.1648 35.5205 86.8723 35.3911C86.5798 35.2617 86.3848 35.0352 86.4173 34.7117C86.4173 34.3558 86.2223 34.2264 85.9622 34.194C85.5072 34.1293 85.0522 34.097 84.5972 34.0646C84.2396 34.0323 83.8821 33.9999 83.6546 33.6764C83.5896 33.5793 83.3621 33.4499 83.3621 33.4823C83.2321 33.6117 83.1021 33.7411 83.0696 33.9028C82.9721 34.3881 83.1996 34.7117 83.6871 34.8411C83.9146 34.9058 84.0121 35.0352 83.9146 35.2617C83.8171 35.5205 83.7521 35.7469 83.6546 36.0058C83.5896 36.1999 83.6546 36.3293 83.8496 36.4263C83.9796 36.4911 84.1421 36.5558 84.2721 36.6528C84.4672 36.8469 84.6622 36.8146 84.8897 36.6852C85.0522 36.5881 85.1822 36.4587 85.3772 36.394C85.4422 36.3616 85.5397 36.394 85.6372 36.394C85.6372 36.4911 85.6697 36.5881 85.6372 36.6528C85.5397 36.8146 85.4422 36.944 85.3122 37.0734C84.6947 37.7205 84.9547 38.691 85.7997 39.0146ZM81.6395 63.0202C81.6395 63.6026 81.8995 63.9908 82.387 64.2496C82.8421 64.4761 83.2321 64.379 83.5896 64.0555C83.6546 63.9908 83.7521 63.9261 83.8171 63.8937C84.0121 63.732 84.2071 63.6996 84.4347 63.829C84.6622 63.9585 84.8897 64.1202 85.1172 64.2496C85.2797 64.3467 85.5072 64.4437 85.6697 64.379C86.1248 64.282 86.4823 64.0232 86.7423 63.6349C87.0673 63.1173 87.0023 62.7291 86.4498 62.5026C86.0273 62.3085 85.5397 62.1791 85.0522 62.1144C84.4347 62.0496 83.7846 61.9849 83.2321 62.4702C83.1346 62.5349 82.9071 62.5026 82.7771 62.4379C82.582 62.3408 82.387 62.1791 82.192 62.0497C82.0295 61.9526 81.867 61.8232 81.672 61.9526C81.477 62.082 81.4445 62.3085 81.5095 62.5349C81.542 62.7614 81.607 62.9232 81.6395 63.0202ZM70.5888 39.5969C70.0688 39.5969 69.8738 39.8881 70.1013 40.2763C70.1663 40.4057 70.2638 40.5028 70.3288 40.6322C70.4588 40.8263 70.5238 41.0528 70.6538 41.2145C70.7513 41.344 70.8489 41.5381 70.9789 41.6028C71.2714 41.7322 71.5964 41.8616 71.9214 41.8939C72.4414 41.9587 72.864 42.0881 73.2215 42.5086C73.319 42.6381 73.4815 42.7028 73.6115 42.7675C73.839 42.8645 74.0665 42.7998 74.2291 42.6704C74.3916 42.5086 74.2941 42.3469 74.2291 42.1851C74.099 41.8939 74.099 41.6028 74.3266 41.344C74.5866 41.0528 74.1966 40.1146 73.8065 40.0498C73.644 40.0175 73.4815 40.0498 73.3515 40.1146C73.2215 40.1469 73.124 40.244 72.994 40.341C72.604 40.5998 72.3114 40.4704 72.2139 40.0175C72.1814 39.8557 72.1164 39.7263 72.0514 39.5969C71.9539 39.4351 71.7589 39.3704 71.6289 39.5322C71.4014 39.7587 71.1414 39.7263 70.8814 39.694C70.7513 39.6293 70.6538 39.5969 70.5888 39.5969ZM89.4725 62.1467C89.4725 62.5996 89.6025 62.9232 90.0575 63.1173C90.415 63.279 90.7075 63.5702 90.9675 63.829C91.1951 64.0232 91.3901 64.1526 91.6501 64.0232C92.1051 63.7967 92.5601 63.5055 93.0152 63.2143C93.1127 63.1496 93.1777 62.9555 93.1452 62.8585C92.9502 62.2761 92.7226 61.6938 92.0726 61.4673C91.5201 61.2408 90.9025 61.1761 90.3175 61.2085C89.6025 61.2732 89.505 61.3702 89.4725 62.1467ZM72.799 63.0526C73.579 63.1173 73.839 63.182 74.164 62.3085C74.2616 62.0173 74.5541 61.8879 74.8466 61.8232C75.0416 61.7908 75.1391 61.9202 75.2691 62.0497C75.4316 62.2438 75.5941 62.4055 75.7891 62.5026C75.9842 62.5996 76.2442 62.632 76.4717 62.6967C76.8942 62.7938 77.2192 62.9879 77.5117 63.3114C77.7718 63.6349 77.7068 63.9585 77.3167 64.1202C77.2192 64.1526 77.0892 64.1849 77.0242 64.2496C76.8292 64.379 76.7967 64.5085 77.0242 64.6055C77.2192 64.6702 77.4467 64.7349 77.6418 64.7349C77.9993 64.7673 78.3568 64.7673 78.7143 64.7996C79.1043 64.832 79.4944 64.832 79.8844 64.832C79.9494 64.832 80.1119 64.7026 80.0794 64.6379C80.0794 64.5732 79.9819 64.4761 79.8844 64.4114C79.7219 64.3143 79.4944 64.2496 79.3319 64.1202C78.9743 63.8614 78.6168 63.5702 78.2593 63.3114C77.6743 62.8908 77.0567 62.5026 76.6342 61.8555C76.5042 61.6291 76.3092 61.4349 76.1142 61.2732C75.6591 60.7879 75.3666 60.7879 74.7816 61.1114C74.6191 61.2085 74.4566 61.3379 74.2616 61.3702C73.904 61.4349 73.6765 61.6291 73.644 61.9526C73.579 62.3408 73.384 62.4702 73.059 62.5026C72.864 62.632 72.7665 62.7938 72.799 63.0526ZM76.5042 60.7555C76.9592 60.7555 77.0567 60.6261 76.9592 60.2055C76.8942 59.9467 76.7967 59.6879 76.7317 59.4291C76.6667 59.235 76.6017 59.0085 76.6342 58.8144C76.6667 58.5879 76.6017 58.3938 76.4392 58.2644C76.1142 57.9732 75.7566 57.7144 75.3991 57.4879C75.1391 57.3262 74.8466 57.3585 74.7166 57.6173C74.4891 57.9732 74.2291 58.232 73.8065 58.3291C73.6115 58.3614 73.4815 58.8144 73.5465 59.0085C73.644 59.2673 73.839 59.1056 73.969 59.0732C74.1966 59.0085 74.2941 59.1056 74.2941 59.2997C74.2941 59.6879 74.4891 59.8497 74.8141 59.9467C74.9766 59.9791 75.1391 60.0438 75.2366 60.1732C75.5616 60.6261 76.0492 60.6908 76.5042 60.7555ZM80.4369 61.4349C80.4044 61.0144 80.3719 60.6908 80.3719 60.3673C80.3394 60.0114 80.2094 59.7203 79.9819 59.4614C79.7544 59.2026 79.5594 58.9114 79.3319 58.6203C79.1043 58.2967 78.8768 58.2644 78.6168 58.5556C78.4543 58.7173 78.3243 58.9438 78.1618 59.1056C77.7393 59.4938 77.7393 59.5261 77.9993 60.0114C78.2593 60.4967 78.5193 60.9497 78.6168 61.4997C78.6493 61.6291 78.7468 61.7585 78.8443 61.8879C79.1043 62.1791 79.4619 62.2761 79.8194 62.4055C80.0794 62.5026 80.2419 62.3732 80.3069 62.1467C80.3719 61.8879 80.4044 61.6291 80.4369 61.4349ZM104.261 60.7555C104.553 60.6585 104.878 60.6261 105.171 60.4967C105.626 60.3026 105.658 60.0114 105.301 59.6879C105.236 59.6232 105.171 59.5585 105.073 59.5261C104.521 59.1379 103.968 58.8144 103.806 58.1026C103.741 57.8438 103.383 57.8115 103.253 58.0379C102.993 58.5879 102.506 58.8144 102.018 59.0732C101.758 59.235 101.498 59.3967 101.271 59.6232C101.206 59.6879 101.173 59.9144 101.206 60.0114C101.271 60.1085 101.433 60.1732 101.563 60.2055C101.661 60.2379 101.758 60.1732 101.823 60.1732C102.246 60.0761 102.636 60.0761 103.026 60.2379C103.253 60.335 103.481 60.4644 103.741 60.5614C103.903 60.5938 104.066 60.6585 104.261 60.7555ZM89.7 57.6497C89.7 57.682 89.7325 57.682 89.7325 57.7144C90.415 57.7467 90.5775 57.5526 90.415 56.9056C90.3825 56.7762 90.35 56.6144 90.285 56.5173C90.155 56.3232 89.9925 56.1291 89.7975 55.9997C89.6025 55.8703 89.57 55.7732 89.7 55.6115C89.7975 55.4821 89.9275 55.3526 89.9925 55.2232C90.0575 55.0938 90.1225 54.8674 90.0575 54.7703C89.96 54.6409 89.765 54.5115 89.6025 54.4791C89.4725 54.4468 89.2774 54.5438 89.1799 54.6409C88.6924 55.0615 88.3024 55.5791 88.0749 56.1938C87.9449 56.5497 88.3674 57.7791 88.6274 58.0056C88.7899 58.135 88.9199 58.0703 89.0824 57.9732C89.2774 57.8438 89.505 57.7467 89.7 57.6497ZM94.7378 65.6084C94.7053 65.6084 94.7053 65.6084 94.6728 65.6408C94.8028 65.9643 94.9003 66.3202 95.0628 66.6437C95.3553 67.1614 95.9728 67.2908 96.4604 66.9673C96.8504 66.6761 97.1104 66.2878 97.2729 65.8673C97.5004 65.3496 97.4029 65.0584 96.9804 64.7349C96.7529 64.5408 96.4929 64.379 96.2654 64.2173C95.9403 63.9908 95.7453 64.0232 95.5178 64.3467C95.3878 64.5084 95.2903 64.7026 95.1278 64.8643C94.8353 65.0261 94.7053 65.2849 94.7378 65.6084ZM70.1663 33.1587C69.8738 33.1587 69.7438 33.2881 69.6788 33.6117C69.6138 33.9352 69.7438 34.1293 69.9713 34.2264C70.1013 34.2911 70.2313 34.4205 70.2963 34.5499C70.3613 34.647 70.3938 34.8087 70.4263 34.9381C70.6213 35.3587 70.9139 35.3911 71.2064 35.0675C71.3689 34.9058 71.4989 34.7117 71.6939 34.6793C72.3114 34.5499 72.7015 34.1293 73.0915 33.6764C73.2865 33.4499 73.2865 33.1911 73.0915 32.9646C72.8315 32.6411 72.3114 32.5117 71.9214 32.7058C71.7264 32.8029 71.5639 32.8999 71.4014 33.0293C71.1089 33.2881 70.7838 33.3852 70.4263 33.1911C70.3288 33.1911 70.2313 33.1587 70.1663 33.1587ZM111.931 48.4292C112.126 48.2674 112.256 48.1704 112.354 48.041C112.451 47.9115 112.581 47.7174 112.549 47.6204C112.484 47.491 112.289 47.3939 112.126 47.3939C111.736 47.3292 111.346 47.4586 111.021 47.6851C110.469 48.0086 110.469 48.1704 110.989 48.5262C111.184 48.6557 111.346 48.7851 111.346 49.0762C111.346 49.4321 111.541 49.7233 111.834 49.9174C112.029 50.0468 112.256 50.2086 112.451 50.338C112.906 50.5968 113.069 50.5321 113.264 50.0468C113.459 49.5615 113.459 49.5615 113.979 49.6909C114.336 49.788 114.629 49.6262 114.694 49.3351C114.726 49.1409 114.694 49.0115 114.466 49.0439C114.401 49.0439 114.336 49.0762 114.271 49.0762C113.881 49.0762 113.459 49.1733 113.069 48.9792C113.199 48.7204 113.069 48.6233 112.841 48.6233C112.711 48.6233 112.581 48.5909 112.451 48.5909C112.289 48.4939 112.159 48.4615 111.931 48.4292ZM85.3122 57.5526C85.7022 57.6173 85.8322 57.5203 85.8322 57.132C85.8322 56.6468 85.6697 56.2585 85.2797 55.9674C85.0522 55.7732 84.7922 55.7409 84.4997 55.9026C84.3046 55.9997 84.0771 56.0644 83.8496 56.1291C83.4921 56.2585 83.1671 56.3556 82.8096 56.485C82.582 56.582 82.5495 56.7438 82.647 56.9703C82.8096 57.3585 83.0371 57.7144 83.3946 57.9732C83.6546 58.1997 83.9796 58.2644 84.2721 58.1026C84.4997 58.0056 84.6947 57.8438 84.8897 57.7467C85.0522 57.6497 85.1822 57.6173 85.3122 57.5526ZM75.9517 48.6556C76.3742 48.6556 76.6667 48.4615 76.6992 48.041C76.7317 47.6204 76.9592 47.3292 77.2842 47.0704C77.4467 46.941 77.5768 46.8116 77.7068 46.6821C77.8693 46.488 77.8368 46.2939 77.6093 46.0998C77.4142 45.938 77.2517 46.0351 77.1217 46.1968C76.9917 46.3586 76.9267 46.5204 76.7967 46.6821C76.7317 46.7468 76.6342 46.8763 76.5367 46.8763C76.2117 46.8439 76.0167 47.038 75.8216 47.2645C75.4641 47.6851 75.3016 47.6851 74.9441 47.2645C74.7491 47.038 74.5541 46.8116 74.3266 46.6174C74.2291 46.5527 74.034 46.5204 73.904 46.5851C73.839 46.6174 73.8065 46.8439 73.839 46.941C73.9365 47.2321 73.904 47.491 73.8065 47.7498C73.7415 47.9115 73.709 48.041 73.6765 48.2027C73.644 48.2998 73.644 48.4615 73.709 48.5262C73.774 48.5909 73.969 48.6233 74.0665 48.5909C74.2616 48.4939 74.4566 48.3645 74.6191 48.2351C74.9116 47.9439 75.1066 47.9439 75.3016 48.2998C75.4316 48.5586 75.7241 48.6233 75.9517 48.6556ZM104.228 46.8116C104.228 47.1027 104.391 47.2645 104.683 47.1674C104.781 47.1351 104.911 47.1027 105.008 47.038C105.366 46.8439 105.756 46.6498 106.211 46.8116C106.243 46.8116 106.276 46.8116 106.308 46.8116C106.471 46.7145 106.536 46.8116 106.601 46.941C106.698 47.1998 106.796 47.4586 106.958 47.6851C107.121 47.8792 107.316 48.0733 107.544 48.2027C107.641 48.2674 107.869 48.2027 107.966 48.1057C108.031 48.0733 107.999 47.8792 107.966 47.7498C107.901 47.588 107.804 47.4263 107.739 47.2321C107.576 46.8439 107.381 46.488 107.251 46.0998C107.088 45.6469 106.893 45.4527 106.406 45.5174C106.048 45.5498 105.691 45.6145 105.366 45.6469C104.813 45.7116 104.228 46.2939 104.228 46.8116ZM88.8224 39.5322C89.0174 39.241 89.2449 38.9822 89.4074 38.7234C89.635 38.3352 89.5375 38.0763 89.1149 38.0116C88.6599 37.9469 88.1724 37.8822 87.7174 37.9146C87.0348 37.9146 87.0998 38.141 87.1973 38.6587C87.2298 38.8204 87.3273 38.8852 87.4898 38.8528C87.5548 38.8204 87.6523 38.7881 87.7174 38.8204C87.9124 38.8528 88.1074 38.9175 88.3024 38.9822C88.2374 39.144 88.2374 39.3381 88.1399 39.4675C87.6848 40.2116 87.8799 40.9234 88.8224 41.441C89.1474 41.0204 89.1474 40.1469 88.8224 39.5322ZM96.1028 51.1145C96.2654 51.1145 96.4279 51.1145 96.5904 51.0821C97.1429 50.985 97.6304 51.0821 98.053 51.535C98.183 51.6644 98.313 51.7939 98.4755 51.8586C98.833 52.0203 99.1255 51.8262 99.093 51.438C99.0605 51.0821 98.898 50.7909 98.5405 50.6292C98.443 50.5968 98.2805 50.5645 98.183 50.6292C97.988 50.7262 97.858 50.6615 97.7604 50.5321C97.5979 50.3056 97.4679 50.0792 97.3054 49.8527C97.0454 49.4645 96.7204 49.3998 96.3304 49.6586C96.0703 49.8203 95.8428 50.0468 95.6803 50.2733C95.5503 50.4674 95.3878 50.7262 95.4528 50.9203C95.4853 51.1792 95.8428 51.1145 96.1028 51.1145C96.0703 51.1145 96.1028 51.1145 96.1028 51.1145ZM84.0446 45.9704C84.1746 46.0674 84.3046 46.1321 84.4022 46.2616C84.7922 46.7145 85.2147 46.6174 85.6697 46.4233C85.9622 46.2939 86.2548 46.1968 86.5798 46.1321C86.8723 46.0998 87.0348 45.9704 87.0998 45.7116C87.1648 45.4204 87.1973 45.1292 87.1973 44.838C87.2298 44.4498 87.1323 44.3851 86.7748 44.5145C86.7098 44.5469 86.6448 44.5792 86.5798 44.6116C86.1248 44.741 85.6697 44.838 85.2472 44.9674C85.0197 45.0322 84.8247 45.1292 84.6622 45.291C84.4347 45.4851 84.2721 45.7116 84.0446 45.9704ZM93.6652 36.2322C93.6327 36.2322 93.5677 36.2646 93.5352 36.2646C93.5352 36.5558 93.5027 36.8793 93.5027 37.1705C93.5027 37.4616 93.5027 37.7528 93.1452 37.8499C93.0477 37.8822 92.9502 38.0116 92.9502 38.1087C92.9502 38.2704 93.0152 38.4322 93.1127 38.5616C93.2427 38.691 93.3727 38.594 93.4702 38.4646C93.6327 38.3028 93.7952 38.3675 93.8927 38.5293C93.9577 38.6263 93.9577 38.7557 94.0227 38.8204C94.0877 38.9175 94.1852 39.0469 94.2827 39.0469C94.4127 39.0469 94.5428 38.9822 94.6403 38.8852C94.7053 38.8204 94.7053 38.691 94.7378 38.594C94.8353 38.3999 94.9653 38.2057 95.0953 38.044C95.1928 37.9469 95.3553 37.8822 95.4528 37.7852C95.5503 37.6557 95.7128 37.494 95.7128 37.3646C95.6803 37.2352 95.4853 37.1381 95.3228 37.0734C94.9653 36.9116 94.6078 36.7499 94.2827 36.5881C94.0552 36.4911 93.8602 36.3616 93.6652 36.2322ZM75.9192 42.2822C75.3016 42.2822 75.0416 42.4439 74.8791 42.9292C74.7491 43.3175 74.8791 43.641 75.3016 43.9322C75.5616 44.1263 75.8541 44.2557 76.1467 44.3851C76.5367 44.5792 76.7317 44.5145 76.8292 44.0616C76.8942 43.738 76.9917 43.4469 77.1867 43.1557C77.4142 42.8645 77.2192 42.4439 76.8617 42.3792C76.5367 42.3469 76.1792 42.3145 75.9192 42.2822ZM105.041 39.2087C105.041 39.1763 105.008 39.144 105.008 39.1116C104.878 39.1116 104.748 39.0793 104.651 39.1116C104.456 39.144 104.261 39.1763 104.066 39.2087C103.871 39.241 103.708 39.2087 103.513 39.241C103.221 39.3057 103.058 39.4999 103.091 39.791C103.123 40.244 103.253 40.6969 103.611 41.0528C104.001 41.4734 104.293 41.5057 104.813 41.2469C105.008 41.1498 105.236 41.0204 105.431 40.9234C105.528 40.8587 105.658 40.8263 105.756 40.794C105.691 40.6645 105.658 40.5351 105.561 40.4381C105.463 40.3087 105.301 40.244 105.171 40.1469C105.008 40.0498 104.878 39.9528 104.716 39.8557C104.488 39.694 104.488 39.5646 104.748 39.4351C104.813 39.3704 104.943 39.2734 105.041 39.2087ZM116.417 62.1144C116.709 61.9526 116.937 61.7908 117.197 61.6291C117.262 61.5644 117.327 61.4673 117.327 61.3702C117.392 61.1114 117.392 60.8202 117.457 60.5614C117.522 60.2379 117.457 60.1085 117.132 60.0761C116.904 60.0438 116.709 59.9791 116.579 59.785C116.189 59.2673 115.669 59.332 115.376 59.9144C115.409 59.9467 115.441 59.9791 115.441 59.9791C115.767 60.1732 115.929 60.432 115.897 60.8526C115.864 61.3379 116.092 61.7585 116.417 62.1144ZM100.751 62.0173C100.751 62.4055 100.978 62.7614 101.303 62.8261C101.563 62.8908 101.888 62.6967 102.051 62.3732C102.278 61.9849 102.603 61.8555 103.026 62.0173C103.351 62.1467 103.448 62.1144 103.578 61.7908C103.643 61.6614 103.676 61.4997 103.708 61.3379C103.773 60.9173 103.643 60.8202 103.253 60.9497C102.831 61.1114 102.441 61.3055 102.051 61.4349C101.921 61.4997 101.726 61.4997 101.563 61.4349C101.043 61.2732 100.751 61.4349 100.751 62.0173ZM119.504 59.6556C119.309 59.1703 119.114 58.7173 118.887 58.2644C118.822 58.1026 118.659 58.1026 118.529 58.232C118.399 58.3938 118.269 58.5556 118.172 58.7173C118.042 58.9438 117.912 59.1056 117.652 59.2026C117.359 59.2673 117.327 59.4938 117.424 59.6879C117.489 59.8497 117.619 60.0114 117.782 60.1408C117.944 60.2703 118.139 60.3673 118.334 60.4967C118.594 60.6585 118.659 60.6585 118.757 60.3673C118.854 60.1408 118.952 59.9791 119.212 59.9144C119.342 59.9144 119.407 59.785 119.504 59.6556ZM69.3538 40.8587C68.7037 40.8587 68.5087 41.1498 68.6712 41.5704C68.7687 41.8939 68.9312 42.1851 69.0938 42.4763C69.2888 42.9292 69.8088 43.091 70.2638 42.8969C70.4588 42.7998 70.5563 42.7028 70.4913 42.4763C70.3938 42.1204 70.2638 41.7969 70.1663 41.441C70.0038 41.0204 69.6463 40.891 69.3538 40.8587ZM92.1701 37.9793H92.2026C92.1376 37.7528 92.1051 37.5263 91.9751 37.3322C91.7801 37.0087 91.2926 37.0087 91.1626 37.2999C91 37.591 90.8375 37.8822 90.7075 38.1734C90.61 38.4322 90.48 38.7234 90.48 39.0146C90.48 39.3704 90.805 39.4675 91.0976 39.2734C91.2926 39.144 91.5526 39.0469 91.7476 38.9175C91.8776 38.8204 92.0401 38.7234 92.0726 38.594C92.1701 38.3999 92.1376 38.1734 92.1701 37.9793ZM90.9025 48.3645C90.74 48.4292 90.5125 48.4292 90.35 48.5586C90.22 48.6557 90.1875 48.8821 90.155 49.0439C90.155 49.1086 90.2525 49.2704 90.3175 49.2704C90.7075 49.3674 90.9675 49.6262 91.1951 49.9498C91.3576 50.2086 91.5201 50.2086 91.7151 49.9821C91.9426 49.6909 92.1051 49.3998 92.2676 49.1086C92.4301 48.7851 92.3651 48.6233 92.0076 48.5586C91.6826 48.4615 91.3251 48.4292 90.9025 48.3645ZM92.5276 46.4233C92.3651 46.5204 92.1701 46.5851 92.1051 46.7145C92.0401 46.8115 92.0726 47.038 92.1701 47.1351C92.3651 47.4263 92.5926 47.7174 92.7877 48.0086C92.9177 48.2351 93.1127 48.2998 93.3727 48.2351C93.7627 48.1057 93.9577 47.8145 94.0552 47.4586C94.1527 47.1351 94.0877 46.8763 93.7627 46.7468C93.3402 46.6174 92.9502 46.5204 92.5276 46.4233ZM100.816 41.7969C100.816 42.0881 100.816 42.3145 100.816 42.541C100.816 42.6381 100.913 42.7675 100.946 42.8645C101.043 42.7998 101.206 42.7675 101.271 42.6704C101.661 42.2498 101.693 41.7645 101.531 41.2469C101.401 40.8587 101.238 40.8263 100.913 41.0528C100.718 41.1822 100.523 41.2792 100.328 41.3763C99.9381 41.5057 99.5155 41.6028 99.093 41.7322C98.963 41.7645 98.8655 41.8616 98.768 41.9263C98.573 42.0557 98.703 42.2175 98.8005 42.3469C98.9305 42.5086 98.9955 42.4116 99.1255 42.3145C99.223 42.2175 99.353 42.1204 99.483 42.1204C99.9056 42.1851 100.231 42.0557 100.556 41.8292C100.621 41.8616 100.686 41.8616 100.816 41.7969ZM72.0189 62.8585C72.0189 62.8261 72.0189 62.8261 71.9864 62.7938C71.5964 62.9232 71.1739 63.0202 70.8163 63.182C70.3938 63.3761 70.1663 63.8937 70.2638 64.3467C70.3288 64.7026 70.4588 64.832 70.7513 64.832C71.1739 64.832 71.5314 64.5732 71.5314 64.2496C71.5314 63.8937 71.6939 63.6673 71.9539 63.4732C72.0839 63.3761 72.1814 63.2791 72.2789 63.182C72.4414 63.0202 72.3764 62.8908 72.1489 62.8585C72.1164 62.8585 72.0839 62.8585 72.0189 62.8585ZM101.986 35.9734C102.083 35.9411 102.278 35.8764 102.441 35.7793C102.733 35.6175 102.961 35.4234 103.253 35.2293C103.448 35.0999 103.513 34.9381 103.416 34.7764C103.286 34.4852 103.123 34.2264 102.961 33.9675C102.863 33.7734 102.668 33.7411 102.473 33.8058C102.278 33.8705 102.083 34.0323 102.148 34.2587C102.213 34.5822 102.051 34.8411 101.856 35.0675C101.758 35.1969 101.661 35.3264 101.563 35.4881C101.466 35.7146 101.628 35.9411 101.986 35.9734ZM110.274 46.0998C110.144 45.841 110.046 45.5821 109.884 45.3557C109.689 45.0969 109.559 45.1292 109.429 45.4204C109.266 45.8086 109.104 46.2292 108.941 46.6174C108.876 46.8116 108.811 47.038 108.779 47.2321C108.714 47.5557 108.909 47.7498 109.331 47.8145C109.591 47.8468 109.721 47.7498 109.786 47.4263C109.819 47.2321 109.916 47.0704 109.981 46.8763C110.046 46.6498 110.144 46.391 110.274 46.0998ZM61.9758 53.735C61.9758 53.5409 61.9433 53.3791 61.7158 53.4115C61.5208 53.4115 61.3258 53.3791 61.1308 53.3791C60.9683 53.3468 60.7733 53.2821 60.6107 53.3144C60.5132 53.3144 60.3182 53.4762 60.3182 53.5409C60.3507 53.8321 60.1557 53.9291 59.9932 54.0909C59.7332 54.3497 59.7657 54.4144 60.0907 54.5438C60.3832 54.6409 60.6432 54.7703 60.9033 54.9321C61.1308 55.0615 61.2933 55.0291 61.4558 54.8674C61.7808 54.5115 61.9108 54.0909 61.9758 53.735ZM62.9184 50.0468C62.5934 50.1115 62.3333 50.1439 62.1058 50.2086C61.7808 50.3056 61.7158 50.4998 61.8458 50.8233C61.9758 51.1145 62.1708 51.2439 62.4959 51.3086C63.0484 51.3733 63.5684 51.2762 64.0234 51.0174C64.1535 50.9527 64.316 50.7909 64.316 50.6939C64.316 50.5645 64.1535 50.4027 64.0234 50.3703C63.6334 50.2086 63.2434 50.1115 62.9184 50.0468ZM99.223 60.7232C99.4831 60.7555 99.6456 60.5614 99.5481 60.335C99.3855 59.9144 99.158 59.4938 98.9305 59.1056C98.768 58.8467 98.573 58.8791 98.378 59.1056C98.0855 59.4938 97.8255 59.882 97.5654 60.2703C97.4354 60.4644 97.5004 60.5614 97.7279 60.5938C98.2155 60.6585 98.703 60.6908 99.223 60.7232ZM92.3326 57.1968C92.3326 57.2615 92.3326 57.3262 92.3326 57.3585C92.3651 57.5526 92.3976 57.7467 92.4626 57.9409C92.5601 58.3291 92.7551 58.3614 93.0802 58.1673C93.3727 58.0056 93.6652 57.8762 93.9577 57.7144C94.0877 57.6497 94.2827 57.4879 94.2827 57.3909C94.2827 57.2615 94.1202 57.0997 94.0227 57.0026C93.8602 56.8732 93.6652 56.8409 93.5027 56.7115C93.2427 56.4526 92.9502 56.5497 92.6576 56.6468C92.3976 56.7438 92.3651 56.9703 92.3326 57.1968ZM72.3114 49.2704C72.604 49.238 72.7665 49.1086 72.7665 48.8174C72.7665 48.5262 72.8315 48.2998 72.994 48.0733C73.124 47.9115 73.189 47.7174 73.0265 47.5557C72.8315 47.3939 72.7015 47.5557 72.5715 47.6527C72.3114 47.8468 72.0514 48.0086 71.6614 48.0086C71.5314 48.0086 71.3689 48.041 71.3039 48.138C71.1739 48.2674 71.0439 48.4292 71.0439 48.5909C71.0439 48.7204 71.1739 48.9468 71.3039 48.9792C71.6289 49.0762 71.9864 49.1409 72.3114 49.2704ZM90.9675 47.6851C91.1951 47.6851 91.5526 47.3939 91.5526 47.0057C91.5526 46.8439 91.4226 46.6498 91.3251 46.488C91.2926 46.4557 91.0651 46.5204 90.935 46.6174C90.675 46.7468 90.4475 46.7145 90.22 46.5527C89.7325 46.1645 89.4725 46.391 89.3424 46.941C89.3099 47.038 89.2774 47.1351 89.3099 47.1998C89.3424 47.2968 89.4075 47.4586 89.505 47.4586C89.9275 47.5557 90.35 47.588 90.9675 47.6851ZM96.9154 45.5174C96.9154 45.4527 96.8829 45.3233 96.8504 45.1939C96.7529 44.838 96.5254 44.7733 96.2654 45.0322C96.0378 45.2586 95.8428 45.5174 95.6803 45.7763C95.4528 46.1321 95.2253 46.3263 94.7703 46.1321C94.6078 46.0674 94.3802 46.0998 94.3477 46.2939C94.3152 46.488 94.2502 46.7468 94.3477 46.8763C94.4778 47.038 94.7703 47.038 94.9328 46.8763C95.3553 46.488 95.9078 46.3263 96.4604 46.1645C96.8179 46.0674 96.9154 45.9704 96.9154 45.5174ZM84.4997 31.7029C84.2396 31.8323 84.0446 31.9293 83.8496 32.0587C83.7846 32.0911 83.7521 32.2852 83.8171 32.3823C83.8496 32.447 84.0121 32.4793 84.1096 32.4793C84.4022 32.4793 84.6622 32.447 84.9547 32.447C85.2147 32.447 85.4097 32.5764 85.4747 32.8352C85.5072 32.997 85.6047 33.1587 85.6697 33.2881C85.7672 33.4499 85.9297 33.4823 86.0923 33.3852C86.5148 33.1264 86.5148 32.4793 86.0923 32.2529C85.5722 32.0264 85.0197 31.897 84.4997 31.7029ZM86.9048 51.0497C86.8073 50.888 86.7423 50.6939 86.6123 50.5645C86.2223 50.2409 85.1497 50.2733 84.7922 50.6292C84.5322 50.8556 84.5647 51.1792 84.8247 51.3409C85.1172 51.535 85.4097 51.5997 85.7347 51.438C85.9948 51.3086 86.2548 51.1792 86.5473 51.3086C86.7423 51.3409 86.8723 51.2439 86.9048 51.0497ZM70.8814 36.4263C70.8814 35.844 70.7188 35.7469 70.1663 35.9411C70.1013 35.9734 70.0363 35.9734 69.9713 36.0058C69.2888 36.2969 69.1588 37.0087 69.6788 37.5263C69.7438 37.591 69.9063 37.6234 70.0038 37.591C70.6213 37.4616 70.8814 37.0734 70.8814 36.4263ZM94.3802 60.1085C94.8678 60.1085 95.0953 59.785 94.9978 59.4614C94.8678 59.0085 94.5103 58.7497 94.0877 58.5556C93.9252 58.4909 93.8277 58.5556 93.7627 58.7173C93.6977 58.9114 93.5677 59.1056 93.4702 59.2997C93.3077 59.5585 93.3077 59.7203 93.6002 59.8497C93.8927 59.9791 94.2177 60.0438 94.3802 60.1085ZM104.098 42.5086C103.936 42.5086 103.741 42.5086 103.578 42.5086C103.416 42.5086 103.188 42.4763 103.188 42.6704C103.188 42.8645 103.318 43.1881 103.448 43.2528C103.806 43.4145 104.196 43.3498 104.553 43.091C104.683 42.9939 104.878 42.8969 105.041 42.8322C105.301 42.7351 105.561 42.7351 105.788 42.6381C106.016 42.5734 106.016 42.4116 105.821 42.2822C105.593 42.0881 105.333 42.1204 105.106 42.2822C104.976 42.3792 104.813 42.4439 104.683 42.4439C104.521 42.5086 104.293 42.5086 104.098 42.5086ZM96.5254 43.0263C96.5904 43.2204 96.6554 43.4145 96.7204 43.6086C96.8179 43.8028 96.9804 43.8351 97.1754 43.7704C97.6304 43.6086 97.988 43.3175 98.2155 42.8969C98.3455 42.6704 98.2805 42.5086 98.0205 42.5086C97.6304 42.5086 97.2729 42.541 96.8829 42.5734C96.6554 42.6057 96.5579 42.7675 96.5254 43.0263ZM71.1739 54.1232C71.3689 54.2203 71.4989 54.3497 71.6289 54.3497C71.8889 54.3821 72.1489 54.3821 72.4089 54.3497C72.799 54.3174 72.929 54.2203 72.994 53.8321C73.0265 53.735 73.059 53.638 73.0265 53.5409C72.994 53.3468 72.929 53.1527 72.8315 53.0233C72.7665 52.9586 72.5065 53.0556 72.4089 53.1203C72.0189 53.4115 71.6289 53.735 71.1739 54.1232ZM74.034 53.7674C74.034 53.9291 74.034 54.0909 74.0665 54.2527C74.099 54.3174 74.164 54.4468 74.2291 54.4468C74.6841 54.4791 75.2366 54.3174 75.3016 53.7027C75.3666 53.2821 75.3666 53.2821 74.9766 53.185C74.9116 53.185 74.8466 53.1527 74.7816 53.1527C74.1315 53.0233 74.034 53.088 74.034 53.7674ZM72.5065 55.6115C72.5715 55.7085 72.604 55.7409 72.6365 55.8056C72.8315 56.1615 73.124 56.3232 73.4815 56.3556C73.579 56.3556 73.709 56.3232 73.8065 56.2585C73.839 56.2262 73.8065 56.0644 73.7415 55.9997C73.6115 55.8056 73.449 55.6438 73.2865 55.4821C72.8315 55.0615 72.3114 55.1585 71.9539 55.385C71.7589 55.4821 71.6614 55.6762 71.7589 55.8379C71.8239 55.9673 72.0189 56.0644 72.1814 56.0968C72.2464 56.0968 72.3764 55.9026 72.4414 55.8056C72.4414 55.7409 72.4414 55.7085 72.5065 55.6115ZM108.096 56.1615C108.129 56.1291 108.194 56.1291 108.226 56.0968C108.226 55.9674 108.291 55.8056 108.226 55.6762C108.129 55.4497 108.031 55.2232 107.869 55.0291C107.609 54.6409 106.958 54.4791 106.536 54.7056C106.471 54.7379 106.438 54.8027 106.438 54.8674C106.308 55.1585 106.503 55.4821 106.893 55.5144C107.414 55.5468 107.869 55.6115 108.096 56.1615ZM93.6977 50.888C93.6977 50.8556 93.6977 50.8556 93.6977 50.8233C93.9252 50.8233 94.1527 50.8233 94.3802 50.8233C94.8678 50.8233 95.0303 50.6615 95.0953 50.2086C95.1278 50.0145 95.0953 49.9174 94.9003 49.8527C94.3152 49.6586 93.8277 49.8527 93.4377 50.4027C93.3727 50.4998 93.3077 50.6292 93.3402 50.7262C93.4377 50.8233 93.6002 50.8556 93.6977 50.888ZM82.4195 50.6939C82.2245 50.9527 82.1595 51.535 82.387 51.7939C82.4845 51.8909 82.6471 52.0203 82.7771 52.0203C83.1021 51.988 83.4596 51.9233 83.7846 51.8262C84.0121 51.7615 84.0121 51.5674 83.7846 51.438C83.3296 51.1792 82.8746 50.9527 82.4195 50.6939ZM112.126 38.1734C111.671 38.5293 111.314 38.8528 110.891 39.1763C111.184 39.241 111.411 39.2734 111.639 39.3057C111.996 39.4028 112.094 39.5969 111.964 39.9528C111.899 40.0498 111.866 40.1793 111.834 40.2763C111.866 40.3087 111.866 40.3087 111.899 40.341C111.996 40.2763 112.094 40.2763 112.159 40.1793C112.321 39.9851 112.516 39.7587 112.646 39.5322C112.841 39.2087 112.809 39.1116 112.419 38.9822C112.126 38.8852 112.061 38.7881 112.126 38.4969C112.094 38.4322 112.094 38.3352 112.126 38.1734ZM110.046 56.1291C109.656 55.5468 109.884 55.0938 110.306 54.7056C110.339 54.6732 110.404 54.6085 110.404 54.5762C110.404 54.4468 110.404 54.3174 110.339 54.2527C110.046 54.0262 109.559 54.1232 109.364 54.4468C109.039 54.9968 109.364 55.8703 110.046 56.1291ZM104.196 33.9675C104.651 33.9028 104.943 33.7087 105.203 33.4176C105.236 33.3528 105.268 33.2558 105.236 33.1911C105.106 32.7705 104.683 32.5764 104.261 32.7705C103.871 32.9323 103.708 33.3852 103.936 33.7734C104.001 33.8705 104.131 33.9352 104.196 33.9675ZM114.109 62.5026C113.881 62.5349 113.719 62.5026 113.524 62.5673C113.459 62.5996 113.361 62.6967 113.361 62.7614C113.361 62.9555 113.784 63.4408 113.979 63.4732C114.336 63.5055 114.661 63.4732 114.889 63.182C115.084 62.9555 114.986 62.6643 114.694 62.5996C114.466 62.5349 114.271 62.5026 114.109 62.5026ZM97.8579 63.0849C98.053 63.5702 98.3455 63.9261 98.8005 64.1202C98.898 64.1526 99.093 64.1202 99.158 64.0232C99.353 63.829 99.3205 63.5379 99.223 63.3114C99.1255 63.0526 98.9305 62.8908 98.638 62.9232C98.378 62.9555 98.1505 63.0202 97.8579 63.0849ZM79.2994 49.5292C79.2669 49.3998 79.3319 49.1409 79.0718 49.238C78.6493 49.3998 78.2593 49.6262 78.0968 50.0792C78.0643 50.2086 78.0643 50.435 78.1618 50.4998C78.2593 50.5968 78.4868 50.6615 78.6168 50.6292C79.0068 50.5321 79.2994 50.0468 79.2994 49.5292ZM82.322 58.2967C82.127 58.2967 81.8995 58.3614 81.867 58.5879C81.8345 58.7173 81.9645 58.9114 82.0945 59.0085C82.322 59.1703 82.5495 59.2673 82.8096 59.3644C83.0046 59.4614 83.1021 59.332 83.1346 59.1379C83.1671 58.685 82.8421 58.3291 82.322 58.2967ZM78.7468 46.8116C78.8118 46.8763 78.8768 47.0704 79.0068 47.1351C79.1043 47.1674 79.2994 47.1027 79.3969 47.0057C79.5919 46.7792 79.7544 46.5204 79.9169 46.2616C79.9494 46.2292 79.8844 46.0351 79.8194 46.0027C79.3319 45.7763 78.7143 46.1645 78.7468 46.8116ZM108.844 46.4557C108.844 46.1968 108.551 45.938 108.259 45.938C107.966 45.938 107.674 46.1968 107.674 46.4557C107.674 46.7145 107.966 47.0057 108.259 47.0057C108.551 46.9733 108.844 46.7145 108.844 46.4557ZM86.0923 40.341C86.0923 40.5675 86.2223 40.7292 86.4823 40.7292C86.7423 40.6969 86.9373 40.8263 87.0998 40.9881C87.1323 41.0204 87.1973 41.0851 87.2298 41.1175C87.2623 41.1498 87.3273 41.1822 87.3923 41.1498C87.4248 41.1175 87.4573 41.0528 87.4573 41.0204C87.3598 40.5998 87.2298 40.2116 86.8398 39.9851C86.4823 39.791 86.0923 39.9851 86.0923 40.341ZM109.981 38.0116C109.884 38.044 109.786 38.044 109.721 38.1087C109.526 38.2057 109.429 38.594 109.559 38.691C109.754 38.8528 109.949 39.0146 110.144 39.1763C110.306 39.3057 110.404 39.2734 110.469 39.1116C110.534 38.9499 110.566 38.7557 110.631 38.594C110.696 38.3999 110.631 38.2705 110.469 38.1734C110.274 38.1087 110.111 38.0763 109.981 38.0116ZM70.2313 54.2203C70.4913 54.0909 70.7188 53.9615 70.9464 53.8321C71.1089 53.735 71.1089 53.5733 70.9789 53.4762C70.8163 53.3144 70.6538 53.185 70.4588 53.088C70.3288 53.0233 70.1013 52.9909 70.0363 53.0556C69.9388 53.1527 69.9713 53.3468 70.0038 53.5085C70.0363 53.7027 70.1338 53.8968 70.2313 54.2203ZM68.4437 56.5173C68.4437 56.8732 68.6387 57.1644 68.9312 57.2938C69.1913 57.3909 69.4188 57.2291 69.4188 56.9703C69.4188 56.6144 69.0612 56.2909 68.7037 56.2585C68.5087 56.2262 68.4112 56.3232 68.4437 56.5173ZM101.466 39.6616C101.856 39.6616 102.213 39.4351 102.311 39.144C102.408 38.8852 102.246 38.6587 101.953 38.6587C101.596 38.6587 101.238 39.1116 101.303 39.4675C101.336 39.5322 101.433 39.5969 101.466 39.6616ZM97.923 41.991C98.313 41.991 98.7355 41.6351 98.833 41.2145C98.8655 41.0851 98.8005 40.9234 98.7355 40.8263C98.6705 40.7616 98.443 40.8263 98.378 40.891C98.183 41.1498 98.0205 41.4087 97.8579 41.6998C97.6954 41.9263 97.8255 41.991 97.923 41.991ZM87.7824 45.6469C87.6848 45.6792 87.6198 45.7116 87.5873 45.7439C87.3923 45.9057 87.3273 46.2939 87.4248 46.4557C87.5223 46.6498 87.8799 46.7468 88.1074 46.6821C88.3674 46.5851 88.4324 46.4557 88.3024 46.1968C88.2374 46.0674 88.1399 45.938 88.0424 45.8086C87.9774 45.7439 87.8799 45.7116 87.7824 45.6469ZM81.282 58.4262C81.347 58.4262 81.412 58.3938 81.477 58.3938C81.672 58.3614 81.8345 58.1997 81.802 58.0056C81.802 57.8762 81.6395 57.7467 81.5095 57.682C81.3145 57.6173 81.087 57.585 80.8919 57.585C80.7294 57.585 80.5994 57.682 80.6319 57.9085C80.6969 58.135 81.0545 58.4262 81.282 58.4262ZM67.8587 35.844C67.8262 36.2322 68.1187 36.7175 68.4112 36.8469C68.5087 36.8793 68.6712 36.9116 68.7037 36.8469C68.7687 36.7822 68.8337 36.6205 68.8012 36.5234C68.7037 36.1675 68.4437 35.9411 68.1512 35.7793C67.9887 35.6499 67.8912 35.7469 67.8587 35.844ZM68.8337 65.8026C68.8337 65.9967 68.9637 66.1261 69.1263 65.9967C69.4188 65.7702 69.6788 65.5114 69.8738 65.2202C70.0038 65.0584 69.8413 64.9614 69.6788 64.9614C69.2888 64.9614 68.8337 65.4143 68.8337 65.8026ZM70.0038 63.3114C69.9388 63.279 69.8738 63.2143 69.7763 63.2143C69.3538 63.2143 68.8987 63.6349 68.9312 64.0555C68.9312 64.1202 69.0612 64.282 69.1263 64.282C69.3863 64.3143 70.0038 63.6673 70.0038 63.3114ZM110.436 53.5733C110.469 53.6056 110.469 53.638 110.501 53.6703C110.599 53.6703 110.696 53.6703 110.794 53.638C111.021 53.5409 111.249 53.4438 111.476 53.3144C111.574 53.2497 111.671 53.1203 111.704 53.0233C111.736 52.9262 111.671 52.7968 111.574 52.7321C111.509 52.6674 111.346 52.6674 111.281 52.7321C110.956 52.9909 110.696 53.2821 110.436 53.5733ZM77.9668 50.338C77.5117 50.338 77.2517 50.4998 77.0242 50.7586C76.8942 50.888 76.7967 51.0821 76.9917 51.2439C77.1542 51.4056 77.3817 51.3733 77.5117 51.1792C77.6743 50.9527 77.8043 50.6615 77.9668 50.338ZM105.723 62.1467C105.756 62.082 105.918 61.9849 105.886 61.9202C105.821 61.7261 105.756 61.532 105.626 61.4349C105.463 61.3055 105.203 61.2408 105.008 61.4026C104.943 61.4673 104.911 61.5967 104.943 61.6614C104.976 61.8232 105.431 62.1144 105.723 62.1467ZM102.896 65.1232C102.928 65.2526 102.961 65.4467 103.026 65.6084C103.058 65.6731 103.156 65.7055 103.253 65.7702C103.286 65.7055 103.351 65.6408 103.351 65.5437C103.383 65.3173 103.383 65.0908 103.448 64.8643C103.513 64.6379 103.416 64.5408 103.253 64.4761C103.058 64.4114 102.993 64.5732 102.961 64.7026C102.928 64.832 102.928 64.9614 102.896 65.1232ZM70.1988 55.0615C70.1988 54.7703 70.0363 54.5438 69.7763 54.5438C69.5488 54.5438 69.3863 54.7056 69.4188 54.9321C69.4188 55.1585 69.7113 55.4497 69.9388 55.4497C70.1663 55.4497 70.2313 55.2879 70.1988 55.0615ZM105.138 66.5467C105.463 66.5467 105.691 66.3849 105.691 66.1584C105.691 65.9643 105.496 65.7702 105.301 65.7702C105.073 65.7702 104.781 66.0614 104.781 66.2878C104.781 66.5467 104.943 66.5467 105.138 66.5467ZM104.651 65.8026C104.651 65.5437 104.423 65.382 104.098 65.382C103.936 65.382 103.806 65.4467 103.806 65.6408C103.806 65.8673 104.098 66.2231 104.293 66.2231C104.488 66.1908 104.651 66.029 104.651 65.8026ZM124.672 62.082C124.607 62.0496 124.542 61.8879 124.412 61.8555C124.217 61.7908 123.924 62.2114 123.957 62.5026C123.957 62.5996 124.055 62.7614 124.12 62.7938C124.38 62.8261 124.672 62.4379 124.672 62.082ZM99.5155 43.091C99.4505 43.0586 99.3855 42.9292 99.2555 42.8969C99.093 42.8645 98.7355 43.2851 98.8005 43.5116C98.8005 43.5763 98.9305 43.6733 99.028 43.7057C99.2555 43.6733 99.5155 43.4145 99.5155 43.091ZM105.073 38.8528C105.268 38.8852 105.463 38.9499 105.658 38.9499C105.853 38.9499 105.918 38.7557 105.918 38.594C105.918 38.4969 105.853 38.3999 105.821 38.3028C105.691 38.3675 105.528 38.3999 105.398 38.4969C105.301 38.5293 105.236 38.691 105.073 38.8528ZM73.449 60.885C73.6765 61.1438 74.034 61.2408 74.2291 61.1114C74.2941 61.0467 74.3266 60.9497 74.3916 60.8526C74.2941 60.7879 74.1966 60.6908 74.1315 60.6908C73.904 60.7232 73.6765 60.8202 73.449 60.885ZM111.476 45.9704C111.444 45.938 111.314 45.8086 111.281 45.8086C111.119 45.9057 111.021 46.0351 110.859 46.1645C110.924 46.2292 110.956 46.3263 111.021 46.3263C111.216 46.391 111.476 46.1645 111.476 45.9704ZM112.971 40.341C113.036 40.341 113.069 40.3087 113.134 40.3087C113.264 40.1793 113.394 40.0498 113.491 39.9204C113.491 39.9204 113.361 39.791 113.296 39.7263C113.166 39.8557 113.004 39.9851 112.906 40.1469C112.874 40.1469 112.939 40.244 112.971 40.341ZM106.211 43.641C106.438 43.5763 106.666 43.5439 106.666 43.3175C106.666 43.2528 106.536 43.1881 106.438 43.091C106.308 43.2204 106.211 43.3498 106.081 43.4792C106.048 43.5116 106.178 43.6086 106.211 43.641ZM118.497 45.291C118.757 45.291 118.984 45.0969 118.952 44.9351C118.919 44.838 118.822 44.8057 118.757 44.741C118.627 44.8704 118.497 44.9998 118.399 45.1292C118.367 45.1616 118.464 45.2586 118.497 45.291ZM113.621 47.3292C113.589 47.2968 113.459 47.1674 113.426 47.1674C113.296 47.2645 113.166 47.4263 113.036 47.5557C113.036 47.5557 113.134 47.6851 113.166 47.7174C113.394 47.7174 113.621 47.5557 113.621 47.3292ZM67.0461 54.8027C67.0136 54.835 66.9811 54.835 66.9161 54.8674C66.9486 54.9968 66.9486 55.1585 67.0136 55.2879C67.0461 55.3526 67.1436 55.3526 67.2086 55.385C67.2411 55.3203 67.3386 55.2232 67.3061 55.1585C67.2736 54.9968 67.1436 54.8997 67.0461 54.8027Z" fill="#1F1F1F"/>
</svg>
