<svg width="180" height="120" viewBox="0 0 180 120" fill="none" xmlns="http://www.w3.org/2000/svg">
<path d="M155.728 38.7116C154.914 38.9422 154.423 39.5458 154.423 40.2574C154.423 41.072 154.865 41.5824 155.527 41.5824C155.93 41.5824 156.214 41.4352 156.41 41.1505C156.69 40.7383 156.828 40.2181 157.039 39.6783C157.431 38.6969 157.853 38.2208 158.678 38.2208C159.698 38.2208 160.371 38.9569 160.371 40.0856C160.371 41.0671 159.831 41.7689 158.82 42.0633L158.638 41.4254C159.394 41.2193 159.787 40.7236 159.787 40.012C159.787 39.325 159.384 38.8981 158.756 38.8981C158.447 38.8981 158.202 39.0453 157.986 39.3103C157.775 39.5802 157.632 40.0562 157.407 40.6598C156.994 41.7493 156.563 42.2547 155.581 42.2547C154.536 42.2547 153.829 41.4941 153.829 40.2918C153.829 39.1631 154.398 38.3975 155.522 38.0491L155.738 38.7116H155.728ZM153.819 45.5083C153.819 43.9674 154.982 43.0742 157.097 43.0742C159.188 43.0742 160.371 44.0214 160.371 45.4592C160.371 46.637 159.733 47.3731 158.481 47.643L158.315 46.9854C159.267 46.7891 159.777 46.269 159.777 45.523C159.777 44.4434 158.845 43.7858 157.078 43.7858C155.36 43.7858 154.428 44.4483 154.428 45.5427C154.428 46.3671 154.968 46.9364 155.969 47.113L155.831 47.751C154.487 47.4418 153.819 46.7008 153.819 45.5132V45.5083ZM160.263 48.811V49.498H157.554V52.6878H160.263V53.3749H153.922V52.6878H156.94V49.498H153.917V48.811H160.258H160.263ZM160.366 56.9622C160.366 58.4589 159.129 59.465 157.097 59.465C155.066 59.465 153.824 58.4589 153.824 56.9622C153.824 55.4605 155.076 54.4594 157.102 54.4594C159.134 54.4496 160.376 55.4605 160.376 56.9622H160.366ZM154.428 56.9622C154.428 58.0663 155.39 58.7583 157.097 58.7583C158.815 58.7583 159.767 58.0712 159.767 56.9622C159.767 55.8531 158.815 55.1612 157.102 55.1612C155.4 55.1612 154.443 55.8482 154.443 56.9622H154.428ZM160.366 62.9296C160.366 64.4263 159.129 65.4323 157.097 65.4323C155.066 65.4323 153.824 64.4263 153.824 62.9296C153.824 61.4279 155.076 60.417 157.102 60.417C159.134 60.417 160.376 61.4279 160.376 62.9198L160.366 62.9296ZM154.428 62.9296C154.428 64.0337 155.39 64.7257 157.097 64.7257C158.815 64.7257 159.767 64.0386 159.767 62.9247C159.767 61.8156 158.815 61.1236 157.102 61.1236C155.4 61.1236 154.443 61.8107 154.443 62.9198L154.428 62.9296ZM160.263 66.5561V67.2677H154.521V70.0993H153.922V66.561H160.263V66.5561ZM160.366 74.3442C160.366 75.8458 159.129 76.847 157.097 76.847C155.066 76.847 153.824 75.8458 153.824 74.3442C153.824 72.8425 155.076 71.8414 157.102 71.8414C159.134 71.8414 160.376 72.8425 160.376 74.3442H160.366ZM154.428 74.3442C154.428 75.4483 155.39 76.1403 157.097 76.1403C158.815 76.1403 159.767 75.4532 159.767 74.3442C159.767 73.24 158.815 72.5481 157.102 72.5481C155.4 72.5481 154.443 73.2351 154.443 74.3442H154.428ZM160.263 77.9756V81.6905H159.674V78.6725H157.554V80.9103H156.955V78.6725H153.922V77.9756H160.263ZM164.248 42.1566C163.708 41.764 163.453 41.2242 163.453 40.4782C163.453 38.9717 164.66 38 166.691 38C168.802 38 169.999 38.9324 169.999 40.5028C169.999 41.6217 169.376 42.3578 168.134 42.7111L168.002 41.9897C168.919 41.7443 169.395 41.2438 169.395 40.4782C169.395 39.3643 168.463 38.7116 166.745 38.7116C165.018 38.7116 164.056 39.4084 164.056 40.5273C164.056 41.445 164.611 42.0584 165.577 42.0584H166.019V40.6009H166.628V42.7847H163.551V42.1811L164.238 42.1566H164.248ZM169.891 44.4581V46.2346C169.891 47.9522 169.43 48.7717 168.223 48.7717C167.388 48.7717 166.848 48.3301 166.603 47.4566L163.561 48.9484V48.1779L166.431 46.7842V45.1501H163.556V44.463H169.886L169.891 44.4581ZM169.302 45.1452H167.015V46.2101C167.015 47.486 167.334 48.0602 168.159 48.0602C169.091 48.0602 169.307 47.5056 169.307 46.2346V45.155L169.302 45.1452ZM169.891 51.8045V52.8743L163.561 54.8275V54.0914L165.523 53.5221V51.1665L163.561 50.6022V49.8563L169.891 51.8094V51.8045ZM166.112 53.3258L169.42 52.3738V52.2756L166.112 51.3187V53.316V53.3258ZM169.891 55.9807V57.4873C169.891 58.3412 169.793 58.9595 169.4 59.4993C168.861 60.1863 167.938 60.5887 166.726 60.5887C164.625 60.5887 163.556 59.4993 163.556 57.3351V55.9807H169.886H169.891ZM169.302 56.6677H164.179V57.2321C164.179 58.0369 164.257 58.6209 164.621 59.0724C165.028 59.5975 165.749 59.8919 166.721 59.8919C167.737 59.8919 168.473 59.6073 168.895 59.0576C169.263 58.5865 169.307 58.0467 169.307 57.3253V56.6628L169.302 56.6677ZM169.891 62.5517H165.808C165.416 62.5517 165.072 62.5517 164.778 62.7136C164.326 62.9443 164.056 63.4498 164.056 64.1368C164.056 64.8238 164.321 65.3391 164.768 65.5599C165.101 65.7317 165.469 65.7317 165.916 65.7317H169.881V66.4285H165.685C164.213 66.4285 163.443 65.6335 163.443 64.1417C163.443 62.64 164.203 61.8598 165.685 61.8598H169.881V62.5615L169.891 62.5517ZM169.891 69.2994V70.3692L163.561 72.3174V71.5813L165.523 71.0071V68.6516L163.561 68.0872V67.3511L169.891 69.3043V69.2994ZM166.112 70.8207L169.42 69.8686V69.7705L166.112 68.8184V70.8158V70.8207ZM169.287 74.2264V72.3763H169.891V76.793H169.287V74.9429H163.546V74.2264H169.287ZM169.891 77.9462V81.6905H169.302V78.648H167.182V80.8072H166.593V78.648H164.159V81.6905H163.556V77.9462H169.886H169.891Z" fill="#1F1F1F"/>
<path d="M43.3692 61.7371C46.4608 61.9531 46.4608 63.3075 46.4608 65.7465V72.6365C46.4608 75.208 46.4608 76.6115 45.602 77.9365C44.2918 79.9828 41.7252 80.6846 39.6984 80.6846C37.0386 80.6846 35.4143 79.4921 34.7125 78.2947C33.9519 77.0188 33.9519 75.3993 33.9519 72.4843V66.1195C33.9519 61.7371 34.05 61.7371 37.073 61.7371V61.0648H27.8225V61.7371H28.2838C30.9829 61.7371 31.0124 62.0807 31.0124 66.1783V72.3911C31.0124 75.8165 31.0124 77.2249 32.0233 78.7216C32.8183 79.8896 34.8058 81.6906 39.0016 81.6906C42.8588 81.6906 45.3321 80.1693 46.4118 78.2064C47.1969 76.7341 47.1969 75.419 47.1969 72.7592V66.0213C47.1969 63.5185 47.1969 61.9482 50.1708 61.7371V61.0648H43.3692V61.7371ZM66.1493 61.7371H66.5812C69.241 61.7371 69.3048 62.0169 69.3048 66.1145V76.0569C69.3048 79.9828 69.3048 80.6503 66.7382 80.6503H66.1493V81.3226H75.3997V80.6453H74.8109C72.2443 80.6453 72.2443 79.973 72.2443 76.052V66.1195C72.2443 61.9825 72.3032 61.7371 74.963 61.7371H75.3948V61.0648H66.1493V61.7371ZM57.8166 69.0835C55.461 68.0432 52.9484 66.939 52.9484 64.5196C52.9484 63.175 53.8661 61.428 56.4327 61.428C58.7097 61.428 61.2664 63.1554 61.7964 65.933H62.4737V61.0648H61.8357C61.767 61.4329 61.5609 62.3996 61.0358 62.8413C60.2997 62.0414 59.014 60.6968 56.3492 60.6968C52.9828 60.6968 51.0002 63.0818 51.0002 65.717C51.0002 69.5743 54.3372 71.017 56.5946 71.9887C56.7811 72.0525 57.7871 72.4794 57.9687 72.5776C60.0298 73.4609 62.1056 74.624 62.1056 77.009C62.1056 78.8738 60.604 80.9545 57.6055 80.9545C53.2674 80.9545 51.9375 76.7979 51.5842 75.0166H50.8382V81.3324H51.5056C51.7314 80.0074 52.1191 79.4283 52.3055 79.1535C52.7963 79.7031 54.5384 81.6906 57.8754 81.6906C61.7621 81.6906 64.2403 79.2762 64.2403 75.8508C64.2403 71.9887 61.7572 70.8256 57.8116 69.0786L57.8166 69.0835ZM127.06 69.0835C124.695 68.0432 122.187 66.939 122.187 64.5196C122.187 63.175 123.105 61.428 125.671 61.428C127.948 61.428 130.505 63.1554 131.035 65.933H131.707V61.0648H131.069C131.001 61.4329 130.794 62.3996 130.264 62.8413C129.528 62.0414 128.252 60.6968 125.583 60.6968C122.211 60.6968 120.224 63.0818 120.224 65.717C120.224 69.5743 123.561 71.017 125.818 71.9887C126.015 72.0525 127.016 72.4794 127.202 72.5776C129.254 73.4609 131.334 74.624 131.334 77.009C131.334 78.8738 129.833 80.9545 126.834 80.9545C122.491 80.9545 121.166 76.7979 120.813 75.0166H120.067V81.3324H120.739C120.965 80.0074 121.353 79.4283 121.539 79.1535C122.03 79.7031 123.772 81.6906 127.109 81.6906C131.001 81.6906 133.479 79.2762 133.479 75.8508C133.479 71.9887 131.001 70.8256 127.05 69.0786L127.06 69.0835ZM142.94 69.0835C140.585 68.0432 138.072 66.939 138.072 64.5196C138.072 63.175 138.99 61.428 141.556 61.428C143.833 61.428 146.39 63.1554 146.92 65.933H147.592V61.0648H146.954C146.886 61.4329 146.68 62.3996 146.155 62.8413C145.418 62.0414 144.143 60.6968 141.473 60.6968C138.106 60.6968 136.124 63.0818 136.124 65.717C136.124 69.5743 139.461 71.017 141.718 71.9887C141.905 72.0525 142.911 72.4794 143.092 72.5776C145.153 73.4609 147.229 74.624 147.229 77.009C147.229 78.8738 145.723 80.9545 142.724 80.9545C138.386 80.9545 137.056 76.7979 136.703 75.0166H135.967V81.3324H136.629C136.855 80.0074 137.248 79.4283 137.429 79.1535C137.92 79.7031 139.662 81.6906 142.999 81.6906C146.886 81.6906 149.364 79.2762 149.364 75.8508C149.364 71.9887 146.886 70.8256 142.935 69.0786L142.94 69.0835ZM91.815 61.7371C95.2747 61.7715 95.2747 63.332 95.2747 64.7994V76.6556H95.2158L83.2859 61.0648H77.3185V61.7371C79.89 61.7371 80.312 61.7371 80.312 66.1145V76.8519C80.312 78.7511 80.3121 79.2418 79.8606 79.6982C79.0263 80.4981 77.6522 80.5816 77.0437 80.6503V81.3226H84.6011V80.6453C82.6725 80.611 81.9413 80.0565 81.7548 79.8798C81.1414 79.3596 81.0531 78.9621 81.0531 76.847V62.8119H81.112L95.2845 81.3275H96.0206V65.0104C96.0206 63.3909 96.0206 62.0169 99.1712 61.7322V61.0648H91.8248V61.7371H91.815ZM110.645 80.6552H109.148C106.361 80.6552 106.174 80.4098 106.174 75.7576V70.9483H108.382C110.704 70.9483 111.376 71.1054 111.376 74.1676H112.083V67.2187H111.376C111.376 69.5743 111.194 70.276 108.348 70.276H106.174V61.7371H109.138C112.681 61.7371 114.158 61.8647 115.002 65.933H115.699V61.0648H100.609V61.7371C103.21 61.7371 103.234 62.1052 103.234 66.1145V76.0569C103.234 79.973 103.234 80.6503 100.604 80.6503H100.202V81.3226H116.975V75.0215H116.273C115.272 80.6748 112.676 80.6503 110.64 80.6503L110.645 80.6552ZM20.7166 70.4625V70.3987C21.9337 70.2515 26.4338 69.5743 26.4338 65.6876C26.4338 60.8489 20.0345 61.055 18.1403 61.055C17.2815 61.055 11 61.0648 11 61.0648V61.7371C14.0426 61.7371 14.1309 61.7371 14.1309 66.1783V76.0618C14.1309 79.9779 14.1309 80.6552 11.5594 80.6552H11V81.3275H18.7537C20.4958 81.3275 23.3666 81.3275 25.0842 80.2478C26.6153 79.3007 27.5379 77.6175 27.5379 75.8116C27.5379 72.2292 24.5346 70.7079 20.7166 70.4625ZM17.0655 61.7421C17.0655 61.7421 18.3709 61.7224 18.9402 61.7421C21.8846 61.7911 23.2783 62.7333 23.2783 65.8397C23.2783 69.6969 20.8639 70.2171 17.0655 70.1239V61.7421ZM19.5192 80.6208C17.0655 80.6208 17.0655 80.0417 17.0655 75.3895V70.8551C20.1278 70.6686 21.8404 71.1888 22.6992 71.8022C23.8279 72.6267 24.2598 73.9124 24.2598 75.7183C24.2598 76.7881 24.2892 80.611 19.5143 80.611L19.5192 80.6208Z" fill="#1F1F1F"/>
<path d="M34.1138 51.7996V38.9324H36.9258C39.1488 38.9324 40.3315 38.9324 40.9646 42.7013H41.5142V38.3337H24.0831V42.7013H24.6916C24.9125 41.4106 25.2314 40.2819 25.6731 39.7323C26.3111 38.9324 26.9785 38.9324 28.8727 38.9324H31.4737V51.7898C31.4737 55.3133 31.508 55.9218 29.1672 55.9218H28.2348V56.5254H37.3331V55.9218H36.4203C34.1138 55.9218 34.1138 55.3182 34.1138 51.7996ZM102.425 38C97.4781 38 92.61 41.1064 92.61 47.2897C92.61 53.3356 96.9776 56.8591 102.508 56.8591C108.554 56.8591 112.431 52.9528 112.431 47.3977C112.436 40.8855 107.367 38 102.425 38ZM102.621 56.1966C97.8364 56.1966 95.6918 53.0559 95.6918 47.4026C95.6918 43.5748 96.8451 38.6674 102.513 38.6674C108.804 38.6674 109.349 44.7918 109.349 47.4271C109.349 50.509 108.588 56.2015 102.626 56.2015L102.621 56.1966ZM145.693 40.4193C144.015 38.9962 141.88 38.3288 137.891 38.3288C136.355 38.3288 129.808 38.3288 129.808 38.3288V38.9324H130.328C132.748 38.9324 132.802 39.325 132.802 43.0055V51.7996C132.802 54.3024 132.733 55.4458 131.82 55.8384C131.329 56.0101 130.917 55.9856 130.652 55.9267C129.533 55.7059 128.557 54.8962 126.383 51.9615C126.245 51.7996 125.583 50.9163 125.45 50.7249C125.117 50.2832 123.414 48.0062 122.231 47.4026V47.3437C125.117 47.0492 127.433 45.5279 127.433 42.7798C127.433 41.602 126.991 40.5568 125.887 39.6489C124.852 38.7999 123.252 38.3337 119.542 38.3337C118.771 38.3337 112.809 38.3337 112.809 38.3337V38.9324C115.508 38.9324 115.581 38.9324 115.581 42.8681V51.7996C115.581 55.3182 115.582 55.9218 113.246 55.9218H112.671V56.5254H121.382V55.9218H120.499C118.192 55.9218 118.222 55.3182 118.222 51.7996V47.7657H118.938C119.233 47.7657 119.787 47.7314 120.229 48.173C120.778 48.7227 121.995 50.1213 123.09 51.7456C123.826 52.8498 125.701 55.5439 127.075 56.5303H137.807C140.496 56.5303 143.465 56.5598 145.855 54.5183C148.329 52.4376 148.652 49.1398 148.652 47.5989C148.662 45.5623 148.191 42.5442 145.693 40.4243V40.4193ZM119.733 47.0934H118.222V39.06C118.575 39.06 118.845 39.06 119.341 39.06C121.784 39.06 124.479 39.0207 124.479 42.9859C124.479 45.6752 123.271 47.1081 119.718 47.1081L119.733 47.0934ZM143.107 54.6508C141.596 55.8384 139.588 55.8924 138.298 55.8924C135.412 55.8924 135.442 55.7844 135.442 50.9997V38.9324C135.442 38.9324 136.732 38.9226 137.665 38.9226C139.103 38.9226 142.131 38.7754 144.02 41.4646C145.453 43.4963 145.723 46.053 145.723 47.7853C145.723 49.9544 145.311 52.9528 143.112 54.6557L143.107 54.6508ZM17.2667 45.5378C15.1566 44.6054 12.8992 43.6141 12.8992 41.4401C12.8992 40.2329 13.7187 38.6674 16.0301 38.6674C18.0716 38.6674 20.3682 40.2132 20.8393 42.7111H21.4429V38.3239H20.8639C20.8148 38.6527 20.6283 39.5262 20.1523 39.9188C19.4898 39.2072 18.3366 38 15.9467 38C12.9237 38 11.1374 40.1445 11.1374 42.5148C11.1374 45.9696 14.1309 47.2652 16.1675 48.1436C16.3343 48.1927 17.2373 48.5853 17.4042 48.6638C19.2444 49.4637 21.1141 50.504 21.1141 52.6486C21.1141 54.3269 19.7744 56.1966 17.0803 56.1966C13.1838 56.1966 11.9864 52.467 11.6723 50.8672H11V56.5254H11.6281C11.795 55.4065 12.1532 54.8226 12.3152 54.5723C12.7568 55.063 14.3272 56.8542 17.3207 56.8542C20.8148 56.8542 23.0378 54.6852 23.0378 51.6033C23.0378 48.1436 20.8099 47.0983 17.2667 45.5329V45.5378ZM70.8211 38.9324C73.9275 38.9618 73.9275 40.0022 73.9275 41.6805V52.3787H73.8785L63.146 38.3337H57.792V38.9324C60.0985 38.9324 60.4911 38.9324 60.4911 42.8583V52.5112C60.4911 54.2189 60.4715 54.7686 60.074 55.2004C59.4605 55.858 58.5232 56.069 57.738 55.912C56.6486 55.6323 56.3149 54.9698 55.8389 53.8313C55.8094 53.7233 55.7015 53.473 55.5641 53.1933L49.1943 38.0589H48.6692L43.3888 50.7102C43.2514 51.0046 42.8097 52.0842 42.7263 52.2805C41.843 54.587 41.4357 55.6274 39.512 55.9316V56.5352H44.9248V55.9316C43.3545 55.9316 42.9471 54.9698 42.9471 54.2239C42.9471 53.4583 43.4133 52.4081 43.8795 51.2598C43.9384 51.1224 43.963 51.0144 43.9924 50.985L44.4586 49.8268H51.3879L52.7619 53.1786C52.811 53.2964 53.0564 53.846 53.0907 53.9539C53.287 54.3662 53.3852 54.6704 53.3852 54.9452C53.3852 55.9365 52.4282 55.9365 51.1376 55.9365V56.5401H64.3287V55.9365C62.5964 55.9071 61.9388 55.4114 61.7768 55.2495C61.2223 54.7833 61.1389 54.4251 61.1389 52.5259V39.8992H61.1879L73.9275 56.5254H74.5802V41.8768C74.5802 40.4193 74.6293 38.8833 77.4069 38.8833C80.1845 38.8833 80.2384 40.4193 80.2384 41.8768V51.7898C80.2384 55.3084 80.2384 55.912 77.932 55.912H77.3774V56.5156H85.8182V55.912H85.2145C82.8786 55.912 82.8786 55.3084 82.8786 51.7898V47.2554H84.5815C86.2304 47.2554 87.3296 47.2554 87.3296 50.2783H87.9921V43.8791H87.3296C87.3296 46.4309 86.4463 46.6468 84.5815 46.6468H82.8786V38.9324H86.4218C88.1884 38.9324 89.3024 38.9324 90.1808 40.1985C90.9169 41.2389 90.9562 42.0241 91.0249 42.7013H91.6727V38.3337H70.8162V38.9324H70.8211ZM44.7334 49.2134L47.9232 41.4597L51.1376 49.2134H44.7285H44.7334Z" fill="#1F1F1F"/>
</svg>
