<svg width="180" height="120" viewBox="0 0 180 120" fill="none" xmlns="http://www.w3.org/2000/svg">
<path d="M73.8772 83.0466L63.9549 92.9999L54 83.0466H73.8772Z" fill="#1F1F1F"/>
<path d="M122.451 37.6692C120.525 40.5596 117.17 45.2537 113.654 41.7222L122.58 32.7577C121.769 31.8993 121.163 31.1604 120.687 30.7366C115.883 25.9121 110.472 25.8251 106.22 30.0955C103.385 32.9424 102.66 36.1697 103.471 39.2774L100.68 36.0936C99.8682 36.5282 96.4272 39.5816 99.0025 44.1562L95.8213 41.4832L91.5688 45.7536L97.2713 51.48C92.8565 47.9485 88.0846 48.2962 84.265 52.1319C80.1857 56.2285 80.4454 61.2269 83.54 65.3234L82.9341 64.7257C78.898 60.6727 74.4833 62.0961 72.2975 64.2911C70.6203 65.9753 69.5924 68.3007 70.0252 69.9415L61.2282 61.1073L56.5537 65.8015L73.8448 83.1655H83.1397L76.9179 76.9175C73.6609 73.5599 73.5744 71.7887 75.1542 70.1914C76.7015 68.6375 78.4544 69.6263 81.6356 72.7775L87.8141 78.982L92.4453 74.3313L86.6131 68.4745C90.8223 71.6583 95.8862 71.8322 100.388 67.3553L100.474 67.2684C103.223 64.7257 104.034 62.2265 104.034 62.2265L100.517 59.8577C98.5914 62.7481 95.237 67.4423 91.7203 63.9108L100.647 54.9463L106.22 60.5532L111.067 55.6851L104.11 48.5353C100.853 45.2646 102.779 42.2003 104.153 41.0377C104.802 42.3742 105.7 43.6673 106.902 44.8734C111.403 49.3937 117.246 50.3065 122.353 45.2211L122.44 45.1342C125.188 42.5915 126 40.0923 126 40.0923L122.451 37.6692ZM88.3768 60.4228C86.3209 57.967 86.4075 56.6305 87.6951 55.3375C89.2425 53.7836 90.8331 54.4356 92.6293 56.1524L88.3768 60.4228ZM109.617 33.3119C111.165 31.758 112.745 32.41 114.552 34.1268L110.299 38.3972C108.243 35.9415 108.33 34.6049 109.617 33.3119Z" fill="#1F1F1F"/>
</svg>
