<svg width="180" height="120" viewBox="0 0 180 120" fill="none" xmlns="http://www.w3.org/2000/svg">
<path d="M94.7776 50.1268C94.5499 50.3586 94.4361 50.6484 94.4361 51.1699V64.7302H94.3791C94.3791 64.7302 87.0931 51.4597 86.6946 50.8802C86.4669 50.4166 86.1823 50.1268 85.7839 49.953C85.4423 49.7212 85.0439 49.6053 84.3039 49.6053H81.8562C81.287 49.6053 80.9455 49.8371 80.6609 50.1268C80.4332 50.3586 80.3193 50.6484 80.3193 51.1699V70.4093C80.3193 70.9308 80.4332 71.1626 80.6609 71.4524C80.8886 71.7421 81.287 71.9739 81.8562 71.9739H83.2224C83.7916 71.9739 84.1331 71.7421 84.4177 71.4524C84.6454 71.2206 84.7593 70.9308 84.7593 70.4093V56.5013H84.8162C84.8162 56.5013 92.3869 70.1775 92.6715 70.699C93.1268 71.4524 93.8099 71.916 94.8345 71.916H97.1683C97.7376 71.916 98.0791 71.6842 98.3637 71.3944C98.5914 71.1626 98.7052 70.8729 98.7052 70.3513V52.9664H129.386C129.728 52.9664 129.899 52.9084 130.126 52.7346C130.354 52.5607 130.411 52.3289 130.411 51.9812V50.6484C130.411 50.3007 130.354 50.0109 130.126 49.895C129.956 49.7212 129.728 49.6632 129.386 49.6632H95.916C95.2899 49.6053 95.0053 49.8371 94.7776 50.1268ZM108.154 55.2844C103.088 55.2844 100.185 59.3408 100.185 63.5712C100.185 68.1492 103.259 72.1478 108.211 72.1478C110.659 72.1478 113.107 71.2206 114.416 69.54C115.042 68.7867 115.497 67.8015 115.497 67.222C115.497 66.9902 115.44 66.8743 115.327 66.7005C115.213 66.5266 115.042 66.4687 114.7 66.4687H112.31C111.797 66.4687 111.513 66.6425 111.285 66.9902C110.602 68.0333 109.577 68.5549 108.154 68.5549C105.991 68.5549 104.511 66.8164 104.454 64.962H114.7C115.156 64.962 115.44 64.904 115.725 64.6143C115.953 64.3825 116.067 64.0348 116.067 63.3973C116.067 61.485 115.44 59.3988 114.188 57.8341C112.879 56.3275 110.887 55.2844 108.154 55.2844ZM123.865 55.2844C119.88 55.2844 117.205 57.1967 117.205 60.326C117.205 61.427 117.603 62.3542 118.23 63.0496C118.97 63.8609 120.051 64.4404 121.645 64.8461L125.003 65.7153C125.914 65.9471 126.768 66.2369 126.768 67.0482C126.768 68.3231 125.459 68.7867 124.036 68.7867C123.353 68.7867 122.613 68.6128 122.043 68.3231C121.645 68.0913 121.303 67.8015 121.019 67.3959C120.791 67.0482 120.734 66.7584 120.393 66.6425C120.165 66.5266 119.937 66.4687 119.596 66.4687H117.774C117.376 66.4687 117.148 66.5846 117.034 66.7584C116.863 66.9323 116.863 67.1641 116.863 67.3959C116.863 68.0333 117.091 68.7287 117.547 69.4241C118.685 70.9308 120.962 72.2057 123.979 72.2057C126.939 72.2057 130.98 70.9888 130.98 66.9323C130.98 65.8892 130.696 65.0199 130.183 64.3245C129.5 63.3973 128.476 62.8178 126.825 62.3542L123.466 61.485C122.1 61.1373 121.474 60.8475 121.474 59.9783C121.474 59.167 122.214 58.4716 123.922 58.4716C124.946 58.4716 125.8 58.7034 126.426 59.2829C126.939 59.8044 126.825 60.0362 127.166 60.326C127.394 60.4419 127.679 60.4419 128.077 60.4419H129.728C129.956 60.4419 130.183 60.3839 130.354 60.2101C130.468 60.0362 130.582 59.8624 130.582 59.5147C130.582 58.7613 130.069 57.7182 129.216 56.9649C127.963 55.9798 126.085 55.2844 123.865 55.2844ZM133.029 55.8059H132.232C131.891 55.8059 131.72 55.8638 131.492 56.0377C131.265 56.2115 131.208 56.4433 131.208 56.791V57.8341C131.208 58.1818 131.265 58.4716 131.492 58.5875C131.663 58.7613 131.891 58.8193 132.232 58.8193H133.029V66.2369C133.029 68.1492 133.542 69.3082 134.509 70.2934C135.42 71.2206 136.502 71.7421 138.494 71.7421H139.746C140.088 71.7421 140.258 71.6842 140.486 71.5103C140.714 71.3365 140.828 71.1047 140.828 70.757V69.4241C140.828 69.0764 140.714 68.7867 140.486 68.6708C140.315 68.4969 140.088 68.439 139.746 68.439H139.632C138.835 68.439 138.323 68.2072 137.925 67.8595C137.469 67.4538 137.299 66.8164 137.299 65.9471V58.7613H139.974C140.315 58.7613 140.486 58.7034 140.714 58.5295C140.942 58.3557 140.998 58.1239 140.998 57.7762V56.7331C140.998 56.3854 140.942 56.0957 140.714 55.9798C140.543 55.8059 140.315 55.7479 139.974 55.7479H137.299V50.8802C137.299 50.5325 137.185 50.2427 137.014 49.953C136.786 49.7212 136.502 49.4894 135.989 49.4894H134.339C133.883 49.4894 133.599 49.6632 133.314 49.953C133.143 50.1848 133.029 50.4745 133.029 50.8802V55.8059ZM142.023 70.5252C142.023 70.8729 142.137 71.1626 142.308 71.4524C142.535 71.6842 142.82 71.916 143.332 71.916H145.097C145.552 71.916 145.837 71.7421 146.121 71.4524C146.292 71.2206 146.406 70.9308 146.406 70.5252V50.9381C146.406 50.5904 146.292 50.3007 146.121 50.0109C145.894 49.7791 145.609 49.5473 145.097 49.5473H143.332C142.877 49.5473 142.592 49.7212 142.308 50.0109C142.137 50.2427 142.023 50.5325 142.023 50.9381V70.5252ZM104.454 61.7747C104.682 59.9783 106.048 58.5875 108.154 58.5875C110.204 58.5875 111.627 59.9203 111.854 61.7747H104.454ZM162.174 52.9664C162.515 52.9664 162.686 52.9084 162.914 52.7346C163.141 52.5607 163.198 52.3289 163.198 51.9812V50.5904C163.198 50.0689 163.141 49.7791 162.914 49.5473C162.743 49.3735 162.458 49.2576 162.174 49.2576C161.946 49.2576 161.661 49.3155 161.263 49.3155L149.537 50.5325C149.195 50.5904 149.025 50.7063 148.911 50.7643C148.74 50.9381 148.683 51.112 148.683 51.4017V52.1551C148.683 52.4448 148.74 52.6187 148.854 52.6766C149.025 52.8505 149.195 52.9084 149.48 52.9084H162.174V52.9664ZM155.741 55.2844C150.675 55.2844 147.772 59.3408 147.772 63.5712C147.772 68.1492 150.846 72.1478 155.798 72.1478C158.246 72.1478 160.694 71.2206 162.003 69.54C162.629 68.7867 163.084 67.8015 163.084 67.222C163.084 66.9902 163.027 66.8743 162.914 66.7005C162.8 66.5266 162.629 66.4687 162.287 66.4687H159.897C159.384 66.4687 159.1 66.6425 158.872 66.9902C158.189 68.0333 157.164 68.5549 155.741 68.5549C153.578 68.5549 152.098 66.8164 152.041 64.962H162.287C162.743 64.962 163.027 64.904 163.312 64.6143C163.54 64.3825 163.654 64.0348 163.654 63.3973C163.654 61.485 163.027 59.3988 161.775 57.8341C160.523 56.3275 158.531 55.2844 155.741 55.2844ZM152.098 61.7747C152.326 59.9783 153.692 58.5875 155.798 58.5875C157.847 58.5875 159.271 59.9203 159.498 61.7747H152.098Z" fill="#1F1F1F"/>
<path d="M63.8128 53.1398C60.0559 47.4027 56.6975 45.4324 55.7298 44.5052C54.7052 43.4621 53.9083 42.3611 53.4529 41.7816C52.3145 40.5646 50.8914 39 48.5007 39C46.2238 39 44.6869 40.5067 44.2315 41.7816C44.0608 42.1293 44.0038 42.5929 43.89 42.7667C43.6623 43.1144 42.6946 44.9109 42.2393 45.6063H44.1177L43.2069 47.4027C44.2315 47.1709 45.0854 46.9971 46.053 46.9971C46.9638 46.9971 47.6469 47.2289 47.9315 47.7504C48.4438 48.7935 48.4438 52.0967 49.4115 54.5885C50.2084 56.9065 52.2576 59.1666 54.5914 60.9051C54.6483 60.963 54.6483 60.963 54.6483 60.963C54.7622 60.963 54.876 60.9051 54.876 60.7892C54.876 60.6733 54.8191 60.7312 54.8191 60.6153C52.9406 58.703 51.3468 56.5009 50.493 54.1249C49.6961 51.8069 49.8099 48.5617 49.0699 47.113C48.5576 46.1858 47.59 45.896 46.6223 45.896C45.8823 45.896 45.1423 46.0699 44.8577 46.1278L45.6546 44.6791H44.2315C44.5731 44.1575 44.8577 43.636 44.9715 43.3462C45.1423 43.1144 45.1992 42.8247 45.3131 42.3611C45.8254 41.0282 47.0207 40.159 48.5576 40.159C50.4361 40.159 51.5745 41.3759 52.713 42.6508C53.2253 43.2303 54.0222 44.4473 54.9898 45.3745C55.616 46.0119 56.9252 46.7073 58.8606 48.7356C59.999 49.9525 61.3082 51.4592 62.6743 53.4875C67.6266 60.7892 70.8142 67.3375 72.6357 72.3791L72.5788 72.4371C67.3989 68.8442 62.902 65.4831 59.259 61.3107C56.6975 58.3553 54.4775 54.8783 52.4853 50.532C52.3145 50.2423 52.2576 50.0105 52.1437 49.7207C52.0868 49.6048 52.0868 49.5469 51.916 49.5469C51.8022 49.5469 51.7453 49.6048 51.7453 49.7207C51.7453 49.8366 51.8022 50.0684 51.916 50.59C52.9406 55.1101 55.8437 59.1666 58.8606 62.5856C61.8774 66.0046 65.3497 68.8442 68.1958 70.9304L70.3589 77.3628C70.4158 77.5367 70.4727 77.7105 70.4727 77.8844C70.4727 78.0003 70.4158 78.1162 70.4158 78.1162C70.3589 78.1741 70.245 78.1741 70.0742 78.1741H69.4481C69.1635 78.1741 69.0496 78.1162 68.9358 78.0582C68.8789 78.0003 68.765 77.8264 68.7081 77.7105C68.4804 77.0731 67.3989 73.712 67.1143 73.0166C67.0574 72.9007 67.0004 72.8427 66.8866 72.8427C66.8297 72.8427 66.7158 72.9007 66.7158 73.0166C66.7158 73.0745 66.7728 73.1904 66.7728 73.4802C67.1143 74.9869 67.3989 76.7833 67.5127 77.3628C67.5697 77.6526 67.6835 77.9423 67.6835 78.1162C67.6835 78.348 67.6266 78.4059 67.4558 78.5798L66.7728 79.2752C66.602 79.449 66.5451 79.507 66.4312 79.507C66.2605 79.507 66.0897 79.3911 66.0897 79.1013C65.3497 75.3925 64.0974 70.8145 63.8128 69.5396C63.7559 69.2498 63.6989 69.076 63.5282 69.076C63.3574 69.076 63.3005 69.1339 63.3005 69.3078C63.3005 69.3657 63.3574 69.5396 63.3574 69.5975C63.5851 70.9304 64.2682 75.6823 65.122 80.0285C65.2928 80.7819 65.5774 81.1875 66.1466 81.1875C66.4312 81.1875 66.7158 81.0716 66.9435 80.8398C67.3989 80.3762 67.4558 80.3183 67.9681 79.7967C68.3097 79.449 68.5943 79.2752 69.1635 79.2752H70.6435C70.985 79.2752 71.1558 79.2172 71.3835 79.0434C71.5542 78.8695 71.6111 78.6957 71.6111 78.348C71.6111 78.0003 71.5542 77.7685 71.3835 77.4208C71.0419 76.3777 69.7896 72.7848 69.3912 71.7417L69.4481 71.6837C70.7573 72.6689 72.5788 73.8858 73.4327 73.8858C73.6603 73.8858 73.8311 73.7699 73.8311 73.3643C74.1157 71.8576 70.985 63.9764 63.8128 53.1398Z" fill="#1F1F1F"/>
<path d="M28.8075 41.0872C29.0352 40.5656 29.4906 40.2759 30.0598 40.2759C30.7998 40.2759 31.4259 40.9133 31.4259 41.6667C31.4259 42.1303 31.1982 42.5359 30.9136 42.8257C30.9706 43.0575 31.0275 43.3472 31.0275 43.579C31.0275 44.4483 30.5152 45.0857 29.5475 45.3755C29.4337 45.897 29.206 46.4186 28.8075 46.7083C28.1814 47.3458 27.6121 47.3458 27.6121 47.5196C27.6121 47.6935 27.6691 47.7514 27.9537 47.7514C29.0921 47.7514 30.2306 47.114 30.3444 46.0129C31.4259 45.6652 32.109 44.5062 32.109 43.637C32.109 43.4052 32.0521 43.1734 31.9952 42.9995C32.3367 42.7098 32.6213 42.2462 32.6213 41.4928C32.6213 40.8554 32.3367 40.16 31.8813 39.6964C31.4259 39.2328 30.8567 39.001 30.1167 39.001C29.0921 39.001 28.4091 39.5225 28.0675 40.102C26.9291 40.102 25.506 41.319 25.506 43.1734H25.2783C25.2214 42.5359 24.5383 42.1303 23.9691 42.1303C23.5137 40.7974 22.5461 39.6964 20.9522 39.6964C20.7245 39.6964 20.5538 39.6964 20.3261 39.7543C19.8138 39.2907 19.3015 39.0589 18.5615 39.0589C17.1384 39.0589 16 40.2179 16 41.6667C16 42.5939 16.3985 43.1734 17.1954 43.6949C17.1954 43.6949 17.1954 43.8108 17.1954 43.8688C17.1954 45.0278 18.3907 46.7663 20.2122 46.7663C20.2122 47.056 20.5538 47.4617 20.9522 47.5196V47.6935H20.7815C18.2769 47.6935 17.2523 48.9104 17.2523 49.7217C16.5123 50.0694 16.0569 50.8807 16.0569 51.634C16.0569 53.1407 17.1954 54.2418 18.6184 54.2418C19.1307 54.2418 19.643 54.01 19.9276 53.7782C20.1553 53.8361 20.5538 53.952 20.8384 53.952C21.5784 53.952 22.3184 53.7202 22.8307 52.9089C22.8876 52.9089 23.0014 52.9089 23.0584 52.9089C23.9691 52.9089 24.766 52.2715 25.1076 51.5181C25.1645 51.2863 25.2783 51.1704 25.2783 51.0545C25.2783 50.9386 25.2214 50.8227 25.1076 50.8227C24.9368 50.8227 24.9368 50.9966 24.6522 51.1704C24.083 51.692 23.1722 51.9238 22.3184 51.9238C21.863 52.5612 21.3507 52.9089 20.7245 52.9089C20.2692 52.9089 19.9276 52.793 19.5292 52.5612C19.1876 52.9089 18.903 53.0248 18.5046 53.0248C17.7077 53.0248 17.1384 52.4453 17.1384 51.634C17.1384 51.0545 17.48 50.533 18.0492 50.3012C18.1061 49.2581 19.2446 48.5627 20.6107 48.5627C20.7815 48.5627 20.9522 48.5627 21.123 48.6207C21.3507 48.273 21.8061 47.9253 22.5461 47.8673C22.7168 47.8094 22.7737 47.8094 22.8876 47.8094C22.9445 47.7514 23.0014 47.6935 23.0014 47.5776C23.0014 47.5196 22.9445 47.4037 22.8876 47.3458C22.8307 47.2878 22.6599 47.2878 22.5461 47.2878C21.9199 47.1719 21.123 46.7663 20.7815 45.7811C19.2446 45.7811 18.1061 44.5642 18.1061 43.1154V43.0575C17.5938 42.8257 17.2523 42.3621 17.2523 41.7246C17.2523 40.9713 17.8784 40.3338 18.6184 40.3338C19.0738 40.3338 19.4723 40.5656 19.7569 40.9133C19.9846 40.8554 20.2122 40.8554 20.4399 40.8554C21.5784 40.8554 22.8307 41.6087 23.0014 43.0575C24.4814 43.2313 24.8229 44.4483 24.8799 44.9698C24.9368 45.2016 24.9368 45.4914 25.1076 45.4914C25.3352 45.4914 25.3352 45.2596 25.3922 44.9698C25.506 44.4483 25.7337 44.0426 26.0752 43.637C26.3598 42.2462 27.3275 41.0872 28.8075 41.0872Z" fill="#1F1F1F"/>
<path d="M31.7654 49.2573C31.2531 49.9527 30.9685 50.3004 29.887 51.5753C28.407 53.3138 27.724 54.7046 26.4717 57.8339C26.6994 57.7759 26.984 57.7759 27.2686 57.7759C27.4394 57.7759 27.6101 57.7759 27.7809 57.7759L27.9517 57.4282C28.6916 55.9215 29.6024 53.8353 30.9685 52.2127L31.4239 51.6912C32.79 50.0686 33.6439 49.0834 34.1562 46.8814C34.3839 46.128 34.4977 45.3747 35.01 44.8531C35.5223 44.3895 36.0346 44.2157 36.6608 44.2157C37.1731 44.2157 37.5715 44.3316 38.1407 44.5634C38.653 44.7952 38.8238 44.7952 39.3361 44.7952C39.5638 44.7952 39.6776 44.7952 39.7915 44.7372L39.0515 45.7224L40.0192 46.4178C38.8238 46.7655 38.1407 47.9824 37.97 48.504C37.913 48.6199 37.913 48.7358 37.913 48.7358C37.913 48.7937 37.97 48.9096 38.0838 48.9096C38.2546 48.9096 38.3115 48.8517 38.4823 48.5619C39.1084 47.8086 39.5069 47.345 41.7268 46.6496L40.1899 45.4326L41.3853 43.6941H40.3038C39.6207 43.6941 39.1084 43.6941 38.5392 43.4044C37.7423 43.0567 37.3438 42.8828 36.5469 42.8828C35.6362 42.8828 34.8392 43.2305 34.1562 43.81C33.4162 44.5634 33.1316 45.4906 32.847 46.5337C32.6193 47.5188 32.3347 48.388 31.7654 49.2573Z" fill="#1F1F1F"/>
<path d="M34.0968 56.3278C33.4706 57.0812 32.7306 58.1822 32.1045 59.2833C32.3322 59.3412 32.9014 59.7469 33.1291 59.8628C33.8691 58.8197 34.8368 57.4289 35.406 56.4437C36.0321 55.5165 36.2029 55.1109 36.2598 53.9519C36.2598 53.7201 36.2598 53.5462 36.3167 53.3144C36.3737 52.677 36.5444 52.0395 37.1136 51.4021C37.569 50.9385 38.1383 50.7646 38.8213 50.7646C39.4475 50.7646 39.789 50.9385 40.3013 50.9385C40.6428 50.9385 40.9274 50.8805 41.2121 50.7067L41.4397 50.6487L40.9274 51.8077L42.0659 52.2713C41.3259 52.7349 39.789 54.5893 39.789 56.9073C39.789 57.7186 39.9028 58.5299 40.1305 59.1674C40.1875 59.2253 40.1875 59.3412 40.3013 59.3412C40.3582 59.3412 40.4721 59.2833 40.529 59.1674V58.9356C40.5859 58.2402 40.5859 57.1391 40.8705 56.154C41.3259 54.5314 42.5782 52.9667 43.8305 52.1554L42.0659 51.4021L42.8059 49.4897L42.009 49.6636C41.4967 49.7215 41.0982 49.8954 40.6998 49.8954C40.4151 49.8954 40.0736 49.8374 39.6752 49.7215C39.3905 49.6636 39.049 49.5477 38.6506 49.5477C37.8536 49.5477 36.9429 49.8954 36.3737 50.4749C35.2921 51.518 35.2352 52.677 35.1783 53.6621C35.0645 54.995 34.8368 55.3427 34.0968 56.3278Z" fill="#1F1F1F"/>
<path d="M60.3392 56.9654C60.2822 56.9074 60.1684 56.7915 60.1115 56.7915C59.9976 56.7915 59.8838 56.8495 59.8838 56.9654C59.8838 57.1392 59.9407 57.3131 60.2253 57.7187C60.9653 59.0516 61.9899 60.4423 63.1853 61.7172C64.4945 63.0501 65.9745 64.3829 67.5683 65.5419L68.0806 65.8896C68.1375 65.9476 68.1944 65.9476 68.3083 65.9476C68.3652 65.9476 68.479 65.8896 68.479 65.7158C68.479 65.6578 68.4221 65.6578 68.4221 65.5419C66.9421 64.2091 65.2914 62.4706 63.8114 60.848C62.5591 59.631 61.3638 58.2982 60.3392 56.9654Z" fill="#1F1F1F"/>
<path d="M27.4383 52.2132C27.6091 51.9814 28.0644 51.286 28.2352 51.1701C27.4952 49.5475 26.186 47.9828 25.6168 47.4033L25.1045 47.8669C25.6737 48.6203 26.5845 50.1849 27.4383 52.2132Z" fill="#1F1F1F"/>
<path d="M19.9244 42.8258C19.8675 42.7679 19.8105 42.652 19.8105 42.594C19.8105 42.5361 19.8675 42.4202 19.9813 42.4202C20.0382 42.4202 20.0382 42.4202 20.1521 42.4781C20.8921 42.8258 21.5751 43.1156 22.1444 43.6371C22.6567 43.9848 23.0551 44.4484 23.5674 44.97L23.112 45.4915C22.5997 45.0279 20.8351 43.6371 19.9244 42.8258Z" fill="#1F1F1F"/>
<path d="M27.2115 46.3017L26.6992 45.954C27.0408 45.0848 27.4961 44.3314 28.0084 43.7519C28.35 43.2883 28.7484 42.9986 29.1469 42.6509C29.2038 42.593 29.3176 42.4771 29.3746 42.4771C29.4315 42.4771 29.5453 42.535 29.5453 42.6509C29.5453 42.7089 29.4884 42.7088 29.4884 42.8247C28.8053 43.7519 27.61 45.7802 27.2115 46.3017Z" fill="#1F1F1F"/>
<path d="M20.2666 51.1702C20.0959 51.2281 20.0389 51.2281 20.0389 51.2281C19.9251 51.2281 19.8682 51.1702 19.8682 51.0543C19.8682 50.9384 19.9251 50.9384 19.9251 50.8804C21.1774 49.8953 22.3158 49.4896 23.7958 49.2578L24.0235 49.8953L20.2666 51.1702Z" fill="#1F1F1F"/>
<path d="M46.4492 43.057C46.4492 42.7093 46.6769 42.0139 47.3031 42.0139C47.5307 42.0139 47.7584 42.0719 47.9292 42.1878C48.1569 42.3037 48.3277 42.4775 48.3277 42.6514C48.3277 42.8832 48.1 42.9991 47.8723 43.2888C47.5877 43.5206 47.2461 43.7524 46.9615 43.7524C46.5631 43.7524 46.4492 43.3468 46.4492 43.057Z" fill="#1F1F1F"/>
<path d="M36.0879 46.1286C36.0879 45.665 36.3156 45.2014 36.8279 45.2014C37.0556 45.2014 37.3402 45.2594 37.511 45.4912C37.6248 45.5491 37.6817 45.723 37.6817 45.8389C37.6817 46.0707 37.454 46.3604 37.1694 46.4763C36.9417 46.5922 36.714 46.7081 36.5433 46.7081C36.2587 46.6502 36.0879 46.4763 36.0879 46.1286Z" fill="#1F1F1F"/>
<path d="M38.4814 52.5609C38.4814 52.503 38.4814 52.3291 38.5384 52.2132C38.5953 51.9814 38.7661 51.6917 39.2214 51.6917C39.4491 51.6917 39.6199 51.7496 39.8476 51.8655C40.0183 51.9235 40.0753 52.0973 40.0753 52.2132C40.0753 52.6768 39.3353 53.1404 38.9368 53.1404C38.6522 53.1404 38.4814 52.9086 38.4814 52.5609Z" fill="#1F1F1F"/>
<path d="M34.5011 65.658C33.1349 65.658 32.5088 65.0206 32.5088 64.1513C32.5088 62.6446 35.0703 61.2539 37.2903 60.3267L37.9164 61.08C36.4934 61.6595 33.6472 62.8765 33.6472 63.9775C33.6472 64.3252 33.8749 64.6149 34.6718 64.6149C36.1518 64.6149 37.8026 63.8616 39.2825 63.1083C39.3964 63.0503 39.5102 63.0503 39.6241 63.0503C39.8518 63.0503 39.9656 63.1082 40.0795 63.2821L40.3072 63.6298C38.6564 64.6149 36.4934 65.658 34.5011 65.658Z" fill="#1F1F1F"/>
<path d="M38.3074 66.0627C36.9982 66.8161 35.5751 67.3376 34.3228 67.3376C32.9567 67.3376 31.7613 66.7002 30.6798 65.1355C30.2244 64.4981 29.9398 63.6288 29.4844 62.9334C28.9721 62.0642 28.4598 61.6006 27.4922 61.6006C26.6383 61.6006 25.7845 61.9483 24.9307 62.3539L24.9876 62.5857C25.0445 62.9334 25.2153 63.1073 25.4999 63.1073C25.6707 63.1073 25.7276 63.0493 25.8414 63.0493C26.3537 62.8755 26.6953 62.7596 27.1506 62.7596C27.8906 62.7596 28.2891 63.2232 28.8014 64.3822L29.0291 64.7878C28.5168 65.0196 27.2645 65.0776 26.2968 65.0776H25.8414L25.8983 65.5412C25.9553 65.773 25.9553 65.8889 26.126 65.9468C26.3537 66.0048 26.5814 66.0048 27.0368 66.0048C28.2322 66.0048 29.0291 65.8309 29.5414 65.773C30.7937 67.6853 32.5582 68.3807 34.209 68.3807C35.6321 68.3807 37.0551 67.8592 38.4782 67.0479L38.3074 66.0627Z" fill="#1F1F1F"/>
<path d="M39.6769 66.5262L39.4492 65.599C41.5553 64.44 43.4338 63.5708 46.5645 63.2231C46.6214 64.44 46.5076 65.9467 47.4183 65.9467C48.2152 65.9467 49.9798 63.8605 51.9721 61.1948C52.1998 61.3687 52.4844 61.5425 52.7121 61.7743L52.1998 62.4118C50.2075 64.9616 48.5568 67.1637 47.2476 67.1637C45.9384 67.1637 45.483 65.657 45.483 64.498C43.4338 64.6718 41.5553 65.3672 39.6769 66.5262Z" fill="#1F1F1F"/>
<path d="M66.7126 45.6068C65.9157 45.6068 65.688 45.1432 65.688 44.5637C65.688 43.2308 66.4849 41.3764 66.9972 40.2754H65.8018C65.1757 41.5503 62.6711 45.6068 61.248 47.2873L61.988 48.1566C62.728 47.3453 63.5249 45.9545 64.4357 44.5637H64.6065C64.6065 44.6216 64.6065 44.7375 64.6065 44.7955C64.6065 46.0124 65.2326 46.8237 66.6557 46.8237C67.5664 46.8237 68.9325 46.3601 70.2987 45.8965C71.4371 45.5488 72.4048 45.1432 72.9171 44.9693V43.7524C72.3479 43.9262 71.1525 44.3898 69.9571 44.7955C68.7049 45.2591 67.4526 45.6068 66.7126 45.6068Z" fill="#1F1F1F"/>
<path d="M69.3871 49.4314C70.5825 48.9098 72.8024 47.9826 74.0547 47.519V46.2441C71.4932 47.1713 67.0533 49.0837 63.9795 50.7642C64.0364 50.8222 64.6056 51.6335 64.6626 51.6914C65.9718 51.1699 67.1102 50.7642 68.1348 50.7642C69.6148 50.7642 70.8102 50.7642 72.8024 50.2427V49.3155C71.664 49.5473 70.5256 49.7791 69.6717 49.7791C69.2163 49.7791 69.0456 49.7211 69.0456 49.5473C69.2163 49.5473 69.2733 49.4893 69.3871 49.4314Z" fill="#1F1F1F"/>
<path d="M42.7549 56.2109H47.9917L47.5933 55.2837H43.2672L42.7549 56.2109Z" fill="#1F1F1F"/>
<path d="M24.4252 60.9634C24.9375 60.9634 25.4498 60.7316 25.8482 60.6157C26.2467 60.4418 26.6452 60.268 27.2144 60.268C28.5236 60.268 30.1743 60.9054 31.5974 61.4849C31.6543 61.5429 31.7682 61.5429 31.8251 61.5429C32.0528 61.5429 32.2235 61.4849 32.3374 61.1952L32.5651 60.8475C30.9712 59.9203 28.4667 58.9351 27.2144 58.9351C26.5882 58.9351 26.1898 59.109 25.7344 59.2828C25.279 59.5146 24.8806 59.6305 24.4252 59.6305C23.4006 59.6305 20.7252 58.5874 20.7252 57.6023C20.7252 56.3853 24.9375 55.9797 25.3929 55.9797L25.8482 55.0525C22.8314 55.0525 19.1314 56.0956 19.1314 57.5443C19.1314 57.95 19.3591 58.1818 19.3591 58.5874C19.3591 59.109 19.1314 59.4567 19.1314 60.0941C19.1314 60.4418 19.3591 60.9634 19.6437 61.427C19.9283 61.8906 20.2699 62.1803 20.2699 62.528C20.2699 62.8178 20.0422 63.1655 20.0422 63.8029C20.0422 65.1937 20.7822 66.063 22.3191 67.6856L22.6606 68.0333C21.3514 68.5548 19.0176 69.54 18.4484 69.8297C16.5699 70.641 16.0576 71.6262 16.0576 73.1908C16.0576 73.8283 16.0576 74.5237 16.1145 75.1031H16.4561C17.1961 75.1031 17.3099 74.6395 17.3099 74.1759C17.3099 73.8282 17.3099 73.5385 17.3099 73.1328C17.3099 72.2636 17.3668 71.5103 18.733 70.8728C19.2453 70.641 22.0345 69.54 24.0267 68.6707C24.6529 68.4389 25.1652 68.1492 25.7913 68.1492C26.4744 68.1492 27.2713 68.4389 28.239 69.0764C29.0359 69.5979 29.9466 70.2933 30.6297 70.9887L31.5405 70.3513C30.8005 69.4241 29.7759 68.6707 28.6944 68.0333C27.6698 67.3958 26.7021 67.0481 25.9621 67.0481C25.6206 67.0481 25.3359 67.1061 25.1083 67.164C24.8236 67.222 24.596 67.3379 24.2544 67.3379C23.9129 67.3379 23.5714 67.2799 23.0591 66.7004C22.8883 66.4686 21.7498 65.1937 21.5791 64.846C21.4652 64.6722 21.2375 64.3245 21.2375 63.9188C21.2375 63.745 21.2945 63.5711 21.4083 63.3393C22.3191 64.0927 23.5714 64.5563 24.9375 64.6722L24.7098 63.687C22.6606 63.1655 20.4406 61.3111 20.4406 60.0941C20.4406 59.8623 20.4976 59.6305 20.6114 59.4567C21.5791 60.21 23.4006 60.9634 24.4252 60.9634Z" fill="#1F1F1F"/>
<path d="M39.166 61.1369C40.4752 60.2097 41.7844 60.0938 42.866 60.0938C43.4921 60.0938 44.289 60.1517 45.029 60.3256C45.6552 60.3835 46.2244 60.4994 46.9074 60.4994C48.3305 60.4994 49.7536 59.9779 50.3228 59.7461C50.4935 59.9779 50.8351 60.2676 51.0628 60.4994C50.7212 60.7312 48.8997 61.7164 46.9644 61.7164C46.1105 61.7164 45.3136 61.6584 44.6306 61.4846C44.0044 61.4266 43.3213 61.3107 42.7521 61.3107C42.0121 61.3107 40.5891 61.5425 39.7352 61.9482L39.166 61.1369Z" fill="#1F1F1F"/>
<path d="M58.123 64.9045C56.5861 68.2077 54.3092 70.5836 51.9184 71.9165C50.78 72.5539 49.7554 72.9596 47.5354 72.9596H42.754C41.0463 72.9596 40.0217 73.1914 39.1109 73.4232C38.2002 73.655 37.6309 73.9447 36.7202 73.9447C35.411 73.9447 34.1587 73.3073 33.5325 72.6119L34.671 71.6847L34.1018 70.9313C33.7602 71.1631 29.7757 74.1765 28.9218 74.814L28.8649 74.756C28.9218 74.5242 28.9218 74.4083 28.9218 74.1765C28.9218 71.8585 27.8972 71.337 26.3034 70.6995L25.2788 71.337C27.4419 72.0903 28.0111 72.6698 28.0111 74.3504C28.0111 75.6832 27.5557 76.1468 26.8726 76.5525C26.1896 76.9581 25.3357 77.1899 24.5957 77.1899C24.2542 77.1899 24.1404 77.2479 24.0265 77.3638C23.9127 77.4797 23.7988 77.7115 23.7988 77.9433V78.291H24.0265C25.3927 78.291 26.6449 78.0592 28.0111 76.9581L32.5649 73.3652C33.191 74.1186 34.8418 75.1617 36.7771 75.1617C37.8586 75.1617 38.5417 74.9299 39.5663 74.6401C40.3063 74.4083 41.1032 74.2924 42.754 74.2924H47.5354C49.9831 74.2924 51.1784 73.7709 52.4877 73.0175C55.3338 71.3949 57.7245 68.6713 59.0906 65.484C58.7491 65.3102 58.4076 65.0784 58.123 64.9045Z" fill="#1F1F1F"/>
<path d="M50.4372 68.7864C51.6325 66.7581 52.771 65.0196 55.5033 63.5129C55.2187 63.3391 54.8202 63.0493 54.5925 62.8755C53.5679 63.3391 52.4864 64.2663 51.5756 65.1935C49.5833 67.3956 49.6972 68.6125 47.5911 69.4818C47.0788 69.7136 46.3957 69.9454 45.5419 70.1192C45.0296 68.5546 43.7773 66.9899 42.4681 66.9899C41.5573 66.9899 40.4758 67.5115 39.2235 68.033C37.7435 68.6705 36.4912 69.3659 36.0928 69.6556L36.662 70.409C37.1174 70.1772 38.3127 69.5397 39.565 69.0182C40.5896 68.5546 41.5573 68.2069 42.2973 68.2069C43.3219 68.2069 44.0619 69.4238 44.4034 70.409C43.0373 70.7567 40.7604 70.8146 40.0773 70.8146C39.7358 70.8146 39.622 70.8726 39.565 70.9885C39.5081 71.0464 39.3373 71.2203 39.3373 71.51L39.2804 71.8577H40.0204C43.8342 71.8577 47.4772 71.2203 49.7541 69.8295C50.0956 69.8874 50.3803 70.0033 50.7218 70.0033C52.031 70.0033 53.4541 69.25 54.251 68.5546C54.5925 68.3228 54.5925 68.091 54.5925 67.8592C54.5925 67.7433 54.5925 67.6274 54.5356 67.5115L54.4787 67.1058C53.2833 68.091 52.2018 68.8443 50.9495 68.8443C50.7218 68.9023 50.551 68.8443 50.4372 68.7864Z" fill="#1F1F1F"/>
</svg>
