<svg width="180" height="120" viewBox="0 0 180 120" fill="none" xmlns="http://www.w3.org/2000/svg">
<path d="M37.0747 97.004L39.3987 96.8033L39.8467 96.2834V74.431H37V72.5158L44.5322 70.1718H46.6509V72.835C50.3937 70.6826 51.859 70.1262 53.7817 70.1262C58.2618 70.1262 61.6873 74.2669 61.6873 79.7208C61.6873 86.0869 57.0018 90.3461 50.0763 90.3461C49.2643 90.3461 47.9576 90.264 46.6509 90.1454V96.2743L47.1829 96.7942L49.871 96.9948L49.787 99.1016H37.0747V97.004ZM46.6509 87.8927C47.1829 87.9748 47.4256 87.9748 47.7523 87.9748C51.9524 87.9748 54.1924 85.4302 54.1924 80.6511C54.1924 76.5925 52.3537 74.4401 48.975 74.4401C48.4056 74.4401 47.8363 74.4766 46.6509 74.6408V87.8927Z" fill="#1F1F1F"/>
<path d="M70.8129 70.2536C71.1396 71.6855 71.2982 72.7617 71.3449 73.6372L71.7929 83.3505L77.7384 72.3695V71.2112L83.8892 70.737L84.6639 85.8586L89.9187 78.7356L88.78 71.4119C89.8813 70.4542 90.656 70.135 91.9161 70.135C93.9134 70.135 95.2575 71.3663 95.2575 73.2359C95.2575 75.1877 94.1561 77.4952 91.4307 81.1981C90.572 82.3564 88.052 85.4208 83.8985 90.355H79.0918L78.1584 76.6652L70.5422 90.355H65.3714L65.7821 88.5674L65.1288 74.1571L61.0967 73.5187V71.9317L68.4702 70.2627H70.8129V70.2536Z" fill="#1F1F1F"/>
<path d="M107.947 72.2874C104.484 72.8073 102.692 75.3154 102.692 79.6476C102.692 84.0254 105.1 86.9348 108.684 86.9348C110.392 86.9348 111.942 86.4149 115.115 84.901V88.4397C111.242 90.1543 109.011 90.6651 105.866 90.6651C102.487 90.6651 100.125 89.7895 98.1653 87.8833C96.2146 85.9772 95.1973 83.4691 95.1973 80.6417C95.1973 74.3943 100.004 70.135 107.051 70.135C111.736 70.135 114.947 72.2054 114.947 75.1877C114.947 77.176 113.444 78.4893 111.204 78.4893C110.066 78.4893 109.123 78.2066 107.947 77.5317V72.2874Z" fill="#1F1F1F"/>
<path d="M104.264 53.8096H84.3369V58.9444H104.264V53.8096Z" fill="#1F1F1F"/>
<path d="M123.745 20H104.257V24.0677H123.745V20Z" stroke="#1F1F1F" stroke-width="1.05469"/>
<path d="M127.356 24.0679H123.744V29.9505H127.356V24.0679Z" stroke="#1F1F1F" stroke-width="1.05469"/>
<path d="M123.745 24.0679H104.257V29.9505H123.745V24.0679Z" stroke="#1F1F1F" stroke-width="1.05469"/>
<path d="M137.213 29.95H127.356V44.497H137.213V29.95Z" stroke="#1F1F1F" stroke-width="1.05469"/>
<path d="M127.356 29.95H123.744V44.497H127.356V29.95Z" stroke="#1F1F1F" stroke-width="1.05469"/>
<path d="M116.306 44.497H123.745V29.95H104.257V39.6814H116.306V44.497Z" stroke="#1F1F1F" stroke-width="1.05469"/>
<path d="M142.471 44.4973H137.216V53.8092H142.471V44.4973Z" stroke="#1F1F1F" stroke-width="1.05469"/>
<path d="M137.213 44.4973H127.356V53.8092H137.213V44.4973Z" stroke="#1F1F1F" stroke-width="1.05469"/>
<path d="M127.356 44.4973H123.744V53.8092H127.356V44.4973Z" stroke="#1F1F1F" stroke-width="1.05469"/>
<path d="M123.756 44.4973H116.308V53.8092H123.756V44.4973Z" stroke="#1F1F1F" stroke-width="1.05469"/>
<path d="M116.297 39.6824H104.257V44.498H116.297V39.6824Z" stroke="#1F1F1F" stroke-width="1.05469"/>
<path d="M116.297 44.4973H104.257V53.8092H116.297V44.4973Z" stroke="#1F1F1F" stroke-width="1.05469"/>
</svg>
