<svg width="180" height="120" viewBox="0 0 180 120" fill="none" xmlns="http://www.w3.org/2000/svg">
<path fill-rule="evenodd" clip-rule="evenodd" d="M110.581 20.395H103.565V21.7378H103.656C104.049 21.7989 104.473 21.7989 104.987 21.8294L105.138 21.982C106.71 23.4774 108.222 25.0949 109.613 26.7734V26.865C109.704 27.8721 109.643 28.7571 109.492 29.5201V29.5506C108.857 29.7032 108.162 29.7643 107.406 29.7337V31.0766H115.086V30.985V30.4967V29.7337H114.995C114.27 29.7337 113.635 29.7032 113.03 29.5811V29.5201C112.818 28.7571 112.758 27.8416 112.849 26.7734H112.909C114.391 25.1254 115.903 23.5079 117.415 21.8904H117.505C117.898 21.7683 118.382 21.7378 118.957 21.7378V21.6768V20.395H118.866C116.961 20.3645 115.147 20.395 113.393 20.4865V21.7378H113.453C113.937 21.6463 114.27 21.7378 114.451 21.9514C114.451 21.982 114.451 21.982 114.421 22.0125C113.756 23.0806 112.909 23.9962 111.941 24.7592C111.427 24.3624 110.913 23.9657 110.49 23.4774C110.036 22.9891 109.674 22.4703 109.462 21.9514V21.9209C109.734 21.7378 110.097 21.6768 110.55 21.7378V21.6768L110.581 20.395Z" fill="#1F1F1F"/>
<path fill-rule="evenodd" clip-rule="evenodd" d="M91.9186 20.4854H86.4455V20.5464C86.385 21.0347 86.4153 21.4619 86.506 21.8282H86.5967C87.4131 21.7061 88.0784 21.7977 88.532 22.1028C88.6227 22.1028 88.6832 22.1334 88.6832 22.2554C88.7436 23.934 88.7739 25.643 88.8041 27.4131C88.8343 28.3287 88.7134 29.0611 88.5017 29.6715C88.4715 29.6715 88.4412 29.6715 88.4412 29.702C87.897 29.8546 87.2317 29.8851 86.4758 29.8241V31.1669H92.9165V31.1059V30.526V29.8241H92.856C91.9791 29.9156 91.3139 29.8241 90.8603 29.5494C90.8301 29.4884 90.7998 29.4578 90.7998 29.3968C90.6486 27.4741 90.6486 25.582 90.7696 23.6593C91.1627 24.1781 91.6163 24.6359 92.1001 25.0632C94.0353 26.8638 95.9101 28.6644 97.8151 30.4955C98.0267 30.6786 98.2384 30.9227 98.4803 31.1364H98.5408C99.3875 31.1669 100.204 31.1364 100.99 31.0753C100.96 30.8922 100.96 30.6786 100.99 30.4955L100.899 24.2697C100.869 23.4457 100.93 22.6827 101.081 22.1028C101.081 22.0723 101.081 22.0418 101.111 22.0418C101.534 21.8282 102.109 21.7366 102.835 21.8282V21.7366V20.4854H96.666V20.5464C96.6055 21.0347 96.6358 21.4619 96.7265 21.8282H96.8172C97.6034 21.6756 98.2082 21.7977 98.6315 22.1028H98.6617C98.8129 23.6593 98.8129 25.2157 98.692 26.7722C98.6315 26.6806 98.5408 26.6196 98.4803 26.528C96.3334 24.5443 94.1865 22.4996 92.0396 20.5159C91.9186 20.4854 91.9186 20.4854 91.9186 20.4854Z" fill="#1F1F1F"/>
<path fill-rule="evenodd" clip-rule="evenodd" d="M66.3696 20.4255C66.1882 20.5476 66.037 20.7002 66.037 20.9748C65.9765 21.1274 65.8556 21.158 65.6439 21.0969C64.7972 20.6391 63.7691 20.334 62.6201 20.2119C59.4148 19.8457 56.9957 20.4865 55.4233 22.104V22.1956C55.2419 22.5618 55.121 22.9891 55 23.4469V23.5079C55.0302 24.1488 55.1512 24.6371 55.4233 25.0643C56.0886 25.8273 57.026 26.2851 58.2657 26.5292C59.4148 26.7124 60.5941 26.926 61.8339 27.0175C63.2853 27.1701 64.4646 27.5364 65.402 28.1773V28.2688C65.4927 28.7266 65.3415 29.0928 65.0391 29.3675C64.3739 29.6727 63.5272 29.8558 62.5596 29.9168C59.5357 30.0084 57.5703 29.0623 56.6933 27.0481H55.0907V31.046H56.6933C56.6933 31.0155 56.7236 31.0155 56.7236 31.0155C56.8143 30.8324 56.8748 30.6187 56.9655 30.4662C56.9957 30.4051 56.9957 30.3441 57.026 30.3136C57.0562 30.283 57.0562 30.283 57.0864 30.283C57.2981 30.3441 57.5098 30.4051 57.7214 30.4356C58.4774 30.6187 59.2938 30.8324 60.1708 31.0155C62.2572 31.4733 64.2227 31.3817 66.0975 30.7713C66.3696 30.6798 66.6115 30.5882 66.8534 30.4356C67.6094 29.9779 68.063 29.3064 68.3049 28.4214C68.5165 27.4753 68.3956 26.7734 67.8815 26.3156C66.8232 25.3085 65.3113 24.7286 63.4667 24.5761C61.5315 24.4235 59.7777 24.0572 58.2657 23.4774C58.2355 23.4774 58.2355 23.4469 58.2355 23.4163C58.0843 23.2943 57.9936 23.0501 57.9634 22.7754C58.3867 21.9514 59.2334 21.4937 60.4731 21.4326C62.9829 21.28 64.8577 22.0125 66.1579 23.5384V23.5995C66.1882 23.8131 66.2789 24.0267 66.3394 24.1488H67.7908V24.0878V20.395H66.4301C66.4301 20.395 66.3998 20.395 66.3696 20.4255Z" fill="#1F1F1F"/>
<path fill-rule="evenodd" clip-rule="evenodd" d="M104.202 47.8003C104.807 45.3283 103.899 43.314 101.48 41.8186C99.6358 40.2622 97.368 39.4992 94.6465 39.4992C88.8408 39.4992 85.9682 41.3608 85.9682 45.0536C85.9682 47.4951 88.4175 49.4788 93.2858 51.0047L108.314 55.1553C112.064 56.1624 115.299 57.3526 117.99 58.6649V81.6455H106.409C106.47 81.2487 106.5 80.8825 106.5 80.4552C106.5 78.2884 105.26 76.732 102.841 75.8469C101.027 74.9008 96.6423 73.3749 89.627 71.2386C80.7974 68.7666 74.7196 66.4777 71.3934 64.3414C65.9202 60.6486 63.1686 55.2773 63.1988 48.2275C63.1686 42.9478 64.3781 38.431 66.7669 34.6772H117.99V47.8003H104.202Z" fill="white"/>
<path fill-rule="evenodd" clip-rule="evenodd" d="M118.621 34.0364C118.561 33.9753 118.44 33.9143 118.349 33.9143H55.3931C55.3024 33.9143 55.2117 33.9448 55.1512 34.0364C55.0605 34.1279 55 34.189 55 34.311V82.0423C55 82.1643 55.0605 82.2254 55.1512 82.3169C55.2117 82.4085 55.3024 82.439 55.3931 82.439H118.349C118.44 82.439 118.561 82.4085 118.621 82.3169C118.682 82.2559 118.742 82.1338 118.742 82.0423V34.311C118.742 34.2195 118.682 34.0974 118.621 34.0364ZM117.956 81.6455H55.7862V34.6773H117.956V81.6455Z" fill="#1F1F1F"/>
<path d="M88.1697 74.7173H64.5537V81.645H88.1697V74.7173Z" fill="white"/>
<path fill-rule="evenodd" clip-rule="evenodd" d="M117.955 47.7998V58.6645C115.264 57.3217 112.058 56.1314 108.279 55.1548L93.2502 51.0043C88.3819 49.4784 85.9326 47.4947 85.9326 45.0532C85.9326 41.3604 88.8052 39.4988 94.611 39.4988C97.3324 39.4988 99.6003 40.2617 101.445 41.8182C103.864 43.3136 104.771 45.3278 104.166 47.7998H117.955Z" fill="#1F1F1F"/>
<path fill-rule="evenodd" clip-rule="evenodd" d="M106.467 80.4552C106.467 80.8825 106.437 81.2487 106.377 81.6455H88.1732V74.7177H64.5572V81.6455H55.7881V34.6772H66.7646C64.3757 38.4616 63.1662 42.9783 63.1965 48.2275C63.1662 55.2773 65.9179 60.6486 71.391 64.3414C74.7475 66.4777 80.8253 68.7666 89.6247 71.2386C96.6399 73.3749 101.024 74.9008 102.839 75.8469C105.228 76.7625 106.467 78.2884 106.467 80.4552Z" fill="#1F1F1F"/>
<path fill-rule="evenodd" clip-rule="evenodd" d="M116.569 87.8411H117.385V86.8645H116.569V85.5828H114.966V86.8645H114.24V87.8411H114.966V89.8248C114.966 90.3437 115.117 90.7099 115.42 90.893C115.631 91.0456 115.964 91.0761 116.417 91.0761L117.415 91.0456V89.8248L117.052 89.8554C116.871 89.8554 116.72 89.8248 116.659 89.7028C116.599 89.6112 116.569 89.4891 116.569 89.2755V87.8411Z" fill="#1F1F1F"/>
<path fill-rule="evenodd" clip-rule="evenodd" d="M110.82 87.3831L110.79 86.8643H109.278V91.0453H110.851V88.848C110.851 88.3292 111.062 88.0545 111.486 88.0545C111.697 88.0545 111.849 88.1461 111.939 88.2681C112 88.4207 112.03 88.5733 112.03 88.8785V91.0759H113.633V88.1766C113.633 87.7188 113.481 87.3831 113.179 87.1084C112.937 86.8643 112.605 86.7422 112.181 86.7422C111.546 86.7727 111.093 86.9558 110.82 87.3831Z" fill="#1F1F1F"/>
<path d="M89.6262 85.2766H88.0537V86.3753H89.6262V85.2766Z" fill="#1F1F1F"/>
<path fill-rule="evenodd" clip-rule="evenodd" d="M86.996 90.1295V88.4205C86.996 87.8711 86.9053 87.5049 86.7843 87.3218C86.4819 86.9556 85.9074 86.803 85.0305 86.803C83.6698 86.803 82.9441 87.2608 82.9138 88.1763H84.3653C84.3955 87.9016 84.5769 87.7491 84.97 87.7491C85.3027 87.7491 85.4538 87.9016 85.4538 88.1458C85.4538 88.3289 85.3026 88.451 85.0305 88.512L84.3048 88.6341C84.0326 88.6951 83.7907 88.7256 83.5488 88.7867C82.9743 89.0003 82.7021 89.3971 82.7021 89.9464C82.7021 90.3736 82.8533 90.7094 83.1255 90.923C83.3976 91.1366 83.7303 91.2282 84.1838 91.2282C84.7886 91.2282 85.2422 91.0756 85.5446 90.7094C85.5446 90.8619 85.5446 90.984 85.605 91.1366H87.2379C87.0565 90.8619 86.996 90.5568 86.996 90.1295ZM85.4538 89.5496C85.4538 90.0074 85.2422 90.1905 84.8188 90.1905C84.6676 90.1905 84.5467 90.16 84.456 90.0685C84.335 90.0074 84.3048 89.9159 84.3048 89.8243C84.3048 89.6717 84.335 89.5802 84.456 89.4886C84.5165 89.4276 84.6072 89.3971 84.8491 89.3665C85.1212 89.3055 85.3027 89.2139 85.4538 89.1529V89.5496Z" fill="#1F1F1F"/>
<path fill-rule="evenodd" clip-rule="evenodd" d="M92.2863 87.3831L92.256 86.8643H90.7441V91.0453H92.3165V88.848C92.3165 88.3292 92.5282 88.0545 92.9515 88.0545C93.1632 88.0545 93.3144 88.1461 93.4051 88.2681C93.4656 88.4207 93.4958 88.5733 93.4958 88.8785V91.0759H95.0984V88.1766C95.0984 87.7188 94.9472 87.3831 94.6449 87.1084C94.3727 86.8643 94.0703 86.7422 93.647 86.7422C93.0422 86.7727 92.5584 86.9558 92.2863 87.3831Z" fill="#1F1F1F"/>
<path fill-rule="evenodd" clip-rule="evenodd" d="M89.6262 86.8635H88.0537V91.0446H89.6262V86.8635Z" fill="#1F1F1F"/>
<path fill-rule="evenodd" clip-rule="evenodd" d="M81.3655 85.5828H79.8233V86.8645H79.0674V87.8411H79.8233V89.8248C79.8233 90.3437 79.9745 90.7099 80.2769 90.893C80.4583 91.0456 80.791 91.0761 81.2445 91.0761L82.2726 91.0456V89.8248L81.9098 89.8554C81.7283 89.8554 81.5772 89.8248 81.5167 89.7028C81.4562 89.6112 81.3957 89.4891 81.3957 89.2755V87.8106H82.2424V86.834H81.3957L81.3655 85.5828Z" fill="#1F1F1F"/>
<path fill-rule="evenodd" clip-rule="evenodd" d="M78.2832 88.116C78.4949 88.116 78.7368 88.1771 78.9182 88.2381V86.8342C78.767 86.7732 78.5856 86.7732 78.4646 86.7732C77.9506 86.7732 77.5272 87.0173 77.2853 87.5362V86.8648H75.7432V91.0458H77.3458V89.3673C77.3458 88.5738 77.6482 88.116 78.2832 88.116Z" fill="#1F1F1F"/>
<path d="M106.135 90.1297C105.651 90.1297 105.379 89.8551 105.349 89.3363H108.403C108.403 87.6272 107.617 86.7422 106.044 86.7422C105.409 86.7422 104.865 86.9253 104.442 87.3831C104.018 87.8103 103.837 88.3291 103.837 88.97C103.837 89.6414 104.049 90.1908 104.502 90.5875C104.956 90.9843 105.5 91.1674 106.165 91.1674C106.649 91.1674 107.103 91.0453 107.465 90.8317C107.889 90.5875 108.161 90.2823 108.312 89.8246H106.83C106.679 90.0382 106.468 90.1297 106.135 90.1297ZM106.165 87.7798C106.377 87.7798 106.528 87.8714 106.649 87.9934C106.8 88.1155 106.861 88.2681 106.861 88.4512H105.319C105.44 87.9934 105.712 87.7798 106.165 87.7798Z" fill="#1F1F1F"/>
<path fill-rule="evenodd" clip-rule="evenodd" d="M102.655 87.2C102.413 86.8948 102.05 86.7422 101.566 86.7422C101.112 86.7422 100.81 86.8643 100.508 87.0474L100.266 87.261L100.175 87.4136C100.054 87.2 99.9029 87.0474 99.6912 86.9253C99.5098 86.8032 99.2679 86.7727 99.0562 86.7727C98.4212 86.7727 97.9676 86.9863 97.6955 87.4441V86.8948H96.1533V91.0759H97.7257V88.787C97.7257 88.2986 97.9071 88.024 98.27 88.024C98.4817 88.024 98.6631 88.1155 98.7236 88.2376C98.7841 88.3597 98.8143 88.5123 98.8143 88.7564V91.0453H100.417V88.7564C100.417 88.2681 100.568 87.9935 100.931 87.9935C101.143 87.9935 101.294 88.085 101.385 88.2071C101.445 88.3292 101.475 88.4818 101.475 88.7259V91.0148H103.078V88.1155C102.987 87.7798 102.866 87.4441 102.655 87.2Z" fill="#1F1F1F"/>
<path fill-rule="evenodd" clip-rule="evenodd" d="M60.5969 85.2766H55.8496V91.0447H60.6876V89.5798H57.6034V88.8778H60.2946V87.474H57.6034V86.772H60.5969V85.2766Z" fill="#1F1F1F"/>
<path fill-rule="evenodd" clip-rule="evenodd" d="M61.6826 86.8643V91.0453H63.255V88.848C63.255 88.3292 63.4667 88.0545 63.89 88.0545C64.1017 88.0545 64.2529 88.1461 64.3436 88.2681C64.4041 88.4207 64.4343 88.5733 64.4343 88.8785V91.0759H66.037V88.1766C66.037 87.7188 65.8858 87.3831 65.5834 87.1084C65.3415 86.8643 65.0089 86.7422 64.5855 86.7422C63.9807 86.7422 63.5272 86.9253 63.2248 87.3831H63.1945V86.8643H61.6826Z" fill="#1F1F1F"/>
<path fill-rule="evenodd" clip-rule="evenodd" d="M72.6282 90.1297C72.1444 90.1297 71.8722 89.8551 71.842 89.3363H74.8658C74.8658 87.6272 74.1099 86.7422 72.5375 86.7422C71.8722 86.7422 71.3582 86.9253 70.9046 87.3831C70.5115 87.8103 70.3301 88.3291 70.3301 88.97C70.3301 89.6414 70.5115 90.1908 70.9651 90.5875C71.4187 90.9843 71.9932 91.1674 72.6584 91.1674C73.1423 91.1674 73.5958 91.0453 73.9587 90.8317C74.3518 90.5875 74.6542 90.2823 74.7751 89.8246H73.2934C73.1725 90.0382 72.9608 90.1297 72.6282 90.1297ZM72.6584 87.7798C72.8399 87.7798 73.0213 87.8714 73.1423 87.9934C73.2632 88.1155 73.3237 88.2681 73.3237 88.4512H71.8118C71.9025 87.9934 72.1746 87.7798 72.6584 87.7798Z" fill="#1F1F1F"/>
<path fill-rule="evenodd" clip-rule="evenodd" d="M67.3673 86.8643H66.6416V87.8409H67.3673V89.8246C67.3673 90.3434 67.5185 90.7097 67.8209 90.8928C68.0326 91.0454 68.3652 91.0759 68.8188 91.0759L69.8166 91.0454V89.8246L69.4538 89.8551C69.2724 89.8551 69.1212 89.8246 69.0607 89.7025C69.0002 89.611 68.97 89.4889 68.97 89.2753V87.8104H69.7864V86.8338H68.97V85.552H67.3673V86.8643Z" fill="#1F1F1F"/>
<path d="M80.3126 93.2112H78.71V94.3099H80.3126V93.2112Z" fill="#1F1F1F"/>
<path d="M80.3126 94.7983H78.71V98.9794H80.3126V94.7983Z" fill="#1F1F1F"/>
<path fill-rule="evenodd" clip-rule="evenodd" d="M83.2427 94.6763C82.7287 94.6763 82.2751 94.7678 81.9425 94.9509C81.4889 95.1646 81.247 95.5308 81.247 96.0191C81.247 96.3853 81.3982 96.66 81.6401 96.8736C81.9122 97.0567 82.3658 97.2398 82.9706 97.3314C83.3334 97.3924 83.5753 97.484 83.6963 97.5145C83.787 97.5755 83.8475 97.6671 83.8475 97.7586C83.8475 97.8807 83.787 98.0028 83.666 98.0333C83.5451 98.0638 83.4544 98.0943 83.3334 98.0943C83.152 98.0943 83.0008 98.0638 82.9101 97.9723C82.7589 97.8502 82.7287 97.7586 82.7287 97.6061H81.1865C81.2168 98.0944 81.4284 98.4911 81.882 98.7352C82.2449 98.9489 82.7287 99.0709 83.2729 99.0709C83.8475 99.0709 84.3313 98.9794 84.7244 98.7658C85.1779 98.5216 85.3896 98.0944 85.3896 97.6061C85.3896 97.0262 85.057 96.6295 84.3918 96.4158C84.2103 96.3548 83.9382 96.2938 83.6056 96.2327C83.2729 96.1717 83.1218 96.1412 83.0008 96.1106C82.8496 96.0191 82.8194 95.9581 82.8194 95.897C82.8194 95.6834 82.9706 95.5613 83.3032 95.5613C83.4544 95.5613 83.5451 95.6223 83.666 95.6834C83.787 95.7749 83.8172 95.8665 83.8475 95.9886H85.2687C85.2384 95.5308 85.0268 95.1646 84.5732 94.9204C84.2103 94.7678 83.787 94.6763 83.2427 94.6763Z" fill="#1F1F1F"/>
<path d="M87.8058 93.2112H86.2031V94.3099H87.8058V93.2112Z" fill="#1F1F1F"/>
<path d="M87.8058 94.7983H86.2031V98.9794H87.8058V94.7983Z" fill="#1F1F1F"/>
<path fill-rule="evenodd" clip-rule="evenodd" d="M92.7356 95.3477C92.3123 94.8899 91.7377 94.6763 91.012 94.6763C90.2863 94.6763 89.6816 94.8899 89.2885 95.3477C88.9256 95.7444 88.7744 96.2327 88.7744 96.8736C88.7744 97.5145 88.9256 98.0028 89.2885 98.4301C89.7118 98.8879 90.2863 99.1015 91.012 99.1015C91.7377 99.1015 92.3425 98.8879 92.7356 98.4301C93.0985 98.0028 93.2496 97.5145 93.2496 96.8736C93.2496 96.2327 93.0985 95.7444 92.7356 95.3477ZM91.012 97.9418C90.5585 97.9418 90.3166 97.5755 90.3166 96.8736C90.3166 96.1717 90.5585 95.836 91.012 95.836C91.4656 95.836 91.7075 96.1717 91.7075 96.8736C91.6773 97.5755 91.4354 97.9418 91.012 97.9418Z" fill="#1F1F1F"/>
<path fill-rule="evenodd" clip-rule="evenodd" d="M95.6711 94.7983H94.1592V98.9794H95.7316V96.7821C95.7316 96.2632 95.9432 95.9886 96.3666 95.9886C96.5782 95.9886 96.7597 96.0801 96.8201 96.2022C96.8806 96.3548 96.9108 96.5074 96.9108 96.8126V99.0099H98.5135V96.1106C98.5135 95.6529 98.3623 95.3172 98.0599 95.0425C97.818 94.7983 97.4854 94.6763 97.062 94.6763C96.4573 94.6763 96.0037 94.8594 95.7013 95.3172H95.6711V94.7983Z" fill="#1F1F1F"/>
<path fill-rule="evenodd" clip-rule="evenodd" d="M55.9668 94.6761H57.5694V98.9792H59.3233V94.6761H60.9259V93.2112H55.9668V94.6761Z" fill="#1F1F1F"/>
<path fill-rule="evenodd" clip-rule="evenodd" d="M63.013 98.0639C62.5291 98.0639 62.257 97.7892 62.2268 97.2704H65.2506C65.2506 95.5613 64.4946 94.6763 62.9222 94.6763C62.2872 94.6763 61.7429 94.8594 61.3196 95.3172C60.8963 95.7444 60.7148 96.2632 60.7148 96.9041C60.7148 97.5755 60.9265 98.1249 61.3801 98.5216C61.8337 98.9184 62.378 99.1015 63.0432 99.1015C63.527 99.1015 63.9806 98.9794 64.3435 98.7658C64.7668 98.5216 65.0389 98.2164 65.1901 97.7587H63.7084C63.5573 97.9723 63.3153 98.0639 63.013 98.0639ZM63.013 95.7139C63.2246 95.7139 63.3758 95.8055 63.4968 95.9275C63.648 96.0496 63.7084 96.2022 63.7084 96.3853H62.1663C62.2872 95.9275 62.5594 95.7139 63.013 95.7139Z" fill="#1F1F1F"/>
<path fill-rule="evenodd" clip-rule="evenodd" d="M70.965 98.0639C70.4812 98.0639 70.2091 97.7892 70.1789 97.2704H73.2026C73.2026 95.5613 72.4467 94.6763 70.8743 94.6763C70.2091 94.6763 69.6951 94.8594 69.2415 95.3172C68.8484 95.7444 68.667 96.2632 68.667 96.9041C68.667 97.5755 68.8484 98.1249 69.302 98.5216C69.7555 98.9184 70.2998 99.1015 70.965 99.1015C71.4488 99.1015 71.9024 98.9794 72.2955 98.7658C72.6886 98.5216 72.991 98.2164 73.1119 97.7587H71.6303C71.4791 97.9723 71.2977 98.0639 70.965 98.0639ZM70.965 95.7139C71.1767 95.7139 71.3581 95.8055 71.4488 95.9275C71.6 96.0496 71.6605 96.2022 71.6605 96.3853H70.1486C70.2393 95.9275 70.5115 95.7139 70.965 95.7139Z" fill="#1F1F1F"/>
<path fill-rule="evenodd" clip-rule="evenodd" d="M67.7306 93.2112H66.1279V98.9792H67.7306V93.2112Z" fill="#1F1F1F"/>
<path fill-rule="evenodd" clip-rule="evenodd" d="M75.8947 97.3619L75.2295 94.7983H73.5361L74.8968 98.9794H76.7716L78.1626 94.7983H76.5599L75.9249 97.3619H75.8947Z" fill="#1F1F1F"/>
<path fill-rule="evenodd" clip-rule="evenodd" d="M122.702 80.9739H122.733L123.096 82.3472H123.61L124.003 80.9739V82.3472H124.607V80.1499H123.67L123.368 81.4622H123.337L123.035 80.1499H122.067V82.3472H122.702V80.9739Z" fill="#1F1F1F"/>
<path fill-rule="evenodd" clip-rule="evenodd" d="M121.221 80.6992H121.826V80.1499H119.921V80.6992H120.556V82.3472H121.221V80.6992Z" fill="#1F1F1F"/>
<path fill-rule="evenodd" clip-rule="evenodd" d="M85.8741 25.6436C85.8439 23.6599 85.1484 22.2255 83.9087 21.4625C82.7294 20.7301 81.3384 20.3028 79.6753 20.1197C77.7099 19.9061 76.0468 19.9671 74.5349 20.3944C72.0251 21.0353 70.5434 22.6833 70.1201 25.3994C70.1806 27.2611 70.7249 28.6039 71.7832 29.4584C72.267 29.8857 72.8415 30.2214 73.4463 30.4961C74.9884 31.1675 76.8934 31.4421 79.1008 31.3201C80.4615 31.198 81.6711 30.9233 82.6689 30.4961C83.7877 29.9772 84.6646 29.1838 85.2996 28.1766C85.6927 27.5052 85.8741 26.6507 85.8741 25.6436ZM77.982 29.8857C75.4723 29.8857 73.4463 27.9935 73.4463 25.6741C73.4463 23.3547 75.4723 21.4625 77.982 21.4625C80.4918 21.4625 82.5177 23.3547 82.5177 25.6741C82.5177 27.9935 80.4918 29.8857 77.982 29.8857Z" fill="#1F1F1F"/>
</svg>
